<svg id="Layer_1" data-name="Layer 1" xmlns="http://www.w3.org/2000/svg" viewBox="0 0 163.36 179.49"><defs><style>.cls-1{fill:#fff;}.cls-2{fill:#4d4d4d;}</style></defs><path class="cls-1" d="M38.68,178.63l3-93.51A3.52,3.52,0,0,1,44,81.92C69.32,72.4,74.68,44.64,75.76,35.73a3.16,3.16,0,0,1,3.14-2.79h35.36a3.17,3.17,0,0,1,3.14,2.79c1.08,8.91,6.44,36.67,31.81,46.19a3.52,3.52,0,0,1,2.28,3.2l3,93.51a3.15,3.15,0,0,1-3.16,3.26H41.85A3.17,3.17,0,0,1,38.68,178.63Z" transform="translate(-14.9 -3.89)"/><path class="cls-2" d="M177.27,90a13.5,13.5,0,0,0-6.14-6.45,26,26,0,0,0-7-2.51,50.84,50.84,0,0,0-10.71-1c-1.29,0-2.3.06-3,.11l-1.1.08h0l-.12,0C125.39,71,120.05,44.7,118.93,36V26.35a22.33,22.33,0,1,0-44.66,0v9.36c-1,8.32-6.21,35.13-30.22,44.57l-.16,0-1.1-.08c-.7,0-1.71-.09-3-.11a50.79,50.79,0,0,0-10.71,1,26,26,0,0,0-7,2.51A13.5,13.5,0,0,0,15.89,90a15,15,0,0,0-.48,9.31,34.25,34.25,0,0,0,3.31,8.33A80.75,80.75,0,0,0,23.33,115c1.53,2.27,3,4.56,4.25,6.82a39.84,39.84,0,0,1,3.07,6.64,13.13,13.13,0,0,1,.78,6,7.59,7.59,0,0,1-2.14,4.22,14.43,14.43,0,0,1-3.19,2.44c-1,.58-1.84,1-2.42,1.25l-.89.39-.05,0a1.51,1.51,0,0,0,1.2,2.78l1-.41c.63-.27,1.56-.7,2.72-1.34a17.34,17.34,0,0,0,3.93-2.91,10.89,10.89,0,0,0,3.11-5.91,16.56,16.56,0,0,0-.78-7.55,43.65,43.65,0,0,0-3.2-7.3c-1.3-2.41-2.74-4.78-4.28-7.17a75.13,75.13,0,0,1-4.28-7.07,30.92,30.92,0,0,1-2.8-7.39,11.06,11.06,0,0,1,.39-6.78,9.28,9.28,0,0,1,4.36-4.3A21.82,21.82,0,0,1,30,85.42a45.51,45.51,0,0,1,9.73-.69l.52,0a3.16,3.16,0,0,0,0,.32l-3,93.51a4.66,4.66,0,0,0,4.65,4.8H151.31a4.65,4.65,0,0,0,4.64-4.8l-3-93.51a3.16,3.16,0,0,0,0-.32l.52,0a45.51,45.51,0,0,1,9.73.69,21.82,21.82,0,0,1,5.88,1.94,9.33,9.33,0,0,1,4.36,4.3,11.06,11.06,0,0,1,.39,6.78,30.54,30.54,0,0,1-2.81,7.39,73,73,0,0,1-4.27,7.07c-1.54,2.39-3,4.76-4.28,7.17a43.65,43.65,0,0,0-3.2,7.3,16.43,16.43,0,0,0-.78,7.55,11,11,0,0,0,3.1,5.91,17.59,17.59,0,0,0,3.94,2.91,28.11,28.11,0,0,0,2.72,1.34l1,.41a1.51,1.51,0,0,0,1.2-2.78l0,0-.89-.39c-.58-.27-1.42-.67-2.42-1.25a14.21,14.21,0,0,1-3.19-2.44,7.66,7.66,0,0,1-2.15-4.22,13.29,13.29,0,0,1,.79-6,39.84,39.84,0,0,1,3.07-6.64c1.27-2.26,2.72-4.55,4.25-6.82a83,83,0,0,0,4.61-7.32,34.66,34.66,0,0,0,3.31-8.33A15.12,15.12,0,0,0,177.27,90ZM96.6,7.44a18.87,18.87,0,0,1,18.78,18.91v5.27a4.59,4.59,0,0,0-1.12-.16H78.9a4.33,4.33,0,0,0-1.08.15V26.35A18.86,18.86,0,0,1,96.6,7.44ZM153,178.68a1.63,1.63,0,0,1-.47,1.22,1.67,1.67,0,0,1-1.21.51H41.85a1.67,1.67,0,0,1-1.21-.51,1.63,1.63,0,0,1-.47-1.22l3-93.52a2,2,0,0,1,1.32-1.86c26.27-9.85,31.71-38.77,32.76-47.39a1.68,1.68,0,0,1,1.67-1.48h35.36a1.68,1.68,0,0,1,1.67,1.48c1,8.44,6.28,36.33,31.15,46.74v0l.11,0c.5.2,1,.41,1.5.6A2.06,2.06,0,0,1,150,85.16Z" transform="translate(-14.9 -3.89)"/><path class="cls-2" d="M144.38,86.28c.42.19.86.37,1.3.55l0,1.39a.6.6,0,0,0,.59.58h0a.59.59,0,0,0,.58-.61L146.84,86l-.36-.14q-.82-.33-1.62-.69a.61.61,0,0,0-.79.31A.6.6,0,0,0,144.38,86.28Z" transform="translate(-14.9 -3.89)"/><path class="cls-2" d="M135.4,81.1a.57.57,0,0,0,.35.12.6.6,0,0,0,.35-1.08c-.91-.65-1.8-1.36-2.66-2.08a.59.59,0,0,0-.76.91C133.56,79.71,134.47,80.43,135.4,81.1Z" transform="translate(-14.9 -3.89)"/><path class="cls-2" d="M118.27,59.77a.6.6,0,0,0,.54.34.57.57,0,0,0,.25-.06.6.6,0,0,0,.28-.79c-.48-1-.94-2.06-1.37-3.1a.59.59,0,0,0-.77-.32.58.58,0,0,0-.32.77C117.31,57.68,117.78,58.74,118.27,59.77Z" transform="translate(-14.9 -3.89)"/><path class="cls-2" d="M112.78,43.46c.23,1.06.5,2.18.81,3.35a.59.59,0,0,0,.57.44.39.39,0,0,0,.15,0,.58.58,0,0,0,.42-.72c-.3-1.15-.56-2.26-.79-3.3a.59.59,0,0,0-.71-.45A.58.58,0,0,0,112.78,43.46Z" transform="translate(-14.9 -3.89)"/><path class="cls-2" d="M114.54,50.12c.33,1.07.69,2.16,1.09,3.27a.61.61,0,0,0,.56.4.71.71,0,0,0,.2,0,.59.59,0,0,0,.36-.76c-.4-1.09-.75-2.17-1.08-3.22a.6.6,0,0,0-.74-.39A.59.59,0,0,0,114.54,50.12Z" transform="translate(-14.9 -3.89)"/><path class="cls-2" d="M138.26,83c1,.6,2,1.18,3,1.73a.67.67,0,0,0,.28.06.59.59,0,0,0,.28-1.11c-1-.53-2-1.1-2.93-1.69a.58.58,0,0,0-.81.19A.6.6,0,0,0,138.26,83Z" transform="translate(-14.9 -3.89)"/><path class="cls-2" d="M121.54,65.84a.59.59,0,0,0,.82.2.6.6,0,0,0,.19-.82c-.58-.94-1.14-1.93-1.68-2.93a.6.6,0,0,0-.8-.25.61.61,0,0,0-.25.81C120.37,63.87,121,64.87,121.54,65.84Z" transform="translate(-14.9 -3.89)"/><path class="cls-2" d="M125.48,71.51a.6.6,0,0,0,.47.23.58.58,0,0,0,.37-.13.59.59,0,0,0,.09-.83c-.69-.88-1.36-1.79-2-2.72a.58.58,0,0,0-.82-.15.6.6,0,0,0-.15.83C124.09,69.69,124.78,70.62,125.48,71.51Z" transform="translate(-14.9 -3.89)"/><path class="cls-2" d="M130.11,76.65a.61.61,0,0,0,.41.16.59.59,0,0,0,.42-1c-.8-.77-1.59-1.59-2.35-2.43a.59.59,0,0,0-.83,0,.58.58,0,0,0-.05.83C128.49,75,129.3,75.85,130.11,76.65Z" transform="translate(-14.9 -3.89)"/><path class="cls-2" d="M110.64,38.81h1.27q.09.6.21,1.26a.59.59,0,0,0,.58.49h.1a.58.58,0,0,0,.48-.68c-.1-.62-.2-1.2-.28-1.74l-.07-.5h-2.29a.58.58,0,0,0-.59.59A.59.59,0,0,0,110.64,38.81Z" transform="translate(-14.9 -3.89)"/><path class="cls-2" d="M102.61,38.81h4a.59.59,0,0,0,.59-.59.58.58,0,0,0-.59-.59h-4a.59.59,0,0,0-.6.59A.6.6,0,0,0,102.61,38.81Z" transform="translate(-14.9 -3.89)"/><path class="cls-2" d="M86.54,38.81h4a.59.59,0,0,0,.59-.59.58.58,0,0,0-.59-.59h-4a.59.59,0,0,0-.6.59A.6.6,0,0,0,86.54,38.81Z" transform="translate(-14.9 -3.89)"/><path class="cls-2" d="M94.57,38.81h4a.59.59,0,0,0,.59-.59.58.58,0,0,0-.59-.59h-4a.58.58,0,0,0-.59.59A.59.59,0,0,0,94.57,38.81Z" transform="translate(-14.9 -3.89)"/><path class="cls-2" d="M80.36,40.55h.1a.59.59,0,0,0,.58-.49q.12-.66.21-1.26h1.27a.59.59,0,0,0,.59-.59.58.58,0,0,0-.59-.59H80.23l-.08.5c-.08.54-.17,1.12-.28,1.74A.59.59,0,0,0,80.36,40.55Z" transform="translate(-14.9 -3.89)"/><path class="cls-2" d="M57.42,81.21a.57.57,0,0,0,.35-.12c.93-.67,1.84-1.39,2.72-2.13a.6.6,0,0,0,.07-.84.59.59,0,0,0-.83-.07c-.86.73-1.75,1.43-2.66,2.09a.59.59,0,0,0-.13.82A.61.61,0,0,0,57.42,81.21Z" transform="translate(-14.9 -3.89)"/><path class="cls-2" d="M62.64,76.8a.61.61,0,0,0,.42-.16c.82-.8,1.62-1.64,2.39-2.5a.59.59,0,0,0,0-.83.6.6,0,0,0-.84,0c-.75.84-1.54,1.66-2.34,2.44a.59.59,0,0,0,0,.83A.58.58,0,0,0,62.64,76.8Z" transform="translate(-14.9 -3.89)"/><path class="cls-2" d="M51.63,84.83a.68.68,0,0,0,.28-.07c1-.54,2-1.12,3-1.73a.59.59,0,0,0,.18-.82.58.58,0,0,0-.81-.18c-1,.59-1.93,1.16-2.93,1.68a.58.58,0,0,0-.24.8A.59.59,0,0,0,51.63,84.83Z" transform="translate(-14.9 -3.89)"/><path class="cls-2" d="M67.22,71.73a.58.58,0,0,0,.46-.23c.71-.89,1.4-1.83,2.06-2.78a.59.59,0,0,0-1-.67c-.65.93-1.33,1.84-2,2.72a.59.59,0,0,0,.1.83A.64.64,0,0,0,67.22,71.73Z" transform="translate(-14.9 -3.89)"/><path class="cls-2" d="M78.85,47.22l.15,0a.6.6,0,0,0,.57-.44c.31-1.17.58-2.29.81-3.35a.59.59,0,1,0-1.16-.26c-.23,1.05-.49,2.15-.79,3.31A.58.58,0,0,0,78.85,47.22Z" transform="translate(-14.9 -3.89)"/><path class="cls-2" d="M76.77,53.74l.2,0a.6.6,0,0,0,.56-.39c.4-1.11.76-2.2,1.09-3.27a.58.58,0,0,0-.39-.74.59.59,0,0,0-.74.39c-.32,1.05-.68,2.12-1.08,3.22A.59.59,0,0,0,76.77,53.74Z" transform="translate(-14.9 -3.89)"/><path class="cls-2" d="M70.81,66a.58.58,0,0,0,.31.08.58.58,0,0,0,.5-.28c.6-1,1.18-2,1.72-3a.59.59,0,1,0-1-.56c-.54,1-1.1,2-1.69,2.94A.6.6,0,0,0,70.81,66Z" transform="translate(-14.9 -3.89)"/><path class="cls-2" d="M74.11,60a.7.7,0,0,0,.25.05.58.58,0,0,0,.53-.34c.49-1,1-2.08,1.4-3.15a.59.59,0,1,0-1.1-.45c-.43,1.05-.89,2.09-1.37,3.1A.6.6,0,0,0,74.11,60Z" transform="translate(-14.9 -3.89)"/><path class="cls-2" d="M48.3,85.19q-.79.36-1.62.69l-.36.14-.06,2.17a.59.59,0,0,0,.58.61h0a.59.59,0,0,0,.59-.58l0-1.39,1.3-.55a.59.59,0,0,0,.3-.78A.59.59,0,0,0,48.3,85.19Z" transform="translate(-14.9 -3.89)"/><path class="cls-2" d="M45.55,136.59h0a.6.6,0,0,0,.6-.58l.09-3.41a.59.59,0,0,0-.58-.61.61.61,0,0,0-.61.57L45,136A.6.6,0,0,0,45.55,136.59Z" transform="translate(-14.9 -3.89)"/><path class="cls-2" d="M45.92,122.93h0a.58.58,0,0,0,.59-.57l.1-3.42a.61.61,0,0,0-.58-.61.59.59,0,0,0-.61.58l-.09,3.41A.59.59,0,0,0,45.92,122.93Z" transform="translate(-14.9 -3.89)"/><path class="cls-2" d="M46.1,116.11h0a.6.6,0,0,0,.59-.58l.09-3.41a.59.59,0,0,0-.58-.61.55.55,0,0,0-.6.57l-.1,3.42A.6.6,0,0,0,46.1,116.11Z" transform="translate(-14.9 -3.89)"/><path class="cls-2" d="M45.73,129.76h0a.6.6,0,0,0,.59-.58l.09-3.41a.59.59,0,0,0-.57-.61.61.61,0,0,0-.61.58l-.09,3.41A.59.59,0,0,0,45.73,129.76Z" transform="translate(-14.9 -3.89)"/><path class="cls-2" d="M46.65,95.62h0a.59.59,0,0,0,.59-.57l.09-3.41a.59.59,0,1,0-1.18,0L46.08,95A.58.58,0,0,0,46.65,95.62Z" transform="translate(-14.9 -3.89)"/><path class="cls-2" d="M46.47,102.45h0a.6.6,0,0,0,.6-.57l.09-3.42a.59.59,0,0,0-.58-.61.6.6,0,0,0-.61.58l-.09,3.41A.59.59,0,0,0,46.47,102.45Z" transform="translate(-14.9 -3.89)"/><path class="cls-2" d="M46.28,109.28h0a.6.6,0,0,0,.59-.58l.09-3.41a.59.59,0,0,0-.57-.61.61.61,0,0,0-.61.58l-.09,3.41A.59.59,0,0,0,46.28,109.28Z" transform="translate(-14.9 -3.89)"/><path class="cls-2" d="M45.36,143.41h0a.59.59,0,0,0,.59-.57l.09-3.42a.59.59,0,1,0-1.18,0l-.09,3.41A.59.59,0,0,0,45.36,143.41Z" transform="translate(-14.9 -3.89)"/><path class="cls-2" d="M44.81,163.89h0a.59.59,0,0,0,.59-.57l.09-3.42a.59.59,0,0,0-1.18,0l-.09,3.42A.58.58,0,0,0,44.81,163.89Z" transform="translate(-14.9 -3.89)"/><path class="cls-2" d="M45.18,150.24h0a.59.59,0,0,0,.59-.58l.09-3.41a.59.59,0,1,0-1.18,0l-.1,3.41A.59.59,0,0,0,45.18,150.24Z" transform="translate(-14.9 -3.89)"/><path class="cls-2" d="M45,157.07h0a.59.59,0,0,0,.59-.58l.1-3.41a.6.6,0,0,0-1.19,0l-.09,3.41A.59.59,0,0,0,45,157.07Z" transform="translate(-14.9 -3.89)"/><path class="cls-2" d="M46.28,174.73H45.11l0-1.17a.59.59,0,0,0-.57-.61.6.6,0,0,0-.61.58l-.07,2.38h2.39a.59.59,0,0,0,0-1.18Z" transform="translate(-14.9 -3.89)"/><path class="cls-2" d="M122.6,174.73h-3.47a.59.59,0,1,0,0,1.18h3.47a.59.59,0,0,0,0-1.18Z" transform="translate(-14.9 -3.89)"/><path class="cls-2" d="M129.53,174.73h-3.47a.59.59,0,0,0,0,1.18h3.47a.59.59,0,1,0,0-1.18Z" transform="translate(-14.9 -3.89)"/><path class="cls-2" d="M87.91,174.73H84.44a.59.59,0,0,0,0,1.18h3.47a.59.59,0,0,0,0-1.18Z" transform="translate(-14.9 -3.89)"/><path class="cls-2" d="M108.72,174.73h-3.47a.59.59,0,0,0,0,1.18h3.47a.59.59,0,0,0,0-1.18Z" transform="translate(-14.9 -3.89)"/><path class="cls-2" d="M94.84,174.73H91.38a.59.59,0,1,0,0,1.18h3.46a.59.59,0,1,0,0-1.18Z" transform="translate(-14.9 -3.89)"/><path class="cls-2" d="M101.78,174.73H98.31a.59.59,0,0,0,0,1.18h3.47a.59.59,0,0,0,0-1.18Z" transform="translate(-14.9 -3.89)"/><path class="cls-2" d="M74,174.73H70.56a.59.59,0,0,0,0,1.18H74a.59.59,0,0,0,0-1.18Z" transform="translate(-14.9 -3.89)"/><path class="cls-2" d="M115.66,174.73h-3.47a.59.59,0,0,0,0,1.18h3.47a.59.59,0,0,0,0-1.18Z" transform="translate(-14.9 -3.89)"/><path class="cls-2" d="M81,174.73H77.5a.59.59,0,0,0,0,1.18H81a.59.59,0,0,0,0-1.18Z" transform="translate(-14.9 -3.89)"/><path class="cls-2" d="M136.47,174.73H133a.59.59,0,0,0,0,1.18h3.47a.59.59,0,0,0,0-1.18Z" transform="translate(-14.9 -3.89)"/><path class="cls-2" d="M53.22,174.73H49.75a.59.59,0,0,0,0,1.18h3.47a.59.59,0,0,0,0-1.18Z" transform="translate(-14.9 -3.89)"/><path class="cls-2" d="M60.16,174.73H56.69a.59.59,0,1,0,0,1.18h3.47a.59.59,0,0,0,0-1.18Z" transform="translate(-14.9 -3.89)"/><path class="cls-2" d="M143.41,174.73h-3.47a.59.59,0,0,0,0,1.18h3.47a.59.59,0,0,0,0-1.18Z" transform="translate(-14.9 -3.89)"/><path class="cls-2" d="M67.09,174.73H63.62a.59.59,0,1,0,0,1.18h3.47a.59.59,0,1,0,0-1.18Z" transform="translate(-14.9 -3.89)"/><path class="cls-2" d="M149.2,173.53a.61.61,0,0,0-.61-.58.6.6,0,0,0-.58.61l0,1.17h-1.17a.59.59,0,1,0,0,1.18h2.38Z" transform="translate(-14.9 -3.89)"/><path class="cls-2" d="M148.22,159.3a.58.58,0,0,0-.57.6l.09,3.42a.59.59,0,0,0,.59.57h0a.59.59,0,0,0,.57-.6l-.09-3.42A.6.6,0,0,0,148.22,159.3Z" transform="translate(-14.9 -3.89)"/><path class="cls-2" d="M147.92,170.14a.59.59,0,0,0,.59.58h0a.59.59,0,0,0,.58-.61l-.1-3.41a.59.59,0,0,0-.6-.58h-4.06a.6.6,0,1,0,0,1.19h3.5Z" transform="translate(-14.9 -3.89)"/><path class="cls-2" d="M146.38,91a.59.59,0,0,0-.57.61l.09,3.41a.59.59,0,0,0,.59.57h0a.58.58,0,0,0,.57-.6L147,91.6A.59.59,0,0,0,146.38,91Z" transform="translate(-14.9 -3.89)"/><path class="cls-2" d="M147.49,132a.59.59,0,0,0-.58.61L147,136a.6.6,0,0,0,.59.58h0a.6.6,0,0,0,.58-.61l-.1-3.42A.58.58,0,0,0,147.49,132Z" transform="translate(-14.9 -3.89)"/><path class="cls-2" d="M147.67,138.81a.6.6,0,0,0-.58.61l.1,3.42a.58.58,0,0,0,.59.57h0a.59.59,0,0,0,.58-.61l-.09-3.41A.61.61,0,0,0,147.67,138.81Z" transform="translate(-14.9 -3.89)"/><path class="cls-2" d="M146.57,97.85a.59.59,0,0,0-.58.61l.09,3.42a.59.59,0,0,0,.59.57h0a.6.6,0,0,0,.58-.61l-.1-3.41A.59.59,0,0,0,146.57,97.85Z" transform="translate(-14.9 -3.89)"/><path class="cls-2" d="M148,152.47a.59.59,0,0,0-.58.61l.09,3.41a.6.6,0,0,0,.6.58h0a.59.59,0,0,0,.58-.61l-.09-3.41A.61.61,0,0,0,148,152.47Z" transform="translate(-14.9 -3.89)"/><path class="cls-2" d="M147.85,145.64a.59.59,0,0,0-.57.61l.09,3.41a.6.6,0,0,0,.59.58h0a.59.59,0,0,0,.57-.61l-.09-3.41A.59.59,0,0,0,147.85,145.64Z" transform="translate(-14.9 -3.89)"/><path class="cls-2" d="M146.75,104.68a.59.59,0,0,0-.58.61l.1,3.41a.59.59,0,0,0,.59.58h0a.59.59,0,0,0,.58-.61l-.09-3.41A.6.6,0,0,0,146.75,104.68Z" transform="translate(-14.9 -3.89)"/><path class="cls-2" d="M146.93,111.51a.59.59,0,0,0-.57.61l.09,3.41a.6.6,0,0,0,.59.58h0a.6.6,0,0,0,.57-.61l-.09-3.42A.58.58,0,0,0,146.93,111.51Z" transform="translate(-14.9 -3.89)"/><path class="cls-2" d="M147.12,118.33a.6.6,0,0,0-.58.61l.09,3.42a.6.6,0,0,0,.6.57h0a.59.59,0,0,0,.58-.61l-.09-3.41A.61.61,0,0,0,147.12,118.33Z" transform="translate(-14.9 -3.89)"/><path class="cls-2" d="M147.3,125.16a.59.59,0,0,0-.57.61l.09,3.41a.6.6,0,0,0,.59.58h0a.59.59,0,0,0,.57-.61l-.09-3.41A.6.6,0,0,0,147.3,125.16Z" transform="translate(-14.9 -3.89)"/><path class="cls-2" d="M134.28,166.72a.6.6,0,0,0-.6-.6h-3.55a.6.6,0,0,0,0,1.19h3.55A.6.6,0,0,0,134.28,166.72Z" transform="translate(-14.9 -3.89)"/><path class="cls-2" d="M62.59,166.12H59a.6.6,0,0,0,0,1.19h3.55a.6.6,0,1,0,0-1.19Z" transform="translate(-14.9 -3.89)"/><path class="cls-2" d="M48.38,166.12H44.75a.62.62,0,0,0-.61.58l-.09,3.41a.59.59,0,0,0,.58.61h0a.6.6,0,0,0,.6-.58l.07-2.83h3.07a.6.6,0,0,0,0-1.19Z" transform="translate(-14.9 -3.89)"/><path class="cls-2" d="M70.3,166.72a.6.6,0,0,0-.6-.6H66.15a.6.6,0,0,0,0,1.19H69.7A.6.6,0,0,0,70.3,166.72Z" transform="translate(-14.9 -3.89)"/><path class="cls-2" d="M55.48,166.12H51.93a.6.6,0,0,0,0,1.19h3.55a.6.6,0,1,0,0-1.19Z" transform="translate(-14.9 -3.89)"/><path class="cls-2" d="M77.4,166.72a.59.59,0,0,0-.59-.6H73.26a.6.6,0,1,0,0,1.19h3.55A.59.59,0,0,0,77.4,166.72Z" transform="translate(-14.9 -3.89)"/><path class="cls-2" d="M141.39,166.72a.6.6,0,0,0-.6-.6h-3.55a.6.6,0,0,0,0,1.19h3.55A.6.6,0,0,0,141.39,166.72Z" transform="translate(-14.9 -3.89)"/><path class="cls-2" d="M122.43,166.72a.59.59,0,0,0,.59.59h3.55a.6.6,0,1,0,0-1.19H123A.59.59,0,0,0,122.43,166.72Z" transform="translate(-14.9 -3.89)"/><path class="cls-2" d="M79.77,166.72a.6.6,0,0,0,.6.59h3.55a.6.6,0,0,0,0-1.19H80.37A.6.6,0,0,0,79.77,166.72Z" transform="translate(-14.9 -3.89)"/><path class="cls-2" d="M115.32,166.72a.59.59,0,0,0,.59.59h3.56a.6.6,0,0,0,0-1.19h-3.56A.59.59,0,0,0,115.32,166.72Z" transform="translate(-14.9 -3.89)"/><path class="cls-2" d="M101.69,167.31h3.56a.6.6,0,0,0,0-1.19h-3.56a.6.6,0,0,0,0,1.19Z" transform="translate(-14.9 -3.89)"/><path class="cls-2" d="M108.8,167.31h3.56a.6.6,0,0,0,0-1.19H108.8a.6.6,0,0,0,0,1.19Z" transform="translate(-14.9 -3.89)"/><path class="cls-2" d="M87.48,166.12a.6.6,0,1,0,0,1.19H91a.6.6,0,0,0,0-1.19Z" transform="translate(-14.9 -3.89)"/><path class="cls-2" d="M98.14,166.12H94.58a.6.6,0,0,0,0,1.19h3.56a.6.6,0,0,0,0-1.19Z" transform="translate(-14.9 -3.89)"/><path class="cls-1" d="M75.58,26.45a19.81,19.81,0,0,1,21-21.14C91.1,6,86.12,8,82.14,11.94S76.3,21,75.58,26.45Z" transform="translate(-14.9 -3.89)"/><path class="cls-1" d="M107.74,9.25a18.34,18.34,0,0,1,8.7,10.56c1.4,4.42.93,9.28.43,13.82-.51-4.56-.13-9.25-1.62-13.65A25.38,25.38,0,0,0,107.74,9.25Z" transform="translate(-14.9 -3.89)"/><path class="cls-1" d="M174.79,89.83c-2.4-4.22-7.32-6-11.86-6.88a44.68,44.68,0,0,0-11.26-.52c8.11-.24,22.06,1.06,23.46,11.21.74,5.38-2.1,10.8-4.7,15.31-2.89,5-6.4,9.6-8.8,14.92a21.41,21.41,0,0,0-2.34,9,10,10,0,0,0,2.73,6.66,10.26,10.26,0,0,1-2.18-8.6,31.69,31.69,0,0,1,4-9.9c3.64-6.45,8.61-12.24,11.06-19.32,1.32-3.81,1.87-8.19-.12-11.89C173.59,87.72,176,92,174.79,89.83Z" transform="translate(-14.9 -3.89)"/><path class="cls-1" d="M29.1,83.17c-4.09.92-8.43,2.71-10.63,6.5-2.33,4-1.44,9,.13,13,3.33,8.63,10.12,15.41,13.49,24.05a17,17,0,0,1,1.42,7.2,9.9,9.9,0,0,1-2.37,5.58,10,10,0,0,0,2.69-5.84,18,18,0,0,0-1.46-7.83c-2.09-5.45-5.44-10.26-8.55-15.16-2.81-4.41-5.74-9.66-5.9-15-.17-5.77,3.8-9.51,9-11.31a41.76,41.76,0,0,1,14.61-1.95,43.57,43.57,0,0,0-12.38.74C27.27,83.58,32.77,82.37,29.1,83.17Z" transform="translate(-14.9 -3.89)"/><path class="cls-2" d="M62.4,119.5a10.17,10.17,0,0,1-1.38-.08q-.68,2.49-1.33,5c-.7,2.74-1.65,3.72-2.59,3.73a3.77,3.77,0,0,1-3-1.49c.88,0,1.57-.19,2.21-2.49q1.62-6,3.24-12.09a8,8,0,0,0,.35-1.79c0-.53-.24-.79-.8-1l.13-.38c2.1-.06,4.19-.14,6.28-.26,3.78-.21,6.09,1,6.09,3.46a4.35,4.35,0,0,1-.18,1.29C70.57,116.6,67.67,119.27,62.4,119.5Zm5.37-7c0-1.65-1.27-2.28-3.83-2.15-.26,0-.37.06-.42.17l-.27.39-1.78,6.7,1.12-.05c2.71-.11,4.36-1.37,5-3.83A4.62,4.62,0,0,0,67.77,112.54Z" transform="translate(-14.9 -3.89)"/><path class="cls-2" d="M69.88,125.83a5.73,5.73,0,0,1,.22-1.37L71.53,119a6.75,6.75,0,0,0,.27-1.35.83.83,0,0,0-.51-.85,5.06,5.06,0,0,1,2.61-1.53c.51,0,1,.6,1,1.48a2.83,2.83,0,0,1-.11.67c-.6,2.3-1.2,4.59-1.81,6.89a2.45,2.45,0,0,0-.1.7.58.58,0,0,0,.61.66l0,.22a4.51,4.51,0,0,1-2.27,1.54C70.68,127.48,69.88,127.19,69.88,125.83Zm5-13.69a1.2,1.2,0,0,1-1.38-1.27,3,3,0,0,1,2.42-2.71,1.21,1.21,0,0,1,1.38,1.31A2.89,2.89,0,0,1,74.83,112.14Z" transform="translate(-14.9 -3.89)"/><path class="cls-2" d="M80.77,114.64a4.16,4.16,0,0,1,2.45.6.58.58,0,0,0,.53.21h0c.22,0,.62-.35,1.12-.89l3.3-.36c-.11.48-.23,1-.35,1.45q-4.41,4.74-8.83,9.42h.11c1.94-.19,4.23,2.44,5.91,2.31a4,4,0,0,0,.74,0,8.74,8.74,0,0,0,3-.92c-.45,1.67-2.71,2.54-4,2.68h0c-2.77.3-4.69-2.8-8-2.49l-1.73.15c.1-.42.21-.85.32-1.27q4-4.23,8.06-8.53h-.16c-.64.07-1-.85-1.94-.75h-.06c-.42.05-.72.37-.72.55s.22.27.67.25a3.87,3.87,0,0,1-1.94,1.85,1.5,1.5,0,0,1-1.73-1.51C77.55,116.63,78,115,80.77,114.64Z" transform="translate(-14.9 -3.89)"/><path class="cls-2" d="M92.85,113.31a4.11,4.11,0,0,1,2.45.56.59.59,0,0,0,.53.21h0c.21,0,.61-.36,1.12-.9l3.3-.39c-.12.49-.23,1-.35,1.46l-8.83,9.51h.1c2-.22,4.23,2.38,5.91,2.24a5.45,5.45,0,0,0,.75,0,9,9,0,0,0,3-.93c-.45,1.67-2.72,2.55-4,2.69h0c-2.77.32-4.68-2.75-8-2.37l-1.73.19c.11-.42.22-.85.32-1.28,2.69-2.88,5.38-5.78,8.06-8.67l-.16,0c-.63.07-1-.84-1.94-.73h0a.8.8,0,0,0-.72.56c0,.16.21.27.67.25a4,4,0,0,1-2,1.87,1.47,1.47,0,0,1-1.73-1.48C89.63,115.35,90,113.74,92.85,113.31Z" transform="translate(-14.9 -3.89)"/><path class="cls-2" d="M105.31,121.49a10.21,10.21,0,0,0,2.79-.79l.46.78-.06.19a10.06,10.06,0,0,1-5.16,2.36,3.38,3.38,0,0,1-3.83-3.55c0-2.17,2-8.2,7.88-8.85h0c1.38-.15,2.55.34,2.55,1.59,0,2-2.52,4.28-7.37,5.69a3.85,3.85,0,0,0,0,.48C102.6,120.39,103.15,121.74,105.31,121.49Zm1.89-7.92a.43.43,0,0,0-.51-.4c-1.86.21-3.16,2.27-3.67,4,3.17-1.32,3.65-1.58,4.15-3.5C107.17,113.65,107.2,113.62,107.2,113.57Z" transform="translate(-14.9 -3.89)"/><path class="cls-2" d="M110.85,121.56a6.26,6.26,0,0,1,.21-1.38l1.44-5.6a4.88,4.88,0,0,0,.24-1.25.79.79,0,0,0-.53-.82,4.82,4.82,0,0,1,2.55-1.64h.13c.46,0,1,.22,1,1.07a3.37,3.37,0,0,1-.08.65c.9-.81,2.52-2,3.59-2.13h.1c0,.83.3,1.6,1,1.65L118.22,114c-.56,0-1.09-.38-1.09-1.21a1.58,1.58,0,0,1,0-.37c-.56.13-1.55,1.66-2,3.06L114,120a2,2,0,0,0-.08.54c0,.51.26.75.82.77a5.63,5.63,0,0,1-2.53,1.8C111.73,123.12,110.85,122.94,110.85,121.56Z" transform="translate(-14.9 -3.89)"/><path class="cls-2" d="M120.11,120.64a6.45,6.45,0,0,1,.22-1.38c.48-1.82,1-3.64,1.43-5.46a6.49,6.49,0,0,0,.27-1.35.81.81,0,0,0-.51-.84,5,5,0,0,1,2.61-1.52c.51,0,1,.63,1,1.51a2.83,2.83,0,0,1-.11.67q-.9,3.42-1.81,6.85a2.49,2.49,0,0,0-.1.7c0,.43.18.62.61.68a1.6,1.6,0,0,0-.05.21,4.5,4.5,0,0,1-2.27,1.53C120.91,122.28,120.11,122,120.11,120.64Zm5-13.67a1.22,1.22,0,0,1-1.38-1.29A2.89,2.89,0,0,1,126.1,103a1.25,1.25,0,0,1,1.38,1.36A2.79,2.79,0,0,1,125.06,107Z" transform="translate(-14.9 -3.89)"/><path class="cls-2" d="M134.22,109.61a3.13,3.13,0,0,1,1.94.5v0a3.34,3.34,0,0,1,1.86-.58c.67,0,1,.4,1,1.2a3.8,3.8,0,0,1-.16,1q-.87,3.28-1.76,6.58a1.37,1.37,0,0,0,0,.27.8.8,0,0,0,.85.84h.13l0,.22a3.89,3.89,0,0,1-3,1.87h0a1.34,1.34,0,0,1-1.23-1.43,1.12,1.12,0,0,1,0-.32,5.9,5.9,0,0,1-3.38,1.9c-2.42.1-4-1-4-3.44C126.39,114.67,129.54,109.74,134.22,109.61Zm-4.45,7.56c0,1.6.75,2.44,2.19,2.38a2.93,2.93,0,0,0,2.26-1.37l1.3-4.87a1.57,1.57,0,0,0,0-.48,1.59,1.59,0,0,0-1.73-1.64C130.39,111.3,129.77,116,129.77,117.17Z" transform="translate(-14.9 -3.89)"/><path class="cls-2" d="M72.12,97l-1,1.25L69,96.61,67.61,98.4l2.18,1.68-1,1.24-5.29-4.06,1-1.24,2.19,1.67,1.37-1.79-2.18-1.68,1-1.24Z" transform="translate(-14.9 -3.89)"/><path class="cls-2" d="M74.16,88.91,75.94,91c.71.83.37,2.3-.76,3.27s-2.63,1.07-3.33.24l-1.79-2.09c-.72-.84-.39-2.32.73-3.28S73.43,88.07,74.16,88.91ZM74.75,92,73,89.93a1.07,1.07,0,0,0-1.42.1,1,1,0,0,0-.3,1.37L73,93.49c.35.4.93.29,1.38-.1S75,92.35,74.75,92Z" transform="translate(-14.9 -3.89)"/><path class="cls-2" d="M78.31,85.45,81,90.23,79.64,91l-2.71-4.79-1.66,1-.57-1,4.69-2.66.58,1Z" transform="translate(-14.9 -3.89)"/><path class="cls-2" d="M91.55,84.61c.09.44.69.71,1.29.59l.24,1.15a3.22,3.22,0,0,1-2-.18,3.23,3.23,0,0,1-1.77,1c-1.46.31-2.83-.32-3.06-1.41a1.71,1.71,0,0,1,.41-1.45,1.76,1.76,0,0,1-1-1.19c-.23-1.09.78-2.22,2.24-2.52S90.78,80.89,91,82l-1.67.34a1,1,0,0,0-1.17-.61c-.64.14-1,.58-.94,1s.69.62,1.18.53l3.9-.81.24,1.14-1.15.24Zm-2.89-.17c-.49.1-1,.54-.88,1s.62.71,1.27.58,1-.64.94-1l-.15-.75Z" transform="translate(-14.9 -3.89)"/><path class="cls-2" d="M101.42,81.13l-.58,5.46-1.57-.16L99.85,81l-1.9-.2.13-1.16,5.36.57-.12,1.16Z" transform="translate(-14.9 -3.89)"/><path class="cls-2" d="M105.17,85.72l-1,1.45-1.52-.44,4-5.79,2,.6.25,7-1.52-.45-.06-1.75Zm2.06-3-1.41,2.06,1.51.44Z" transform="translate(-14.9 -3.89)"/><path class="cls-2" d="M112.51,89.11c.54.29,1,.25,1.23-.09.28-.52-.79-1.33-1.48-2.18a2,2,0,0,1-.45-2.14c.52-1,2-1.13,3.27-.44s2,2.06,1.46,3l-1.39-.74a1.05,1.05,0,0,0-.61-1.27c-.55-.29-1-.28-1.23.11s.64,1.21,1.29,2,1.08,1.56.65,2.36c-.51,1-2,1.11-3.29.42s-1.95-2.05-1.43-3l1.38.73A1,1,0,0,0,112.51,89.11Z" transform="translate(-14.9 -3.89)"/><path class="cls-2" d="M121.25,89.78l-3.44,4.29-1.24-1L120,88.79l-1.49-1.19.74-.92,4.21,3.37-.73.92Z" transform="translate(-14.9 -3.89)"/><path class="cls-2" d="M124.12,96.68l-2,1.74-1-1.2,2-1.74,1.65-4.22,1.09,1.28-1,2.52,2.67-.63,1.1,1.28Z" transform="translate(-14.9 -3.89)"/><path class="cls-2" d="M67.55,139l1.75,2.48-1,.67-1.75-2.48-2.25,1.58-.9-1.28,5.45-3.84,2.65,3.76-1,.68-1.75-2.48Z" transform="translate(-14.9 -3.89)"/><path class="cls-2" d="M69.65,145.15,68.1,146,67,144.86l6.23-3.23,1.53,1.5-3.09,6.3-1.13-1.1.78-1.58Zm3.23-1.67-2.21,1.16,1.12,1.1Z" transform="translate(-14.9 -3.89)"/><path class="cls-2" d="M76,151c.51.33,1,.34,1.24,0,.31-.49-.68-1.39-1.3-2.3a2,2,0,0,1-.26-2.18c.6-.93,2.07-.95,3.3-.16s1.79,2.23,1.19,3.16l-1.31-.85a1.07,1.07,0,0,0-.51-1.32c-.52-.34-1-.37-1.23,0s.53,1.26,1.12,2.08a2.22,2.22,0,0,1,.44,2.41c-.59.91-2.06.94-3.31.13s-1.77-2.21-1.18-3.14l1.32.85A1,1,0,0,0,76,151Z" transform="translate(-14.9 -3.89)"/><path class="cls-2" d="M84.69,150.58l-2.07,5.09-1.47-.59L83.23,150l-1.77-.72.44-1.08,5,2-.44,1.09Z" transform="translate(-14.9 -3.89)"/><path class="cls-2" d="M93.64,151.45c1.49.15,2.61,1.16,2.51,2.26l-.26,2.65c-.1,1.09-1.4,1.88-2.88,1.73l-2.67-.25L91,151.2Zm-.52,5.48c.62,0,1.17-.27,1.21-.72l.26-2.65c0-.47-.44-.88-1.06-.94l-1.1-.11L92,156.82Z" transform="translate(-14.9 -3.89)"/><path class="cls-2" d="M99.43,154.24l3-.3.12,1.15-3,.3L99.7,157l3-.3.11,1.16-4.58.46-.66-6.64,4.58-.45.11,1.16-3,.3Z" transform="translate(-14.9 -3.89)"/><path class="cls-2" d="M109.81,156l-4.43,1.29-1.86-6.41,1.52-.44,1.53,5.28,2.92-.84Z" transform="translate(-14.9 -3.89)"/><path class="cls-2" d="M109.13,149.06l1.44-.65,2.75,6.08-1.44.65Z" transform="translate(-14.9 -3.89)"/><path class="cls-2" d="M118.42,151.58l-1.8,1.15-5-4.73,1.33-.85,3.49,3.3-1.5-4.56,1.33-.85Z" transform="translate(-14.9 -3.89)"/><path class="cls-2" d="M120.05,145.35l2.23-2.07.79.85-2.23,2.07,1.08,1.16,2.23-2.07.79.85-3.37,3.14L117,144.4l3.37-3.14.8.86L119,144.19Z" transform="translate(-14.9 -3.89)"/><path class="cls-2" d="M125.67,141.46l2,1.42-.92,1.28-5.41-3.89,1.57-2.18c.88-1.23,2.32-1.69,3.22-1l.2.14a2,2,0,0,1,.57,2.25l3,.28-1.06,1.47-2.81-.25Zm-.94-.67.64-.9c.36-.51.36-1.16,0-1.41l-.21-.15a1,1,0,0,0-1.34.44l-.65.9Z" transform="translate(-14.9 -3.89)"/><path class="cls-2" d="M129.93,133.66l2.43,1.12-.65,1.43-2.43-1.11-4.52.28.7-1.54,2.73-.1-1.7-2.16.7-1.54Z" transform="translate(-14.9 -3.89)"/></svg>