<svg id="Layer_1" data-name="Layer 1" xmlns="http://www.w3.org/2000/svg" viewBox="0 0 511.11 510.71"><defs><style>.cls-1{fill:#fdc25c;}.cls-2{fill:#fcad56;}.cls-11,.cls-14,.cls-17,.cls-3{fill:#fff;}.cls-3{opacity:0.26;}.cls-4{fill:#bf362b;}.cls-5{fill:#f4d798;}.cls-6{fill:#f4ab69;}.cls-7{fill:#7f211f;}.cls-8{fill:#a12b25;}.cls-9{fill:#ce4829;}.cls-10{fill:#ee7044;}.cls-11{opacity:0.12;}.cls-12{fill:#f2c383;}.cls-13{fill:#f7b86d;}.cls-14{opacity:0.62;}.cls-15{fill:#479941;}.cls-16{fill:#328432;}.cls-17{opacity:0.08;}.cls-18{fill:#54b24d;}.cls-19{fill:#4d9e46;}</style></defs><path class="cls-1" d="M23.06,160.39c-6.65,17.28-8.56,36-10.4,54.39-2.71,27-5.42,54-6.79,81.13C5,313.81,4.65,332,8.9,349.42c5.69,23.34,19.44,44.28,37,60.65,10.85,10.08,23.12,18.53,34.22,28.33,9.84,8.7,18.72,18.42,28.25,27.46,35.24,33.41,84.83,43.09,132.81,50.52s88.23-8,134-24.18c34.26-12.09,44.93-29.71,67.21-49.1,26-22.63,41.56-39.16,60.76-67.79,18.24-27.21,12-64.05,11.94-92.4-.06-26.27,4.41-53.22-3.1-78.4-4.44-14.88-12.83-28.22-19.06-42.44-11.06-25.25-15.66-54-33-75.43-13.15-16.32-32.22-26.56-50.75-36.36C389.92,40,370.49,29.78,350,22.2,302.68,4.76,250.39,3.45,201.68,15.55c-46,11.4-98.8,36.22-128.89,74.19C55.11,112.06,33.48,133.35,23.06,160.39Z" transform="translate(-5.3 -7.59)"/><path class="cls-2" d="M512,204.51c-4.43-14.88-12.82-28.22-19-42.44-11.06-25.25-15.66-54-33-75.43-10.58-13.13-25-22.33-39.88-30.53,10.42,6.51,20.11,14,27.79,23.48,17.3,21.46,21.9,50.17,33,75.43,6.23,14.22,14.62,27.56,19.06,42.43,7.52,25.18,3.05,52.13,3.11,78.41.07,28.35,6.3,65.19-11.94,92.39-19.2,28.64-34.75,45.16-60.76,67.79-22.28,19.39-33,37-67.22,49.1-45.79,16.17-86,31.62-134,24.19-34.81-5.39-70.46-12-100.86-27.93,32.79,21.19,73.41,28.86,113,35,48,7.43,88.23-8,134-24.18,34.26-12.09,44.93-29.71,67.21-49.1,26-22.63,41.56-39.16,60.76-67.79,18.24-27.21,12-64.05,11.94-92.4C515.09,256.64,519.56,229.69,512,204.51Z" transform="translate(-5.3 -7.59)"/><path class="cls-2" d="M32.38,258.54A269.36,269.36,0,0,1,117.12,86.75c11-10.19,22.95-19.49,36.14-26.65s27.12-12,41.22-16.66c29-9.54,59-18.12,89.47-16.86,53.18,2.2,100.13,33.57,143.91,63.84C416.05,80,399.08,78.61,384.42,72.89s-26.95-15.69-41-22.43C301.14,30.19,251.23,41.91,206,54c-16.06,4.28-32.29,8.63-46.89,16.56-18.3,10-33.18,25-47.77,39.92-18.73,19.09-37.93,38.88-47.85,63.72C57,190.43,54.77,208.06,49,224.57,45,236,39.33,246.9,36.58,258.7c-5.11,21.89.31,44.71,5.72,66.54,6.82,27.53,14.28,56.28,33.34,77.28-15.79-19.74-28.74-37.83-36.17-62.47C31.55,313.76,29.79,285.79,32.38,258.54Z" transform="translate(-5.3 -7.59)"/><path class="cls-3" d="M32.91,174.33c-7,30.24-14.08,60.57-17.51,91.43-3.41,30.69-2.94,63,10.51,90.8a28.52,28.52,0,0,0,5.87,8.74,4.27,4.27,0,0,0,3.41,1.45c2.66-.46,2.59-4.3,1.8-6.88-9.82-32.17-22.1-65.46-16.06-98.55,2.34-12.8,7.35-24.94,10.71-37.5C39.07,196,38.72,165.25,54.25,141c6.7-10.44,16-19,23.74-28.64,8-9.91,14.43-21.1,23.61-29.9,18.7-17.91,46-23.56,67.07-38.58,2.92-2.08,6-5,5.54-8.57-6.86-2-14,1.42-20.29,4.92C101.6,69.52,47.08,113.43,32.91,174.33Z" transform="translate(-5.3 -7.59)"/><path class="cls-3" d="M279.74,20.14c2.43.33,6-.25,5.74-2.69-.19-1.91-2.68-2.47-4.6-2.53-21.27-.67-42.88-1.31-63.47,4-7.23,1.88-23.23,2.31-27.67,8.92-8.66,12.88,10.62,5.24,15.34,3.12A137.81,137.81,0,0,1,279.74,20.14Z" transform="translate(-5.3 -7.59)"/><path class="cls-3" d="M305.49,490c28.87-7.37,58.29-15,83.47-30.92,13.59-8.61,25.62-19.46,37.27-30.56,22.64-21.57,44.2-44.35,63.31-69.11,1.21-1.56,2.45-3.25,2.59-5.22s-1.36-4.17-3.32-4a5,5,0,0,0-2.94,1.87c-5.68,6-9.85,13.31-15.13,19.7-16.21,19.62-41.86,29.8-57.41,49.94-5.53,7.17-9.63,15.43-15.71,22.14-11.94,13.18-29.88,18.79-46.93,23.86L319.41,477c-9.7,2.88-19.43,5.77-29.42,7.35-6.22,1-12.52,1.45-18.68,2.78-4.4,1-26.44,11.07-13.47,14.86,5.18,1.52,17.32-4.24,22.61-5.59Z" transform="translate(-5.3 -7.59)"/><path class="cls-3" d="M485.37,235.45a211.9,211.9,0,0,1,2.69,80c-1.06,6.72-2.44,13.63-.87,20.24.34,1.42,1,3,2.36,3.46s3.15-.64,3.78-2.1a9.88,9.88,0,0,0,.41-4.69,150.21,150.21,0,0,1,1.12-30.71c1-7.29,2.58-14.52,2.86-21.88.63-16.85-5.51-33.56-3.79-50.34.37-3.64.11-11.6-5.82-10.14C481.89,220.85,484.43,231.33,485.37,235.45Z" transform="translate(-5.3 -7.59)"/><path class="cls-4" d="M120.82,102.71c-5.64,10.55-9.31,22.13-15.72,32.24-9.66,15.22-24.84,26.08-36,40.25C50.75,198.53,44.62,228.91,39,258.07c-2.45,12.8-4.91,25.86-3.39,38.81,1.68,14.35,8.12,27.65,12.13,41.53,3.8,13.16,5.51,27.17,12.3,39.07s17.83,20.42,26.31,31,14.55,23.6,24.47,33.12,23.25,15,36.23,20Q167,469.21,187.28,476c13.86,4.68,27.9,9.11,42.4,11,37.43,4.91,74.76-7.2,110.57-19.14C352,464,363.87,460,374,453c18.2-12.57,28.81-33.28,44.18-49.18,19.25-19.9,47.32-34.22,54.61-60.93,4.44-16.26-.15-33.58,1.18-50.39,1.39-17.74,9.36-34.59,9.85-52.38.41-14.64-4.25-28.88-8.86-42.78C467.4,174.45,459.56,151.1,444.9,132c-11.91-15.54-27.75-27.53-43.7-38.88q-17.71-12.6-35.95-24.47c-11.76-7.66-23.88-15.17-37.38-19-12.47-3.52-25.6-3.74-38.55-3.86C234.47,45.26,150.94,46.33,120.82,102.71Z" transform="translate(-5.3 -7.59)"/><path class="cls-5" d="M141.42,90.48c-8.79,14.8-9.91,33.82-21.29,46.73-13,14.79-36.64,18-47.23,34.66-3.71,5.82-5.36,12.67-7,19.38-6.39,26.88-12.8,53.95-14.08,81.55s2.85,56.07,16.41,80.14c7.66,13.6,18.07,25.4,26.91,38.26a192.49,192.49,0,0,1,21,39.93c2.23,5.8,4.29,11.89,8.52,16.45,7.1,7.64,18.64,9.18,29.05,8.41s20.81-3.33,31.16-2c9,1.14,17.35,5.16,26.09,7.62,22.39,6.3,46.24,2.16,69.13-2,17.15-3.13,34.49-6.32,50.44-13.36,18.59-8.2,34.85-21.46,54.2-27.65,9-2.89,18.65-4.19,27.18-8.35,11.77-5.73,20.34-16.28,28.51-26.51,6.23-7.8,12.67-16,14.45-25.86,1.43-7.93-.34-16-1-24.06-1.82-22.72,5.38-45,10-67.35s6.22-47-5.5-66.52c-2.61-4.36-5.85-8.37-8-13-5.63-12.07-3.15-26.72-8.77-38.79-7.66-16.46-27.33-22.9-41-34.81-14.37-12.48-22.8-31.69-39.53-40.78-7.2-3.91-15.36-5.58-23.39-7.21C324.86,62.75,312,60.14,299,58.93c-18.37-1.72-36.88-.65-55.3.41-20.11,1.16-44.47-1.12-63.82,4.55C170.56,66.6,141.42,78,141.42,90.48Z" transform="translate(-5.3 -7.59)"/><path class="cls-6" d="M174.25,452.09c-10.35-1.32-20.75,1.25-31.15,2a58.37,58.37,0,0,1-9.89-.07c6.28,2.64,13.68,3.16,20.59,2.65,10.41-.76,20.81-3.34,31.16-2l.33,0A61.56,61.56,0,0,0,174.25,452.09Z" transform="translate(-5.3 -7.59)"/><path class="cls-6" d="M458.44,200.6c-2.61-4.36-5.84-8.36-8-13-5.62-12.08-3.15-26.72-8.77-38.79-7.66-16.46-27.32-22.91-41-34.81-14.37-12.49-22.8-31.69-39.53-40.78-6.49-3.53-13.77-5.24-21-6.73a53.37,53.37,0,0,1,10.33,4.15c16.73,9.09,25.15,28.3,39.53,40.78,13.71,11.9,33.37,18.35,41,34.81,5.62,12.07,3.14,26.72,8.77,38.79,2.14,4.61,5.37,8.62,8,13,11.72,19.54,10.08,44.2,5.49,66.52s-11.78,44.63-10,67.34c.65,8,2.42,16.14,1,24.07-1.78,9.82-8.22,18.06-14.45,25.86-8.17,10.23-16.74,20.78-28.51,26.51-8.53,4.16-18.14,5.46-27.18,8.35-19.35,6.19-35.62,19.44-54.2,27.65-15.95,7-33.29,10.23-50.44,13.36-20.07,3.66-40.87,7.29-60.79,3.89.78.24,1.57.48,2.36.7,22.4,6.3,46.24,2.16,69.13-2,17.15-3.13,34.49-6.31,50.44-13.35,18.59-8.21,34.85-21.46,54.2-27.65,9.05-2.89,18.65-4.2,27.18-8.35,11.77-5.74,20.34-16.29,28.51-26.51,6.23-7.8,12.67-16,14.45-25.87,1.43-7.92-.34-16-1-24.06-1.83-22.71,5.37-45,10-67.35S470.16,220.15,458.44,200.6Z" transform="translate(-5.3 -7.59)"/><path class="cls-7" d="M128.84,399c-4.66,8.81-4.63,20.13.79,28.48A31.6,31.6,0,0,0,140,437.16,41.13,41.13,0,0,0,170,442c7.75-1.76,15.2-6.08,19.26-12.9,2.73-4.58,3.78-10,4.26-15.27.62-6.78.1-14.35-4.66-19.23-3.07-3.14-7.4-4.63-11.57-6l-11.83-3.94c-7.55-2.52-13.81-3.57-21.14-.09A33.77,33.77,0,0,0,128.84,399Z" transform="translate(-5.3 -7.59)"/><path class="cls-8" d="M127.53,396c-4.66,8.81-4.62,20.13.79,28.48a31.77,31.77,0,0,0,10.37,9.7,41.17,41.17,0,0,0,30,4.83c7.75-1.75,15.19-6.08,19.26-12.9,2.72-4.58,3.78-10,4.26-15.27.62-6.78.09-14.35-4.66-19.23-3.07-3.14-7.41-4.63-11.57-6l-11.84-3.94c-7.55-2.52-13.81-3.57-21.14-.09A33.86,33.86,0,0,0,127.53,396Z" transform="translate(-5.3 -7.59)"/><path class="cls-9" d="M130.17,402.36c-2.38,8.22-.75,17.79,5.17,24s14.71,8.14,23,9.68a25.34,25.34,0,0,0,8.31.58c6.48-1,11.17-6.57,14.87-12,3.18-4.64,6.18-9.59,7.23-15.11s-.15-11.78-4.33-15.55c-2.81-2.52-6.56-3.66-10.19-4.72l-14.86-4.36c-6.8-2-12.38-3.82-18.08,1A34.71,34.71,0,0,0,130.17,402.36Z" transform="translate(-5.3 -7.59)"/><path class="cls-10" d="M138,405a2.12,2.12,0,0,0,.06,1c.32.95,1.53,1.26,2.53,1.16a6,6,0,0,0,4.58-3c1.33-2.34-.39-4.14-2.87-3.9C140.06,400.58,138.31,402.87,138,405Z" transform="translate(-5.3 -7.59)"/><path class="cls-10" d="M150.77,394.62a2.85,2.85,0,0,0,4.35-2c.46-2.63-2.67-5.79-5.29-4.17C147.61,389.8,148.77,393.53,150.77,394.62Z" transform="translate(-5.3 -7.59)"/><path class="cls-10" d="M155.11,419.37a5.23,5.23,0,0,0-.09,4.16,2.17,2.17,0,0,0,4.28-.11,3.87,3.87,0,0,0-.37-3.69,2.51,2.51,0,0,0-3.42-.56Z" transform="translate(-5.3 -7.59)"/><path class="cls-10" d="M139.76,423a2.75,2.75,0,0,0,3.19,1.19,5.69,5.69,0,0,0,2.86-2.23,5.49,5.49,0,0,0,1.06-2.1C147.8,415.26,136.49,416.37,139.76,423Z" transform="translate(-5.3 -7.59)"/><path class="cls-10" d="M159.15,407.55a11.52,11.52,0,0,0,2.74,2.26,2.4,2.4,0,0,0,1.42.53,1.57,1.57,0,0,0,1.07-.67,2.94,2.94,0,0,0,.35-2.74,4.75,4.75,0,0,0-1.8-2.21c-.68-.48-3.31-1.64-4.16-1.17C157.4,404.31,158.47,406.71,159.15,407.55Z" transform="translate(-5.3 -7.59)"/><path class="cls-10" d="M171.73,414.92c-.11.9.13,2.09,1,2.23a1.79,1.79,0,0,0,1.14-.35,10.2,10.2,0,0,0,4.19-4.93c.84-2.13-.43-4.71-2.84-3.33C173.31,409.64,172,412.84,171.73,414.92Z" transform="translate(-5.3 -7.59)"/><path class="cls-10" d="M173.11,393.92a1.41,1.41,0,0,0-2.17-.25,2,2,0,0,0-.23,2.36,3.79,3.79,0,0,0,1.93,1.59,7,7,0,0,0,3.26.55,2.09,2.09,0,0,0,1.79-.91,1.62,1.62,0,0,0-.55-1.89,4.75,4.75,0,0,0-1.94-.83l-2.3-.59Z" transform="translate(-5.3 -7.59)"/><path class="cls-10" d="M165.85,430.15c-.56.4-1.15,1-1.1,1.64a1.54,1.54,0,0,0,.67,1,4,4,0,0,0,3.47.22,12.71,12.71,0,0,0,3.87-1.91,4.07,4.07,0,0,0,1.46-1.68C176.07,424.58,166.81,429.46,165.85,430.15Z" transform="translate(-5.3 -7.59)"/><path class="cls-11" d="M137.69,394.39A37,37,0,0,0,134,400,19.35,19.35,0,0,0,136.65,421a6.92,6.92,0,0,0,2.57,2,3.09,3.09,0,0,0,3.11-.37c1.15-1,1.1-2.76.84-4.26a32,32,0,0,0-1.45-5.6c-.69-1.95-1.58-3.9-1.56-6,0-3.11,2.14-5.9,4.78-7.54a25.17,25.17,0,0,1,8.81-2.88,13.09,13.09,0,0,0,4.85-1.55c6.74-4.43-3.7-9.55-7.78-9.88C145.18,384.51,140.69,390.42,137.69,394.39Z" transform="translate(-5.3 -7.59)"/><path class="cls-7" d="M73.08,287.61c-4.66,8.8-4.63,20.13.79,28.48a31.7,31.7,0,0,0,10.36,9.69,41.15,41.15,0,0,0,30,4.84c7.74-1.76,15.19-6.08,19.25-12.9,2.73-4.58,3.78-10,4.27-15.27.62-6.78.09-14.35-4.67-19.23-3.06-3.14-7.4-4.63-11.56-6l-11.84-3.94c-7.55-2.52-13.81-3.57-21.14-.09A33.82,33.82,0,0,0,73.08,287.61Z" transform="translate(-5.3 -7.59)"/><path class="cls-8" d="M71.78,284.65c-4.66,8.81-4.63,20.13.79,28.48a31.51,31.51,0,0,0,10.36,9.69,41.13,41.13,0,0,0,30,4.84c7.75-1.76,15.19-6.08,19.26-12.9,2.72-4.58,3.78-10,4.26-15.27.62-6.78.1-14.35-4.66-19.23-3.07-3.14-7.4-4.63-11.57-6l-11.83-3.94c-7.55-2.52-13.82-3.57-21.15-.09A33.79,33.79,0,0,0,71.78,284.65Z" transform="translate(-5.3 -7.59)"/><path class="cls-9" d="M74.42,291c-2.39,8.22-.76,17.79,5.17,24s14.7,8.14,23,9.68a25.36,25.36,0,0,0,8.31.58c6.49-1,11.17-6.57,14.88-12,3.17-4.64,6.17-9.59,7.23-15.11s-.16-11.78-4.34-15.55c-2.8-2.52-6.56-3.66-10.19-4.72l-14.86-4.36c-6.79-2-12.38-3.82-18.08,1A34.62,34.62,0,0,0,74.42,291Z" transform="translate(-5.3 -7.59)"/><path class="cls-10" d="M82.26,293.65a2.28,2.28,0,0,0,.06,1,2.32,2.32,0,0,0,2.53,1.16,6,6,0,0,0,4.58-3c1.33-2.34-.39-4.15-2.87-3.91C84.3,289.2,82.55,291.49,82.26,293.65Z" transform="translate(-5.3 -7.59)"/><path class="cls-10" d="M95,283.24a3,3,0,0,0,3.69-.55,3,3,0,0,0,.66-1.47c.46-2.63-2.66-5.79-5.29-4.17C91.85,278.41,93,282.15,95,283.24Z" transform="translate(-5.3 -7.59)"/><path class="cls-10" d="M99.36,308a5.15,5.15,0,0,0-.09,4.16,2.53,2.53,0,0,0,2.14,1.76,2.6,2.6,0,0,0,2.14-1.87,3.9,3.9,0,0,0-.38-3.69,2.51,2.51,0,0,0-3.42-.56Z" transform="translate(-5.3 -7.59)"/><path class="cls-10" d="M84,311.66a2.75,2.75,0,0,0,3.19,1.19,5.69,5.69,0,0,0,2.86-2.23,5.35,5.35,0,0,0,1.06-2.1C92,303.88,80.73,305,84,311.66Z" transform="translate(-5.3 -7.59)"/><path class="cls-10" d="M103.39,296.17a11.24,11.24,0,0,0,2.74,2.25,2.35,2.35,0,0,0,1.42.54,1.57,1.57,0,0,0,1.07-.67,2.94,2.94,0,0,0,.35-2.74,4.67,4.67,0,0,0-1.79-2.21c-.69-.48-3.32-1.64-4.17-1.17C101.65,292.92,102.72,295.33,103.39,296.17Z" transform="translate(-5.3 -7.59)"/><path class="cls-10" d="M116,303.54c-.11.9.13,2.09,1,2.23a1.82,1.82,0,0,0,1.15-.35,10.18,10.18,0,0,0,4.18-4.93c.85-2.13-.43-4.71-2.84-3.33C117.55,298.26,116.23,301.46,116,303.54Z" transform="translate(-5.3 -7.59)"/><path class="cls-10" d="M117.35,282.54a1.41,1.41,0,0,0-2.17-.25,2,2,0,0,0-.23,2.36,3.79,3.79,0,0,0,1.93,1.59,7,7,0,0,0,3.26.55,2.09,2.09,0,0,0,1.79-.91,1.64,1.64,0,0,0-.55-1.9,4.87,4.87,0,0,0-1.94-.82l-2.29-.59Z" transform="translate(-5.3 -7.59)"/><path class="cls-10" d="M110.09,318.77c-.55.4-1.15,1-1.09,1.64a1.5,1.5,0,0,0,.66,1,4.11,4.11,0,0,0,3.47.22,12.71,12.71,0,0,0,3.87-1.91,4,4,0,0,0,1.46-1.68C120.32,313.2,111.05,318.08,110.09,318.77Z" transform="translate(-5.3 -7.59)"/><path class="cls-11" d="M81.93,283a37.43,37.43,0,0,0-3.72,5.56,19.39,19.39,0,0,0,2.68,21.07,7,7,0,0,0,2.57,2,3.09,3.09,0,0,0,3.11-.37c1.15-1,1.1-2.76.85-4.26A33.62,33.62,0,0,0,86,301.4c-.7-1.95-1.58-3.9-1.57-6,0-3.1,2.15-5.9,4.79-7.53A25,25,0,0,1,98,285a13.09,13.09,0,0,0,4.85-1.55c6.75-4.43-3.7-9.55-7.78-9.88C89.42,273.13,84.93,279,81.93,283Z" transform="translate(-5.3 -7.59)"/><path class="cls-7" d="M311.49,239.34c-4.66,8.8-4.63,20.13.79,28.48a31.61,31.61,0,0,0,10.36,9.69,41.23,41.23,0,0,0,30,4.84c7.75-1.76,15.2-6.08,19.26-12.91,2.73-4.57,3.78-9.95,4.26-15.26.62-6.78.1-14.35-4.66-19.23-3.07-3.14-7.4-4.63-11.57-6l-11.83-4c-7.55-2.51-13.81-3.56-21.15-.08A33.79,33.79,0,0,0,311.49,239.34Z" transform="translate(-5.3 -7.59)"/><path class="cls-8" d="M310.18,236.38c-4.66,8.8-4.63,20.13.79,28.48a31.81,31.81,0,0,0,10.36,9.69,41.21,41.21,0,0,0,30,4.84c7.74-1.76,15.19-6.08,19.25-12.9,2.73-4.58,3.78-10,4.27-15.27.62-6.78.09-14.35-4.67-19.23-3.06-3.14-7.4-4.63-11.56-6L346.81,222c-7.55-2.52-13.81-3.57-21.14-.09A33.82,33.82,0,0,0,310.18,236.38Z" transform="translate(-5.3 -7.59)"/><path class="cls-9" d="M312.82,242.71c-2.38,8.22-.75,17.79,5.17,24s14.71,8.14,23,9.68a25.3,25.3,0,0,0,8.3.58c6.49-1,11.18-6.57,14.88-12,3.18-4.64,6.17-9.59,7.23-15.11s-.15-11.78-4.33-15.55c-2.81-2.53-6.57-3.66-10.19-4.72l-14.87-4.36c-6.79-2-12.38-3.82-18.07,1A34.71,34.71,0,0,0,312.82,242.71Z" transform="translate(-5.3 -7.59)"/><path class="cls-10" d="M320.67,245.38a2.28,2.28,0,0,0,.05,1,2.33,2.33,0,0,0,2.53,1.16,6,6,0,0,0,4.59-3c1.33-2.34-.4-4.15-2.87-3.91C322.71,240.93,321,243.22,320.67,245.38Z" transform="translate(-5.3 -7.59)"/><path class="cls-10" d="M333.42,235a3,3,0,0,0,3.69-.55,3.17,3.17,0,0,0,.66-1.47c.46-2.63-2.67-5.79-5.29-4.18C330.26,230.14,331.42,233.88,333.42,235Z" transform="translate(-5.3 -7.59)"/><path class="cls-10" d="M337.76,259.72a5.19,5.19,0,0,0-.09,4.16,2.55,2.55,0,0,0,2.15,1.76,2.58,2.58,0,0,0,2.13-1.87,3.89,3.89,0,0,0-.37-3.69,2.52,2.52,0,0,0-3.43-.56Z" transform="translate(-5.3 -7.59)"/><path class="cls-10" d="M322.41,263.39a2.76,2.76,0,0,0,3.19,1.19,5.69,5.69,0,0,0,2.86-2.23,5.49,5.49,0,0,0,1.06-2.1C330.45,255.61,319.14,256.72,322.41,263.39Z" transform="translate(-5.3 -7.59)"/><path class="cls-10" d="M341.79,247.9a11.48,11.48,0,0,0,2.75,2.25,2.32,2.32,0,0,0,1.42.54A1.57,1.57,0,0,0,347,250a3,3,0,0,0,.34-2.75,4.69,4.69,0,0,0-1.79-2.2c-.69-.48-3.31-1.65-4.16-1.17C340.05,244.65,341.12,247.06,341.79,247.9Z" transform="translate(-5.3 -7.59)"/><path class="cls-10" d="M354.38,255.27c-.11.9.13,2.09,1,2.22a1.73,1.73,0,0,0,1.15-.34,10.2,10.2,0,0,0,4.19-4.93c.84-2.13-.43-4.71-2.85-3.33C356,250,354.63,253.19,354.38,255.27Z" transform="translate(-5.3 -7.59)"/><path class="cls-10" d="M355.76,234.27a1.41,1.41,0,0,0-2.17-.26,2,2,0,0,0-.23,2.37,3.77,3.77,0,0,0,1.92,1.59,6.91,6.91,0,0,0,3.26.54,2.09,2.09,0,0,0,1.8-.9,1.67,1.67,0,0,0-.55-1.9,4.93,4.93,0,0,0-1.94-.82l-2.3-.59Z" transform="translate(-5.3 -7.59)"/><path class="cls-10" d="M348.5,270.5c-.56.4-1.15.95-1.1,1.64a1.47,1.47,0,0,0,.67,1,4.07,4.07,0,0,0,3.47.23,12.66,12.66,0,0,0,3.86-1.91,4,4,0,0,0,1.47-1.68C358.72,264.93,349.46,269.8,348.5,270.5Z" transform="translate(-5.3 -7.59)"/><path class="cls-11" d="M320.33,234.74a38.16,38.16,0,0,0-3.71,5.56,19.37,19.37,0,0,0,2.68,21.07,6.92,6.92,0,0,0,2.57,2A3.08,3.08,0,0,0,325,263c1.16-1,1.1-2.77.85-4.26a32.68,32.68,0,0,0-1.45-5.6c-.69-1.95-1.58-3.91-1.56-6,0-3.1,2.14-5.9,4.78-7.53a25,25,0,0,1,8.81-2.88,13.09,13.09,0,0,0,4.85-1.55c6.74-4.43-3.7-9.55-7.78-9.88C327.83,224.86,323.34,230.77,320.33,234.74Z" transform="translate(-5.3 -7.59)"/><path class="cls-7" d="M249.57,310.48c-4.66,8.8-4.63,20.12.79,28.48a31.71,31.71,0,0,0,10.36,9.69,41.23,41.23,0,0,0,30,4.84c7.75-1.76,15.2-6.08,19.26-12.91,2.73-4.58,3.78-10,4.26-15.26.62-6.79.1-14.36-4.66-19.23-3.07-3.14-7.4-4.63-11.57-6l-11.83-3.95c-7.55-2.52-13.81-3.56-21.14-.09A33.79,33.79,0,0,0,249.57,310.48Z" transform="translate(-5.3 -7.59)"/><path class="cls-8" d="M248.26,307.52c-4.66,8.8-4.62,20.12.79,28.48a31.74,31.74,0,0,0,10.37,9.69,41.22,41.22,0,0,0,30,4.84c7.75-1.76,15.19-6.08,19.26-12.91,2.72-4.58,3.78-10,4.26-15.26.62-6.79.09-14.36-4.66-19.23-3.07-3.14-7.41-4.63-11.57-6l-11.83-3.95c-7.56-2.52-13.82-3.56-21.15-.09A33.89,33.89,0,0,0,248.26,307.52Z" transform="translate(-5.3 -7.59)"/><path class="cls-9" d="M250.91,313.84c-2.39,8.22-.76,17.8,5.16,24s14.71,8.14,23,9.68a25.61,25.61,0,0,0,8.31.58c6.48-1,11.17-6.57,14.88-12,3.17-4.65,6.17-9.59,7.22-15.12s-.15-11.78-4.33-15.54c-2.81-2.53-6.56-3.66-10.19-4.73l-14.86-4.35c-6.8-2-12.38-3.82-18.08,1A34.67,34.67,0,0,0,250.91,313.84Z" transform="translate(-5.3 -7.59)"/><path class="cls-10" d="M258.75,316.52a2.15,2.15,0,0,0,.06,1c.32.95,1.53,1.25,2.53,1.16a6,6,0,0,0,4.58-3c1.33-2.34-.39-4.15-2.87-3.91C260.79,312.07,259,314.36,258.75,316.52Z" transform="translate(-5.3 -7.59)"/><path class="cls-10" d="M271.5,306.11a3.07,3.07,0,0,0,3.69-.55,3.11,3.11,0,0,0,.66-1.48c.46-2.63-2.67-5.79-5.29-4.17C268.34,301.28,269.5,305,271.5,306.11Z" transform="translate(-5.3 -7.59)"/><path class="cls-10" d="M275.84,330.86a5.23,5.23,0,0,0-.09,4.16,2.56,2.56,0,0,0,2.15,1.76A2.59,2.59,0,0,0,280,334.9a3.88,3.88,0,0,0-.38-3.68,2.51,2.51,0,0,0-3.42-.56Z" transform="translate(-5.3 -7.59)"/><path class="cls-10" d="M260.49,334.53a2.76,2.76,0,0,0,3.19,1.19,5.8,5.8,0,0,0,2.86-2.23,5.46,5.46,0,0,0,1.06-2.11C268.53,326.75,257.22,327.85,260.49,334.53Z" transform="translate(-5.3 -7.59)"/><path class="cls-10" d="M279.88,319a11.24,11.24,0,0,0,2.74,2.25,2.33,2.33,0,0,0,1.42.53,1.59,1.59,0,0,0,1.07-.66,3,3,0,0,0,.35-2.75,4.66,4.66,0,0,0-1.8-2.2c-.68-.48-3.31-1.65-4.16-1.18C278.13,315.79,279.2,318.2,279.88,319Z" transform="translate(-5.3 -7.59)"/><path class="cls-10" d="M292.46,326.41c-.11.9.13,2.09,1,2.22a1.78,1.78,0,0,0,1.14-.34,10.2,10.2,0,0,0,4.19-4.93c.84-2.14-.43-4.71-2.84-3.34C294,321.13,292.72,324.33,292.46,326.41Z" transform="translate(-5.3 -7.59)"/><path class="cls-10" d="M293.84,305.41a1.41,1.41,0,0,0-2.17-.26,2.06,2.06,0,0,0-.23,2.37,3.89,3.89,0,0,0,1.93,1.59,6.87,6.87,0,0,0,3.26.54,2.08,2.08,0,0,0,1.79-.9,1.64,1.64,0,0,0-.55-1.9,4.6,4.6,0,0,0-1.94-.82l-2.3-.6Z" transform="translate(-5.3 -7.59)"/><path class="cls-10" d="M286.58,341.63c-.56.41-1.15,1-1.1,1.65a1.55,1.55,0,0,0,.67,1,4,4,0,0,0,3.47.22,12.27,12.27,0,0,0,3.87-1.91A4,4,0,0,0,295,341C296.8,336.07,287.54,340.94,286.58,341.63Z" transform="translate(-5.3 -7.59)"/><path class="cls-11" d="M258.42,305.88a37.43,37.43,0,0,0-3.72,5.56,19.35,19.35,0,0,0,2.68,21.06,7,7,0,0,0,2.57,2,3.14,3.14,0,0,0,3.11-.37c1.15-1,1.1-2.77.85-4.27a32.59,32.59,0,0,0-1.46-5.59c-.69-2-1.58-3.91-1.56-6,0-3.11,2.14-5.9,4.78-7.54a25.15,25.15,0,0,1,8.81-2.87,12.92,12.92,0,0,0,4.85-1.56c6.74-4.42-3.7-9.55-7.78-9.87C265.91,296,261.42,301.91,258.42,305.88Z" transform="translate(-5.3 -7.59)"/><path class="cls-7" d="M157.23,317c-4.66,8.8-4.63,20.12.79,28.48a31.71,31.71,0,0,0,10.36,9.69,41.23,41.23,0,0,0,30,4.84c7.75-1.76,15.2-6.08,19.26-12.91,2.73-4.58,3.78-10,4.26-15.26.62-6.79.1-14.36-4.66-19.23-3.07-3.14-7.4-4.63-11.57-6l-11.83-3.95c-7.55-2.52-13.81-3.56-21.15-.09A33.81,33.81,0,0,0,157.23,317Z" transform="translate(-5.3 -7.59)"/><path class="cls-8" d="M155.92,314c-4.66,8.8-4.62,20.12.79,28.48a31.74,31.74,0,0,0,10.37,9.69,41.22,41.22,0,0,0,30,4.84c7.74-1.76,15.19-6.08,19.26-12.91,2.72-4.57,3.78-10,4.26-15.26.62-6.79.09-14.36-4.67-19.23-3.06-3.14-7.4-4.63-11.56-6l-11.84-3.95c-7.55-2.52-13.81-3.56-21.14-.09A33.89,33.89,0,0,0,155.92,314Z" transform="translate(-5.3 -7.59)"/><path class="cls-9" d="M158.56,320.34c-2.38,8.22-.75,17.8,5.17,24s14.71,8.14,23,9.68a25.57,25.57,0,0,0,8.3.58c6.49-1,11.18-6.57,14.88-12,3.18-4.65,6.17-9.59,7.23-15.11s-.15-11.79-4.33-15.55c-2.81-2.53-6.56-3.66-10.19-4.72l-14.87-4.36c-6.79-2-12.37-3.82-18.07,1A34.76,34.76,0,0,0,158.56,320.34Z" transform="translate(-5.3 -7.59)"/><path class="cls-10" d="M166.41,323a2.28,2.28,0,0,0,.05,1c.33.95,1.54,1.25,2.54,1.16a6,6,0,0,0,4.58-3c1.33-2.34-.39-4.15-2.87-3.91C168.45,318.57,166.7,320.86,166.41,323Z" transform="translate(-5.3 -7.59)"/><path class="cls-10" d="M179.16,312.61a3.05,3.05,0,0,0,3.69-.55,3.11,3.11,0,0,0,.66-1.48c.46-2.63-2.67-5.79-5.29-4.17C176,307.78,177.16,311.52,179.16,312.61Z" transform="translate(-5.3 -7.59)"/><path class="cls-10" d="M183.5,337.36a5.19,5.19,0,0,0-.09,4.16,2.17,2.17,0,0,0,4.28-.12,3.85,3.85,0,0,0-.37-3.68,2.51,2.51,0,0,0-3.42-.56Z" transform="translate(-5.3 -7.59)"/><path class="cls-10" d="M168.15,341a2.76,2.76,0,0,0,3.19,1.19A5.8,5.8,0,0,0,174.2,340a5.46,5.46,0,0,0,1.06-2.11C176.19,333.25,164.88,334.35,168.15,341Z" transform="translate(-5.3 -7.59)"/><path class="cls-10" d="M187.54,325.54a11.24,11.24,0,0,0,2.74,2.25,2.31,2.31,0,0,0,1.42.53,1.59,1.59,0,0,0,1.07-.66,3,3,0,0,0,.35-2.75,4.72,4.72,0,0,0-1.8-2.2c-.68-.48-3.31-1.65-4.16-1.18C185.79,322.29,186.86,324.7,187.54,325.54Z" transform="translate(-5.3 -7.59)"/><path class="cls-10" d="M200.12,332.91c-.11.9.13,2.09,1,2.22a1.78,1.78,0,0,0,1.14-.34,10.2,10.2,0,0,0,4.19-4.93c.84-2.14-.43-4.71-2.84-3.34C201.7,327.63,200.38,330.83,200.12,332.91Z" transform="translate(-5.3 -7.59)"/><path class="cls-10" d="M201.5,311.91a1.41,1.41,0,0,0-2.17-.26,2.06,2.06,0,0,0-.23,2.37,3.8,3.8,0,0,0,1.93,1.59,6.87,6.87,0,0,0,3.26.54,2.09,2.09,0,0,0,1.79-.9,1.65,1.65,0,0,0-.55-1.9,4.6,4.6,0,0,0-1.94-.82l-2.3-.6Z" transform="translate(-5.3 -7.59)"/><path class="cls-10" d="M194.24,348.13c-.56.41-1.15,1-1.1,1.65a1.51,1.51,0,0,0,.67,1,4,4,0,0,0,3.47.22,12.38,12.38,0,0,0,3.87-1.91,4,4,0,0,0,1.46-1.68C204.46,342.57,195.2,347.44,194.24,348.13Z" transform="translate(-5.3 -7.59)"/><path class="cls-11" d="M166.08,312.38a37.43,37.43,0,0,0-3.72,5.56A19.35,19.35,0,0,0,165,339a7,7,0,0,0,2.57,2,3.14,3.14,0,0,0,3.11-.37c1.15-1,1.1-2.77.84-4.27a32.81,32.81,0,0,0-1.45-5.59c-.69-2-1.58-3.91-1.56-6,0-3.11,2.14-5.9,4.78-7.54a25.15,25.15,0,0,1,8.81-2.87,12.92,12.92,0,0,0,4.85-1.56c6.74-4.42-3.7-9.55-7.78-9.87C173.57,302.49,169.08,308.41,166.08,312.38Z" transform="translate(-5.3 -7.59)"/><path class="cls-7" d="M237.36,408.64c-4.66,8.8-4.63,20.12.79,28.48a31.61,31.61,0,0,0,10.36,9.69,41.23,41.23,0,0,0,30,4.84c7.75-1.76,15.2-6.08,19.26-12.91,2.73-4.57,3.78-9.95,4.26-15.26.62-6.78.1-14.35-4.66-19.23-3.07-3.14-7.4-4.63-11.57-6l-11.83-4c-7.55-2.51-13.81-3.56-21.15-.09A33.87,33.87,0,0,0,237.36,408.64Z" transform="translate(-5.3 -7.59)"/><path class="cls-8" d="M236.05,405.68c-4.66,8.8-4.62,20.13.79,28.48a31.74,31.74,0,0,0,10.37,9.69,41.22,41.22,0,0,0,30,4.84c7.74-1.76,15.19-6.08,19.26-12.91,2.72-4.57,3.77-9.95,4.26-15.26.62-6.78.09-14.35-4.67-19.23-3.06-3.14-7.4-4.63-11.56-6l-11.84-3.95c-7.55-2.51-13.81-3.56-21.14-.08A33.82,33.82,0,0,0,236.05,405.68Z" transform="translate(-5.3 -7.59)"/><path class="cls-9" d="M238.69,412c-2.38,8.22-.75,17.79,5.17,24s14.71,8.14,23,9.68a25.3,25.3,0,0,0,8.3.58c6.49-1,11.18-6.57,14.88-12,3.18-4.64,6.17-9.59,7.23-15.11s-.15-11.78-4.33-15.55c-2.81-2.53-6.57-3.66-10.19-4.72l-14.87-4.36c-6.79-2-12.38-3.82-18.07,1A34.71,34.71,0,0,0,238.69,412Z" transform="translate(-5.3 -7.59)"/><path class="cls-10" d="M246.54,414.68a2.28,2.28,0,0,0,.05,1,2.33,2.33,0,0,0,2.54,1.16,6,6,0,0,0,4.58-3c1.33-2.34-.39-4.15-2.87-3.91C248.58,410.23,246.83,412.52,246.54,414.68Z" transform="translate(-5.3 -7.59)"/><path class="cls-10" d="M259.29,404.27a3,3,0,0,0,3.69-.55,3.12,3.12,0,0,0,.66-1.47c.46-2.63-2.67-5.79-5.29-4.18C256.13,399.44,257.29,403.18,259.29,404.27Z" transform="translate(-5.3 -7.59)"/><path class="cls-10" d="M263.63,429a5.19,5.19,0,0,0-.09,4.16,2.55,2.55,0,0,0,2.15,1.76,2.58,2.58,0,0,0,2.13-1.87,3.87,3.87,0,0,0-.37-3.69,2.52,2.52,0,0,0-3.43-.56Z" transform="translate(-5.3 -7.59)"/><path class="cls-10" d="M248.28,432.69a2.76,2.76,0,0,0,3.19,1.19,5.74,5.74,0,0,0,2.86-2.23,5.46,5.46,0,0,0,1.06-2.11C256.32,424.91,245,426,248.28,432.69Z" transform="translate(-5.3 -7.59)"/><path class="cls-10" d="M267.66,417.2a11.48,11.48,0,0,0,2.75,2.25,2.25,2.25,0,0,0,1.42.53,1.52,1.52,0,0,0,1.07-.66,3,3,0,0,0,.34-2.75,4.69,4.69,0,0,0-1.79-2.2c-.68-.48-3.31-1.65-4.16-1.17C265.92,414,267,416.36,267.66,417.2Z" transform="translate(-5.3 -7.59)"/><path class="cls-10" d="M280.25,424.57c-.11.9.13,2.09,1,2.22a1.79,1.79,0,0,0,1.15-.34,10.2,10.2,0,0,0,4.19-4.93c.84-2.13-.43-4.71-2.84-3.34C281.83,419.29,280.51,422.49,280.25,424.57Z" transform="translate(-5.3 -7.59)"/><path class="cls-10" d="M281.63,403.57a1.41,1.41,0,0,0-2.17-.26,2,2,0,0,0-.23,2.37,3.77,3.77,0,0,0,1.92,1.59,6.91,6.91,0,0,0,3.26.54,2.09,2.09,0,0,0,1.8-.9,1.65,1.65,0,0,0-.55-1.9,4.93,4.93,0,0,0-1.94-.82l-2.3-.59Z" transform="translate(-5.3 -7.59)"/><path class="cls-10" d="M274.37,439.8c-.56.4-1.15.95-1.1,1.64a1.49,1.49,0,0,0,.67,1,4.07,4.07,0,0,0,3.47.23,12.66,12.66,0,0,0,3.86-1.91,4,4,0,0,0,1.47-1.69C284.59,434.23,275.33,439.1,274.37,439.8Z" transform="translate(-5.3 -7.59)"/><path class="cls-11" d="M246.2,404a38.16,38.16,0,0,0-3.71,5.56,19.35,19.35,0,0,0,2.68,21.06,6.85,6.85,0,0,0,2.57,2,3.1,3.1,0,0,0,3.1-.37c1.16-1,1.1-2.77.85-4.26a32.68,32.68,0,0,0-1.45-5.6c-.69-1.95-1.58-3.91-1.56-6,0-3.1,2.14-5.9,4.78-7.54a25.15,25.15,0,0,1,8.81-2.87,12.92,12.92,0,0,0,4.85-1.56c6.74-4.42-3.7-9.54-7.78-9.87C253.7,394.16,249.21,400.07,246.2,404Z" transform="translate(-5.3 -7.59)"/><path class="cls-7" d="M348.29,359.15c-4.66,8.81-4.62,20.13.79,28.48a31.77,31.77,0,0,0,10.37,9.7,41.17,41.17,0,0,0,30,4.83c7.75-1.75,15.19-6.08,19.26-12.9,2.72-4.58,3.78-10,4.26-15.27.62-6.78.09-14.35-4.66-19.22-3.07-3.15-7.41-4.64-11.57-6l-11.83-3.94c-7.56-2.52-13.82-3.56-21.15-.09A33.86,33.86,0,0,0,348.29,359.15Z" transform="translate(-5.3 -7.59)"/><path class="cls-8" d="M347,356.2c-4.66,8.8-4.63,20.12.79,28.48a31.81,31.81,0,0,0,10.36,9.69,41.18,41.18,0,0,0,30,4.83c7.75-1.75,15.2-6.08,19.26-12.9,2.73-4.58,3.78-10,4.26-15.27.62-6.78.1-14.35-4.66-19.22-3.07-3.15-7.4-4.64-11.57-6l-11.83-3.94c-7.55-2.52-13.81-3.56-21.14-.09A33.74,33.74,0,0,0,347,356.2Z" transform="translate(-5.3 -7.59)"/><path class="cls-9" d="M349.63,362.52c-2.39,8.22-.75,17.79,5.17,24s14.7,8.14,23,9.68a25,25,0,0,0,8.3.58c6.49-1,11.18-6.57,14.88-12,3.18-4.64,6.17-9.58,7.23-15.11s-.16-11.78-4.34-15.54c-2.8-2.53-6.56-3.67-10.18-4.73L378.86,345c-6.79-2-12.38-3.82-18.07,1A34.64,34.64,0,0,0,349.63,362.52Z" transform="translate(-5.3 -7.59)"/><path class="cls-10" d="M357.48,365.2a2.24,2.24,0,0,0,0,1,2.34,2.34,0,0,0,2.53,1.17,6,6,0,0,0,4.58-3c1.33-2.34-.39-4.14-2.87-3.9C359.52,360.74,357.77,363,357.48,365.2Z" transform="translate(-5.3 -7.59)"/><path class="cls-10" d="M370.23,354.79a3.05,3.05,0,0,0,3.69-.56,3.13,3.13,0,0,0,.66-1.47c.46-2.63-2.67-5.79-5.3-4.17C367.06,350,368.23,353.69,370.23,354.79Z" transform="translate(-5.3 -7.59)"/><path class="cls-10" d="M374.57,379.54a5.19,5.19,0,0,0-.09,4.16,2.17,2.17,0,0,0,4.28-.12,3.89,3.89,0,0,0-.37-3.69,2.52,2.52,0,0,0-3.43-.56Z" transform="translate(-5.3 -7.59)"/><path class="cls-10" d="M359.22,383.2a2.74,2.74,0,0,0,3.18,1.19,5.65,5.65,0,0,0,2.86-2.23,5.16,5.16,0,0,0,1.06-2.1C367.26,375.42,356,376.53,359.22,383.2Z" transform="translate(-5.3 -7.59)"/><path class="cls-10" d="M378.6,367.71a11.37,11.37,0,0,0,2.75,2.26,2.37,2.37,0,0,0,1.41.53,1.64,1.64,0,0,0,1.08-.66,3,3,0,0,0,.34-2.75,4.67,4.67,0,0,0-1.79-2.21c-.69-.47-3.31-1.64-4.17-1.17C376.86,364.47,377.93,366.87,378.6,367.71Z" transform="translate(-5.3 -7.59)"/><path class="cls-10" d="M391.18,375.08c-.11.9.13,2.09,1,2.23a1.82,1.82,0,0,0,1.15-.35,10.18,10.18,0,0,0,4.18-4.93c.85-2.13-.43-4.71-2.84-3.33C392.77,369.8,391.44,373,391.18,375.08Z" transform="translate(-5.3 -7.59)"/><path class="cls-10" d="M392.56,354.08a1.4,1.4,0,0,0-2.16-.25,2,2,0,0,0-.24,2.36,3.83,3.83,0,0,0,1.93,1.59,7,7,0,0,0,3.26.55,2.09,2.09,0,0,0,1.79-.91,1.63,1.63,0,0,0-.54-1.89,4.85,4.85,0,0,0-2-.83l-2.29-.59Z" transform="translate(-5.3 -7.59)"/><path class="cls-10" d="M385.31,390.31c-.56.41-1.15,1-1.1,1.64a1.48,1.48,0,0,0,.67,1.05,4,4,0,0,0,3.46.22,12.6,12.6,0,0,0,3.87-1.91,3.94,3.94,0,0,0,1.46-1.68C395.53,384.74,386.26,389.62,385.31,390.31Z" transform="translate(-5.3 -7.59)"/><path class="cls-11" d="M357.14,354.55a38.31,38.31,0,0,0-3.72,5.57,19.39,19.39,0,0,0,2.68,21.06,6.86,6.86,0,0,0,2.58,2,3.08,3.08,0,0,0,3.1-.37c1.15-1,1.1-2.76.85-4.26a33.88,33.88,0,0,0-1.45-5.6c-.69-1.95-1.58-3.9-1.56-6,0-3.11,2.14-5.9,4.78-7.54a25.19,25.19,0,0,1,8.8-2.88,12.85,12.85,0,0,0,4.85-1.55c6.75-4.42-3.69-9.55-7.77-9.88C364.64,344.67,360.14,350.58,357.14,354.55Z" transform="translate(-5.3 -7.59)"/><path class="cls-7" d="M376.9,312.85c6.23,7.77,16.63,12.24,26.45,10.59a31.66,31.66,0,0,0,13-5.66,41.15,41.15,0,0,0,16.36-25.63c1.47-7.81.46-16.36-4.19-22.8-3.12-4.32-7.64-7.43-12.31-10-6-3.26-13.14-5.79-19.5-3.36-4.1,1.57-7.19,5-10.12,8.23q-4.17,4.63-8.32,9.29c-5.31,5.93-8.76,11.26-8.49,19.37A33.86,33.86,0,0,0,376.9,312.85Z" transform="translate(-5.3 -7.59)"/><path class="cls-8" d="M373.67,312.87c6.22,7.78,16.63,12.24,26.45,10.59a31.77,31.77,0,0,0,13-5.66,41.23,41.23,0,0,0,16.36-25.63c1.47-7.81.46-16.36-4.19-22.8-3.12-4.32-7.64-7.42-12.32-10-6-3.26-13.13-5.78-19.5-3.35-4.1,1.56-7.19,4.95-10.12,8.22L375,273.55c-5.31,5.93-8.76,11.26-8.48,19.37A33.77,33.77,0,0,0,373.67,312.87Z" transform="translate(-5.3 -7.59)"/><path class="cls-9" d="M380.52,313c6.59,5.46,16,7.76,24.05,4.78s13.31-10.26,18-17.3a25.37,25.37,0,0,0,3.83-7.39c1.68-6.34-1.59-12.86-5.09-18.41-3-4.76-6.34-9.47-11-12.64s-10.88-4.54-16-2.2c-3.43,1.58-6,4.57-8.38,7.48l-9.91,11.91c-4.52,5.44-8.42,9.84-6.25,17A34.64,34.64,0,0,0,380.52,313Z" transform="translate(-5.3 -7.59)"/><path class="cls-10" d="M386.09,306.82a2.34,2.34,0,0,0,1,.37c1,.07,1.76-.91,2.07-1.87a6,6,0,0,0-.9-5.38c-1.62-2.15-4-1.28-4.73,1.09C382.82,303.18,384.22,305.7,386.09,306.82Z" transform="translate(-5.3 -7.59)"/><path class="cls-10" d="M381.6,291a2.85,2.85,0,0,0-.13-4.8c-2.23-1.47-6.37.15-5.93,3.2C375.91,292,379.81,292.39,381.6,291Z" transform="translate(-5.3 -7.59)"/><path class="cls-10" d="M406,296.83a5.22,5.22,0,0,0,3.78,1.74,2.17,2.17,0,0,0,1.6-4,3.89,3.89,0,0,0-3.53-1.12,2.52,2.52,0,0,0-1.88,2.92Z" transform="translate(-5.3 -7.59)"/><path class="cls-10" d="M403.31,312.38a2.75,2.75,0,0,0,2.36-2.45,5.74,5.74,0,0,0-.91-3.51,5.31,5.31,0,0,0-1.51-1.81C399.36,301.91,395.89,312.73,403.31,312.38Z" transform="translate(-5.3 -7.59)"/><path class="cls-10" d="M396.79,288.44a11.56,11.56,0,0,0,3.16-1.63,2.31,2.31,0,0,0,1.05-1.09,1.55,1.55,0,0,0-.18-1.24,2.94,2.94,0,0,0-2.38-1.41,4.64,4.64,0,0,0-2.74.77c-.71.44-2.83,2.38-2.73,3.35C393.12,288.75,395.75,288.72,396.79,288.44Z" transform="translate(-5.3 -7.59)"/><path class="cls-10" d="M408.56,279.82c.78.46,2,.71,2.45-.06a1.8,1.8,0,0,0,.13-1.19,10.16,10.16,0,0,0-2.86-5.8c-1.62-1.62-4.49-1.48-4.19,1.28C404.34,276.27,406.75,278.75,408.56,279.82Z" transform="translate(-5.3 -7.59)"/><path class="cls-10" d="M389.83,270.21a1.4,1.4,0,0,0-1.09,1.89,2,2,0,0,0,2.07,1.15,3.79,3.79,0,0,0,2.23-1.14,6.87,6.87,0,0,0,1.79-2.77,2.1,2.1,0,0,0-.11-2,1.65,1.65,0,0,0-2-.25,4.84,4.84,0,0,0-1.53,1.46l-1.46,1.87Z" transform="translate(-5.3 -7.59)"/><path class="cls-10" d="M420.2,291.26c.14.67.42,1.44,1.07,1.66a1.48,1.48,0,0,0,1.22-.2,4,4,0,0,0,1.58-3.09,12.25,12.25,0,0,0-.22-4.31,3.86,3.86,0,0,0-1-2C419.15,279.67,419.94,290.1,420.2,291.26Z" transform="translate(-5.3 -7.59)"/><path class="cls-11" d="M376.19,302.9a38,38,0,0,0,3.63,5.62,19.36,19.36,0,0,0,20.39,5.91,6.91,6.91,0,0,0,2.86-1.57,3.09,3.09,0,0,0,.89-3c-.45-1.45-2.1-2.11-3.57-2.48a33.53,33.53,0,0,0-5.72-.89c-2.06-.14-4.21-.1-6.1-.94-2.85-1.25-4.57-4.31-5-7.38a25.08,25.08,0,0,1,.86-9.22,13.08,13.08,0,0,0,.5-5.07c-1.38-7.95-10.23-.4-12.16,3.21C370.1,292.1,373.74,298.57,376.19,302.9Z" transform="translate(-5.3 -7.59)"/><path class="cls-7" d="M390.15,228.15c6.23,7.77,16.63,12.24,26.45,10.58a31.66,31.66,0,0,0,13-5.66A41.17,41.17,0,0,0,446,207.44c1.46-7.81.45-16.36-4.2-22.8-3.11-4.32-7.63-7.42-12.31-10-6-3.27-13.14-5.79-19.5-3.36-4.1,1.57-7.19,4.95-10.12,8.22l-8.32,9.29c-5.31,5.93-8.76,11.27-8.48,19.37A33.88,33.88,0,0,0,390.15,228.15Z" transform="translate(-5.3 -7.59)"/><path class="cls-8" d="M386.92,228.17c6.23,7.77,16.63,12.24,26.45,10.58a31.58,31.58,0,0,0,13-5.66,41.16,41.16,0,0,0,16.36-25.63c1.47-7.8.46-16.35-4.19-22.8-3.12-4.32-7.64-7.42-12.31-10-6-3.26-13.14-5.79-19.5-3.36-4.11,1.57-7.2,4.95-10.12,8.22l-8.33,9.3c-5.31,5.93-8.75,11.26-8.48,19.37A33.88,33.88,0,0,0,386.92,228.17Z" transform="translate(-5.3 -7.59)"/><path class="cls-9" d="M393.77,228.26c6.6,5.45,16,7.76,24.06,4.77s13.31-10.26,18-17.29a25.38,25.38,0,0,0,3.83-7.39c1.69-6.34-1.59-12.87-5.08-18.42-3-4.76-6.35-9.47-11-12.63s-10.87-4.54-16-2.2c-3.43,1.57-6,4.57-8.38,7.47l-9.9,11.91c-4.53,5.45-8.43,9.85-6.26,17A34.74,34.74,0,0,0,393.77,228.26Z" transform="translate(-5.3 -7.59)"/><path class="cls-10" d="M399.35,222.12a2.29,2.29,0,0,0,1,.36c1,.08,1.76-.91,2.07-1.86a6,6,0,0,0-.9-5.38c-1.62-2.15-4-1.29-4.72,1.08C396.07,218.48,397.48,221,399.35,222.12Z" transform="translate(-5.3 -7.59)"/><path class="cls-10" d="M394.86,206.28a2.84,2.84,0,0,0-.14-4.79c-2.23-1.47-6.37.14-5.93,3.2C389.17,207.27,393.06,207.69,394.86,206.28Z" transform="translate(-5.3 -7.59)"/><path class="cls-10" d="M419.29,212.13a5.19,5.19,0,0,0,3.79,1.73,2.52,2.52,0,0,0,2.46-1.27,2.58,2.58,0,0,0-.87-2.7,3.87,3.87,0,0,0-3.53-1.12,2.53,2.53,0,0,0-1.88,2.92Z" transform="translate(-5.3 -7.59)"/><path class="cls-10" d="M416.56,227.67a2.74,2.74,0,0,0,2.36-2.45,5.74,5.74,0,0,0-.91-3.51,5.4,5.4,0,0,0-1.51-1.81C412.61,217.2,409.14,228,416.56,227.67Z" transform="translate(-5.3 -7.59)"/><path class="cls-10" d="M410.05,203.73a11.34,11.34,0,0,0,3.15-1.62,2.38,2.38,0,0,0,1.06-1.09,1.63,1.63,0,0,0-.19-1.25,3,3,0,0,0-2.38-1.41,4.71,4.71,0,0,0-2.74.77c-.71.44-2.82,2.39-2.73,3.36C406.38,204,409,204,410.05,203.73Z" transform="translate(-5.3 -7.59)"/><path class="cls-10" d="M421.81,195.11c.78.46,2,.71,2.45-.06a1.85,1.85,0,0,0,.14-1.19,10.23,10.23,0,0,0-2.87-5.8c-1.62-1.62-4.49-1.47-4.18,1.29C417.59,191.56,420,194.05,421.81,195.11Z" transform="translate(-5.3 -7.59)"/><path class="cls-10" d="M403.08,185.5a1.41,1.41,0,0,0-1.09,1.89,2,2,0,0,0,2.08,1.15,3.81,3.81,0,0,0,2.22-1.13,7.11,7.11,0,0,0,1.8-2.78,2.08,2.08,0,0,0-.12-2,1.63,1.63,0,0,0-2-.25,4.8,4.8,0,0,0-1.53,1.45L403,185.7Z" transform="translate(-5.3 -7.59)"/><path class="cls-10" d="M433.45,206.55c.15.68.42,1.44,1.07,1.66a1.51,1.51,0,0,0,1.22-.19,4,4,0,0,0,1.58-3.1,12.5,12.5,0,0,0-.21-4.31,4,4,0,0,0-1-2C432.4,195,433.19,205.4,433.45,206.55Z" transform="translate(-5.3 -7.59)"/><path class="cls-11" d="M389.44,218.2a38.51,38.51,0,0,0,3.63,5.62,19.37,19.37,0,0,0,20.4,5.91,6.94,6.94,0,0,0,2.85-1.57,3.1,3.1,0,0,0,.89-3c-.45-1.45-2.1-2.11-3.57-2.47a33.53,33.53,0,0,0-5.72-.89c-2.06-.14-4.21-.1-6.1-.94-2.84-1.26-4.56-4.31-5-7.39a25.1,25.1,0,0,1,.86-9.22,13.06,13.06,0,0,0,.5-5.07c-1.38-7.94-10.23-.4-12.15,3.22C383.35,207.39,387,213.87,389.44,218.2Z" transform="translate(-5.3 -7.59)"/><path class="cls-7" d="M92.9,233.58c6.23,7.77,16.63,12.24,26.45,10.59a31.79,31.79,0,0,0,13-5.66,41.17,41.17,0,0,0,16.36-25.63c1.47-7.81.46-16.36-4.19-22.8-3.12-4.32-7.64-7.43-12.31-10-6-3.26-13.14-5.79-19.5-3.36-4.1,1.57-7.19,4.95-10.12,8.22l-8.32,9.3c-5.31,5.93-8.76,11.26-8.48,19.37A33.8,33.8,0,0,0,92.9,233.58Z" transform="translate(-5.3 -7.59)"/><path class="cls-8" d="M89.67,233.6c6.22,7.77,16.63,12.24,26.45,10.59a31.77,31.77,0,0,0,13-5.66,41.23,41.23,0,0,0,16.36-25.63c1.47-7.81.46-16.36-4.19-22.8-3.12-4.32-7.64-7.43-12.32-10-6-3.26-13.13-5.79-19.5-3.36-4.1,1.57-7.19,5-10.12,8.23L91,194.28c-5.31,5.93-8.75,11.26-8.48,19.37A33.79,33.79,0,0,0,89.67,233.6Z" transform="translate(-5.3 -7.59)"/><path class="cls-9" d="M96.52,233.69c6.6,5.46,16,7.76,24,4.78s13.31-10.26,18-17.3a25.5,25.5,0,0,0,3.83-7.39c1.68-6.34-1.59-12.86-5.09-18.41-3-4.76-6.34-9.48-11-12.64s-10.88-4.54-16-2.2c-3.43,1.57-6,4.57-8.38,7.47q-5,6-9.91,11.92c-4.52,5.44-8.42,9.84-6.25,17A34.62,34.62,0,0,0,96.52,233.69Z" transform="translate(-5.3 -7.59)"/><path class="cls-10" d="M102.09,227.55a2.2,2.2,0,0,0,1,.36c1,.08,1.76-.91,2.07-1.86a6,6,0,0,0-.9-5.38c-1.62-2.15-4-1.29-4.73,1.08C98.82,223.91,100.22,226.43,102.09,227.55Z" transform="translate(-5.3 -7.59)"/><path class="cls-10" d="M97.6,211.71a2.84,2.84,0,0,0-.13-4.79c-2.23-1.47-6.37.15-5.93,3.2C91.91,212.7,95.81,213.12,97.6,211.71Z" transform="translate(-5.3 -7.59)"/><path class="cls-10" d="M122,217.56a5.22,5.22,0,0,0,3.78,1.74,2.17,2.17,0,0,0,1.6-4,3.89,3.89,0,0,0-3.53-1.12,2.52,2.52,0,0,0-1.88,2.92Z" transform="translate(-5.3 -7.59)"/><path class="cls-10" d="M119.31,233.11a2.75,2.75,0,0,0,2.36-2.45,5.74,5.74,0,0,0-.91-3.51,5.31,5.31,0,0,0-1.51-1.81C115.36,222.64,111.89,233.46,119.31,233.11Z" transform="translate(-5.3 -7.59)"/><path class="cls-10" d="M112.79,209.16a11.26,11.26,0,0,0,3.16-1.62,2.31,2.31,0,0,0,1-1.09,1.58,1.58,0,0,0-.18-1.25,3,3,0,0,0-2.38-1.41,4.79,4.79,0,0,0-2.74.77c-.71.44-2.83,2.39-2.73,3.36C109.12,209.47,111.75,209.45,112.79,209.16Z" transform="translate(-5.3 -7.59)"/><path class="cls-10" d="M124.56,200.54c.78.46,2,.72,2.45,0a1.82,1.82,0,0,0,.13-1.2,10.16,10.16,0,0,0-2.86-5.79c-1.62-1.63-4.49-1.48-4.19,1.28C120.34,197,122.75,199.48,124.56,200.54Z" transform="translate(-5.3 -7.59)"/><path class="cls-10" d="M105.83,190.93a1.41,1.41,0,0,0-1.09,1.89,2,2,0,0,0,2.07,1.16,3.91,3.91,0,0,0,2.23-1.14,6.84,6.84,0,0,0,1.79-2.78,2.08,2.08,0,0,0-.11-2,1.65,1.65,0,0,0-2-.25,4.81,4.81,0,0,0-1.53,1.45c-.48.63-1,1.25-1.46,1.88Z" transform="translate(-5.3 -7.59)"/><path class="cls-10" d="M136.2,212a2.07,2.07,0,0,0,1.07,1.66,1.52,1.52,0,0,0,1.22-.2,4,4,0,0,0,1.58-3.09,12.25,12.25,0,0,0-.22-4.31,3.86,3.86,0,0,0-1-2C135.15,200.39,135.94,210.83,136.2,212Z" transform="translate(-5.3 -7.59)"/><path class="cls-11" d="M92.19,223.63a38.51,38.51,0,0,0,3.63,5.62,19.36,19.36,0,0,0,20.39,5.91,6.91,6.91,0,0,0,2.86-1.57,3.1,3.1,0,0,0,.89-3c-.45-1.45-2.1-2.1-3.57-2.47a33.53,33.53,0,0,0-5.72-.89c-2.06-.14-4.21-.1-6.1-.94-2.84-1.25-4.57-4.31-5-7.38a25.13,25.13,0,0,1,.86-9.23,13,13,0,0,0,.5-5.06c-1.38-8-10.23-.4-12.16,3.21C86.1,212.83,89.74,219.3,92.19,223.63Z" transform="translate(-5.3 -7.59)"/><path class="cls-7" d="M156.61,143.56c6.22,7.77,16.63,12.23,26.45,10.58a31.72,31.72,0,0,0,13-5.66,41.2,41.2,0,0,0,16.36-25.63c1.47-7.81.46-16.36-4.19-22.8-3.12-4.32-7.64-7.42-12.32-10-6-3.27-13.13-5.79-19.5-3.36-4.1,1.57-7.19,5-10.12,8.22q-4.16,4.65-8.32,9.29c-5.31,5.93-8.75,11.27-8.48,19.37A33.89,33.89,0,0,0,156.61,143.56Z" transform="translate(-5.3 -7.59)"/><path class="cls-8" d="M153.37,143.58c6.23,7.77,16.63,12.24,26.45,10.58a31.53,31.53,0,0,0,13-5.66,41.17,41.17,0,0,0,16.37-25.63c1.46-7.8.45-16.35-4.2-22.8-3.11-4.32-7.63-7.42-12.31-10-6-3.26-13.14-5.79-19.5-3.36-4.1,1.57-7.19,5-10.12,8.22l-8.32,9.3c-5.31,5.93-8.76,11.26-8.48,19.37A33.8,33.8,0,0,0,153.37,143.58Z" transform="translate(-5.3 -7.59)"/><path class="cls-9" d="M160.23,143.66c6.59,5.46,16,7.76,24.05,4.78s13.31-10.26,18-17.29a25.41,25.41,0,0,0,3.84-7.39c1.68-6.34-1.59-12.87-5.09-18.42-3-4.76-6.35-9.47-11-12.63s-10.87-4.54-16-2.2c-3.44,1.57-6,4.57-8.39,7.47l-9.9,11.91c-4.52,5.44-8.42,9.85-6.26,17A34.61,34.61,0,0,0,160.23,143.66Z" transform="translate(-5.3 -7.59)"/><path class="cls-10" d="M165.8,137.53a2.29,2.29,0,0,0,1,.36c1,.07,1.76-.91,2.07-1.86a6,6,0,0,0-.9-5.38c-1.61-2.15-3.95-1.29-4.72,1.08C162.52,133.89,163.93,136.4,165.8,137.53Z" transform="translate(-5.3 -7.59)"/><path class="cls-10" d="M161.31,121.69a3,3,0,0,0,1-3.6,3.15,3.15,0,0,0-1.09-1.2c-2.23-1.46-6.38.15-5.93,3.2C155.62,122.68,159.51,123.09,161.31,121.69Z" transform="translate(-5.3 -7.59)"/><path class="cls-10" d="M185.75,127.54a5.15,5.15,0,0,0,3.78,1.73A2.55,2.55,0,0,0,192,128a2.59,2.59,0,0,0-.87-2.7,3.88,3.88,0,0,0-3.54-1.12,2.51,2.51,0,0,0-1.87,2.92Z" transform="translate(-5.3 -7.59)"/><path class="cls-10" d="M183,143.08a2.73,2.73,0,0,0,2.36-2.45,5.68,5.68,0,0,0-.91-3.51,5.4,5.4,0,0,0-1.51-1.81C179.07,132.61,175.59,143.43,183,143.08Z" transform="translate(-5.3 -7.59)"/><path class="cls-10" d="M176.5,119.14a11.4,11.4,0,0,0,3.16-1.62,2.35,2.35,0,0,0,1.05-1.09,1.58,1.58,0,0,0-.18-1.25,3,3,0,0,0-2.39-1.41,4.68,4.68,0,0,0-2.73.77c-.71.44-2.83,2.39-2.73,3.36C172.83,119.45,175.46,119.42,176.5,119.14Z" transform="translate(-5.3 -7.59)"/><path class="cls-10" d="M188.26,110.52c.79.46,2,.71,2.45-.06a1.72,1.72,0,0,0,.14-1.19,10.22,10.22,0,0,0-2.86-5.8c-1.62-1.62-4.49-1.47-4.19,1.29C184,107,186.46,109.46,188.26,110.52Z" transform="translate(-5.3 -7.59)"/><path class="cls-10" d="M169.54,100.91a1.42,1.42,0,0,0-1.1,1.89,2,2,0,0,0,2.08,1.15,3.83,3.83,0,0,0,2.23-1.13,7,7,0,0,0,1.79-2.78,2.08,2.08,0,0,0-.12-2,1.65,1.65,0,0,0-2-.26,4.81,4.81,0,0,0-1.52,1.46l-1.46,1.87Z" transform="translate(-5.3 -7.59)"/><path class="cls-10" d="M199.9,122c.15.68.42,1.44,1.08,1.66a1.52,1.52,0,0,0,1.22-.19,4.06,4.06,0,0,0,1.58-3.1,12.5,12.5,0,0,0-.22-4.31,4,4,0,0,0-1-2C198.85,110.37,199.65,120.81,199.9,122Z" transform="translate(-5.3 -7.59)"/><path class="cls-11" d="M155.9,133.61a37.7,37.7,0,0,0,3.63,5.62,19.37,19.37,0,0,0,20.39,5.91,6.94,6.94,0,0,0,2.85-1.57,3.13,3.13,0,0,0,.9-3c-.45-1.45-2.1-2.11-3.58-2.47a33.42,33.42,0,0,0-5.71-.89c-2.07-.14-4.21-.11-6.11-.94-2.84-1.26-4.56-4.31-5-7.39a25.09,25.09,0,0,1,.85-9.22,12.69,12.69,0,0,0,.5-5.07c-1.38-8-10.23-.4-12.15,3.22C149.81,122.8,153.45,129.28,155.9,133.61Z" transform="translate(-5.3 -7.59)"/><path class="cls-7" d="M331.74,138.81c-1,9.91,3.35,20.37,11.54,26.05a31.73,31.73,0,0,0,13.26,5A41.24,41.24,0,0,0,386.15,163c6.51-4.57,11.76-11.39,12.93-19.25.78-5.27-.28-10.64-1.85-15.74-2-6.51-5.35-13.31-11.6-16-4-1.74-8.61-1.48-13-1.19l-12.45.84c-7.94.54-14.13,1.94-19.59,7.94A33.81,33.81,0,0,0,331.74,138.81Z" transform="translate(-5.3 -7.59)"/><path class="cls-8" d="M329.41,136.56c-1,9.92,3.35,20.38,11.54,26.06a31.58,31.58,0,0,0,13.26,5,41.15,41.15,0,0,0,29.61-6.91c6.51-4.56,11.76-11.38,12.93-19.24.78-5.27-.28-10.65-1.85-15.74-2-6.51-5.35-13.32-11.6-16-4-1.75-8.61-1.48-13-1.19l-12.45.84c-7.94.53-14.13,1.94-19.59,7.93A33.84,33.84,0,0,0,329.41,136.56Z" transform="translate(-5.3 -7.59)"/><path class="cls-9" d="M334.26,141.41c.9,8.52,6.05,16.75,13.87,20.23s16.69,2,25,.22a25.44,25.44,0,0,0,7.9-2.62c5.64-3.36,7.85-10.31,9.23-16.73,1.18-5.49,2.07-11.21.95-16.72s-4.61-10.84-9.9-12.74c-3.56-1.27-7.46-.9-11.22-.51l-15.41,1.61c-7,.73-12.9,1.16-16.34,7.79A34.57,34.57,0,0,0,334.26,141.41Z" transform="translate(-5.3 -7.59)"/><path class="cls-10" d="M342.53,140.92a2.28,2.28,0,0,0,.45.94c.66.75,1.89.58,2.78.11a6,6,0,0,0,3.11-4.48c.35-2.67-1.93-3.69-4.13-2.52C342.73,136,342,138.81,342.53,140.92Z" transform="translate(-5.3 -7.59)"/><path class="cls-10" d="M350.38,126.45a3.07,3.07,0,0,0,3.21-1.91,3.29,3.29,0,0,0,.05-1.62c-.57-2.61-4.67-4.34-6.48-1.85C345.62,123.18,348.12,126.2,350.38,126.45Z" transform="translate(-5.3 -7.59)"/><path class="cls-10" d="M363.79,147.7a5.19,5.19,0,0,0,1.49,3.89,2.56,2.56,0,0,0,2.65.81,2.59,2.59,0,0,0,1.27-2.55,3.86,3.86,0,0,0-1.75-3.26,2.51,2.51,0,0,0-3.38.77Z" transform="translate(-5.3 -7.59)"/><path class="cls-10" d="M351,156.92a2.75,2.75,0,0,0,3.4-.11,5.73,5.73,0,0,0,1.8-3.15,5.35,5.35,0,0,0,.18-2.35C355.46,146.67,345.41,152,351,156.92Z" transform="translate(-5.3 -7.59)"/><path class="cls-10" d="M363,135.23a11.39,11.39,0,0,0,3.4,1.05,2.29,2.29,0,0,0,1.51-.05,1.59,1.59,0,0,0,.74-1,3,3,0,0,0-.72-2.67,4.68,4.68,0,0,0-2.49-1.36c-.82-.18-3.7-.27-4.3.49C360.19,132.89,362.09,134.71,363,135.23Z" transform="translate(-5.3 -7.59)"/><path class="cls-10" d="M377.47,137.28c.24.88.91,1.89,1.79,1.67a1.83,1.83,0,0,0,.94-.76,10.18,10.18,0,0,0,2-6.14c0-2.3-2.19-4.2-3.9-2C376.93,131.79,376.92,135.26,377.47,137.28Z" transform="translate(-5.3 -7.59)"/><path class="cls-10" d="M370.78,117.32a1.41,1.41,0,0,0-2.1.59,2.06,2.06,0,0,0,.68,2.28,3.81,3.81,0,0,0,2.39.74,7,7,0,0,0,3.22-.73,2.09,2.09,0,0,0,1.32-1.52,1.65,1.65,0,0,0-1.23-1.55,4.84,4.84,0,0,0-2.11,0l-2.35.32Z" transform="translate(-5.3 -7.59)"/><path class="cls-10" d="M377.81,153.6a2,2,0,0,0-.39,1.94,1.47,1.47,0,0,0,1,.71,4,4,0,0,0,3.29-1.11,12.49,12.49,0,0,0,2.86-3.24,4,4,0,0,0,.71-2.11C385.15,144.57,378.43,152.59,377.81,153.6Z" transform="translate(-5.3 -7.59)"/><path class="cls-11" d="M338.18,131.19a37.94,37.94,0,0,0-1.32,6.56,19.34,19.34,0,0,0,10.46,18.47,6.89,6.89,0,0,0,3.14.87,3.11,3.11,0,0,0,2.73-1.51c.69-1.36,0-3-.83-4.27a34,34,0,0,0-3.46-4.63c-1.39-1.55-2.95-3-3.72-4.94-1.15-2.88-.25-6.27,1.57-8.79a25.09,25.09,0,0,1,7.06-6,13,13,0,0,0,3.89-3.27c4.57-6.66-7-7.44-10.94-6.19C341.37,119.21,339.46,126.38,338.18,131.19Z" transform="translate(-5.3 -7.59)"/><path class="cls-7" d="M240.88,102.37c-1,9.91,3.35,20.38,11.53,26a31.73,31.73,0,0,0,13.26,5,41.18,41.18,0,0,0,29.62-6.91c6.5-4.56,11.75-11.39,12.92-19.24.79-5.27-.28-10.65-1.84-15.75-2-6.51-5.36-13.31-11.61-16-4-1.74-8.61-1.48-13-1.18l-12.44.83c-7.94.54-14.13,2-19.6,7.94A33.8,33.8,0,0,0,240.88,102.37Z" transform="translate(-5.3 -7.59)"/><path class="cls-8" d="M238.55,100.13c-1,9.91,3.35,20.37,11.53,26.05a31.73,31.73,0,0,0,13.26,5A41.28,41.28,0,0,0,293,124.31c6.5-4.57,11.75-11.39,12.92-19.25.79-5.27-.28-10.65-1.84-15.74-2-6.51-5.36-13.32-11.61-16-4-1.75-8.61-1.48-13-1.19L267,73c-7.94.53-14.13,1.94-19.6,7.94A33.8,33.8,0,0,0,238.55,100.13Z" transform="translate(-5.3 -7.59)"/><path class="cls-9" d="M243.39,105c.91,8.51,6.05,16.75,13.87,20.22s16.7,2,25,.22a25.57,25.57,0,0,0,7.91-2.61c5.63-3.36,7.84-10.32,9.22-16.73,1.18-5.5,2.07-11.21,1-16.73s-4.61-10.84-9.91-12.74c-3.55-1.27-7.46-.9-11.22-.51l-15.4,1.61c-7,.73-12.91,1.16-16.35,7.79A34.69,34.69,0,0,0,243.39,105Z" transform="translate(-5.3 -7.59)"/><path class="cls-10" d="M251.66,104.48a2.28,2.28,0,0,0,.45.94c.66.75,1.89.58,2.78.11a6,6,0,0,0,3.12-4.48c.34-2.67-1.94-3.68-4.14-2.52C251.86,99.58,251.11,102.37,251.66,104.48Z" transform="translate(-5.3 -7.59)"/><path class="cls-10" d="M259.51,90a2.85,2.85,0,0,0,3.26-3.52c-.57-2.61-4.66-4.35-6.48-1.86C254.76,86.74,257.25,89.76,259.51,90Z" transform="translate(-5.3 -7.59)"/><path class="cls-10" d="M272.92,111.26a5.21,5.21,0,0,0,1.49,3.89,2.17,2.17,0,0,0,3.92-1.73,3.89,3.89,0,0,0-1.74-3.27,2.52,2.52,0,0,0-3.39.78Z" transform="translate(-5.3 -7.59)"/><path class="cls-10" d="M260.1,120.48a2.74,2.74,0,0,0,3.4-.11,5.77,5.77,0,0,0,1.81-3.14,5.4,5.4,0,0,0,.18-2.36C264.59,110.23,254.55,115.54,260.1,120.48Z" transform="translate(-5.3 -7.59)"/><path class="cls-10" d="M272.17,98.8a11.61,11.61,0,0,0,3.39,1,2.29,2.29,0,0,0,1.51,0,1.58,1.58,0,0,0,.75-1,3,3,0,0,0-.73-2.67,4.65,4.65,0,0,0-2.49-1.36c-.82-.18-3.69-.27-4.3.49C269.32,96.45,271.22,98.27,272.17,98.8Z" transform="translate(-5.3 -7.59)"/><path class="cls-10" d="M286.6,100.84c.24.88.92,1.89,1.8,1.67a1.84,1.84,0,0,0,.93-.75,10.24,10.24,0,0,0,2-6.15c0-2.3-2.18-4.2-3.89-2C286.07,95.36,286.05,98.82,286.6,100.84Z" transform="translate(-5.3 -7.59)"/><path class="cls-10" d="M279.92,80.89a1.41,1.41,0,0,0-2.11.58,2,2,0,0,0,.69,2.28,3.77,3.77,0,0,0,2.38.74,7,7,0,0,0,3.23-.73,2.1,2.1,0,0,0,1.31-1.52,1.66,1.66,0,0,0-1.22-1.55,4.84,4.84,0,0,0-2.11,0l-2.35.32Z" transform="translate(-5.3 -7.59)"/><path class="cls-10" d="M286.94,117.16a2.09,2.09,0,0,0-.39,1.94,1.5,1.5,0,0,0,1,.71,4,4,0,0,0,3.29-1.11,12.61,12.61,0,0,0,2.86-3.23,4.11,4.11,0,0,0,.72-2.11C294.29,108.13,287.56,116.16,286.94,117.16Z" transform="translate(-5.3 -7.59)"/><path class="cls-11" d="M247.32,94.76a37.66,37.66,0,0,0-1.33,6.55,19.39,19.39,0,0,0,10.47,18.48,7,7,0,0,0,3.13.87,3.13,3.13,0,0,0,2.74-1.52c.69-1.35,0-3-.84-4.27a32.44,32.44,0,0,0-3.46-4.63c-1.38-1.54-2.94-3-3.71-4.94-1.16-2.88-.26-6.27,1.56-8.78a25.24,25.24,0,0,1,7.06-6,12.87,12.87,0,0,0,3.9-3.27c4.56-6.65-7-7.44-10.94-6.19C250.51,82.77,248.59,90,247.32,94.76Z" transform="translate(-5.3 -7.59)"/><path class="cls-7" d="M169,237.5c-1,9.91,3.35,20.37,11.53,26.05a31.58,31.58,0,0,0,13.26,5,41.18,41.18,0,0,0,29.62-6.91c6.5-4.56,11.75-11.38,12.92-19.24.79-5.27-.28-10.65-1.84-15.74-2-6.51-5.36-13.32-11.61-16-4-1.75-8.61-1.48-13-1.19l-12.44.84c-7.94.53-14.13,1.94-19.6,7.93A33.83,33.83,0,0,0,169,237.5Z" transform="translate(-5.3 -7.59)"/><path class="cls-8" d="M166.71,235.25c-1,9.91,3.35,20.38,11.53,26.05a31.73,31.73,0,0,0,13.26,5,41.18,41.18,0,0,0,29.62-6.91c6.5-4.56,11.75-11.39,12.92-19.24.79-5.27-.28-10.65-1.84-15.74-2-6.52-5.36-13.32-11.61-16-4-1.74-8.61-1.48-13-1.18l-12.44.83c-7.94.54-14.13,2-19.6,7.94A33.83,33.83,0,0,0,166.71,235.25Z" transform="translate(-5.3 -7.59)"/><path class="cls-9" d="M171.55,240.1c.91,8.51,6,16.75,13.87,20.22s16.7,2,25,.22a25.31,25.31,0,0,0,7.91-2.61c5.63-3.36,7.84-10.31,9.22-16.73,1.18-5.5,2.07-11.21,1-16.72s-4.61-10.84-9.91-12.74c-3.55-1.28-7.46-.9-11.22-.51L192,212.84c-7,.73-12.91,1.16-16.35,7.78A34.71,34.71,0,0,0,171.55,240.1Z" transform="translate(-5.3 -7.59)"/><path class="cls-10" d="M179.83,239.6a2.15,2.15,0,0,0,.44.94c.66.75,1.89.58,2.78.12a6,6,0,0,0,3.12-4.48c.34-2.67-1.94-3.69-4.14-2.53C180,234.71,179.27,237.49,179.83,239.6Z" transform="translate(-5.3 -7.59)"/><path class="cls-10" d="M187.67,225.13a2.85,2.85,0,0,0,3.26-3.52c-.57-2.61-4.66-4.35-6.48-1.85C182.92,221.87,185.41,224.88,187.67,225.13Z" transform="translate(-5.3 -7.59)"/><path class="cls-10" d="M201.08,246.39a5.2,5.2,0,0,0,1.49,3.88,2.55,2.55,0,0,0,2.65.82,2.59,2.59,0,0,0,1.27-2.55,3.91,3.91,0,0,0-1.74-3.27,2.53,2.53,0,0,0-3.39.78Z" transform="translate(-5.3 -7.59)"/><path class="cls-10" d="M188.26,255.6a2.75,2.75,0,0,0,3.4-.1,5.8,5.8,0,0,0,1.81-3.15,5.36,5.36,0,0,0,.18-2.35C192.75,245.36,182.71,250.67,188.26,255.6Z" transform="translate(-5.3 -7.59)"/><path class="cls-10" d="M200.33,233.92a11.31,11.31,0,0,0,3.39,1,2.29,2.29,0,0,0,1.51,0,1.6,1.6,0,0,0,.75-1,3,3,0,0,0-.73-2.68,4.63,4.63,0,0,0-2.49-1.35c-.82-.19-3.69-.27-4.3.49C197.48,231.58,199.38,233.4,200.33,233.92Z" transform="translate(-5.3 -7.59)"/><path class="cls-10" d="M214.76,236c.24.87.92,1.88,1.8,1.67a1.81,1.81,0,0,0,.93-.76,10.21,10.21,0,0,0,2-6.15c0-2.29-2.18-4.19-3.89-2C214.23,230.48,214.21,234,214.76,236Z" transform="translate(-5.3 -7.59)"/><path class="cls-10" d="M208.08,216a1.42,1.42,0,0,0-2.11.59,2,2,0,0,0,.69,2.27,3.84,3.84,0,0,0,2.38.75,7,7,0,0,0,3.23-.74,2.09,2.09,0,0,0,1.31-1.51,1.65,1.65,0,0,0-1.22-1.55,4.84,4.84,0,0,0-2.11,0l-2.35.33Z" transform="translate(-5.3 -7.59)"/><path class="cls-10" d="M215.1,252.29a2.07,2.07,0,0,0-.39,1.93,1.51,1.51,0,0,0,1,.72,4,4,0,0,0,3.29-1.11,12.82,12.82,0,0,0,2.86-3.24,4.08,4.08,0,0,0,.72-2.11C222.45,243.26,215.72,251.28,215.1,252.29Z" transform="translate(-5.3 -7.59)"/><path class="cls-11" d="M175.48,229.88a37.77,37.77,0,0,0-1.33,6.56,19.36,19.36,0,0,0,10.47,18.47,6.85,6.85,0,0,0,3.13.87,3.11,3.11,0,0,0,2.74-1.52c.69-1.35,0-3-.84-4.26a32,32,0,0,0-3.46-4.64c-1.38-1.54-2.94-3-3.71-4.93-1.16-2.88-.26-6.27,1.56-8.79a25.2,25.2,0,0,1,7.06-6,13,13,0,0,0,3.9-3.28c4.56-6.65-7-7.43-10.94-6.19C178.67,217.89,176.75,225.07,175.48,229.88Z" transform="translate(-5.3 -7.59)"/><path class="cls-7" d="M241,173.24c-1,9.91,3.35,20.37,11.53,26a31.72,31.72,0,0,0,13.27,5,41.25,41.25,0,0,0,29.61-6.91c6.5-4.57,11.75-11.39,12.93-19.25.78-5.27-.28-10.64-1.85-15.74-2-6.51-5.35-13.31-11.61-16-4-1.74-8.6-1.48-13-1.19l-12.45.84c-7.94.54-14.13,1.94-19.6,7.94A33.86,33.86,0,0,0,241,173.24Z" transform="translate(-5.3 -7.59)"/><path class="cls-8" d="M238.67,171c-1,9.91,3.35,20.37,11.53,26.05a31.57,31.57,0,0,0,13.27,5,41.16,41.16,0,0,0,29.61-6.91c6.5-4.56,11.75-11.38,12.93-19.24.78-5.27-.28-10.65-1.85-15.74-2-6.51-5.35-13.32-11.61-16-4-1.75-8.6-1.48-13-1.19l-12.45.84c-7.94.53-14.13,1.94-19.6,7.93A33.89,33.89,0,0,0,238.67,171Z" transform="translate(-5.3 -7.59)"/><path class="cls-9" d="M243.51,175.84c.91,8.52,6.05,16.75,13.88,20.23s16.69,2,25,.22a25.27,25.27,0,0,0,7.9-2.62c5.63-3.36,7.85-10.31,9.22-16.72,1.18-5.5,2.08-11.22,1-16.73s-4.61-10.84-9.9-12.74c-3.56-1.27-7.47-.9-11.22-.51l-15.41,1.61c-7,.73-12.9,1.16-16.34,7.79A34.67,34.67,0,0,0,243.51,175.84Z" transform="translate(-5.3 -7.59)"/><path class="cls-10" d="M251.79,175.35a2.39,2.39,0,0,0,.44.94,2.34,2.34,0,0,0,2.79.11,6,6,0,0,0,3.11-4.48c.34-2.67-1.93-3.69-4.14-2.52C252,170.45,251.24,173.24,251.79,175.35Z" transform="translate(-5.3 -7.59)"/><path class="cls-10" d="M259.64,160.88a2.85,2.85,0,0,0,3.25-3.53c-.57-2.61-4.66-4.34-6.48-1.85C254.88,157.61,257.37,160.63,259.64,160.88Z" transform="translate(-5.3 -7.59)"/><path class="cls-10" d="M273,182.13a5.23,5.23,0,0,0,1.5,3.89,2.56,2.56,0,0,0,2.65.81,2.59,2.59,0,0,0,1.27-2.55,3.9,3.9,0,0,0-1.75-3.26,2.51,2.51,0,0,0-3.38.77Z" transform="translate(-5.3 -7.59)"/><path class="cls-10" d="M260.23,191.35a2.75,2.75,0,0,0,3.4-.11,5.73,5.73,0,0,0,1.8-3.15,5.35,5.35,0,0,0,.18-2.35C264.72,181.1,254.67,186.41,260.23,191.35Z" transform="translate(-5.3 -7.59)"/><path class="cls-10" d="M272.29,169.66a11.39,11.39,0,0,0,3.4,1.05,2.29,2.29,0,0,0,1.51-.05,1.59,1.59,0,0,0,.74-1,3,3,0,0,0-.72-2.67,4.68,4.68,0,0,0-2.5-1.36c-.82-.18-3.69-.27-4.3.49C269.45,167.32,271.35,169.14,272.29,169.66Z" transform="translate(-5.3 -7.59)"/><path class="cls-10" d="M286.73,171.71c.24.88.91,1.89,1.79,1.67a1.77,1.77,0,0,0,.93-.76,10.12,10.12,0,0,0,2-6.14c0-2.3-2.18-4.2-3.89-2C286.19,166.22,286.18,169.69,286.73,171.71Z" transform="translate(-5.3 -7.59)"/><path class="cls-10" d="M280,151.75a1.41,1.41,0,0,0-2.1.59,2,2,0,0,0,.68,2.28,3.81,3.81,0,0,0,2.39.74,7,7,0,0,0,3.22-.73,2.11,2.11,0,0,0,1.32-1.52,1.65,1.65,0,0,0-1.23-1.55,4.84,4.84,0,0,0-2.11,0l-2.35.32Z" transform="translate(-5.3 -7.59)"/><path class="cls-10" d="M287.07,188a2.07,2.07,0,0,0-.4,1.94,1.51,1.51,0,0,0,1,.71,4,4,0,0,0,3.29-1.11,12.27,12.27,0,0,0,2.85-3.24,3.88,3.88,0,0,0,.72-2.11C294.41,179,287.69,187,287.07,188Z" transform="translate(-5.3 -7.59)"/><path class="cls-11" d="M247.44,165.62a38.93,38.93,0,0,0-1.33,6.56,19.36,19.36,0,0,0,10.47,18.47,6.86,6.86,0,0,0,3.14.87,3.11,3.11,0,0,0,2.73-1.51c.69-1.36,0-3-.83-4.27a33.28,33.28,0,0,0-3.47-4.63c-1.38-1.55-2.94-3-3.71-4.94-1.16-2.88-.25-6.27,1.57-8.79a25.18,25.18,0,0,1,7.05-6,13,13,0,0,0,3.9-3.27c4.57-6.66-7-7.44-10.94-6.19C250.63,153.64,248.72,160.81,247.44,165.62Z" transform="translate(-5.3 -7.59)"/><path class="cls-12" d="M157,175.08c-.27,2.16,1.23,4.1,1.87,6.18,1.69,5.5-2.7,10.91-3.51,16.6-.72,5.07,1.44,10.36,0,15.28-1.66,5.84-7.74,9.25-10.79,14.52a13.77,13.77,0,0,0-.14,13.81c2.54,4.12,8,6.39,12.54,4.8,3.34-1.16,5.79-4,7.63-7.07a37.13,37.13,0,0,0,5.35-19.09c0-3.09-.32-6.44,1.41-9,1.44-2.15,4-3.23,6.54-3.83a26.72,26.72,0,0,1,10.76-.33c2.74.48,5.52,1.4,8.25.82,3.63-.77,6.19-4,8.09-7.19,1.51-2.54,2.78-5.88,1.09-8.32-2.27-3.3-7.31-1.86-11.3-2.23a11,11,0,0,1-6.36-2.83,3.05,3.05,0,0,1-1.21-2.22,2.72,2.72,0,0,1,1.06-1.85c2.13-1.84,5.29-1.85,8-1.26s5.44,1.66,8.26,1.63a10.67,10.67,0,0,0,8.29-17.24,8.7,8.7,0,0,0-4.29-3.05c-6.88-2.07-13.41,6.19-20.48,4.91-2.8-.5-5.08-2.44-7.46-4a31.28,31.28,0,0,0-13.55-4.87c-1.22-.13-3.63.05-4.37,1.25-1.44,2.34,1.34,2.4,1.66,4.25C165.2,169.4,157.55,170.47,157,175.08Z" transform="translate(-5.3 -7.59)"/><path class="cls-13" d="M133.84,258.05a25.15,25.15,0,0,0-7.73-.4c-2.55.43-5.1,1.89-6.07,4.3a3.49,3.49,0,0,0-.17,2.42c.61,1.82,2.89,2.3,4.78,2.69a29.3,29.3,0,0,1,14.15,7.37,8.37,8.37,0,0,1,2.23,3c1.6,4.14-2.63,9.18-.38,13,.47.81,1.2,1.45,1.63,2.29a7,7,0,0,1,.46,3.73A55.86,55.86,0,0,1,141.5,305a21.64,21.64,0,0,0-.86,6,5.83,5.83,0,0,0,2.88,5,5.34,5.34,0,0,0,5.54-.9,10.36,10.36,0,0,0,3.06-5,24.74,24.74,0,0,0,.9-9.8c-.25-2.81-.86-5.72.09-8.38a7.57,7.57,0,0,1,12.67-2.61c.68.74,1.22,1.61,2,2.28a6.92,6.92,0,0,0,6.76,1,19.64,19.64,0,0,0,6-3.81,6.44,6.44,0,0,0,2.16-2.57c.78-2.22-1.13-4.58-3.31-5.45s-4.61-.8-6.89-1.35a4.85,4.85,0,0,1-2.28-1.09c-1.9-1.84-.53-5.13,1.41-6.92s4.5-3.22,5.27-5.75c1.14-3.73-2.12-6.89-5.42-7.79-3.45-.95-5.7.27-8.84,1.27C154.06,261.74,142.55,259.34,133.84,258.05Z" transform="translate(-5.3 -7.59)"/><path class="cls-13" d="M99.78,339.34a43.85,43.85,0,0,0,8.8-1.54l25.12-6.23a6.49,6.49,0,0,1,3-.25,4.34,4.34,0,0,1,2.93,3.78,12.57,12.57,0,0,1-.7,5c-.72,2.55-1.43,5.1-2.15,7.65-1.05,3.76-2.52,8-6.14,9.49-3.12,1.27-6.68-.06-9.6-1.75s-5.74-3.83-9.08-4.28c-4.09-.56-8.07,1.52-12.19,1.89-7.67.71-14.51-4.42-20.49-9.27-3.49-2.83-8.67-7.42-7.23-12.45C82.08,330.83,89.6,339.69,99.78,339.34Z" transform="translate(-5.3 -7.59)"/><path class="cls-13" d="M253.21,217.17c-1.63,3.37-.77,7.35,0,11,1.85,8.37,3.28,17.09,1.5,25.48s-7.38,16.45-15.6,18.89c-3.69,1.09-7.6,1-11.44,1.29s-7.84,1-10.81,3.48-4.5,7-2.47,10.27c1.29,2.08,3.66,3.22,5.28,5.06,3.15,3.57,2.86,8.88,3,13.64s1.6,10.38,6.11,11.92c4.93,1.69,10-2.94,11.62-7.88s1.32-10.38,3-15.32c3.12-9.33,14-15.33,23.52-13,4.17,1,7.94,3.35,12.15,4.16,5.26,1,10.66-.42,16-.52,6.62-.12,14.37,1.47,19-3.28-5.64-4.16-12.61-6-18.8-9.32s-12.05-8.9-12.14-15.91c-.05-4.69,2.53-9,5.75-12.47s7.1-6.12,10.51-9.36a46.69,46.69,0,0,0,8.63-11.13c2-3.64,3.55-8.19,1.6-11.88s-6.63-5-10.7-4.39-7.72,2.73-11.42,4.52-7.79,3.34-11.84,2.64C268.82,213.89,257.64,208.05,253.21,217.17Z" transform="translate(-5.3 -7.59)"/><path class="cls-13" d="M319.59,347.76c-3.23,3.85-8.09,5.91-12.85,7.49A104.88,104.88,0,0,1,281,360.3c-6.67.46-13.46.29-19.93,2s-12.78,5.74-15.12,12c-.83,2.24-1,5,.55,6.78,2.27,2.58,6.43,1.54,9.66.36,7.05-2.55,14.71-4.76,21.93-2.78,6.66,1.82,11.91,6.92,18.23,9.7,3.42,1.5,7.39,2.5,9.56,5.54,2.5,3.5,1.65,8.35,3,12.42,2.29,6.74,10.21,9.93,17.33,10a19.94,19.94,0,0,0,10.61-2.43c3.15-1.89,5.55-5.29,5.55-9,0-7-7.69-11.13-11.4-17.06-3-4.85-3.3-11-2-16.61s4.06-10.68,6.78-15.72l10.93-20.24c3.58-6.63,6.75-9.64,13.46-12.67,7.63-3.43,5.42-10.18-1.39-13.71-11.48-5.95-23.27,9-28.67,17.13C325.65,332.77,324.75,341.63,319.59,347.76Z" transform="translate(-5.3 -7.59)"/><path class="cls-13" d="M320.76,187.17c1.51,2.3,4.53,2.92,7.21,3.49,5.6,1.21,11.79,3.76,13.53,9.21,2.05,6.38-2.72,14.76,2.13,19.38,4.55,4.35,12.3.14,18.26,2.13,7.44,2.49,8.85,13.15,15.71,17,1.42.79,3.46,1.13,4.49-.13s.18-3.42-.83-4.89c-4.34-6.28-9.52-12.09-12.44-19.14s-3-16,2.22-21.52c4.54-4.8,11.76-5.88,17.14-9.7a7.11,7.11,0,0,0,3.21-4.23c.63-3.49-3.4-6.34-6.94-6.05s-6.52,2.59-9.44,4.61c-6.05,4.19-13.52,7.63-20.58,5.59-5.07-1.46-8.94-5.45-12.55-9.29l-7.49-7.95c-3.84-4.08-11.36-8.23-14.13-1C318.46,169.43,318.11,183.17,320.76,187.17Z" transform="translate(-5.3 -7.59)"/><path class="cls-13" d="M306.94,74.59c1.74,3.27,2.45,7,4.2,10.28,1.54,2.89,3.85,5.31,5.42,8.19A22.22,22.22,0,0,1,317.89,110a34.66,34.66,0,0,1-9.33,14.51c-3.35,3.26-7.58,7.14-6.44,11.68,1.06,4.24,6.76,5.92,10.72,4.09s6.32-6,7.65-10.17,1.91-8.57,3.66-12.57,4.65-7.5,7.5-10.89a19.54,19.54,0,0,1,5.1-4.76c3.2-1.81,7.09-1.68,10.72-2.26s7.63-2.42,8.47-6c.64-2.7-.84-5.56-3-7.27a17.51,17.51,0,0,0-7.67-3,55.9,55.9,0,0,0-14.72-.79,12.88,12.88,0,0,1-4.76-.14c-2.75-.81-4.47-3.42-6.37-5.56-3.91-4.41-10.75-8.51-16.81-8C303.41,71,305.79,72.42,306.94,74.59Z" transform="translate(-5.3 -7.59)"/><path class="cls-13" d="M218.11,93.18a26.76,26.76,0,0,1,3,8.1c2.06,8,4.07,16.75.79,24.35-1.15,2.65-2.89,5-3.95,7.71s-1.32,6,.4,8.28c2.44,3.29,7.48,3.06,11.32,1.63s7.56-3.76,11.66-3.58c2.52.12,5,1.2,7.48,1s5.1-2.79,4-5a4.82,4.82,0,0,0-3.24-2.07c-3.76-1-7.89-1-11.21-3-4.16-2.52-6-7.64-6.55-12.47s-.18-9.79-1.34-14.52c-.82-3.35-2.39-6.49-3.17-9.86s-.61-7.24,1.67-9.84,5.64-3.19,8.62-4.58,5.87-4.46,4.84-7.58c-.77-2.34-3.43-3.51-5.87-3.75-6.84-.68-13.41,3.66-20.26,3.14-3.11-.23-6.08-1.46-9.2-1.69a14.54,14.54,0,0,0-8.4,2c-5.56,3.25,3.11,9,5.2,12.85C207.49,90.74,214.06,87,218.11,93.18Z" transform="translate(-5.3 -7.59)"/><path class="cls-13" d="M415.87,351.79c1,2.81,1.53,5.86,3.06,8.43s4.59,4.63,7.46,3.74a7.49,7.49,0,0,0,3.05-2.12A18.23,18.23,0,0,0,434.26,347c-.7-5-3.53-9.72-3.58-14.81,0-3.36,1.14-6.59,1.55-9.92s-.19-7.15-2.89-9.14c-2,3.69-4.16,7.44-7.29,10.26s-7.54,4.58-11.61,3.5c-2.44-.64-4.55-2.23-7-2.85-6-1.55-15.15,0-20.47,3.17-6.05,3.65-6,7,1.51,7.17C397.14,334.67,411,338.57,415.87,351.79Z" transform="translate(-5.3 -7.59)"/><path class="cls-13" d="M198.5,427.72c-1.07,2.43-2.34,5-1.95,7.58.62,4.14,5,6.47,8.82,8.15l18.9,8.28c2.5,1.09,5.14,2.21,7.85,1.93s5.43-2.51,5.21-5.23a6.73,6.73,0,0,0-1.93-3.76c-4.36-5-10.88-7.83-14.64-13.26A24.12,24.12,0,0,1,217,419.77a39.49,39.49,0,0,1,4.39-21.89c1.86-3.54,4.27-6.78,5.86-10.45,2.56-5.88,2.86-12.47,3.13-18.88a9,9,0,0,0-.77-5c-1.51-2.53-5-2.94-7.91-2.72-7.25.52-15.1,3.4-21.95,5.82-7.11,2.51-7.48,6.75-4.21,13.09C203.28,394.78,205.47,411.8,198.5,427.72Z" transform="translate(-5.3 -7.59)"/><path class="cls-14" d="M74,195.05c-.64,7-.78,14-2.51,20.77-1.45,5.65-4,11-5.72,16.54A61.64,61.64,0,0,0,63,249.68c-.07,4.79,1.4,10.77,6.11,11.7,3.2.64,6.41-1.69,7.87-4.62s1.58-6.31,1.67-9.58q.41-14,.8-28A76.54,76.54,0,0,1,80.9,204a77.25,77.25,0,0,1,4.93-13.43c1.36-3.1,2.76-6.26,5-8.77,5.28-5.82,13.88-6.84,21-10.16A34.25,34.25,0,0,0,131.2,143c.09-1.67-.34-3.84-2-4.11a3.17,3.17,0,0,0-1.84.42c-5.86,2.87-8,9.65-12.41,14-5.07,4.93-12.59,6.66-19.06,9C81.21,167.66,75.37,180.19,74,195.05Z" transform="translate(-5.3 -7.59)"/><path class="cls-14" d="M145.9,108c1.64-3.28,1.75-7.11,2.95-10.58,2.09-6.06,7.35-10.55,13-13.5s11.93-4.66,17.86-7.08c3.3-1.35,6.6-3,9-5.62a2.09,2.09,0,0,0,.72-1.92c-.29-.89-1.48-1-2.42-1-6.28.4-12.38,2.14-18.4,4-5.12,1.54-10.39,3.24-14.41,6.77s-6.53,8.85-8.78,13.9c-1.71,3.81-6.37,10.37-6.18,14.6C139.48,112.42,143.77,111.47,145.9,108Z" transform="translate(-5.3 -7.59)"/><path class="cls-14" d="M103.64,383.37c4.4,3.39,6.27,9.11,7.3,14.57.49,2.58.87,5.25,2.21,7.49s4,4,6.51,3.4c3.22-.74,4.66-4.65,4.47-7.95s-1.45-6.53-1.26-9.83c.31-5.29,4.25-9.67,8.53-12.77s9.18-5.45,12.95-9.16c1.54-1.52,2.93-3.4,3.08-5.55S146,359,143.85,359s-3.6,1.95-5,3.55a23.88,23.88,0,0,1-16.16,8.24c-7.8.59-15.91-2.49-23.59,0C89.83,373.77,99.71,380.35,103.64,383.37Z" transform="translate(-5.3 -7.59)"/><path class="cls-13" d="M214.13,153.75a8.93,8.93,0,0,0,5.72,6.41,2,2,0,0,0,1.52-.2,2,2,0,0,0,.71-2.7,2.24,2.24,0,0,0-1.18-.91l-.27-.1.47.2a7.25,7.25,0,0,1-1.52-.9l.4.31a7.39,7.39,0,0,1-1.25-1.25l.31.4a7.2,7.2,0,0,1-.93-1.58c.07.15.13.31.2.47a6.4,6.4,0,0,1-.37-1.2,2,2,0,0,0-2.43-1.38,2,2,0,0,0-1.38,2.43Z" transform="translate(-5.3 -7.59)"/><path class="cls-13" d="M227.32,154.79c-.29,1.41-.59,2.82-.88,4.23a2.11,2.11,0,0,0,.19,1.52,2,2,0,0,0,1.18.9,2,2,0,0,0,1.52-.19,2,2,0,0,0,.91-1.18c.3-1.41.59-2.82.88-4.23a2.11,2.11,0,0,0-.19-1.52,2,2,0,0,0-2.7-.71,2,2,0,0,0-.91,1.18Z" transform="translate(-5.3 -7.59)"/><path class="cls-13" d="M225.48,169.17c-.14.28-.28.56-.43.84a1.53,1.53,0,0,0-.23.74,1.39,1.39,0,0,0,0,.78,1.43,1.43,0,0,0,.35.68,1.47,1.47,0,0,0,.55.5l.47.2a1.88,1.88,0,0,0,1.05,0l.47-.2a1.91,1.91,0,0,0,.71-.7c.14-.29.29-.57.43-.85a1.47,1.47,0,0,0,.24-.73,1.63,1.63,0,0,0,0-.79,1.54,1.54,0,0,0-.35-.67,1.62,1.62,0,0,0-.56-.51l-.47-.2a2.08,2.08,0,0,0-1.05,0l-.47.2a2.1,2.1,0,0,0-.71.71Z" transform="translate(-5.3 -7.59)"/><path class="cls-13" d="M219.92,173.8a31.88,31.88,0,0,0-2.7,7.26,2,2,0,0,0,3.8,1.05,29.19,29.19,0,0,1,1-3.42c.1-.27.21-.54.32-.81a2.9,2.9,0,0,0,.16-.41c-.12.28-.13.32-.05.13s.05-.12.07-.17c.25-.56.51-1.1.79-1.64a2,2,0,1,0-3.41-2Z" transform="translate(-5.3 -7.59)"/><path class="cls-13" d="M214.86,198.36l5.94.76a2,2,0,0,0,1.4-3.37l-.4-.31a2,2,0,0,0-1-.27l-5.94-.76a2,2,0,0,0-1.39.58,2,2,0,0,0-.58,1.4,2,2,0,0,0,.58,1.39l.4.31a1.91,1.91,0,0,0,1,.27Z" transform="translate(-5.3 -7.59)"/><path class="cls-13" d="M238,199.75l4.67,2.95a2,2,0,0,0,2.7-.71,2,2,0,0,0-.71-2.7L240,196.35a2,2,0,1,0-2,3.4Z" transform="translate(-5.3 -7.59)"/><path class="cls-13" d="M139.18,144.32l.51,4.65a2.15,2.15,0,0,0,.58,1.39,2,2,0,0,0,2.79,0,1.94,1.94,0,0,0,.58-1.39c-.18-1.55-.35-3.1-.52-4.65a2.15,2.15,0,0,0-.58-1.4,2,2,0,0,0-1.39-.57,2,2,0,0,0-1.4.57,1.9,1.9,0,0,0-.57,1.4Z" transform="translate(-5.3 -7.59)"/><path class="cls-13" d="M140,160.83c-.15,1.26-.3,2.53-.46,3.8a2,2,0,0,0,.58,1.4,2,2,0,0,0,2.79,0l.31-.4a2,2,0,0,0,.27-1c.15-1.27.31-2.54.46-3.8a2,2,0,0,0-.58-1.4,2,2,0,0,0-1.39-.58,2,2,0,0,0-1.4.58l-.31.4a2.05,2.05,0,0,0-.27,1Z" transform="translate(-5.3 -7.59)"/><path class="cls-13" d="M146.46,177.34c.15,1.83.3,3.67.44,5.5a2.2,2.2,0,0,0,.58,1.4,2,2,0,0,0,2.79,0,2,2,0,0,0,.58-1.4l-.44-5.5a2.1,2.1,0,0,0-.58-1.4,2,2,0,0,0-2.79,0,2,2,0,0,0-.58,1.4Z" transform="translate(-5.3 -7.59)"/><path class="cls-13" d="M140.91,129.49a17.26,17.26,0,0,0,.91,5.19,2.14,2.14,0,0,0,.91,1.18,2,2,0,0,0,1.52.19,2,2,0,0,0,1.38-2.42,15.51,15.51,0,0,1-.72-3c0,.17.05.35.07.52-.07-.55-.11-1.11-.13-1.67a2,2,0,0,0-2-2,2,2,0,0,0-2,2Z" transform="translate(-5.3 -7.59)"/><path class="cls-13" d="M97.22,259.55l4.2-3.43a2,2,0,0,0,0-2.79,2,2,0,0,0-1.39-.58l-.53.07a2.13,2.13,0,0,0-.87.51l-4.2,3.43a2,2,0,0,0,1.4,3.37l.52-.07a2,2,0,0,0,.87-.51Z" transform="translate(-5.3 -7.59)"/><path class="cls-13" d="M118.9,254.42l3-1.57a2.06,2.06,0,0,0,.91-1.18,1.52,1.52,0,0,0,0-.79,1.46,1.46,0,0,0-.23-.73,2,2,0,0,0-1.18-.91,2.12,2.12,0,0,0-1.52.2l-3,1.58a2,2,0,0,0-.91,1.18,1.59,1.59,0,0,0,0,.78,1.51,1.51,0,0,0,.24.74,2,2,0,0,0,1.18.9,2.12,2.12,0,0,0,1.52-.2Z" transform="translate(-5.3 -7.59)"/><path class="cls-13" d="M109.71,264.28a9,9,0,0,0,4.28,2.59,2,2,0,0,0,2.23-2.89,2.06,2.06,0,0,0-1.18-.91,7.22,7.22,0,0,1-.89-.31l.47.2a7.54,7.54,0,0,1-1.58-.91l.4.3a7,7,0,0,1-.94-.86,2,2,0,0,0-1.39-.58,2.05,2.05,0,0,0-1.4.58,2,2,0,0,0-.57,1.4,2.14,2.14,0,0,0,.57,1.39Z" transform="translate(-5.3 -7.59)"/><path class="cls-13" d="M129.58,253.6a8.38,8.38,0,0,0,6.19,1,2,2,0,0,0,1.38-2.42,2,2,0,0,0-2.43-1.38l-.54.1.53-.07a6.43,6.43,0,0,1-1.64,0l.53.07a6.68,6.68,0,0,1-1.66-.45l.47.2a5,5,0,0,1-.83-.43,2,2,0,0,0-2,3.41Z" transform="translate(-5.3 -7.59)"/><path class="cls-13" d="M183.83,274.85l1.27,1.27a2.16,2.16,0,0,0,1.39.58,2.21,2.21,0,0,0,1.4-.58l.31-.39a2,2,0,0,0,.26-1c0-.18,0-.35-.07-.52a2,2,0,0,0-.5-.88c-.43-.42-.85-.84-1.27-1.27a1.48,1.48,0,0,0-.64-.4,1.42,1.42,0,0,0-.76-.17,1.44,1.44,0,0,0-.76.17,1.51,1.51,0,0,0-.63.4l-.31.4a2,2,0,0,0-.27,1c0,.17.05.35.07.52a1.83,1.83,0,0,0,.51.87Z" transform="translate(-5.3 -7.59)"/><path class="cls-13" d="M197,278.33l2.54.43a1.48,1.48,0,0,0,.78,0,1.53,1.53,0,0,0,.74-.23,1.42,1.42,0,0,0,.55-.51,1.49,1.49,0,0,0,.35-.67,2,2,0,0,0-.2-1.52l-.3-.4a2.11,2.11,0,0,0-.88-.51l-2.54-.42a1.48,1.48,0,0,0-.78,0,1.54,1.54,0,0,0-.74.24,1.42,1.42,0,0,0-.55.51,1.49,1.49,0,0,0-.35.67,2,2,0,0,0,.2,1.52l.31.4a1.9,1.9,0,0,0,.87.5Z" transform="translate(-5.3 -7.59)"/><path class="cls-13" d="M201.75,278.83l-1.65,2.57a1.38,1.38,0,0,0-.24.73,1.52,1.52,0,0,0,0,.79,1.54,1.54,0,0,0,.35.67,1.59,1.59,0,0,0,.55.51,2,2,0,0,0,1.52.2,2.11,2.11,0,0,0,1.18-.91l1.66-2.57a1.49,1.49,0,0,0,.23-.73,1.42,1.42,0,0,0,0-.79,1.4,1.4,0,0,0-.35-.67,1.59,1.59,0,0,0-.55-.51,2,2,0,0,0-1.52-.2,2.14,2.14,0,0,0-1.18.91Z" transform="translate(-5.3 -7.59)"/><path class="cls-13" d="M188.76,286.59l-.9,7.19a2,2,0,0,0,.58,1.39,2,2,0,0,0,1.4.58,2,2,0,0,0,1.39-.58,2.29,2.29,0,0,0,.58-1.39l.9-7.19a2,2,0,0,0-2-2,2,2,0,0,0-1.39.58,2.32,2.32,0,0,0-.58,1.4Z" transform="translate(-5.3 -7.59)"/><path class="cls-13" d="M201.74,293.22c2.53,0,2.54-4,0-4s-2.55,4,0,4Z" transform="translate(-5.3 -7.59)"/><path class="cls-13" d="M199.86,292.61l.43,1.26a1.49,1.49,0,0,0,.35.67,1.45,1.45,0,0,0,.56.51,1.38,1.38,0,0,0,.73.24,1.52,1.52,0,0,0,.79,0l.47-.2a2,2,0,0,0,.7-.7c.07-.16.14-.32.2-.48a1.84,1.84,0,0,0,0-1c-.14-.43-.28-.85-.43-1.27a1.49,1.49,0,0,0-.35-.67,1.42,1.42,0,0,0-.55-.51,1.54,1.54,0,0,0-.74-.24,1.59,1.59,0,0,0-.78,0l-.48.2a1.91,1.91,0,0,0-.7.71c-.07.15-.14.31-.2.47a1.88,1.88,0,0,0,0,1.05Z" transform="translate(-5.3 -7.59)"/><path class="cls-13" d="M146,346.28l.45,3.39a1.44,1.44,0,0,0,.17.76,1.42,1.42,0,0,0,.4.63,2,2,0,0,0,1.4.58,2,2,0,0,0,1.39-.58c.11-.13.21-.26.31-.4a1.91,1.91,0,0,0,.27-1c-.15-1.13-.3-2.26-.44-3.39a2.16,2.16,0,0,0-.58-1.39,2,2,0,0,0-1.4-.58,2,2,0,0,0-1.39.58c-.11.13-.21.26-.31.4a1.94,1.94,0,0,0-.27,1Z" transform="translate(-5.3 -7.59)"/><path class="cls-13" d="M155,356.47l3.4,1.65a1.53,1.53,0,0,0,.74.23,1.48,1.48,0,0,0,.78,0,2,2,0,0,0,1.18-.91,1.93,1.93,0,0,0,.2-1.52,2,2,0,0,0-.9-1.18L157,353.06a1.5,1.5,0,0,0-.74-.23,1.48,1.48,0,0,0-.78,0,2,2,0,0,0-1.18.91,2,2,0,0,0-.2,1.52,1.93,1.93,0,0,0,.91,1.18Z" transform="translate(-5.3 -7.59)"/><path class="cls-13" d="M168.51,365.24q-1.14,3.15-2.27,6.3a2,2,0,0,0,.2,1.52,2,2,0,0,0,3.6-.47q1.14-3.15,2.27-6.3a2,2,0,0,0-1.38-2.42,2,2,0,0,0-2.42,1.37Z" transform="translate(-5.3 -7.59)"/><path class="cls-13" d="M171.12,379.45a11.41,11.41,0,0,0,4.67,2.66,2,2,0,0,0,2.23-2.9,2.11,2.11,0,0,0-1.18-.91,8.13,8.13,0,0,1-1.08-.38l.47.2a9.46,9.46,0,0,1-2-1.19l.4.31c-.24-.19-.46-.38-.68-.58a2,2,0,0,0-1.4-.58,2,2,0,0,0-2,2,2.05,2.05,0,0,0,.58,1.4Z" transform="translate(-5.3 -7.59)"/><path class="cls-13" d="M187.69,380.35c.58,1,1.15,2,1.72,2.95a2,2,0,0,0,1.18.91,1.48,1.48,0,0,0,.78,0,1.53,1.53,0,0,0,.74-.23,2,2,0,0,0,.9-1.18,2,2,0,0,0-.2-1.52l-1.71-3a2.05,2.05,0,0,0-1.18-.9,1.48,1.48,0,0,0-.78,0,1.41,1.41,0,0,0-.74.24,2,2,0,0,0-.9,1.18,2.07,2.07,0,0,0,.19,1.52Z" transform="translate(-5.3 -7.59)"/><path class="cls-13" d="M224.23,356.09a43.41,43.41,0,0,1,6.88-6.67,2,2,0,0,0,.58-1.4,2,2,0,0,0-2-2,2.34,2.34,0,0,0-1.39.58,43.41,43.41,0,0,0-6.88,6.67,2.15,2.15,0,0,0-.58,1.4,2,2,0,0,0,.58,1.39,2,2,0,0,0,2.79,0Z" transform="translate(-5.3 -7.59)"/><path class="cls-13" d="M236.56,364.18l3.41-3.79a2.08,2.08,0,0,0,.58-1.4,2,2,0,0,0-.58-1.39,2,2,0,0,0-2.79,0l-3.41,3.79a2.08,2.08,0,0,0-.58,1.39,2,2,0,0,0,3.37,1.4Z" transform="translate(-5.3 -7.59)"/><path class="cls-13" d="M233.79,377.32l.42.43a1.56,1.56,0,0,0,.64.41,1.52,1.52,0,0,0,.76.17,1.54,1.54,0,0,0,.76-.17,1.47,1.47,0,0,0,.63-.41l.31-.4a2,2,0,0,0,.27-1c0-.17,0-.35-.07-.52A1.83,1.83,0,0,0,237,375l-.42-.43a1.51,1.51,0,0,0-.63-.4,1.44,1.44,0,0,0-.76-.17,1.4,1.4,0,0,0-.76.17,1.48,1.48,0,0,0-.64.4c-.1.14-.2.27-.31.4a2,2,0,0,0-.27,1c0,.17,0,.35.07.52a2,2,0,0,0,.51.87Z" transform="translate(-5.3 -7.59)"/><path class="cls-13" d="M233,391.76l1.65,3.83a2,2,0,0,0,1.18.9,2,2,0,0,0,1.52-.2,2,2,0,0,0,.91-1.17c0-.18,0-.35.07-.53a2.13,2.13,0,0,0-.27-1c-.55-1.28-1.11-2.56-1.66-3.83a2,2,0,0,0-1.18-.91,2,2,0,0,0-1.52.2,2,2,0,0,0-.9,1.18c0,.17-.05.35-.07.52a2,2,0,0,0,.27,1Z" transform="translate(-5.3 -7.59)"/><path class="cls-13" d="M248.21,391.38l2.12.42a1.42,1.42,0,0,0,.79,0,1.49,1.49,0,0,0,.73-.23,1.59,1.59,0,0,0,.55-.51,1.56,1.56,0,0,0,.36-.67c0-.18,0-.35.07-.53a2,2,0,0,0-.27-1,2,2,0,0,0-1.18-.91l-2.12-.42a2.13,2.13,0,0,0-1.52.2,2.22,2.22,0,0,0-.91,1.17l-.07.53a1.91,1.91,0,0,0,.27,1,2,2,0,0,0,1.18.91Z" transform="translate(-5.3 -7.59)"/><path class="cls-13" d="M184.9,443.05l4.26-1.19a2,2,0,0,0-1-3.8l-4.26,1.19a2,2,0,0,0-1.18.9,2,2,0,0,0-.19,1.52,2,2,0,0,0,.9,1.18,2,2,0,0,0,1.52.2Z" transform="translate(-5.3 -7.59)"/><path class="cls-13" d="M200.75,448.75l3.86,2.47a2,2,0,0,0,2.7-.71,2,2,0,0,0,.19-1.52,2.06,2.06,0,0,0-.9-1.17l-3.86-2.48a2,2,0,0,0-2.69.71,1.93,1.93,0,0,0-.2,1.52,2.16,2.16,0,0,0,.9,1.18Z" transform="translate(-5.3 -7.59)"/><path class="cls-13" d="M308.16,425.05v5.08a2,2,0,0,0,2,2,2,2,0,0,0,2-2v-5.08a2,2,0,1,0-3.95,0Z" transform="translate(-5.3 -7.59)"/><path class="cls-13" d="M314.23,435.2l1.69.84a1.41,1.41,0,0,0,.74.24,1.8,1.8,0,0,0,1.45-.39,1.42,1.42,0,0,0,.51-.55l.2-.48a2,2,0,0,0,0-1l-.2-.48a1.91,1.91,0,0,0-.71-.7l-1.69-.85a1.49,1.49,0,0,0-.73-.23,1.51,1.51,0,0,0-.79,0,1.49,1.49,0,0,0-.67.35,1.53,1.53,0,0,0-.51.56c-.06.16-.13.31-.2.47a2.08,2.08,0,0,0,0,1c.07.16.14.31.2.47a2,2,0,0,0,.71.71Z" transform="translate(-5.3 -7.59)"/><path class="cls-13" d="M327.59,429.89a6.32,6.32,0,0,0,.62-.18,9.35,9.35,0,0,0,1-.46,6.9,6.9,0,0,0,.89-.64,4.22,4.22,0,0,0,.49-.45,2.21,2.21,0,0,0,.58-1.4,2.16,2.16,0,0,0-.58-1.39,2,2,0,0,0-1.4-.58l-.52.07a1.83,1.83,0,0,0-.87.51,3.87,3.87,0,0,1-.52.47l.4-.31a4.26,4.26,0,0,1-.9.53l.47-.2a3.62,3.62,0,0,1-.73.22,1.51,1.51,0,0,0-.67.36,1.59,1.59,0,0,0-.51.55,1.49,1.49,0,0,0-.23.73,1.51,1.51,0,0,0,0,.79,2,2,0,0,0,.91,1.18l.47.2a2.08,2.08,0,0,0,1,0Z" transform="translate(-5.3 -7.59)"/><path class="cls-13" d="M296,398.92a11.87,11.87,0,0,0,1.78,1.69,13.51,13.51,0,0,0,2.43,1.58,2.06,2.06,0,0,0,1.52.2,2,2,0,0,0,1.17-.91,1.93,1.93,0,0,0,.2-1.52,2,2,0,0,0-.9-1.18,12.08,12.08,0,0,1-2-1.26l.4.3a11.87,11.87,0,0,1-1.78-1.69,2,2,0,0,0-2.79,0,1.93,1.93,0,0,0-.58,1.39c0,.18,0,.35.07.53a1.93,1.93,0,0,0,.51.87Z" transform="translate(-5.3 -7.59)"/><path class="cls-13" d="M343,380.58a4.07,4.07,0,0,0-1.28,1.3,3.73,3.73,0,0,0-.48,1.29,4.81,4.81,0,0,0-.09.93,5.66,5.66,0,0,0,.13.92,5.2,5.2,0,0,0,.34.85,3.82,3.82,0,0,0,.56.76,2.16,2.16,0,0,0,1.39.58,2,2,0,0,0,1.4-.58,2,2,0,0,0,.58-1.39l-.08-.53a2,2,0,0,0-.5-.87l-.07-.08.31.4a2.14,2.14,0,0,1-.23-.38c.07.15.14.31.2.47a2.17,2.17,0,0,1-.13-.5l.07.53a2.33,2.33,0,0,1,0-.59c0,.17,0,.35-.07.52a2.23,2.23,0,0,1,.16-.56l-.2.47a2.13,2.13,0,0,1,.26-.44l-.31.4a1.87,1.87,0,0,1,.32-.31l-.4.31L345,384a2,2,0,0,0,.9-1.18,1.39,1.39,0,0,0,0-.78,1.5,1.5,0,0,0-.23-.74,2.06,2.06,0,0,0-1.18-.91,2,2,0,0,0-1.52.2Z" transform="translate(-5.3 -7.59)"/><path class="cls-13" d="M348.91,403.78,347.62,411a2.11,2.11,0,0,0,.19,1.52,2,2,0,0,0,1.18.91,2,2,0,0,0,2.43-1.38c.43-2.4.87-4.79,1.3-7.19a2.12,2.12,0,0,0-.2-1.52,2,2,0,0,0-1.18-.91,2,2,0,0,0-2.43,1.38Z" transform="translate(-5.3 -7.59)"/><path class="cls-13" d="M362,408.14l1.69-.85a1.5,1.5,0,0,0,.56-.5,1.53,1.53,0,0,0,.35-.68,1.48,1.48,0,0,0,0-.78,1.54,1.54,0,0,0-.24-.74l-.31-.39a1.83,1.83,0,0,0-.87-.51l-.52-.07a2,2,0,0,0-1,.27l-1.69.84a1.59,1.59,0,0,0-.55.51,1.46,1.46,0,0,0-.36.67,1.52,1.52,0,0,0,0,.79,1.46,1.46,0,0,0,.23.73l.31.4a1.93,1.93,0,0,0,.87.51l.53.07a1.94,1.94,0,0,0,1-.27Z" transform="translate(-5.3 -7.59)"/><path class="cls-13" d="M373.22,408h1.7a2.16,2.16,0,0,0,1.39-.58,2.21,2.21,0,0,0,.58-1.4c0-.17-.05-.35-.07-.52a1.83,1.83,0,0,0-.51-.87l-.4-.31a1.91,1.91,0,0,0-1-.27h-1.7a1.54,1.54,0,0,0-.76.17,1.44,1.44,0,0,0-.63.41,2.16,2.16,0,0,0-.58,1.39l.07.53a2,2,0,0,0,.51.87l.4.31a2.16,2.16,0,0,0,1,.27Z" transform="translate(-5.3 -7.59)"/><path class="cls-13" d="M336.9,312.93l3-2.54a2.21,2.21,0,0,0,.58-1.4,2,2,0,0,0-2-2l-.52.07a1.83,1.83,0,0,0-.87.51l-3,2.54a1.51,1.51,0,0,0-.4.63,1.44,1.44,0,0,0-.17.76,2,2,0,0,0,.57,1.4,2,2,0,0,0,1.4.58l.52-.07a2,2,0,0,0,.87-.51Z" transform="translate(-5.3 -7.59)"/><path class="cls-13" d="M348,296.84c.15-.42.31-.85.49-1.26l-.2.47a19.25,19.25,0,0,1,2.12-3.78,2,2,0,0,0,.19-1.52,2,2,0,0,0-.9-1.18,2,2,0,0,0-1.52-.19,2.16,2.16,0,0,0-1.18.9,21.27,21.27,0,0,0-2.8,5.52,2,2,0,0,0,.2,1.52,2.05,2.05,0,0,0,1.18.9,2,2,0,0,0,2.42-1.38Z" transform="translate(-5.3 -7.59)"/><path class="cls-13" d="M324.23,301.26,328,300a2.1,2.1,0,0,0,1.18-.91,2,2,0,0,0,.2-1.52,2,2,0,0,0-.91-1.18,2,2,0,0,0-1.52-.2l-3.8,1.3a2.15,2.15,0,0,0-1.18.91,2.07,2.07,0,0,0-.2,1.52,2,2,0,0,0,.91,1.18,2,2,0,0,0,1.52.2Z" transform="translate(-5.3 -7.59)"/><path class="cls-13" d="M334.42,298l1.27-.85a1.42,1.42,0,0,0,.55-.51,1.8,1.8,0,0,0,.39-1.45,1.5,1.5,0,0,0-.23-.74c-.11-.13-.21-.26-.31-.4a2,2,0,0,0-.87-.5l-.53-.08a2.13,2.13,0,0,0-1,.27l-1.27.85a1.53,1.53,0,0,0-.56.51,1.49,1.49,0,0,0-.35.67,1.62,1.62,0,0,0,0,.79,1.51,1.51,0,0,0,.24.73c.1.13.2.27.31.4a2,2,0,0,0,.87.51l.52.07a2,2,0,0,0,1-.27Z" transform="translate(-5.3 -7.59)"/><path class="cls-13" d="M392,247.37l6.78-1.65a2,2,0,1,0-1.05-3.81l-6.78,1.66a2,2,0,1,0,1.05,3.8Z" transform="translate(-5.3 -7.59)"/><path class="cls-13" d="M417.54,244.66l.11.08-.4-.3a7.07,7.07,0,0,1,1.16,1.16l-.31-.4a6.65,6.65,0,0,1,.86,1.48l-.2-.47a6.75,6.75,0,0,1,.43,1.52,2,2,0,0,0,.9,1.18,2,2,0,0,0,1.52.2,2,2,0,0,0,1.18-.91l.2-.47a1.87,1.87,0,0,0,0-1,8,8,0,0,0-1.07-2.87,10,10,0,0,0-1-1.38,8.4,8.4,0,0,0-1.35-1.17,2,2,0,0,0-2.69.71,1.93,1.93,0,0,0-.2,1.52l.2.47a2,2,0,0,0,.7.7Z" transform="translate(-5.3 -7.59)"/><path class="cls-13" d="M426.3,258.64v1.69a1.42,1.42,0,0,0,.17.76,1.48,1.48,0,0,0,.4.64,2.21,2.21,0,0,0,1.4.58l.52-.07a2,2,0,0,0,.87-.51l.31-.4a2,2,0,0,0,.27-1v-1.69a2.21,2.21,0,0,0-.58-1.4,2.22,2.22,0,0,0-1.39-.57l-.52.07a2,2,0,0,0-.88.5l-.3.4a2,2,0,0,0-.27,1Z" transform="translate(-5.3 -7.59)"/><path class="cls-13" d="M434.41,232.91a16.6,16.6,0,0,1,.32,1.71c0-.18-.05-.35-.07-.52a17.23,17.23,0,0,1,.11,3.37,2,2,0,0,0,.57,1.39,2,2,0,0,0,1.4.58,2,2,0,0,0,1.39-.58,2.18,2.18,0,0,0,.58-1.39,18.91,18.91,0,0,0-.49-5.61,2,2,0,0,0-2.43-1.38,2,2,0,0,0-1.38,2.43Z" transform="translate(-5.3 -7.59)"/><path class="cls-13" d="M440.73,253.24c0,.11,0,.21,0,.32l-.07-.53a11.57,11.57,0,0,1,0,2.88l.07-.53a10.79,10.79,0,0,1-.73,2.67l.2-.47,0,.1a2.17,2.17,0,0,0-.2,1.52,2,2,0,0,0,2.43,1.38,1.93,1.93,0,0,0,1.18-.91,15.66,15.66,0,0,0,.69-1.88,16.58,16.58,0,0,0,.36-2,12.5,12.5,0,0,0-.13-3.61,2,2,0,0,0-.9-1.18,2.07,2.07,0,0,0-1.52-.2,2,2,0,0,0-1.18.91,2.22,2.22,0,0,0-.2,1.52Z" transform="translate(-5.3 -7.59)"/><path class="cls-13" d="M435.21,280.12c-.42,1.7-.84,3.39-1.25,5.09a2.07,2.07,0,0,0,.19,1.52,2,2,0,0,0,1.18.9,2,2,0,0,0,2.43-1.37l1.26-5.09a2.12,2.12,0,0,0-.2-1.52,2,2,0,0,0-3.61.47Z" transform="translate(-5.3 -7.59)"/><path class="cls-13" d="M434.72,323q.25,3.6.52,7.2a2,2,0,0,0,3.94,0l-.51-7.2a2,2,0,0,0-2-2,2,2,0,0,0-2,2Z" transform="translate(-5.3 -7.59)"/><path class="cls-13" d="M399.48,162.84a19.53,19.53,0,0,0,7.28-1.41,2.17,2.17,0,0,0,1.18-.9,2,2,0,0,0-.7-2.7,1.86,1.86,0,0,0-1.52-.2,18.53,18.53,0,0,1-4.38,1.17l.53-.07a19.19,19.19,0,0,1-2.39.16,2,2,0,1,0,0,4Z" transform="translate(-5.3 -7.59)"/><path class="cls-13" d="M409.34,150.94l2.53-.88a2.1,2.1,0,0,0,1.18-.91,1.46,1.46,0,0,0,.23-.73,1.52,1.52,0,0,0,0-.79,2,2,0,0,0-.91-1.17,1.93,1.93,0,0,0-1.52-.2l-2.53.87a2.1,2.1,0,0,0-1.18.91,1.49,1.49,0,0,0-.23.73,1.51,1.51,0,0,0,0,.79,2,2,0,0,0,.91,1.18,2,2,0,0,0,1.52.2Z" transform="translate(-5.3 -7.59)"/><path class="cls-13" d="M405,132.59a18.68,18.68,0,0,0,5.27,5.06,2,2,0,1,0,2-3.4c-.41-.27-.81-.55-1.2-.85l.4.31a16.58,16.58,0,0,1-2.91-2.89l.31.4c-.16-.2-.31-.41-.46-.62a2.1,2.1,0,0,0-1.18-.91,2,2,0,0,0-1.52.2,2,2,0,0,0-.9,1.18,1.93,1.93,0,0,0,.2,1.52Z" transform="translate(-5.3 -7.59)"/><path class="cls-13" d="M420.84,153.73c0,.1,0,.19.05.29,0-.18-.05-.35-.07-.53a6.78,6.78,0,0,1,0,1.56c0-.17.05-.34.07-.52a5.88,5.88,0,0,1-.43,1.58l.2-.47a6.34,6.34,0,0,1-.42.82,2,2,0,1,0,3.4,2,7.61,7.61,0,0,0,1-2.55,10.73,10.73,0,0,0,.17-1.59,9.78,9.78,0,0,0-.17-1.62,2,2,0,0,0-.91-1.18,2,2,0,0,0-2.7.7,2.23,2.23,0,0,0-.2,1.52Z" transform="translate(-5.3 -7.59)"/><path class="cls-13" d="M414.89,162.4c-.21.61-.5,1.2-.68,1.81.17-.57,0-.06,0,.08l-.15.33c-.13.29-.27.58-.41.87a26.5,26.5,0,0,1-1.91,3.2,2,2,0,0,0,.71,2.7,2,2,0,0,0,2.7-.71,29,29,0,0,0,3.58-7.23,2,2,0,0,0-1.38-2.42,2,2,0,0,0-2.42,1.37Z" transform="translate(-5.3 -7.59)"/><path class="cls-13" d="M338,75.91a91.37,91.37,0,0,0,10.25,1.86,2,2,0,0,0,2-2,2,2,0,0,0-2-2l-.38,0c-.21,0-.25,0-.11,0l-.4-.05-1.22-.18c-.78-.13-1.57-.26-2.35-.41q-2.38-.44-4.74-1a2,2,0,0,0-1,3.81Z" transform="translate(-5.3 -7.59)"/><path class="cls-13" d="M359.9,92.13q-1.06,2.55-2.12,5.08a1.93,1.93,0,0,0,.2,1.52,2,2,0,0,0,2.7.71l.39-.31a1.83,1.83,0,0,0,.51-.87c.71-1.69,1.41-3.38,2.12-5.08a2,2,0,0,0-1.38-2.42,2,2,0,0,0-1.52.19l-.4.31a2,2,0,0,0-.5.87Z" transform="translate(-5.3 -7.59)"/><path class="cls-15" d="M271.8,182.23c-6.53,2.85-15.15,9.58-19.88,14.91-6.42,7.24-12.66,15.41-13.83,25s4.74,20.69,14.36,21.81c3.5.41,7.08-.5,10.57.08,3.09.52,5.89,2.18,8.94,2.91,8.81,2.12,17.92-4.18,22-12.29s4.14-17.54,3.87-26.6S297,189.71,300,181.16a6.17,6.17,0,0,0,.53-2.45C300,170.73,276.82,180,271.8,182.23Z" transform="translate(-5.3 -7.59)"/><path class="cls-16" d="M300,181.16a6.17,6.17,0,0,0,.53-2.45,3,3,0,0,0-.49-1.52,6.13,6.13,0,0,1-.47,2.44c-.89,2.1-2.62,3.71-3.87,5.62-4.42,6.73-2.25,15.68-3.85,23.57-.62,3-1.8,5.92-2.16,9-.39,3.25.15,6.67-1.07,9.71-1.31,3.26-4.41,5.44-7.53,7.08-4.85,2.54-10.7,4.25-15.75,2.12-2.63-1.12-4.94-3.23-7.79-3.42-4-.27-7.21,3.26-11.13,4a7.92,7.92,0,0,1-5-.8c2.54,4,6.36,7,11.09,7.51,3.5.41,7.08-.5,10.57.08,3.09.52,5.89,2.18,8.94,2.91,8.81,2.12,17.92-4.18,22-12.29s4.14-17.54,3.87-26.6S297,189.71,300,181.16Z" transform="translate(-5.3 -7.59)"/><path class="cls-16" d="M260,221.54c4.25-12.15,13.15-22,22-31.34a19.41,19.41,0,0,1,3.84-3.35c-.53,1.82-2,3.2-3.3,4.55a82.26,82.26,0,0,0-17,25,35.23,35.23,0,0,0-3.18,11.09,16.64,16.64,0,0,0,2.65,11c.63.89,1.39,2.08.73,2.94-1,1.28-4.06.45-5.08-.49-1.25-1.15-1.8-3.56-2.15-5.12C257.45,231.09,258.37,226.07,260,221.54Z" transform="translate(-5.3 -7.59)"/><path class="cls-16" d="M282.28,218.15a44.24,44.24,0,0,0-12.79,2.39,14.91,14.91,0,0,0-4.16,2c-2.48,1.87-3.53,4.68-4.94,7.31C258.18,218.83,274.49,215.17,282.28,218.15Z" transform="translate(-5.3 -7.59)"/><path class="cls-16" d="M280,206.39a11.44,11.44,0,0,1,4.46,1c-.36-1.17-1.83-1.49-3-1.61l-7.94-.84a5.25,5.25,0,0,0-3.17.33c-.59.34-1.9,1.58-1,2.29.41.34,2.6-.74,3.16-.87A27,27,0,0,1,280,206.39Z" transform="translate(-5.3 -7.59)"/><path class="cls-16" d="M252.48,217.83A19.79,19.79,0,0,0,241.24,216c.14-.79,1.14-1.07,1.95-1.1a22.34,22.34,0,0,1,4.81.51c3.33.64,6.76,1.51,9.38,3.65,2.4,2,4.47,6,2.9,9-1.63-.23-1.77-4-2.51-5.3A13.39,13.39,0,0,0,252.48,217.83Z" transform="translate(-5.3 -7.59)"/><path class="cls-16" d="M265.72,203.23a8.6,8.6,0,0,0-2.07-1.78,13.76,13.76,0,0,0-8.87-2.14.85.85,0,0,1,.52-1,2.54,2.54,0,0,1,1.2-.1,25.12,25.12,0,0,1,5.33.78,12.77,12.77,0,0,1,5.41,3.24c.75.75,3.57,4.91,1.47,5.64C267.43,208.34,266.32,203.94,265.72,203.23Z" transform="translate(-5.3 -7.59)"/><path class="cls-16" d="M274.91,193.17a8.15,8.15,0,0,0-3.5-2.43l-2-.91c.68-.58,1.72-.14,2.51.27a20.16,20.16,0,0,1,3.44,2,4.4,4.4,0,0,1,1.81,3.37,4.73,4.73,0,0,1-1,2.67C275.17,197,275.92,194.62,274.91,193.17Z" transform="translate(-5.3 -7.59)"/><path class="cls-16" d="M267.86,258a8.4,8.4,0,0,0,4,2.77c1.61.38,3.59-.31,4.13-1.87a1.69,1.69,0,0,0,0-1.29c-.52-1.07-2.05-.85-3.23-.95-2.35-.19-4.11-2.18-5.42-4.14a14.38,14.38,0,0,1-2.44-5.41c-.34-2,.19-6-2.16-7-2.8-1.26-2.87,2.55-2.44,4.15A32.78,32.78,0,0,0,267.86,258Z" transform="translate(-5.3 -7.59)"/><path class="cls-17" d="M263.8,191.12a26.57,26.57,0,0,0-11.69,13.6,9.11,9.11,0,0,0-.61,5.84,5.55,5.55,0,0,0,3.43,3.56,3.91,3.91,0,0,0,2,.18,4.39,4.39,0,0,0,2.66-2.11,8.54,8.54,0,0,0,1.24-5.6c-.15-1.19-.56-2.34-.67-3.54a3.85,3.85,0,0,1,1-3.32c.79-.69,2-.88,2.61-1.74s.46-1.85.81-2.75a5.59,5.59,0,0,1,2.66-2.48,21.86,21.86,0,0,1,5.71-2.67,10.53,10.53,0,0,0,3.78-1.24c1-.75,1.56-2,2.39-2.9,1.83-2.07,4.8-2.59,7.53-3.07s5.71-1.21,7.28-3.48c-1.52-1-3.5-.17-5.24.36-2.22.67-4.56.81-6.82,1.36-3.53.85-5.05,3.36-8,5.1C270.71,188.15,267.07,189.27,263.8,191.12Z" transform="translate(-5.3 -7.59)"/><path class="cls-15" d="M253.72,250.34c-9.86,2.21-17.89,9.94-22.22,19.06s-5.35,19.52-4.85,29.61a6,6,0,0,0,.68,3,4.19,4.19,0,0,0,3.39,1.69,13.5,13.5,0,0,0,3.87-.63A38,38,0,0,1,240,302c4.72-.53,9.49.37,14.24.34a33.32,33.32,0,0,0,22.5-8.68,27.93,27.93,0,0,0,8.81-22.18,17.86,17.86,0,0,0-1.49-6.07,14.2,14.2,0,0,0-9.72-7.82c-4.43-1-6.63-1.26-9.75-4.54C261.59,249.89,257.84,249.42,253.72,250.34Z" transform="translate(-5.3 -7.59)"/><path class="cls-16" d="M285.49,271.42a17.86,17.86,0,0,0-1.49-6.07,14.25,14.25,0,0,0-9.72-7.82c-4.43-1-6.63-1.25-9.75-4.53-3-3.11-6.72-3.58-10.84-2.66a27.18,27.18,0,0,0-6.07,2.14c1.06-.13,2.27-.47,2.67-.5a16.62,16.62,0,0,1,10.12,2.66c1.92,1.28,3.7,3.4,3.21,5.65a2.86,2.86,0,0,0-.15,1.41c.21.62.95.88,1.6,1a13.49,13.49,0,0,0,2.62.2c1.17,0,2.35-.2,3.52-.11,4.29.33,7.63,4.42,8.17,8.69s-1.22,8.55-3.68,12.08a16.7,16.7,0,0,1-4.95,4.92,23.18,23.18,0,0,1-7.55,2.41c-5.52,1.1-11,2.28-16.49,3.63a30.87,30.87,0,0,0-8.59,3.1c-2.29,1.36-4.22,3.26-6.5,4.65a12.85,12.85,0,0,1-2.4,1.13,5.23,5.23,0,0,0,1.47.27,13.52,13.52,0,0,0,3.87-.64,39.42,39.42,0,0,1,5.38-1.08c4.72-.52,9.49.37,14.24.35a33.29,33.29,0,0,0,22.5-8.69A27.92,27.92,0,0,0,285.49,271.42Z" transform="translate(-5.3 -7.59)"/><path class="cls-16" d="M256.59,266.88a36.12,36.12,0,0,0-5.94,4.43,104.57,104.57,0,0,0-12.51,13.59c-2.64,3.35-5.21,6.9-6.28,11-.36-.05-.44-.53-.4-.89a13.35,13.35,0,0,1,1.72-4.77c5.76-10.82,14.91-19.45,24.59-27a15,15,0,0,1,3.76-2.35c2.7-1,5.72-.5,8.56,0a1.63,1.63,0,0,1,.77.31.52.52,0,0,1,0,.74c-1.58,1.24-4.94,1.31-6.92,1.87A32.68,32.68,0,0,0,256.59,266.88Z" transform="translate(-5.3 -7.59)"/><path class="cls-16" d="M233.61,284a7.58,7.58,0,0,1-2.3-2.75,5.28,5.28,0,0,1-.71-3.41c.4.06.45.61.47,1,.07,1.59,1.24,2.9,2.45,3.93a2.83,2.83,0,0,0,1.76.84c.85,0,1.55-.78,2.39-.79a.57.57,0,0,1,.42.13c.51.52-1,1.76-1.42,1.9C235.73,285.13,234.36,284.47,233.61,284Z" transform="translate(-5.3 -7.59)"/><path class="cls-16" d="M237.14,270.49a14.22,14.22,0,0,1-.17-6.43,1,1,0,0,1,.21-.57c.15-.14.45-.14.52.06A17.82,17.82,0,0,0,238,269a5.94,5.94,0,0,0,3.31,4.07c1.78.68,3.78.14,5.55-.55a1.11,1.11,0,0,1,.75-.1.72.72,0,0,1,.3.94c-.94,2.22-3.83,2.32-5.73,1.8A7.49,7.49,0,0,1,237.14,270.49Z" transform="translate(-5.3 -7.59)"/><path class="cls-16" d="M248.55,262.38a4,4,0,0,1-1.06-1,4,4,0,0,1-.56-1.64,13.92,13.92,0,0,1-.08-3.92c.18,0,.35.14.38.32a1.7,1.7,0,0,1-.09.54c-.28,1.12.45,2.21,1.16,3.11a12.91,12.91,0,0,0,3.87,3.57,2.22,2.22,0,0,0,.78.28,2.81,2.81,0,0,0,1.17-.23,12.3,12.3,0,0,1,3-.56,1.14,1.14,0,0,1,.89.21c.72.74-.66,1.77-1.22,2a2.77,2.77,0,0,1-2.17.1A17.51,17.51,0,0,1,248.55,262.38Z" transform="translate(-5.3 -7.59)"/><path class="cls-16" d="M249.23,282.84a29.06,29.06,0,0,0,8,4.36c.41.17,1.09.16,1.06-.28a21,21,0,0,1-6.34-3.5c-2.13-1.73-4-4.05-4.25-6.78a13.41,13.41,0,0,1,.21-3.28c0,.07-2,1-2.2,1.55a4,4,0,0,0,.09,2.7A11,11,0,0,0,249.23,282.84Z" transform="translate(-5.3 -7.59)"/><path class="cls-16" d="M260.85,275.38c3.08,2.3,7.09,3,10.94,3,.62,0,1.46-.27,1.37-.89-3.41,0-7-.4-9.8-2.29s-4.74-5.48-3.8-8.75a2,2,0,0,0,.12-1.25c-.45-1.14-2.18-.44-2.69.28s-.42,2.3-.27,3.26A10.6,10.6,0,0,0,260.85,275.38Z" transform="translate(-5.3 -7.59)"/><path class="cls-17" d="M250.94,252.68a9.32,9.32,0,0,0-3,1.28,9.79,9.79,0,0,0-3.7,3.28c-.55,1-.79,2.09-1.37,3a13.57,13.57,0,0,1-3.47,3.19,23,23,0,0,0-6.49,8.73,49.81,49.81,0,0,0-3.11,10.51c-.47,2.32-.85,4.81.07,7a1.15,1.15,0,0,0,.39.53.8.8,0,0,0,1-.31,2.13,2.13,0,0,0,.31-1.11,33.1,33.1,0,0,0,.07-4.67,7.71,7.71,0,0,1,.19-3.07,2.29,2.29,0,0,1,2.34-1.61c.26.05.5.16.76.2,1.21.22,2.23-1.08,2.3-2.3a10.65,10.65,0,0,0-.85-3.56,3.84,3.84,0,0,1,.28-3.52c1-1.22,2.86-1.08,4.39-.71s3.25.82,4.55-.06a3.41,3.41,0,0,0,1.34-2.9,8,8,0,0,0-.87-3.19,5.23,5.23,0,0,1-.46-1.25,2.41,2.41,0,0,1,1-2.38,2.35,2.35,0,0,1,2.58.08,12.6,12.6,0,0,1,.9.89,3.85,3.85,0,0,0,6.33-2.63C256.56,255.36,253.78,252.12,250.94,252.68Z" transform="translate(-5.3 -7.59)"/><path class="cls-18" d="M271.21,240.83a10,10,0,0,1,4.61-5.43c4.43-2.41,10-1.09,14.47,1.18s8.59,5.45,13.41,6.91c2.43.74,5,1,7.45,1.68a11.93,11.93,0,0,1,6.49,3.77,4.32,4.32,0,0,1,1.06,3,5.13,5.13,0,0,1-2.25,3.21c-3.22,2.49-7.17,3.85-10.52,6.16-4.1,2.82-7.2,7-11.5,9.49a22.79,22.79,0,0,1-15.36,2.26c-3.9-.7-7.87-2.35-10.16-5.6-3.15-4.48-2-11.26,2.19-14.82,2.55-2.17,1.75-2.93.6-5.49A8.73,8.73,0,0,1,271.21,240.83Z" transform="translate(-5.3 -7.59)"/><path class="cls-19" d="M318.67,251.94a4.26,4.26,0,0,0-1-3,4.66,4.66,0,0,1-1,3.14c-1.33,1.53-3.59,1.66-5.59,2a17.84,17.84,0,0,0-5,1.56,53,53,0,0,0-5.22,3.26,42.32,42.32,0,0,1-24.68,6.67,12.66,12.66,0,0,1-6.9-1.89,6,6,0,0,1-2.11-2.77,10.28,10.28,0,0,0,1.77,6.55c2.28,3.24,6.25,4.89,10.16,5.59a22.7,22.7,0,0,0,15.35-2.26c4.31-2.5,7.41-6.66,11.51-9.49,3.35-2.3,7.3-3.66,10.51-6.15A5,5,0,0,0,318.67,251.94Z" transform="translate(-5.3 -7.59)"/><path class="cls-19" d="M275.59,255.58c7.38,1.95,15.27.53,22.5-2a28.52,28.52,0,0,1,7.33-1.92c.6,0,1.34-.11,1.57-.67a14.93,14.93,0,0,0-4.7.33c-8,1.43-16.09,3-24.23,2.72a5.07,5.07,0,0,1-2.38-.5c-1.66-1-2.12-1.24-2.94-3.92C270.89,252.75,272.61,254.8,275.59,255.58Z" transform="translate(-5.3 -7.59)"/><path class="cls-19" d="M276.08,252.85a6,6,0,0,0,1.85-1.75,13,13,0,0,0,2.26-4.1,6.25,6.25,0,0,0-.29-4.58,5.06,5.06,0,0,1,.83,4.08,12.27,12.27,0,0,1-1.69,3.92c-.64,1.09-1.33,2.14-2.06,3.17a2.92,2.92,0,0,1-1.69,1.39,1.51,1.51,0,0,1-1.47-.61C272.57,252.6,275.19,253.34,276.08,252.85Z" transform="translate(-5.3 -7.59)"/><path class="cls-19" d="M290.55,250.9a8.73,8.73,0,0,0,1-6.89c1.23,2.18.7,5-.38,7.2a8.25,8.25,0,0,1-2.26,3,4.32,4.32,0,0,1-2.42,1c-1.25,0-.83-.51,0-.88A9.17,9.17,0,0,0,290.55,250.9Z" transform="translate(-5.3 -7.59)"/><path class="cls-19" d="M275.66,259.51a7.69,7.69,0,0,1-2.32,4.24,6.65,6.65,0,0,0,2.57-2.93,12.86,12.86,0,0,0,1-3.81,3.59,3.59,0,0,0-.11-1.9,1.45,1.45,0,0,0-1.27-.92c-.94.09-.53.61-.32,1.17A7.84,7.84,0,0,1,275.66,259.51Z" transform="translate(-5.3 -7.59)"/><path class="cls-19" d="M286.94,265a15.34,15.34,0,0,0,.13-6.4,5.33,5.33,0,0,0-1.27-2.82c-.44-.43-2.34-1.39-2.47-.33-.08.63,1.54,2.19,1.87,2.78A13.17,13.17,0,0,1,286.94,265Z" transform="translate(-5.3 -7.59)"/><text x="-5.3" y="-7.59"/></svg>