<svg id="Layer_1" data-name="Layer 1" xmlns="http://www.w3.org/2000/svg" viewBox="0 0 511.11 510.71"><defs><style>.cls-1{fill:#fdc25c;}.cls-2{fill:#fcad56;}.cls-13,.cls-3{fill:#fff;}.cls-3{opacity:0.26;}.cls-4{fill:#bf362b;}.cls-5{fill:#f4d798;}.cls-6{fill:#f4ab69;}.cls-7{fill:#f09d16;}.cls-8{fill:#f2bf1f;}.cls-9{fill:#ffd420;}.cls-10{fill:#e98679;}.cls-11{fill:#efa8ac;}.cls-12{fill:#ffc77d;}.cls-13{opacity:0.39;}.cls-14{fill:#f2e8bb;}.cls-15{fill:#3d7a36;}</style></defs><path class="cls-1" d="M23.06,160.39c-6.65,17.28-8.56,36-10.4,54.39-2.71,27-5.42,54-6.79,81.13C5,313.81,4.65,332,8.9,349.42c5.69,23.34,19.44,44.28,37,60.65,10.85,10.08,23.12,18.53,34.22,28.33,9.84,8.7,18.72,18.42,28.25,27.46,35.24,33.41,84.83,43.09,132.81,50.52s88.23-8,134-24.18c34.26-12.09,44.93-29.71,67.21-49.1,26-22.63,41.56-39.16,60.76-67.79,18.24-27.21,12-64.05,11.94-92.4-.06-26.27,4.41-53.22-3.1-78.4-4.44-14.88-12.83-28.22-19.06-42.44-11.06-25.25-15.66-54-33-75.43-13.15-16.32-32.22-26.56-50.75-36.36C389.92,40,370.49,29.78,350,22.2,302.68,4.76,250.39,3.45,201.68,15.55c-46,11.4-98.8,36.22-128.89,74.19C55.11,112.06,33.48,133.35,23.06,160.39Z" transform="translate(-5.3 -7.59)"/><path class="cls-2" d="M512.05,204.51c-4.44-14.88-12.83-28.22-19.06-42.44-11.06-25.25-15.66-54-33-75.43-10.58-13.13-25-22.33-39.88-30.53,10.42,6.51,20.11,14,27.79,23.48,17.3,21.46,21.9,50.17,33,75.43,6.23,14.22,14.62,27.56,19.06,42.43,7.52,25.18,3.05,52.13,3.11,78.41.07,28.35,6.3,65.19-11.94,92.39-19.2,28.64-34.75,45.16-60.76,67.79-22.28,19.39-33,37-67.22,49.1-45.79,16.17-86,31.62-134,24.19-34.81-5.39-70.46-12-100.86-27.93,32.79,21.19,73.41,28.86,113,35,48,7.43,88.23-8,134-24.18,34.26-12.09,44.93-29.71,67.21-49.1,26-22.63,41.56-39.16,60.76-67.79,18.24-27.21,12-64.05,11.94-92.4C515.09,256.64,519.56,229.69,512.05,204.51Z" transform="translate(-5.3 -7.59)"/><path class="cls-2" d="M32.38,258.54A269.36,269.36,0,0,1,117.12,86.75c11-10.19,22.95-19.49,36.14-26.65s27.12-12,41.22-16.66c29-9.54,59-18.12,89.47-16.86,53.18,2.2,100.13,33.57,143.91,63.84C416.05,80,399.08,78.61,384.42,72.89s-26.95-15.69-41-22.43C301.14,30.19,251.23,41.91,206,54c-16.06,4.28-32.29,8.63-46.89,16.56-18.3,10-33.18,25-47.77,39.92-18.73,19.09-37.93,38.88-47.85,63.72C57,190.43,54.77,208.06,49,224.57,45,236,39.33,246.9,36.58,258.7c-5.11,21.89.31,44.71,5.72,66.54,6.82,27.53,14.28,56.28,33.34,77.28-15.79-19.73-28.74-37.83-36.17-62.47C31.55,313.76,29.79,285.79,32.38,258.54Z" transform="translate(-5.3 -7.59)"/><path class="cls-3" d="M32.91,174.33c-7,30.24-14.08,60.57-17.51,91.43-3.41,30.69-2.94,63,10.51,90.8a28.52,28.52,0,0,0,5.87,8.74,4.27,4.27,0,0,0,3.41,1.45c2.66-.46,2.59-4.3,1.8-6.88-9.82-32.17-22.1-65.46-16.06-98.55,2.34-12.8,7.35-24.94,10.71-37.5C39.07,196,38.72,165.25,54.25,141c6.7-10.44,16-19,23.74-28.64,8-9.91,14.43-21.1,23.61-29.9,18.7-17.91,46-23.56,67.07-38.58,2.92-2.08,6-5,5.54-8.57-6.86-2-14,1.42-20.29,4.92C101.6,69.52,47.08,113.43,32.91,174.33Z" transform="translate(-5.3 -7.59)"/><path class="cls-3" d="M279.74,20.14c2.43.33,6-.25,5.74-2.69-.19-1.91-2.68-2.47-4.6-2.53-21.27-.67-42.88-1.31-63.47,4-7.23,1.88-23.23,2.31-27.67,8.92-8.66,12.88,10.62,5.24,15.34,3.12A137.81,137.81,0,0,1,279.74,20.14Z" transform="translate(-5.3 -7.59)"/><path class="cls-3" d="M305.49,490c28.87-7.37,58.29-15,83.47-30.92,13.59-8.61,25.62-19.46,37.27-30.56,22.64-21.57,44.2-44.35,63.31-69.11,1.21-1.56,2.45-3.25,2.59-5.22s-1.36-4.17-3.32-4a5,5,0,0,0-2.94,1.87c-5.68,6-9.85,13.31-15.13,19.7-16.21,19.62-41.86,29.8-57.41,49.94-5.53,7.17-9.63,15.43-15.71,22.14-11.94,13.18-29.88,18.79-46.93,23.86L319.41,477c-9.7,2.88-19.43,5.77-29.42,7.35-6.22,1-12.52,1.45-18.68,2.78-4.4,1-26.44,11.07-13.47,14.86,5.18,1.52,17.32-4.24,22.61-5.59Z" transform="translate(-5.3 -7.59)"/><path class="cls-3" d="M485.37,235.45a211.9,211.9,0,0,1,2.69,80c-1.06,6.72-2.44,13.63-.87,20.24.34,1.42,1,3,2.36,3.46s3.15-.64,3.78-2.1a9.88,9.88,0,0,0,.41-4.69,150.21,150.21,0,0,1,1.12-30.71c1-7.28,2.58-14.52,2.86-21.88.63-16.85-5.51-33.56-3.79-50.34.37-3.64.11-11.6-5.82-10.14C481.89,220.85,484.43,231.33,485.37,235.45Z" transform="translate(-5.3 -7.59)"/><path class="cls-4" d="M120.82,102.71c-5.64,10.55-9.31,22.13-15.72,32.24-9.66,15.22-24.84,26.08-36,40.25C50.75,198.53,44.62,228.91,39,258.07c-2.45,12.8-4.91,25.86-3.39,38.81,1.68,14.35,8.12,27.65,12.13,41.53,3.8,13.16,5.51,27.17,12.3,39.07s17.83,20.42,26.31,31,14.55,23.6,24.47,33.12,23.25,15,36.23,20Q167,469.21,187.28,476c13.86,4.68,27.9,9.11,42.4,11,37.43,4.91,74.76-7.2,110.57-19.14C352,464,363.87,460,374,453c18.2-12.57,28.81-33.28,44.18-49.18,19.25-19.9,47.32-34.22,54.61-60.93,4.44-16.26-.15-33.58,1.18-50.39,1.39-17.74,9.36-34.59,9.85-52.38.41-14.64-4.25-28.88-8.86-42.78C467.4,174.45,459.56,151.1,444.9,132c-11.91-15.54-27.75-27.53-43.7-38.88q-17.71-12.6-35.95-24.47c-11.76-7.66-23.88-15.17-37.38-19-12.47-3.52-25.6-3.74-38.55-3.86C234.47,45.26,150.94,46.33,120.82,102.71Z" transform="translate(-5.3 -7.59)"/><path class="cls-5" d="M145.32,88c-8.79,14.8-9.91,33.82-21.29,46.73-13,14.79-36.64,18-47.23,34.66-3.7,5.82-5.36,12.67-7,19.38-6.38,26.88-12.79,54-14.08,81.56s2.85,56.06,16.41,80.14c7.66,13.59,18.08,25.4,26.91,38.25a192.79,192.79,0,0,1,21,39.93c2.23,5.8,4.29,11.89,8.52,16.45,7.1,7.64,18.64,9.18,29,8.42s20.81-3.34,31.16-2c9,1.14,17.35,5.16,26.09,7.62,22.4,6.3,46.24,2.16,69.13-2,17.16-3.13,34.49-6.32,50.44-13.36,18.59-8.2,34.86-21.46,54.21-27.64,9-2.89,18.64-4.2,27.18-8.36,11.77-5.73,20.33-16.28,28.51-26.51,6.23-7.8,12.67-16,14.44-25.86,1.44-7.93-.34-16-1-24.06-1.83-22.71,5.37-45,10-67.35s6.22-47-5.5-66.52c-2.61-4.36-5.84-8.37-8-13-5.62-12.07-3.15-26.71-8.77-38.79-7.66-16.46-27.32-22.9-41-34.81C390.15,98.39,381.73,79.19,365,70.1c-7.2-3.91-15.37-5.59-23.4-7.22-12.84-2.6-25.71-5.2-38.75-6.42-18.37-1.71-36.88-.65-55.3.41-20.1,1.16-44.47-1.12-63.82,4.55C174.47,64.14,145.32,75.51,145.32,88Z" transform="translate(-5.3 -7.59)"/><path class="cls-6" d="M178.16,449.62c-10.35-1.32-20.75,1.25-31.16,2a57.35,57.35,0,0,1-9.89-.07c6.28,2.64,13.68,3.16,20.59,2.65,10.41-.76,20.81-3.33,31.16-2l.34.05A61.77,61.77,0,0,0,178.16,449.62Z" transform="translate(-5.3 -7.59)"/><path class="cls-6" d="M462.35,198.14c-2.62-4.36-5.85-8.37-8-13-5.62-12.07-3.15-26.72-8.77-38.79-7.66-16.46-27.32-22.91-41-34.81C390.17,99.08,381.75,79.87,365,70.78c-6.5-3.52-13.78-5.23-21-6.73a53.24,53.24,0,0,1,10.34,4.16c16.73,9.08,25.15,28.29,39.53,40.77,13.71,11.91,33.37,18.35,41,34.81,5.62,12.08,3.15,26.72,8.77,38.79,2.15,4.61,5.38,8.62,8,13,11.72,19.54,10.09,44.2,5.5,66.52s-11.79,44.63-10,67.35c.64,8,2.41,16.13,1,24.06-1.78,9.82-8.21,18.06-14.45,25.86-8.17,10.23-16.74,20.78-28.5,26.51-8.54,4.16-18.14,5.46-27.19,8.36-19.35,6.18-35.61,19.44-54.2,27.64-15.95,7-33.28,10.23-50.44,13.36-20.07,3.66-40.87,7.3-60.79,3.89l2.36.71c22.4,6.3,46.25,2.15,69.14-2,17.15-3.14,34.49-6.32,50.44-13.36,18.58-8.21,34.85-21.46,54.2-27.65,9-2.89,18.64-4.19,27.18-8.35,11.77-5.73,20.34-16.28,28.51-26.51,6.23-7.8,12.67-16,14.44-25.86,1.44-7.93-.33-16-1-24.07-1.83-22.71,5.38-45,10-67.34S474.06,217.68,462.35,198.14Z" transform="translate(-5.3 -7.59)"/><path class="cls-7" d="M365.89,220.6a6.82,6.82,0,0,0-1.46,2c-.62,1.54-.06,3.29.72,4.75,2.54,4.8,7.19,8,11.34,11.52,10.25,8.67,18.27,20,29.67,27.11,1.78,1.11,3.78,2.14,5.86,1.93a9.75,9.75,0,0,0,3.75-1.42,51.57,51.57,0,0,0,9.46-6.89A14.5,14.5,0,0,0,429,254.9a16.27,16.27,0,0,0,1-4.74q.63-5.74.93-11.52a33.63,33.63,0,0,0-.49-9.56,8.41,8.41,0,0,0-2.05-4.09c-1.38-1.37-3.38-1.89-5.28-2.34l-32.63-7.91-8.09-2c-1.82-.44-4.43-1.7-6.3-1.62C372.47,211.32,368.21,218.1,365.89,220.6Z" transform="translate(-5.3 -7.59)"/><path class="cls-8" d="M369,222.26c-1.58,2.84.06,6.4,2.08,9a58.31,58.31,0,0,0,8.18,8q12.86,10.92,26.5,20.83c2.27,1.66,4.8,3.36,7.61,3.25a10.76,10.76,0,0,0,5-1.82c4.53-2.74,8.44-6.77,10.24-11.76,1.28-3.52,1.45-7.34,1.62-11.08.34-7.85.68-15.69.71-23.55a17.81,17.81,0,0,0-1-7.12,3.28,3.28,0,0,0-1.11-1.5,4,4,0,0,0-2.5-.38l-28.9,2-14.73,1c-3.42.24-8.15-.47-8.14,3.87,0,1.9.51,2.88-.72,4.58C372.54,219.37,370.15,220.2,369,222.26Z" transform="translate(-5.3 -7.59)"/><path class="cls-9" d="M398.84,210.9c-6.8-.33-13.9-1.36-20.2,1.21a40.14,40.14,0,0,0,5.53,1,15.19,15.19,0,0,0-5.09,1.23c.32.26.05.78-.29,1s-.76.5-.75.91.38.6.71.76A43.35,43.35,0,0,0,390.13,221c-4.69.65-9.6-2.26-14.05-.65-.54.19-1.14.6-1,1.16a1.35,1.35,0,0,0,.69.8L387,229.75c9,5.94,18.05,11.93,28.21,15.46,0-.8-.69-1.41-1.34-1.86a166.84,166.84,0,0,0-21.65-12.67,8.92,8.92,0,0,1-3.8-2.76,4.08,4.08,0,0,1,3.78.25L391,226.8a1,1,0,0,0,1.16-.54l-3.05-1.08a.59.59,0,0,1-.33-.22c-.14-.27.19-.53.48-.62a7.18,7.18,0,0,1,3.7.21c10,2.4,19.94,5.47,30.1,7.3-2.89-3-7.19-4.09-11.21-5.23a128.17,128.17,0,0,1-13.23-4.54,31.81,31.81,0,0,1,9-.51q-9.94-2.35-19.73-5.36c2.38-1.18,5.17-1,7.83-.85,7.37.29,14.73-.51,22.06-1.3a77,77,0,0,0-10.4-.64l10.63-1.78c2.66-.44,5.49-1,7.42-2.86-.37.36-2.84.28-3.45.41-1.18.25-2.3.68-3.47.95a20.48,20.48,0,0,1-4.35.4C409.06,210.65,404,211.15,398.84,210.9Z" transform="translate(-5.3 -7.59)"/><path class="cls-7" d="M181.37,352.27a6.93,6.93,0,0,0-2.06-1.39,5.79,5.79,0,0,0-4.72.88c-4.71,2.7-7.77,7.46-11.13,11.72-8.32,10.54-19.39,18.93-26.1,30.56-1.05,1.82-2,3.85-1.74,5.93a9.76,9.76,0,0,0,1.55,3.69,51.08,51.08,0,0,0,7.21,9.23,14.54,14.54,0,0,0,4.83,3.56,16.34,16.34,0,0,0,4.77.87q5.76.44,11.55.54a33.46,33.46,0,0,0,9.53-.81,8.43,8.43,0,0,0,4-2.18c1.33-1.44,1.77-3.45,2.17-5.36q3.41-16.44,6.8-32.88l1.68-8.15c.38-1.83,1.55-4.48,1.41-6.35C190.87,358.54,184,354.5,181.37,352.27Z" transform="translate(-5.3 -7.59)"/><path class="cls-8" d="M179.82,355.45c-2.9-1.49-6.4.27-8.89,2.37a58.34,58.34,0,0,0-7.71,8.45q-10.47,13.22-19.93,27.18c-1.57,2.33-3.19,4.91-3,7.72a10.6,10.6,0,0,0,2,4.94A23.63,23.63,0,0,0,154.38,416c3.57,1.15,7.39,1.2,11.14,1.24,7.85.08,15.7.16,23.55-.08a17.73,17.73,0,0,0,7.09-1.22,3.28,3.28,0,0,0,1.46-1.16,4,4,0,0,0,.29-2.51L195,383.41l-1.5-14.69c-.35-3.4.2-8.15-4.14-8-1.9.06-2.86.61-4.6-.56C182.83,358.88,181.91,356.52,179.82,355.45Z" transform="translate(-5.3 -7.59)"/><path class="cls-9" d="M192.17,384.87c.11-6.8.9-13.93-1.89-20.15a42,42,0,0,0-.83,5.58,15.14,15.14,0,0,0-1.4-5.06c-.25.33-.78.08-1-.25s-.52-.75-.94-.71-.58.4-.73.73a43.66,43.66,0,0,0-3.53,11.5c-.81-4.67,1.93-9.67.17-14.07-.2-.52-.64-1.11-1.19-1a1.32,1.32,0,0,0-.78.71l-7.07,11.52c-5.64,9.16-11.32,18.44-14.5,28.71.8,0,1.38-.73,1.81-1.41a164.52,164.52,0,0,0,11.93-22.05,9.07,9.07,0,0,1,2.63-3.9,4.07,4.07,0,0,1-.12,3.79l1.33-1.23a1,1,0,0,0,.58,1.15l1-3.08a.55.55,0,0,1,.21-.34c.25-.15.53.17.63.46a7.16,7.16,0,0,1-.08,3.7c-2.07,10.12-4.8,20.11-6.29,30.33,2.91-3,3.84-7.33,4.85-11.38A129.85,129.85,0,0,1,181,385.05a32.15,32.15,0,0,1,.82,9q2-10,4.69-19.9c1.26,2.34,1.13,5.14,1.12,7.8-.05,7.37,1,14.7,2,22a80.4,80.4,0,0,0,.29-10.41l2.13,10.56c.53,2.64,1.15,5.46,3.1,7.32-.37-.35-.37-2.82-.52-3.44-.29-1.16-.76-2.27-1.07-3.43a20.38,20.38,0,0,1-.54-4.34C192.77,395.09,192.09,390,192.17,384.87Z" transform="translate(-5.3 -7.59)"/><path class="cls-7" d="M91.63,299.6a6.78,6.78,0,0,0,1.7,1.8c1.39.89,3.22.67,4.8.18,5.18-1.6,9.22-5.57,13.43-9,10.42-8.47,23.07-14.23,32.16-24.1,1.42-1.55,2.81-3.32,3-5.41a9.58,9.58,0,0,0-.7-3.94,51.22,51.22,0,0,0-5-10.58,14.42,14.42,0,0,0-3.93-4.53,16.11,16.11,0,0,0-4.47-1.9q-5.52-1.68-11.14-3.06a33.2,33.2,0,0,0-9.48-1.29,8.33,8.33,0,0,0-4.4,1.24c-1.61,1.11-2.49,3-3.29,4.76q-6.93,15.28-13.84,30.58-1.73,3.79-3.43,7.58c-.78,1.71-2.49,4-2.77,5.9C83.73,291.4,89.6,296.85,91.63,299.6Z" transform="translate(-5.3 -7.59)"/><path class="cls-8" d="M93.83,296.84c2.5,2.08,6.31,1.13,9.19-.38a57.72,57.72,0,0,0,9.38-6.54q13.13-10.6,25.4-22.16c2-1.93,4.2-4.09,4.61-6.87a10.63,10.63,0,0,0-.85-5.26c-1.85-5-5.08-9.56-9.65-12.26-3.22-1.91-6.94-2.79-10.59-3.65-7.64-1.8-15.29-3.59-23-5.08a17.8,17.8,0,0,0-7.18-.37,3.35,3.35,0,0,0-1.68.81,4,4,0,0,0-.83,2.39l-3.45,28.76q-.87,7.33-1.75,14.66c-.41,3.4-2,7.91,2.28,8.72,1.86.35,2.92,0,4.36,1.55S92,295.33,93.83,296.84Z" transform="translate(-5.3 -7.59)"/><path class="cls-9" d="M88.23,265.42c-1.59,6.62-3.93,13.4-2.57,20.07a42.81,42.81,0,0,0,2-5.25,15.08,15.08,0,0,0,.26,5.23c.31-.26.78.1,1,.47s.35.85.76.91.65-.26.87-.55a43.7,43.7,0,0,0,6-10.45c-.23,4.73-4,9-3.26,13.68.09.56.39,1.23,1,1.24a1.35,1.35,0,0,0,.92-.53l9.42-9.68c7.51-7.71,15.09-15.52,20.45-24.84-.78-.19-1.51.41-2.08,1a167.36,167.36,0,0,0-16.48,18.91,8.87,8.87,0,0,1-3.42,3.22,4.1,4.1,0,0,1,.95-3.67l-1.56.91a1,1,0,0,0-.32-1.24c-.54.93-1.08,1.86-1.63,2.79a.55.55,0,0,1-.28.28c-.28.09-.48-.28-.51-.58a7.12,7.12,0,0,1,.89-3.6c4.23-9.42,9.09-18.57,12.78-28.21-3.5,2.27-5.36,6.3-7.22,10a131.21,131.21,0,0,1-6.93,12.15,31.92,31.92,0,0,1,1.18-9q-4.17,9.33-8.94,18.38c-.72-2.55,0-5.26.62-7.85,1.66-7.18,2.25-14.57,2.83-21.92a78.24,78.24,0,0,0-2.57,10.1l.24-10.77c.06-2.7.07-5.58-1.43-7.82.29.42-.25,2.83-.24,3.47,0,1.19.24,2.38.29,3.57a21.27,21.27,0,0,1-.42,4.36C89.89,255.32,89.44,260.4,88.23,265.42Z" transform="translate(-5.3 -7.59)"/><path class="cls-7" d="M204.83,136.94a5.49,5.49,0,0,0,1.38,1.46,4.7,4.7,0,0,0,3.89.15c4.2-1.31,7.48-4.53,10.89-7.3,8.45-6.86,18.71-11.54,26.09-19.54a7.9,7.9,0,0,0,2.42-4.39,7.83,7.83,0,0,0-.57-3.19,41.84,41.84,0,0,0-4.06-8.58,11.79,11.79,0,0,0-3.19-3.68,13.35,13.35,0,0,0-3.62-1.54q-4.49-1.36-9-2.48a27.49,27.49,0,0,0-7.69-1,6.82,6.82,0,0,0-3.57,1,8.91,8.91,0,0,0-2.67,3.86l-11.22,24.8-2.78,6.15c-.63,1.38-2,3.28-2.24,4.78C198.42,130.29,203.18,134.71,204.83,136.94Z" transform="translate(-5.3 -7.59)"/><path class="cls-8" d="M206.61,134.7c2,1.69,5.12.92,7.46-.3a48,48,0,0,0,7.61-5.31q10.63-8.59,20.6-18c1.66-1.57,3.4-3.32,3.73-5.57a8.64,8.64,0,0,0-.69-4.27,19.14,19.14,0,0,0-7.82-9.94,30,30,0,0,0-8.59-3c-6.2-1.46-12.4-2.92-18.65-4.13a14.5,14.5,0,0,0-5.82-.29,2.73,2.73,0,0,0-1.37.65,3.27,3.27,0,0,0-.67,1.94q-1.41,11.67-2.8,23.33-.71,5.94-1.42,11.89c-.33,2.75-1.61,6.41,1.85,7.07,1.51.28,2.37,0,3.54,1.26S205.15,133.48,206.61,134.7Z" transform="translate(-5.3 -7.59)"/><path class="cls-9" d="M202.07,109.22c-1.29,5.36-3.18,10.87-2.08,16.28a34.34,34.34,0,0,0,1.64-4.26,12.59,12.59,0,0,0,.21,4.24c.26-.21.64.08.78.39s.29.68.62.73.53-.21.71-.45a35.4,35.4,0,0,0,4.84-8.47c-.19,3.83-3.25,7.3-2.64,11.1.07.45.31,1,.77,1a1.1,1.1,0,0,0,.74-.43q3.83-3.93,7.64-7.85c6.09-6.25,12.24-12.59,16.58-20.15-.63-.15-1.22.34-1.68.79a134.43,134.43,0,0,0-13.37,15.34,7.22,7.22,0,0,1-2.77,2.61,3.34,3.34,0,0,1,.77-3l-1.27.74a.81.81,0,0,0-.25-1L212,119.11a.49.49,0,0,1-.22.23c-.23.07-.39-.24-.42-.48a5.85,5.85,0,0,1,.72-2.92c3.44-7.64,7.38-15.06,10.37-22.88-2.84,1.85-4.35,5.12-5.86,8.15a104.18,104.18,0,0,1-5.62,9.85,25.89,25.89,0,0,1,1-7.27q-3.39,7.58-7.25,14.91c-.58-2.07,0-4.27.5-6.36a122,122,0,0,0,2.3-17.78,62.58,62.58,0,0,0-2.08,8.19c.06-2.91.12-5.83.19-8.74.05-2.18.05-4.52-1.16-6.34.23.34-.21,2.3-.2,2.81,0,1,.2,1.93.24,2.91a16.83,16.83,0,0,1-.34,3.53C203.42,101,203.05,105.15,202.07,109.22Z" transform="translate(-5.3 -7.59)"/><path class="cls-7" d="M349.6,153.07a5.72,5.72,0,0,0,2-.4,4.71,4.71,0,0,0,2.18-3.23c1.11-4.26.1-8.74-.46-13.11-1.37-10.8.07-22-2.84-32.46A6.17,6.17,0,0,0,345,98.29a42.16,42.16,0,0,0-9.43-1.08,11.87,11.87,0,0,0-4.81.78,13.22,13.22,0,0,0-3.21,2.26q-3.54,3.09-6.88,6.37a27.23,27.23,0,0,0-5,6,6.68,6.68,0,0,0-1,3.56,8.76,8.76,0,0,0,1.86,4.3l15.15,22.62,3.76,5.61c.85,1.26,1.72,3.44,2.88,4.43C340.57,155,346.84,153.29,349.6,153.07Z" transform="translate(-5.3 -7.59)"/><path class="cls-8" d="M348.64,150.37c2.5-.83,3.48-3.86,3.67-6.5a47.13,47.13,0,0,0-.49-9.26q-1.69-13.56-4.4-27c-.45-2.23-1-4.63-2.76-6.11a8.73,8.73,0,0,0-4-1.66,19.17,19.17,0,0,0-12.58,1.4,29.94,29.94,0,0,0-7,5.73c-4.51,4.5-9,9-13.34,13.67a14.57,14.57,0,0,0-3.33,4.79,2.62,2.62,0,0,0-.16,1.51,3.21,3.21,0,0,0,1.29,1.59l18.34,14.68,9.35,7.48c2.17,1.74,4.6,4.76,7,2.16,1-1.13,1.26-2,2.93-2.34S346.83,151,348.64,150.37Z" transform="translate(-5.3 -7.59)"/><path class="cls-9" d="M324.59,140.78c3.88,3.93,7.56,8.44,12.73,10.36a33.4,33.4,0,0,0-2.75-3.64,12.68,12.68,0,0,0,3.72,2.06c-.05-.33.4-.5.74-.46s.73.12,1-.14.1-.56,0-.84a35.31,35.31,0,0,0-4.65-8.58c3.16,2.19,4.5,6.61,8,8.1.42.18,1,.26,1.26-.12a1.11,1.11,0,0,0,0-.86Q343.32,141.34,342,136c-2.1-8.46-4.24-17-8.37-24.71a2,2,0,0,0-.22,1.85,134.35,134.35,0,0,0,6,19.44,7.25,7.25,0,0,1,.75,3.74,3.35,3.35,0,0,1-2.12-2.23c0,.49,0,1,0,1.47a.8.8,0,0,0-1-.32l1.22,2.32a.45.45,0,0,1,.08.31c-.06.24-.41.21-.62.11a5.78,5.78,0,0,1-2.1-2.15c-4.68-6.95-8.91-14.21-14-20.88.07,3.38,2.05,6.39,3.83,9.27a109.08,109.08,0,0,1,5.41,10,26.16,26.16,0,0,1-5.68-4.64q4.65,6.87,8.85,14c-2.07-.6-3.62-2.26-5.15-3.78A120,120,0,0,0,315,128.48a66.08,66.08,0,0,0,5.86,6.09l-7.32-4.78c-1.83-1.19-3.81-2.43-6-2.36.42,0,1.85,1.39,2.29,1.65.84.49,1.74.86,2.59,1.33a16.87,16.87,0,0,1,2.82,2.16C318.35,135.32,321.65,137.8,324.59,140.78Z" transform="translate(-5.3 -7.59)"/><path class="cls-7" d="M414,373.61a5.56,5.56,0,0,1-.37,2,4.66,4.66,0,0,1-3.19,2.23c-4.23,1.19-8.73.26-13.1-.21-10.83-1.18-22,.46-32.52-2.26a6.16,6.16,0,0,1-5.67-5.36,42,42,0,0,1-1.25-9.41,11.91,11.91,0,0,1,.68-4.82,13.24,13.24,0,0,1,2.21-3.25q3-3.58,6.24-7a27.27,27.27,0,0,1,5.89-5.06,6.82,6.82,0,0,1,3.55-1.09,8.83,8.83,0,0,1,4.33,1.79l22.89,14.74,5.68,3.65c1.27.83,3.47,1.66,4.47,2.8C415.75,364.55,414.15,370.84,414,373.61Z" transform="translate(-5.3 -7.59)"/><path class="cls-8" d="M411.26,372.7c-.78,2.52-3.79,3.55-6.42,3.79a46.48,46.48,0,0,1-9.28-.33q-13.59-1.44-27.05-3.91c-2.24-.41-4.65-.94-6.16-2.65a8.81,8.81,0,0,1-1.74-4,19.16,19.16,0,0,1,1.18-12.59,30.15,30.15,0,0,1,5.6-7.15c4.42-4.59,8.83-9.18,13.43-13.59a14.41,14.41,0,0,1,4.73-3.41,2.68,2.68,0,0,1,1.5-.19,3.26,3.26,0,0,1,1.62,1.26l15,18.08,7.65,9.21c1.77,2.13,4.83,4.51,2.28,6.94-1.11,1.06-2,1.31-2.29,3C411,369,411.83,370.88,411.26,372.7Z" transform="translate(-5.3 -7.59)"/><path class="cls-9" d="M401.24,348.83c4,3.81,8.58,7.4,10.59,12.54a33.36,33.36,0,0,1-3.69-2.68,12.42,12.42,0,0,1,2.13,3.68c-.34,0-.49.41-.45.74s.13.73-.12.95-.56.11-.84,0a35.31,35.31,0,0,1-8.66-4.5c2.24,3.12,6.69,4.38,8.24,7.89.18.42.28,1-.1,1.26a1.07,1.07,0,0,1-.86,0l-10.68-2.44c-8.5-1.95-17.11-3.93-24.86-7.92a1.93,1.93,0,0,1,1.85-.25,134.13,134.13,0,0,1,19.54,5.62,7.26,7.26,0,0,0,3.75.69,3.3,3.3,0,0,0-2.26-2.08l1.46-.07a.8.8,0,0,1-.33-1l2.34,1.19a.45.45,0,0,0,.31.07c.24-.07.21-.41.1-.63a6,6,0,0,0-2.19-2.06c-7-4.55-14.37-8.64-21.13-13.59,3.39,0,6.42,1.94,9.34,3.66a103.27,103.27,0,0,0,10.07,5.23,25.88,25.88,0,0,0-4.75-5.58q6.94,4.51,14.18,8.58c-.63-2.05-2.33-3.57-3.88-5.07a122.07,122.07,0,0,1-11.57-13.69,63.56,63.56,0,0,1,6.19,5.75L390.05,338c-1.22-1.81-2.5-3.77-2.47-5.95,0,.41,1.43,1.81,1.7,2.25.5.83.88,1.73,1.38,2.57a16.74,16.74,0,0,0,2.2,2.77C395.67,342.69,398.21,346,401.24,348.83Z" transform="translate(-5.3 -7.59)"/><path class="cls-7" d="M280.72,289.23a5.5,5.5,0,0,0,2-.4,4.71,4.71,0,0,0,2.18-3.23c1.11-4.26.1-8.74-.46-13.1-1.37-10.8.07-22-2.84-32.47a6.2,6.2,0,0,0-5.46-5.58,42.15,42.15,0,0,0-9.43-1.07,11.67,11.67,0,0,0-4.81.77,13.22,13.22,0,0,0-3.21,2.26q-3.54,3.09-6.88,6.37a27.23,27.23,0,0,0-4.95,6,6.78,6.78,0,0,0-1,3.56,8.9,8.9,0,0,0,1.87,4.31l15.15,22.62q1.89,2.79,3.76,5.6c.85,1.26,1.72,3.45,2.88,4.43C271.69,291.17,278,289.45,280.72,289.23Z" transform="translate(-5.3 -7.59)"/><path class="cls-8" d="M279.76,286.53c2.5-.83,3.48-3.86,3.67-6.49a46.48,46.48,0,0,0-.5-9.27q-1.68-13.56-4.39-27c-.46-2.24-1-4.64-2.77-6.12a8.65,8.65,0,0,0-4-1.66,19.17,19.17,0,0,0-12.58,1.4,30.45,30.45,0,0,0-7,5.73c-4.51,4.5-9,9-13.34,13.67a14.57,14.57,0,0,0-3.33,4.79,2.62,2.62,0,0,0-.16,1.51,3.17,3.17,0,0,0,1.29,1.59L255,279.39l9.35,7.49c2.17,1.73,4.6,4.75,7,2.15,1-1.13,1.27-2,2.94-2.34S278,287.13,279.76,286.53Z" transform="translate(-5.3 -7.59)"/><path class="cls-9" d="M255.71,277c3.88,3.93,7.56,8.43,12.73,10.36a32.57,32.57,0,0,0-2.75-3.65,12.12,12.12,0,0,0,3.72,2.06c-.05-.33.4-.49.74-.46s.73.12,1-.13a.84.84,0,0,0,0-.84,35.19,35.19,0,0,0-4.65-8.59c3.16,2.19,4.5,6.62,8,8.1.42.18,1,.26,1.26-.12a1.11,1.11,0,0,0,0-.86l-2.64-10.64c-2.09-8.46-4.23-17-8.36-24.71a2,2,0,0,0-.22,1.85,134.35,134.35,0,0,0,6,19.44,7.25,7.25,0,0,1,.75,3.74,3.35,3.35,0,0,1-2.12-2.23c0,.49,0,1,0,1.47a.8.8,0,0,0-1-.32c.4.78.81,1.55,1.22,2.32a.47.47,0,0,1,.08.32c-.06.23-.41.21-.62.1a5.71,5.71,0,0,1-2.1-2.15c-4.68-6.95-8.91-14.21-14-20.88.07,3.39,2.05,6.39,3.83,9.28a104.14,104.14,0,0,1,5.4,10,26.1,26.1,0,0,1-5.67-4.65q4.65,6.87,8.85,14c-2.07-.6-3.62-2.26-5.15-3.78a121.08,121.08,0,0,0-13.89-11.33,64.83,64.83,0,0,0,5.86,6.09L244.64,266c-1.83-1.19-3.81-2.43-6-2.36.42,0,1.85,1.39,2.29,1.65.84.5,1.74.86,2.59,1.34a16.23,16.23,0,0,1,2.81,2.15C249.47,271.49,252.77,274,255.71,277Z" transform="translate(-5.3 -7.59)"/><path class="cls-7" d="M130.27,163.67a5,5,0,0,0-1.29,1.55c-.49,1.11.24,2.21,1.15,3.09,3,2.87,8,4.4,12.51,6.19,11.14,4.41,20.28,10.94,32.43,14.15a13.56,13.56,0,0,0,6.1.5,13.05,13.05,0,0,0,3.65-1.47,57,57,0,0,0,8.94-5.92,12,12,0,0,0,3.33-3.67,8.12,8.12,0,0,0,.61-3.33c.07-2.63,0-5.25-.11-7.86a15.23,15.23,0,0,0-1.37-6.36,5.31,5.31,0,0,0-2.43-2.47,14.37,14.37,0,0,0-5.55-.85l-33.68-.85-8.35-.21c-1.88,0-4.63-.53-6.52-.22C136.07,156.53,132.38,161.67,130.27,163.67Z" transform="translate(-5.3 -7.59)"/><path class="cls-8" d="M133.57,164.35c-1.34,2.13.64,4.29,2.92,5.74a55.24,55.24,0,0,0,9,4.25q14,5.57,28.66,10.37c2.45.8,5.15,1.6,8,1.14A14.67,14.67,0,0,0,187,184c4.34-2.47,7.92-5.71,9.29-9.31,1-2.54.8-5.12.62-7.66-.37-5.32-.73-10.64-1.42-15.91a8.33,8.33,0,0,0-1.64-4.65,2.51,2.51,0,0,0-1.25-.86,5.87,5.87,0,0,0-2.56.09l-29,5.27-14.79,2.69c-3.43.63-8.27.79-7.87,3.71.17,1.27.78,1.86-.31,3.17S134.54,162.81,133.57,164.35Z" transform="translate(-5.3 -7.59)"/><path class="cls-9" d="M162.67,152.65c-6.9.7-14.16,1-20.3,3.57,1.89.06,3.79,0,5.69-.07a21.91,21.91,0,0,0-5,1.52c.34.13.11.52-.2.73s-.73.44-.67.72.44.34.78.41a61.32,61.32,0,0,0,11.85,1.08c-4.68,1.08-9.9-.21-14.25,1.48-.52.2-1.09.56-.95.92s.45.35.78.44l12.06,3.47c9.59,2.77,19.32,5.55,29.9,6.53,0-.54-.82-.85-1.53-1.06a199.39,199.39,0,0,0-23-5.55,10,10,0,0,1-4.09-1.34,6.1,6.1,0,0,1,3.85-.35l-1.32-.75a1.21,1.21,0,0,0,1.12-.53l-3.17-.31a.64.64,0,0,1-.36-.1c-.16-.16.15-.38.43-.48a10.76,10.76,0,0,1,3.76-.37c10.36.24,20.64.95,31.07.8-3.2-1.63-7.64-1.77-11.8-2q-7-.37-13.78-1.25a48.49,48.49,0,0,1,9.07-1.57q-10.26-.23-20.42-.91c2.3-1.12,5.15-1.35,7.84-1.64,7.47-.81,14.83-2.35,22.17-3.89-3.53.17-7.06.5-10.57,1l10.58-2.64c2.64-.66,5.46-1.41,7.23-2.94a23.77,23.77,0,0,1-3.45.75c-1.16.33-2.26.77-3.41,1.11a30.42,30.42,0,0,1-4.37.86C173,151.08,167.9,152.11,162.67,152.65Z" transform="translate(-5.3 -7.59)"/><path class="cls-7" d="M247.37,425.55a5.34,5.34,0,0,0-.28,2c.17,1.2,1.36,1.76,2.6,2,4.06.87,9.12-.44,13.89-1.28,11.81-2.07,23-1.28,35.05-4.92a13.36,13.36,0,0,0,5.46-2.77,13.07,13.07,0,0,0,2.34-3.16,56.88,56.88,0,0,0,4.51-9.72,11.89,11.89,0,0,0,.91-4.87,7.89,7.89,0,0,0-1.22-3.15q-2-3.42-4.21-6.65a15.36,15.36,0,0,0-4.49-4.7,5.33,5.33,0,0,0-3.36-.83,14.39,14.39,0,0,0-5.18,2.18l-29.14,16.91L257,410.81c-1.63.95-4.23,2-5.67,3.22C248.58,416.43,248.13,422.74,247.37,425.55Z" transform="translate(-5.3 -7.59)"/><path class="cls-8" d="M250.55,424.4c0,2.52,2.79,3.33,5.48,3.37a54.7,54.7,0,0,0,9.89-1.09q14.82-2.56,29.85-6.17c2.5-.6,5.22-1.33,7.4-3.2a14.87,14.87,0,0,0,3.17-4.19c2.4-4.36,3.75-9,3-12.78-.51-2.67-2-4.79-3.48-6.86-3.1-4.34-6.2-8.68-9.55-12.81a8.29,8.29,0,0,0-3.83-3.11,2.55,2.55,0,0,0-1.51-.07,5.9,5.9,0,0,0-2.14,1.41l-22,19.69-11.19,10c-2.6,2.32-6.63,5-4.76,7.28.81,1,1.63,1.17,1.39,2.86C252.09,420.61,250.57,422.59,250.55,424.4Z" transform="translate(-5.3 -7.59)"/><path class="cls-9" d="M269.21,399.2c-5.51,4.21-11.55,8.25-15.42,13.67,1.64-.93,3.24-1.95,4.81-3a22.27,22.27,0,0,0-3.5,3.93c.37-.07.38.39.22.73s-.39.76-.2,1,.56.07.88-.05a61.19,61.19,0,0,0,10.67-5.29c-3.43,3.37-8.54,5-11.37,8.72-.34.45-.64,1.05-.32,1.28s.56.07.89,0L268,416.73c9.62-2.67,19.36-5.39,28.89-10.1-.31-.44-1.14-.29-1.86-.1a201.16,201.16,0,0,0-22.51,7.32,9.88,9.88,0,0,1-4.19,1,6.13,6.13,0,0,1,3.09-2.31l-1.52,0a1.22,1.22,0,0,0,.69-1l-2.87,1.4a.63.63,0,0,1-.35.1c-.23-.05-.08-.4.11-.63a10.78,10.78,0,0,1,3-2.28c9-5.22,18.08-10,26.89-15.59-3.58.28-7.44,2.49-11.1,4.49q-6.12,3.34-12.39,6.15a49.54,49.54,0,0,1,6.91-6.09q-8.86,5.17-17.87,9.92c1.37-2.16,3.67-3.84,5.81-5.5,5.94-4.6,11.41-9.77,16.85-14.92q-4.37,3-8.48,6.38l7.63-7.8c1.91-1.94,3.92-4.05,4.63-6.28a25.22,25.22,0,0,1-2.55,2.44c-.82.89-1.52,1.84-2.33,2.73a30.31,30.31,0,0,1-3.27,3C277.17,392.47,273.39,396,269.21,399.2Z" transform="translate(-5.3 -7.59)"/><path class="cls-10" d="M240.47,143.41a19.77,19.77,0,0,0,.77,7.15q1.63,7,3.26,14c.95,4.09,2.22,8.63,5.85,10.73,4,2.33,9.06.66,13.45-.84a145,145,0,0,1,26.08-6.3c1.69-.25,3.65-.65,4.41-2.19.59-1.19.2-2.61-.2-3.87l-9.7-30.84c-.52-1.63-1.11-3.37-2.5-4.37-4.87-3.48-16.55.8-21.94,2.39C252.58,131.47,241.72,134.26,240.47,143.41Z" transform="translate(-5.3 -7.59)"/><path class="cls-10" d="M138.26,214.08c-1.83,1.17-3.91,2.42-4.44,4.53-.57,2.29,1,4.52,2.41,6.39l19.28,24.89a16.51,16.51,0,0,0,4.52,4.49c4,2.3,9.2.84,12.95-1.84s6.61-6.43,10.18-9.35c4.19-3.43,9.28-5.65,13.42-9.13s7.38-9,5.89-14.17-7.13-8.14-12.38-9.68-11-2.48-15-6.18c-1.92-1.74-3.34-4-5.49-5.47C156.78,190,146.73,208.65,138.26,214.08Z" transform="translate(-5.3 -7.59)"/><path class="cls-10" d="M236.55,330.13c-1.91,0-4,.14-5.44,1.36a8.86,8.86,0,0,0-2.34,4.2L219,365c-.41,1.21-.8,2.58-.23,3.73a5,5,0,0,0,1.64,1.63q7.11,5.11,14.28,10.15a5.49,5.49,0,0,0,3.24,1.33,5.38,5.38,0,0,0,2.91-1.43q12.21-9.54,24-19.57c4.74-4,9.84-9,9.56-15.21-.21-4.71-3.66-8.78-7.78-11.05C258,329.82,246.11,330,236.55,330.13Z" transform="translate(-5.3 -7.59)"/><path class="cls-10" d="M318.63,287.3c-1.26,2.38-2.49,5.3-1.13,7.63a7.48,7.48,0,0,0,2.61,2.35c6.47,4,13.93,6,21.27,8l16.89,4.56a5.46,5.46,0,0,0,2.49.27,5.26,5.26,0,0,0,2.92-2.51,76.94,76.94,0,0,0,11.48-26.48c.65-2.89,1.11-6,0-8.74-2.11-5.06-8.47-6.5-13.9-7.28-7.72-1.09-24-6.76-30.33-.31-2.1,2.12-2.84,5.84-4.21,8.43C324.19,278,321.18,282.54,318.63,287.3Z" transform="translate(-5.3 -7.59)"/><path class="cls-10" d="M373.38,153.56c-4,3.21-8.67,6.14-10.33,11-1.27,3.7-.42,7.86,1.42,11.32s4.57,6.33,7.27,9.16a8.21,8.21,0,0,0,2.53,2,8,8,0,0,0,3.38.4l26.18-.6a13.61,13.61,0,0,0,4.37-.57,9.09,9.09,0,0,0,4.53-4c3-5,2.25-11.6-.39-16.82S405.39,156,401.17,152l-4.76-4.57c-2.91-2.8-8.13-7.24-12.49-5C380.15,144.35,376.89,150.73,373.38,153.56Z" transform="translate(-5.3 -7.59)"/><path class="cls-10" d="M251.06,76l7.58,13.08a10.38,10.38,0,0,0,3.3,4c1.79,1.08,4,1,6.1.81a207,207,0,0,0,22.72-3.09,8.85,8.85,0,0,0,4.36-1.72,8,8,0,0,0,2.06-4,32.72,32.72,0,0,0,1-10.7,12.68,12.68,0,0,0-1.89-6.45c-4.89-7-21.38-6.48-29.15-6.73C258.26,60.92,244.65,65,251.06,76Z" transform="translate(-5.3 -7.59)"/><path class="cls-10" d="M93,323.22c-.8,3.81.25,7.74,1.45,11.44a132.47,132.47,0,0,0,13,28.22,10.15,10.15,0,0,0,3.57,3.94,10.45,10.45,0,0,0,5.22.73c7.38-.28,15-.91,21.5-4.41a10,10,0,0,0,3.81-3.18,11.42,11.42,0,0,0,1.39-4.89,91.24,91.24,0,0,0-1.22-28.93c-.46-2.25-1.06-4.58-2.62-6.27-1.89-2.05-4.82-2.75-7.6-3-8.65-.78-17,.93-25.63-.75C100,315,94.49,316.1,93,323.22Z" transform="translate(-5.3 -7.59)"/><path class="cls-10" d="M192.4,276.21a6.94,6.94,0,0,0-2.25,2.42,7,7,0,0,0-.44,3.29,38.32,38.32,0,0,0,3.81,15,8.4,8.4,0,0,0,2.85,3.65c1.86,1.14,4.23.83,6.38.46q6.5-1.12,12.93-2.51c3.68-.8,7.72-1.92,9.71-5.11,1.38-2.22,1.47-5,1.34-7.59a62.29,62.29,0,0,0-1.44-10.69,12.12,12.12,0,0,0-1.55-4.14,9,9,0,0,0-6.64-3.51C209.26,266.73,198.47,271.64,192.4,276.21Z" transform="translate(-5.3 -7.59)"/><path class="cls-10" d="M329.35,374.46c-1.35,3.33-1.19,7.05-.88,10.63.45,5.11,1.18,10.2,2,15.28q1.1,6.94,2.38,13.86a7.27,7.27,0,0,0,1.55,3.86c1.76,1.83,4.75,1.34,7.19.64a112.68,112.68,0,0,0,19.58-7.67,15.2,15.2,0,0,0,4.65-3.16c2.93-3.24,2.8-8.4.86-12.32s-5.34-6.88-8.65-9.74C352.06,380.69,335.3,359.6,329.35,374.46Z" transform="translate(-5.3 -7.59)"/><path class="cls-10" d="M292.38,197.83a10.24,10.24,0,0,0-3.47,2.42c-2,2.47-1.4,6.23.22,9s4.07,4.92,5.8,7.6c2.45,3.81,3.63,8.8,7.55,11,2.64,1.51,5.87,1.35,8.88,1a70.15,70.15,0,0,0,9.73-2c3-.82,6.18-2,7.9-4.62,1.43-2.19,1.57-5,1.49-7.57a60.48,60.48,0,0,0-1.09-9.85,17.34,17.34,0,0,0-2.37-6.58,13.51,13.51,0,0,0-8.7-5.19C308.45,191.14,301.24,193.42,292.38,197.83Z" transform="translate(-5.3 -7.59)"/><path class="cls-10" d="M87.49,202.17a14.44,14.44,0,0,0,2.34,5.56c3.27,4.38,9.35,5.28,14.79,5.83a6.19,6.19,0,0,0,3.82-.43,5.87,5.87,0,0,0,1.83-2c6.59-10.2,22.55-40.6.1-42.69-4.93-.46-15.57,3.31-19,6.64C86,180.23,86,195.41,87.49,202.17Z" transform="translate(-5.3 -7.59)"/><path class="cls-10" d="M408.77,280.78A17.1,17.1,0,0,0,403,284.9c-1.9,2.33-2.55,5.43-2.91,8.42a60,60,0,0,0,6,33.93,6.07,6.07,0,0,0,2.07,2.65,6.55,6.55,0,0,0,3,.68l13.24.83c2,.13,4.25.14,5.61-1.31a6.47,6.47,0,0,0,1.33-3.49c1.54-9.9.39-20.17,2.81-29.9,1.58-6.37,4.68-12.52,4.47-19.09a5.13,5.13,0,0,0-1.14-3.5c-1-1-2.65-1.14-4.11-1.18C424.75,272.7,416.3,276.6,408.77,280.78Z" transform="translate(-5.3 -7.59)"/><path class="cls-11" d="M143.51,216.72c-1,1.19-2,2.59-1.83,4.14.2,2,2.12,3.23,3.6,4.56,2.06,1.86,3.48,4.31,5.05,6.6,4.23,6.12,9.71,11.25,15.15,16.33A23,23,0,0,1,163,232.87c1.34-6.87,5.82-13,6-20a11.07,11.07,0,0,0-1.74-6.61C161.1,197.38,147.66,211.76,143.51,216.72Z" transform="translate(-5.3 -7.59)"/><path class="cls-11" d="M320.85,279.64c-2.17,4.52-4.27,9.52-3.17,14.43,2.8-1.73,4.78-4.48,7-6.88a36.61,36.61,0,0,1,16.17-10c9.29-2.77,19.68-1.84,28.26-6.36,1.13-.6,2.38-1.79,1.81-2.94a2.53,2.53,0,0,0-1.3-1c-4.71-2.14-9.9-2.91-15-3.66-5.41-.79-18.61-5.31-23.49-2.44C326.51,263.52,323.09,275,320.85,279.64Z" transform="translate(-5.3 -7.59)"/><path class="cls-11" d="M299.93,222.31c1.91,2.25,5.21,3.68,7.87,2.39.37-1.1-.65-2.13-1.53-2.88a38.24,38.24,0,0,1-5-5.06c-1.67-2-3.2-4.56-2.76-7.16.53-3.15,3.67-5.11,6.62-6.35,4.22-1.77,8.44-2.33,12.84-3.35,3.66-.85,5.58-1.08,1.48-3.58s-11.17-1.93-15.68-1.42-20.54,3.46-15.35,10.87c1.59,2.27,4.53,3.1,6.16,5.69C296.78,214.89,297.25,219.14,299.93,222.31Z" transform="translate(-5.3 -7.59)"/><path class="cls-11" d="M223.28,365.72a4.84,4.84,0,0,0,0,2.82c.88,2,4.11,1.72,5.55,0s1.7-4,2.28-6.16a19.84,19.84,0,0,1,10.51-12.62c6.21-2.94,21.72-2.23,22.41-11.36.48-6.37-6-6.52-10.79-6.32-6.23.27-17.44.21-21.76,5.09C225.62,343.87,225,357.38,223.28,365.72Z" transform="translate(-5.3 -7.59)"/><path class="cls-11" d="M254.66,134.78c-3.65,1.23-7.46,2.79-9.68,5.94s-2.4,7.11-2.13,10.87A93.22,93.22,0,0,0,245.92,168c.58,2.23,1.46,4.79,3.65,5.52s4.67-1,5.44-3.24.25-4.66-.48-6.88c-1.58-4.77-4.14-10.16-1.54-14.46,1.75-2.88,5.41-4.14,8.78-3.94s6.53,1.6,9.6,3l9.44,4.22c1,.47,2.26.93,3.25.37s1.26-2.1,1.12-3.34c-.57-4.94-5.16-17.28-10.36-18.91S259.63,133.12,254.66,134.78Z" transform="translate(-5.3 -7.59)"/><path class="cls-11" d="M367.5,172c-.72-2.37-1.23-5.44.79-6.87a9.81,9.81,0,0,1,2.56-1c3.44-1.19,5.52-4.56,7.76-7.42s5.61-5.61,9.14-4.74a10.35,10.35,0,0,1,4.31,2.71,111.88,111.88,0,0,1,8.4,8.47c2.5,2.82,5,6,5.11,9.81a2,2,0,0,1-2.57,2.33,10.78,10.78,0,0,1-8.72-8.06c-.5-2.16-.38-4.63-1.85-6.28a5.4,5.4,0,0,0-3.16-1.6,8,8,0,0,0-8.57,11.45c.72,1.46,1.91,2.91,1.55,4.5a4.6,4.6,0,0,1-1.81,2.38,31,31,0,0,1-4.76,3.17,4.24,4.24,0,0,1-1.68.6,2.36,2.36,0,0,1-2.43-2Z" transform="translate(-5.3 -7.59)"/><path class="cls-11" d="M97.51,178.19a10.4,10.4,0,0,0-3.72,2.36c-1.55,1.78-1.73,4.33-1.84,6.69q-.35,7.29-.67,14.58c-.1,2.16,0,4.69,1.73,6s4,.56,5.73-.54a8.93,8.93,0,0,0,3-3c2.42-4.31-.25-9.65,0-14.6.09-2,.85-4.18,2.66-5.05s4.5.64,4.05,2.59a9.33,9.33,0,0,0-.59,1.81,1.91,1.91,0,0,0,2,1.72,4,4,0,0,0,2.57-1.26c3.12-3,4.21-10.85,1-14.27C109.46,171,101.69,176.33,97.51,178.19Z" transform="translate(-5.3 -7.59)"/><path class="cls-11" d="M255.17,75.38c3.21,1.28,6.66-.85,10.05-1.46A11.63,11.63,0,0,1,273,75.28c1.28.75,2.53,2,2.25,3.51a4.35,4.35,0,0,1-2.12,2.44q-2.13,1.44-4.25,2.89c-.49.33-1,.75-1,1.34s.75,1.13,1.42,1.36a27.31,27.31,0,0,0,18.29-1.22c3.23-1.72,5.86-4.87,6.2-8.52.4-4.25-2.39-8.32-6-10.58s-8-3-12.22-3.56c-5.91-.73-13.48-.87-19,1.88C252.67,66.76,249.22,73,255.17,75.38Z" transform="translate(-5.3 -7.59)"/><path class="cls-11" d="M130.76,324.81a45.8,45.8,0,0,1-23.26-2.11,19.37,19.37,0,0,0-5.18-1.47,5.14,5.14,0,0,0-4.73,2,6,6,0,0,0-.64,3.82c.73,7.49,6.59,13.44,8.88,20.6,1.44,4.53,1.45,9.52,3.62,13.75,1.1,2.13,3.22,4.17,5.57,3.69s3.48-3.27,3.15-5.61-1.72-4.37-2.84-6.45A27.16,27.16,0,0,1,112,337.16c.19-1.65.74-3.52,2.26-4.2s3.44.27,5.07,1a16.17,16.17,0,0,0,9.71.95,8.55,8.55,0,0,0,5.08-2.81,4.5,4.5,0,0,0,.2-5.47c-1.45-1.73-4.1-1.66-6.36-1.43l-4.76.47Z" transform="translate(-5.3 -7.59)"/><path class="cls-12" d="M206.14,167a33.12,33.12,0,0,1-12.76,24.16,19.73,19.73,0,0,0-4,3.49,4.8,4.8,0,0,0-.77,5c1.93,3.61,8.1,1.45,11.08,4.26,1.23,1.17,1.62,2.95,2.54,4.38,1.13,1.75,3,2.88,4.38,4.42,3.37,3.72,3.63,9.32,2.74,14.26a16.21,16.21,0,0,1-3.17,7.72c-2.23,2.61-5.59,3.91-8.7,5.36a64.28,64.28,0,0,0-9.43,5.41c-2.81,1.94-5.76,5.16-4.46,8.31s5.59,3.34,9,3c4.12-.41,8.55-1,11.58-3.81s4.07-7.37,7.28-10c2.95-2.41,7-2.64,10.67-3.81a18.3,18.3,0,0,0,11.86-11.53c1.71-5.47.09-12-4.34-15.6-4.64-3.81-11.86-4.51-14.88-9.7-3.12-5.35.16-12.09,3.82-17.09s8-10.57,6.88-16.67c-.76-4.2-4-7.48-7.18-10.33a148.11,148.11,0,0,0-19.81-14.91c-1.33,1.67-.68,4.13.24,6.06,1.85,3.88,4.5,7.32,6.39,11.18s3,8.41,1.48,12.44Z" transform="translate(-5.3 -7.59)"/><path class="cls-12" d="M227,185.8c-4.53,2.56-9.13,7.07-8,12.14,1.07,4.77,6.61,7,11.47,7.45,8.86.81,18.56-1.58,26.19,3,4.17,2.5,7.1,6.81,11.49,8.89,1.87.88,4.28,1.26,5.87-.06a4.87,4.87,0,0,0,1.53-3.56c.2-4.34-3.07-8.14-3.48-12.47-.51-5.57,3.91-10.53,8.93-13s10.69-3.2,16-5c8.84-3,16.93-9.6,19.45-18.59s-2.15-20-11.1-22.66a4.46,4.46,0,0,0-3.67.15c-1.72,1.12-1.51,3.69-.94,5.66,1,3.36,2.37,6.63,2.59,10.11A15.57,15.57,0,0,1,295.85,172c-5.43,3.16-12.16,2.69-18.28,4.09-6.77,1.54-12.85,5.39-19.61,7s-15.24-.14-18-6.48c-.28-.62-.51-1-1.19-1.16C239,180.46,230.81,183.67,227,185.8Z" transform="translate(-5.3 -7.59)"/><path class="cls-12" d="M139.78,288.82c-6.1,2.8-12.88,4.45-18.1,8.67-2.33,1.88-4.33,4.26-7,5.56-4.1,2-9.44,1.24-12.8,4.31a2.4,2.4,0,0,0-.85,1.32c-.19,1.22,1.17,2.09,2.36,2.41,7.15,1.88,14-3.55,21.22-5.15a20.95,20.95,0,0,1,25.5,20.66c-.07,6.71-3.22,14,.23,19.75a6.49,6.49,0,0,0,3.85,3.11,6.29,6.29,0,0,0,4.47-.8c5.31-3,6.27-10.25,5.37-16.27a44.68,44.68,0,0,0-4.13-13.2c-2-4.09-4.74-8.73-2.85-12.9,2.24-5,9-5.23,14-7.47a16.05,16.05,0,0,0,5.72-4.35c1.55-1.87,2.67-4.55,1.5-6.68-2.35-4.26-10-1.09-13.19-4.8-1.43-1.69-1.31-4.22-.65-6.33,1.55-4.92,4.12-10.56-1.23-14.3-2.79-2-7.58-2-9.92.76-3.22,3.81.24,10.07-1.5,14.69C149.73,283,144.63,286.58,139.78,288.82Z" transform="translate(-5.3 -7.59)"/><path class="cls-12" d="M239.45,299.54c.75,3.53-2.39,6.57-5.15,8.9s-5.72,5.68-4.51,9.09c1.37,3.88,6.68,4.14,10.78,3.68L251.84,320c6.5-.72,13.23-1.43,19.47.51s11.94,7.28,12.15,13.82c.05,1.78-.27,3.66.49,5.26,1.64,3.45,6.89,3,10,.8a15.1,15.1,0,0,0-2.37-26c-2.86-1.35-6.11-1.78-8.87-3.32s-5-4.91-3.72-7.81a7.19,7.19,0,0,1,2.83-2.93c5.48-3.53,12.45-3.95,18.2-7.05a21.7,21.7,0,0,0,6.52-32.82,8.11,8.11,0,0,0-4.47-3.15c-4.1-.79-7.36,3.77-7.78,7.91s.79,8.38,0,12.47-3.49,7.45-6.35,10.43c-6.13,6.38-14.75,11.89-23.35,9.8a8.55,8.55,0,0,1-3.82-1.86,17.66,17.66,0,0,1-2.64-3.78c-3-4.78-12.53-10.57-18.52-9.84-3.21.4-5.5,3.65-5.61,6.82C233.83,293.8,238.59,295.47,239.45,299.54Z" transform="translate(-5.3 -7.59)"/><path class="cls-12" d="M337.3,226.26c-2.38,6-9.22,8.51-15.29,10.56s-12.87,5-14.73,11.11a5.14,5.14,0,0,0,.55,4.77c1.25,1.5,3.5,1.62,5.42,1.33,4.25-.66,8.15-2.76,12.34-3.7,9.35-2.1,18.88,1.68,28.34,3.21,3.93.63,8.35.76,11.47-1.72a2,2,0,0,0,.77-1c.22-.81-.47-1.56-1.15-2-4.66-3.33-11.63-3-15.28-7.4-2.31-2.81-2.55-6.89-1.46-10.35s3.33-6.44,5.63-9.25c2.75-3.36,5.83-7.08,5.56-11.41-.49-8-14.82-18.38-22.65-14.15C327.77,201.1,340.51,218.2,337.3,226.26Z" transform="translate(-5.3 -7.59)"/><path class="cls-12" d="M375.79,300.44c-2.49,7.1-9,11.92-15.22,16.09-2.43,1.62-5,3.24-7.84,3.75-7.2,1.28-13.43-4.57-19.83-8.11a34.15,34.15,0,0,0-17.16-4.23c-2.2.05-4.64.44-6,2.19-1.64,2.13-.83,5.3.75,7.48s3.81,3.84,5.3,6.08c2.72,4.12,2.49,9.51,1.48,14.34s-2.69,9.61-2.56,14.54,2.7,10.27,7.43,11.69c6.8,2,14.15-4.78,20.75-2.2,2.52,1,5.29,3.26,7.53,1.73a5.52,5.52,0,0,0,1.76-2.79c4.56-12.08,9.57-24.36,18.3-33.89,5.55-6.06,12.57-11,16.48-18.21,4.64-8.61,4.08-19,3.39-28.74-.16-2.23-.95-7.31-3.58-8.15-4.7-1.49-2.89,5.87-3.7,8.86C381.36,287.23,378,294.06,375.79,300.44Z" transform="translate(-5.3 -7.59)"/><path class="cls-12" d="M318.73,89.17c4.95-1.42,9.38-4.56,14.48-5.28,6.82-1,13.56,2.64,18.56,7.38,9.65,9.15,14.42,24.36,8.47,36.26-1.34,2.67-3.17,5.14-3.88,8s.14,6.5,2.86,7.73c3.93,1.77,7.89-2.46,9.76-6.34s4.13-8.66,8.43-8.93c2-.12,3.81.8,5.54,1.69l14.94,7.66c2.59,1.33,6.25,2.45,8,.12,2.05-2.74-1.22-6.26-4.11-8.09l-17.1-10.85a31.94,31.94,0,0,1-6.2-4.68c-2.39-2.49-3.9-5.67-5.48-8.74-3.9-7.6-8.52-15-14.83-20.75s-14.53-9.8-23.08-9.75a20.12,20.12,0,0,1-5.6-.31c-2.47-.71-4.36-2.63-6.54-4C300.91,56.71,294.6,96.07,318.73,89.17Z" transform="translate(-5.3 -7.59)"/><path class="cls-12" d="M204,421.61c-6.69,8.59-19.57,9.42-30.08,6.61-5-1.36-10.23-3.38-15.34-2.29s-9.51,7.14-6.68,11.54c2.19,3.4,7,3.64,11.06,3.06,7.28-1.06,14.49-3.61,21.81-2.83,6.11.65,11.71,3.57,17.52,5.58,6.75,2.33,13.85,3.46,20.91,4.58,11.06,1.75,22.28,3.51,33.42,2.35s22.38-5.6,29.47-14.28c-6.11-1.84-12.6.44-18.66,2.41-7.33,2.38-15.21,4.34-22.68,2.43s-14.14-8.95-13.07-16.58c.81-5.73,5.43-10,9.39-14.23s7.71-9.79,6.2-15.37c-2.2-3-7-1.22-9.87,1.12s-6.56,5.2-9.89,3.54c-4.67-2.34-10.1-25.53-19.91-13.72-3.95,4.75,0,12.78.56,18.06C208.79,409.83,208,416.52,204,421.61Z" transform="translate(-5.3 -7.59)"/><path class="cls-13" d="M176,70.06c-7.73,3.8-15.74,8-20.55,15.13-3.34,5-4.81,10.9-6.68,16.58-2.9,8.8-6.87,17.21-10.82,25.6-2.4,5.07-5,10.35-9.44,13.73-2.09,1.58-4.52,2.66-6.65,4.19s-4,3.68-4.35,6.29a2.42,2.42,0,0,0,.37,1.81,2.7,2.7,0,0,0,2.54.56c4.67-.74,8.62-3.77,13-5.63,7-3,15.59-3.22,21.07-8.57a22.53,22.53,0,0,0,5.27-9.45c4.41-13.73,3-29.71,11.6-41.29,5.65-7.63,14.81-12,24-14.17s18.79-2.63,28.17-4.1c1.93-.31,4.27-1,4.6-3a3.3,3.3,0,0,0-2.07-3.3,9.42,9.42,0,0,0-4.12-.56q-12.75.24-25.43,1.57C189.54,66.22,182.4,66.93,176,70.06Z" transform="translate(-5.3 -7.59)"/><path class="cls-13" d="M77.65,177.73c-5.87,17.1-3,36.1-7.71,53.54-1.28,4.66-3.09,9.17-4.38,13.83-2.81,10.08-3.17,20.65-3.51,31.1-.21,6.23-.36,12.73,2.31,18.37.8,1.7,2.27,3.49,4.14,3.25a4.29,4.29,0,0,0,1.81-.81c4.87-3.36,6.92-9.66,7-15.57s-1.53-11.71-2.42-17.56a75.18,75.18,0,0,1-.18-21.29c1.51-11.28,5.57-22.14,6.57-33.48.57-6.58.11-13.21.66-19.8S84.18,176,88.46,171c3.45-4.06.65-6.78-3.55-4C81.2,169.39,79.05,173.63,77.65,177.73Z" transform="translate(-5.3 -7.59)"/><path class="cls-13" d="M67.07,314.54c1.05,8.53,3.28,17.06,7.78,24.39,1.9,3.1,4.18,5.95,6,9.1,3.59,6.27,5.45,14,11.23,18.29,1.31,1,3.28,1.7,4.46.57s.36-3.46-.66-5c-7.37-11-15.44-22.11-17.63-35.14-1-6.12.47-16.5-3.65-21.57a3.72,3.72,0,0,0-6.18,0C66.38,307.68,66.7,311.58,67.07,314.54Z" transform="translate(-5.3 -7.59)"/><path class="cls-14" d="M203.86,338.81a49.28,49.28,0,0,0-4.19,34.12,17.84,17.84,0,0,0,3.29,7.4,8,8,0,0,0,7.18,3c-5.54-24.07,5.54-51.06,26.39-64.31,3.23-2.05,6.8-3.92,8.89-7.14.12-.18-11.71,1.89-13.14,2.53a94,94,0,0,0-10,5A49.63,49.63,0,0,0,203.86,338.81Z" transform="translate(-5.3 -7.59)"/><path class="cls-14" d="M173.82,327.45c.37,2.06,1.61,4.77,3.62,4.19,1.58-.46,1.83-2.56,1.72-4.19a88.18,88.18,0,0,0-13.3-41.11c-5-7.91-12.05-15.49-21.3-16.84a3.17,3.17,0,0,0-2.59.44,2.82,2.82,0,0,0-.74,1.92c-.36,5.38,4.09,7.06,7.65,9.86a58.51,58.51,0,0,1,12,12.91C167.57,304.38,171.71,315.84,173.82,327.45Z" transform="translate(-5.3 -7.59)"/><path class="cls-14" d="M218.65,214.16c-3.45,2.68-6.88,6.34-6.61,10.7a2.76,2.76,0,0,0,.54,1.68c1.15,1.39,3.37.3,4.81-.8,12.13-9.36,26.73-16.34,42.05-16.4,4.09,0,8.18.46,12.26.21,3.05-.2,4.43-1.82,2.87-4.18-1.15-1.73-8-2.23-10-2.61-4.84-.92-10.08-2.1-15-1.8C238.76,201.62,227,207.64,218.65,214.16Z" transform="translate(-5.3 -7.59)"/><path class="cls-14" d="M318.54,353.52c-7.64,7.56-15.65,15.77-17.78,26.31a7.68,7.68,0,0,0,.25,4.95c.75,1.51,2.72,2.51,4.2,1.69a4.7,4.7,0,0,0,1.44-1.5c3.44-5,5.83-10.7,9.53-15.51,9.28-12,25.53-17,35-29,1.65-2.09-13.77-1-15.42-.25C329,343.2,323.67,348.45,318.54,353.52Z" transform="translate(-5.3 -7.59)"/><path class="cls-14" d="M337.51,199.21a65.47,65.47,0,0,1,1.12,11.53q.39,9.76.76,19.53c0,1.18.25,2.61,1.34,3.07,1.59.68,2.92-1.38,3.41-3.05,4.39-14.94,5.08-32.56-3.38-46.26-2.29-3.69-9.06-13.32-10.27-4.74C329.58,185.72,336.17,193,337.51,199.21Z" transform="translate(-5.3 -7.59)"/><path class="cls-14" d="M258.43,109.77c-8,3.08-16.39,8.09-18.27,16.41q10-3.95,20.15-7.55c11.33-4,22.95-7.73,35-8.37,3.79-.2,8.57-.77,9.7-4.39-5.71-3.41-15.66-1.93-22.09-1.63A78.56,78.56,0,0,0,258.43,109.77Z" transform="translate(-5.3 -7.59)"/><path class="cls-14" d="M220.36,167.67a68,68,0,0,0-16.91,33.57c-.35,1.87-.28,4.38,1.52,5s3.43-1.37,4.33-3.08c6.33-12,12.17-25,23.07-33a18.39,18.39,0,0,0,3.72-3.19c2.87-3.72-.1-6.81-4-6.79C227.74,160.17,223,164.79,220.36,167.67Z" transform="translate(-5.3 -7.59)"/><path class="cls-14" d="M394.61,198.17a4.15,4.15,0,0,0,2.44,1.16c4.17.84,8.47.37,12.72.25a75.1,75.1,0,0,1,25.67,3.82c5.28,1.76,10.42,4.13,15.95,4.78a5.86,5.86,0,0,0,3.35-.34c2.18-1.12,2.35-4.42.93-6.42s-3.85-3-6.16-3.82a115.53,115.53,0,0,0-32.28-6.38C415.26,191.12,388.29,190.6,394.61,198.17Z" transform="translate(-5.3 -7.59)"/><path class="cls-14" d="M396.7,370.57c-6,5.88-11.41,13.2-11.94,21.6-.06,1.08.12,2.42,1.14,2.79s2.18-.76,2.86-1.78A77.18,77.18,0,0,1,429,362.57c4.25-1.38,13.17-4,11.77-10.32-1.15-5.23-7.06-3.21-10.8-2A85,85,0,0,0,396.7,370.57Z" transform="translate(-5.3 -7.59)"/><path class="cls-14" d="M201.77,403.73c5.92-1.69,12.06-3,18.21-2.67,1.8.09,4,.74,4.27,2.53s-1.92,3-3.69,3.66a122.92,122.92,0,0,0-45.36,29.08,15.66,15.66,0,0,1-4.84,3.83c-5.79,2.44-7.22-3-5.44-6.92a66.26,66.26,0,0,1,8.19-13.07C180.24,411.52,191.23,406.75,201.77,403.73Z" transform="translate(-5.3 -7.59)"/><path class="cls-14" d="M371.76,127.39q-6.76,15-13.52,29.92c3.38-1.55,5.85-4.55,8.14-7.49q6.8-8.73,13-17.91c3.69-5.5,15.14-25.77,2.58-28.2-3.94-.76-5.62,1-6.29,4.29-.61,3,.53,6.5-.24,9.76A54.65,54.65,0,0,1,371.76,127.39Z" transform="translate(-5.3 -7.59)"/><path class="cls-14" d="M233.09,106.13c-7.48-3.23-16-3.43-24-2s-15.68,4.37-23.28,7.3c-3.52,1.36-7.11,2.76-10,5.2-1.9,1.61-3.33,4.88-1.31,6.34,1.41,1,3.36.23,4.92-.54a103,103,0,0,1,46.78-10.51c2.31,0,5.15-.14,6.18-2.21.92-1.88-.41-4.24-2.29-5.17s-4.07-.81-6.16-.68Z" transform="translate(-5.3 -7.59)"/><path class="cls-14" d="M93.43,219.9c-1.15,1.73-2.2,4.13-.87,5.72,1.67,2,4.92.44,6.92-1.25,8-6.82,15.62-14.39,24.86-19.47,8.09-4.45,17.34-6.92,24.51-12.73,1.25-1,2.53-2.42,2.25-4-.7-3.9-13.73-.33-15.83.58-5,2.19-10.29,4.43-15.16,7A73.57,73.57,0,0,0,93.43,219.9Z" transform="translate(-5.3 -7.59)"/><path class="cls-14" d="M274.14,306.37c.38,3.37,3.15,6.08,6.24,7.49s6.53,1.8,9.88,2.41a46.89,46.89,0,0,1,12.83,4.1A69,69,0,0,1,314,327.74l11.42,8.82a30.56,30.56,0,0,0-4.72-8.13c-5-6.85-10.07-13.77-16.59-19.19C299.79,305.68,272.43,291.42,274.14,306.37Z" transform="translate(-5.3 -7.59)"/><path class="cls-15" d="M227.2,237.35a0,0,0,0,0,0-.08,0,0,0,0,0,0,.08Z" transform="translate(-5.3 -7.59)"/><path class="cls-15" d="M228.07,238.32l5.34-.24a8.6,8.6,0,0,0,4.34-.88.86.86,0,0,0-.2-1.55c-1.57-.61-2.87-.36-4.5-.2l-5,.5c-1.49.15-1.55,2.43,0,2.37Z" transform="translate(-5.3 -7.59)"/><path class="cls-15" d="M237.75,227.26c.76,1.72,1.36,3.8,2.77,5.09a1.08,1.08,0,0,0,1.79-1c-.38-1.87-1.87-3.44-3-5a.93.93,0,0,0-1.6.93Z" transform="translate(-5.3 -7.59)"/><path class="cls-15" d="M247.84,235.48a10.68,10.68,0,0,1,0,1.79c0,.61.23,1.21.27,1.82a.68.68,0,0,0,1.14.47,4.57,4.57,0,0,0,1.29-2.07,7.89,7.89,0,0,0-.1-2.74,1.38,1.38,0,0,0-1.68-1,1.41,1.41,0,0,0-1,1.69Z" transform="translate(-5.3 -7.59)"/><path class="cls-15" d="M235.73,248.3a26.43,26.43,0,0,1,0,3.33,10.66,10.66,0,0,0-.17,3.08.94.94,0,0,0,1.69.22,6.64,6.64,0,0,0,.7-3.06,23.62,23.62,0,0,0,.08-3.57c-.06-1.47-2.37-1.47-2.29,0Z" transform="translate(-5.3 -7.59)"/><path class="cls-15" d="M209.87,252a17.45,17.45,0,0,0,0,7.51c.19.8,1.33.57,1.38-.19a63.58,63.58,0,0,1,.66-6.77c.23-1.3-1.74-1.87-2-.55Z" transform="translate(-5.3 -7.59)"/><path class="cls-15" d="M196.41,268.66a7.49,7.49,0,0,0,4.64-1,.48.48,0,0,0-.37-.88c-.69.17-1.32.48-2,.64a8.58,8.58,0,0,1-2.26.16c-.72,0-.71,1.08,0,1.11Z" transform="translate(-5.3 -7.59)"/><path class="cls-15" d="M230.59,272.82c.67,1.12,1.31,2.25,2,3.37a28.49,28.49,0,0,0,2.19,2.83c.38.49,1.07-.13.82-.63a24.41,24.41,0,0,0-1.69-3.25c-.72-1-1.39-2-2.07-3-.5-.75-1.68-.08-1.22.7Z" transform="translate(-5.3 -7.59)"/><path class="cls-15" d="M239.57,291.26c.62,1.38.93,2.89,1.44,4.32a.79.79,0,0,0,1.5,0,8.51,8.51,0,0,0-.44-5.38,1.36,1.36,0,1,0-2.5,1.06Z" transform="translate(-5.3 -7.59)"/><path class="cls-15" d="M248.83,307.17c2.38,2.44,5.28,4.24,8.75,4.16a.75.75,0,0,0,.2-1.46,23.18,23.18,0,0,1-7.38-4.27,1.11,1.11,0,0,0-1.57,1.57Z" transform="translate(-5.3 -7.59)"/><path class="cls-15" d="M247.17,288.15c2.31,1.85,5.77,3.92,8.86,3.2.69-.16.93-1.32.21-1.62-1.22-.52-2.55-.69-3.82-1.09a14,14,0,0,1-4-2.06c-.91-.65-2.09.86-1.21,1.57Z" transform="translate(-5.3 -7.59)"/><path class="cls-15" d="M273,324.41a12.22,12.22,0,0,1,3-1.75c.95-.37,2.11-.41,2.87-1.14a.94.94,0,0,0-.41-1.55c-1.1-.42-2.48.31-3.48.77a14,14,0,0,0-3.17,2.1c-.85.73.31,2.26,1.21,1.57Z" transform="translate(-5.3 -7.59)"/><path class="cls-15" d="M284.27,346.72c.74-.81,1.5-1.61,2.21-2.45a7.69,7.69,0,0,0,1.66-2.55c.14-.5-.37-1.13-.91-.91a7.4,7.4,0,0,0-2.37,1.84c-.76.79-1.48,1.64-2.21,2.45-1,1.1.63,2.72,1.62,1.62Z" transform="translate(-5.3 -7.59)"/><path class="cls-15" d="M302.09,347.86a12.91,12.91,0,0,0,1.56-3c.25-.79-.74-1.22-1.29-.75a13.32,13.32,0,0,0-2.13,2.65c-.78,1.12,1.13,2.27,1.86,1.09Z" transform="translate(-5.3 -7.59)"/><path class="cls-15" d="M307.26,295.85a0,0,0,0,0,0-.08,0,0,0,0,0,0,.08Z" transform="translate(-5.3 -7.59)"/><path class="cls-15" d="M307.05,297.33c1.1,1.57,2.08,3.33,3.8,4.32a.6.6,0,0,0,.87-.67c-.31-1.87-1.54-3.35-2.57-4.88-.87-1.3-3-.05-2.1,1.23Z" transform="translate(-5.3 -7.59)"/><path class="cls-15" d="M294.34,268.1a22.89,22.89,0,0,1-1.43,6.09c-.12.33.37.49.55.23a12.4,12.4,0,0,0,2.07-6.32c.05-.76-1.13-.76-1.19,0Z" transform="translate(-5.3 -7.59)"/><path class="cls-15" d="M309.89,256.35c2.81.33,6.37.57,8.85-1.06a1,1,0,0,0-.49-1.79c-2.74-.35-5.57.33-8.36,0-1.8-.19-1.77,2.61,0,2.82Z" transform="translate(-5.3 -7.59)"/><path class="cls-15" d="M286,235.71a71.08,71.08,0,0,1,4.54-6.35c.31-.41-.19-1-.57-.58a29.65,29.65,0,0,0-4.74,6.48.45.45,0,0,0,.77.45Z" transform="translate(-5.3 -7.59)"/><path class="cls-15" d="M274.66,224.5c1.15-1.2,2.29-2.4,3.44-3.59a.45.45,0,0,0-.63-.63l-3.6,3.44c-.51.49.29,1.3.79.78Z" transform="translate(-5.3 -7.59)"/><path class="cls-15" d="M301.12,235.35c.66,1.16,1.28,2.37,2,3.5a7.13,7.13,0,0,0,2.54,2.46.57.57,0,0,0,.82-.63,7,7,0,0,0-1.7-3.11c-.9-1-1.9-1.9-2.84-2.85a.52.52,0,0,0-.81.63Z" transform="translate(-5.3 -7.59)"/><path class="cls-15" d="M246.82,189.4c4.37-3.14,9.32-4.68,14.09-7a.53.53,0,0,0-.27-1c-5.52.23-10.47,3.49-14.63,6.94-.57.48.19,1.49.81,1Z" transform="translate(-5.3 -7.59)"/><path class="cls-15" d="M274.27,189.81l2.58-2.78a14.19,14.19,0,0,0,2.3-2.67c.26-.5-.29-1.15-.81-.81a13.3,13.3,0,0,0-2.46,2.51l-2.55,2.81c-.57.63.36,1.57.94.94Z" transform="translate(-5.3 -7.59)"/><path class="cls-15" d="M296.23,189.36a27,27,0,0,1,.54-3.09c.21-1,.24-2,.4-2.94a.48.48,0,0,0-.88-.37,10.4,10.4,0,0,0-1.41,3,21.26,21.26,0,0,0-.43,3.38c-.07,1.15,1.66,1.11,1.78,0Z" transform="translate(-5.3 -7.59)"/><path class="cls-15" d="M309.93,185.23a8.69,8.69,0,0,1,.87-2.77c.44-.84.83-1.7,1.28-2.52a.49.49,0,0,0-.66-.66,5.15,5.15,0,0,0-2.37,2.15,10.39,10.39,0,0,0-1.19,3.23c-.26,1.36,1.86,1.92,2.07.57Z" transform="translate(-5.3 -7.59)"/><path class="cls-15" d="M201,207.14c.47-2.11.94-4.18,1.21-6.33.07-.55-.79-.62-.94-.12-.65,2-1.09,4-1.55,6.09-.19.84,1.1,1.2,1.28.36Z" transform="translate(-5.3 -7.59)"/><path class="cls-15" d="M198.26,189.05l1.66-2.49a10.31,10.31,0,0,0,.83-1.24c.23-.46.35-.92.6-1.37.41-.75-.62-1.64-1.22-.95-.33.39-.72.67-1.06,1a10.43,10.43,0,0,0-.93,1.28l-1.86,2.59c-.86,1.19,1.15,2.39,2,1.16Z" transform="translate(-5.3 -7.59)"/><path class="cls-15" d="M183.77,259.74c0,2.15.06,5,1.54,6.72a.82.82,0,0,0,1.39-.57,13.73,13.73,0,0,0-.77-3.06,30.48,30.48,0,0,1-.78-3.27c-.14-.8-1.37-.58-1.38.18Z" transform="translate(-5.3 -7.59)"/><path class="cls-15" d="M177.3,284.3l1.2,2.1a10.15,10.15,0,0,0,1.2,1.9.52.52,0,0,0,.86-.5,9.78,9.78,0,0,0-1-2l-1.17-2.11a.63.63,0,0,0-1.08.63Z" transform="translate(-5.3 -7.59)"/><path class="cls-15" d="M192.8,304.19l2.78,1.9a8.51,8.51,0,0,0,2.75,1.54.75.75,0,0,0,.84-1.08,8.47,8.47,0,0,0-2.41-2.08l-2.91-2.07c-1.09-.76-2.15,1-1,1.79Z" transform="translate(-5.3 -7.59)"/><path class="cls-15" d="M194.42,335.32a16.34,16.34,0,0,0,6.08-4.62.37.37,0,0,0-.52-.52,68.63,68.63,0,0,1-5.89,4.57.33.33,0,0,0,.33.57Z" transform="translate(-5.3 -7.59)"/><path class="cls-15" d="M216.64,372.56c1.67-.16,2.7.58,3.94,1.56a.6.6,0,0,0,.93-.72c-.82-1.68-3.13-2.37-4.87-2.17-.83.1-.86,1.42,0,1.33Z" transform="translate(-5.3 -7.59)"/><path class="cls-15" d="M256.47,389.93a44.37,44.37,0,0,0,8.42-3.42.59.59,0,0,0-.45-1.08,44.12,44.12,0,0,0-8.46,2.71c-1.1.42-.65,2.18.49,1.79Z" transform="translate(-5.3 -7.59)"/><path class="cls-15" d="M275.43,363.24a20.56,20.56,0,0,0,9.39,1.32.56.56,0,0,0,0-1.11,60.46,60.46,0,0,1-9.08-1.35.59.59,0,0,0-.31,1.14Z" transform="translate(-5.3 -7.59)"/><path class="cls-15" d="M329,330.71a26.3,26.3,0,0,1,3.7-3.37c1.16-.86,2.66-1.45,3.68-2.46a.75.75,0,0,0-.72-1.24c-1.49.28-2.94,1.53-4.11,2.44a27.75,27.75,0,0,0-3.71,3.48c-.69.78.44,1.93,1.16,1.15Z" transform="translate(-5.3 -7.59)"/><path class="cls-15" d="M337.77,313.06l2.37.91a5.49,5.49,0,0,0,2.3.67.79.79,0,0,0,.55-1.33,5.58,5.58,0,0,0-2.2-1.07l-2.53-1c-1.11-.43-1.59,1.36-.49,1.78Z" transform="translate(-5.3 -7.59)"/><path class="cls-15" d="M361.18,321.94a38.45,38.45,0,0,0,2.54,5.72.41.41,0,0,0,.74-.32,35.75,35.75,0,0,0-2.07-5.74c-.3-.73-1.51-.42-1.21.34Z" transform="translate(-5.3 -7.59)"/><path class="cls-15" d="M386.27,301.26c.29.94.59,1.89.89,2.84a10.53,10.53,0,0,0,.9,2.6c.33.52,1.29.36,1.24-.33a10.72,10.72,0,0,0-.83-2.63l-1-2.82c-.27-.75-1.46-.44-1.21.34Z" transform="translate(-5.3 -7.59)"/><path class="cls-15" d="M216.29,158a0,0,0,1,0,0-.08,0,0,0,0,0,0,.08Z" transform="translate(-5.3 -7.59)"/><path class="cls-15" d="M218.94,158.47a69.12,69.12,0,0,1,12.28-.88c.48,0,.62-.77.12-.87a30.4,30.4,0,0,0-12.77.4c-.89.19-.51,1.52.37,1.35Z" transform="translate(-5.3 -7.59)"/><path class="cls-15" d="M155.36,193.18l3.13-2.69c.44-.38-.15-1.15-.63-.82l-3.4,2.35a.74.74,0,1,0,.9,1.16Z" transform="translate(-5.3 -7.59)"/><path class="cls-15" d="M125.91,216c.36-2.81,1.94-4.61,3.27-7a.9.9,0,0,0-1.21-1.22c-2.67,1.61-3.77,5.27-4,8.18-.09,1.26,1.77,1.2,1.93,0Z" transform="translate(-5.3 -7.59)"/><path class="cls-15" d="M160.85,260a52.34,52.34,0,0,1-.44,10.83c-.08.64.92.72,1.09.15a25,25,0,0,0,.58-11.15c-.1-.69-1.29-.53-1.23.17Z" transform="translate(-5.3 -7.59)"/><path class="cls-15" d="M148.7,297.27c0,.55.05,1.1.08,1.65a.33.33,0,0,0,.66,0c0-.55.05-1.1.08-1.65a.41.41,0,0,0-.82,0Z" transform="translate(-5.3 -7.59)"/><path class="cls-15" d="M307,146.36a51.65,51.65,0,0,0,8.67,4.57.48.48,0,0,0,.47-.8,51.89,51.89,0,0,0-8.28-5.24.85.85,0,0,0-.86,1.47Z" transform="translate(-5.3 -7.59)"/><path class="cls-15" d="M272.7,122.3a0,0,0,0,0,0-.08,0,0,0,1,0,0,.08Z" transform="translate(-5.3 -7.59)"/><path class="cls-15" d="M274.54,122.87c2.23-.43,4.5-.77,6.67-1.4.74-.21.63-1.45-.18-1.38-2.33.21-4.64.73-6.94,1.14-1.07.2-.62,1.85.45,1.64Z" transform="translate(-5.3 -7.59)"/><path class="cls-15" d="M243,123.44c2.18-1.45,4.5-2.81,6.54-4.46.31-.24-.08-.69-.4-.52-2.29,1.21-4.42,2.8-6.59,4.22-.47.31,0,1.08.45.76Z" transform="translate(-5.3 -7.59)"/><path class="cls-15" d="M295.92,106.59c3.06,0,6.07-.13,9.12-.37a.56.56,0,0,0,0-1.11c-3.05-.24-6.06-.37-9.12-.37a.93.93,0,0,0,0,1.85Z" transform="translate(-5.3 -7.59)"/><path class="cls-15" d="M355,160.27l3.09,3.5a16.31,16.31,0,0,0,3.09,3.12c.86.53,1.74-.51,1.32-1.32a16.22,16.22,0,0,0-2.87-3.33l-3.22-3.38c-.9-.93-2.26.46-1.41,1.41Z" transform="translate(-5.3 -7.59)"/><path class="cls-15" d="M365.5,196.08a105.32,105.32,0,0,0,.4,12.44.52.52,0,0,0,1,0,107.51,107.51,0,0,0,.41-12.44.93.93,0,0,0-1.85,0Z" transform="translate(-5.3 -7.59)"/><path class="cls-15" d="M396.09,199.59l3,2.42c.91.74,1.78,1.75,3,1.82a1.08,1.08,0,0,0,1-1.35c-.28-1.12-1.44-1.79-2.28-2.49L398,197.66c-1.35-1.13-3.3.82-1.94,1.93Z" transform="translate(-5.3 -7.59)"/><path class="cls-15" d="M387.16,263.49a37.69,37.69,0,0,0,1.6,5.82c.28.64,1.5.68,1.38-.19a38.43,38.43,0,0,0-1.56-6,.74.74,0,0,0-1.42.4Z" transform="translate(-5.3 -7.59)"/><path class="cls-15" d="M363.53,244.07a54.21,54.21,0,0,0-1.56,7.58c0,.34.48.37.58.07a52.15,52.15,0,0,0,1.77-7.43c.09-.51-.65-.73-.79-.22Z" transform="translate(-5.3 -7.59)"/><path class="cls-15" d="M307.74,367.22c3.92,1.78,8.07,3,12.39,2.38.58-.09.55-1,0-1.14-3.89-.78-7.74-1.31-11.42-2.9-1.11-.48-2.1,1.15-1,1.66Z" transform="translate(-5.3 -7.59)"/><path class="cls-15" d="M315.46,345.35a8.1,8.1,0,0,1,3.76-.72c1.12.07,2.15.5,3.25.63A.74.74,0,0,0,323,344c-2.26-1.81-5.95-1.23-8.39-.12-1,.45-.13,1.91.86,1.47Z" transform="translate(-5.3 -7.59)"/><path class="cls-15" d="M346.51,362.83a0,0,0,1,0,0-.08,0,0,0,0,0,0,.08Z" transform="translate(-5.3 -7.59)"/><path class="cls-15" d="M348.59,361.55,351,359a.48.48,0,0,0-.68-.68l-2.56,2.41c-.56.53.31,1.4.83.84Z" transform="translate(-5.3 -7.59)"/><path class="cls-15" d="M153.13,301.12c-1.19,2.85-2.17,6.29-1.78,9.41.08.67,1.2,1,1.31.18.43-3.13.7-6,2-9a.81.81,0,1,0-1.49-.63Z" transform="translate(-5.3 -7.59)"/><path class="cls-15" d="M159.06,331.31a0,0,0,0,0,0-.08,0,0,0,0,0,0,.08Z" transform="translate(-5.3 -7.59)"/><path class="cls-15" d="M158.39,333.32a34.1,34.1,0,0,0,2.85,4.07c.28.33.9,0,.74-.43a34,34,0,0,0-2.25-4.42c-.49-.87-1.87-.06-1.34.78Z" transform="translate(-5.3 -7.59)"/><path class="cls-15" d="M175.26,340.22c.85.51,1.71,1,2.57,1.51.39.22.86-.34.49-.64l-2.3-1.85c-.72-.58-1.54.53-.76,1Z" transform="translate(-5.3 -7.59)"/><path class="cls-15" d="M146,132a48.75,48.75,0,0,0,5.77-2.16c.46-.2.11-.81-.31-.74a45.6,45.6,0,0,0-5.89,1.33A.81.81,0,0,0,146,132Z" transform="translate(-5.3 -7.59)"/><path class="cls-15" d="M174.9,105.15a69.4,69.4,0,0,0,8.42-3.31A.45.45,0,0,0,183,101a69.55,69.55,0,0,0-8.35,3.45c-.38.16-.11.82.28.67Z" transform="translate(-5.3 -7.59)"/><path class="cls-15" d="M187.06,88.06c1.37-1.76,2.7-3.53,4-5.37.39-.56-.47-1.19-.93-.72-1.52,1.54-3,3.11-4.4,4.73-.83.94.62,2.32,1.36,1.36Z" transform="translate(-5.3 -7.59)"/><path class="cls-15" d="M323,73c3,1.4,6.09,3.08,9.25,4.17.49.17.76-.55.34-.81-2.82-1.7-6-3-9-4.38-.69-.33-1.29.7-.6,1Z" transform="translate(-5.3 -7.59)"/><path class="cls-15" d="M82.53,310.54c0,3.58-.28,7.2,0,10.78a.26.26,0,0,0,.52,0c.24-3.58,0-7.2,0-10.78a.23.23,0,0,0-.45,0Z" transform="translate(-5.3 -7.59)"/><path class="cls-15" d="M120.32,385.61c3.61-1.53,7.49-2.84,10.76-5a.41.41,0,0,0-.31-.75c-3.82,1.09-7.37,3.23-10.89,5-.52.27-.07,1,.44.77Z" transform="translate(-5.3 -7.59)"/><path class="cls-15" d="M138.56,423.1a6.24,6.24,0,0,1-1.41-6.25c.14-.46-.56-.65-.71-.2a7.07,7.07,0,0,0,1.5,7.08c.38.42,1-.21.62-.63Z" transform="translate(-5.3 -7.59)"/><path class="cls-15" d="M149.94,446a77.09,77.09,0,0,0,9.12,0,.34.34,0,0,0,0-.67,77.08,77.08,0,0,0-9.12,0,.3.3,0,0,0,0,.59Z" transform="translate(-5.3 -7.59)"/><path class="cls-15" d="M225.08,443l3.39,1.53c.6.27,1.12-.56.53-.89l-3.25-1.79c-.76-.42-1.44.8-.67,1.15Z" transform="translate(-5.3 -7.59)"/><path class="cls-15" d="M288.45,435.82a0,0,0,1,0,0-.08,0,0,0,0,0,0,.08Z" transform="translate(-5.3 -7.59)"/><path class="cls-15" d="M288.5,437.89a52.14,52.14,0,0,0,2.72,4.84c.33.5,1.24.2,1-.43A56.9,56.9,0,0,0,290,437c-.47-1-2-.12-1.47.86Z" transform="translate(-5.3 -7.59)"/><path class="cls-15" d="M444.4,255.44a39.42,39.42,0,0,1,8.32.71c.48.06.65-.69.25-.9-2.78-1.41-5.68-1.28-8.68-.61a.41.41,0,0,0,.11.8Z" transform="translate(-5.3 -7.59)"/></svg>