<svg id="Layer_1" data-name="Layer 1" xmlns="http://www.w3.org/2000/svg" viewBox="0 0 511.11 510.71"><defs><style>.cls-1{fill:#fdc25c;}.cls-2{fill:#fcad56;}.cls-11,.cls-16,.cls-19,.cls-3{fill:#fff;}.cls-3{opacity:0.26;}.cls-4{fill:#bf362b;}.cls-5{fill:#f4d798;}.cls-6{fill:#f4ab69;}.cls-7{fill:#7f211f;}.cls-8{fill:#a12b25;}.cls-9{fill:#ce4829;}.cls-10{fill:#ee7044;}.cls-11{opacity:0.12;}.cls-12{fill:#ff5003;}.cls-13{fill:#f2a688;}.cls-14{fill:#ff740d;}.cls-15{fill:#f22;}.cls-16{opacity:0.33;}.cls-17{fill:#47823d;}.cls-18{fill:#f7b86d;}.cls-19{opacity:0.48;}.cls-20{fill:#e5a45e;}</style></defs><path class="cls-1" d="M23.06,160.39c-6.65,17.28-8.56,36-10.4,54.39-2.71,27-5.42,54-6.79,81.13C5,313.81,4.65,332,8.9,349.42c5.69,23.34,19.44,44.28,37,60.65,10.85,10.08,23.12,18.53,34.22,28.33,9.84,8.7,18.72,18.42,28.25,27.46,35.24,33.41,84.83,43.09,132.81,50.52s88.23-8,134-24.18c34.26-12.09,44.93-29.71,67.21-49.1,26-22.63,41.56-39.16,60.76-67.79,18.24-27.21,12-64.05,11.94-92.4-.06-26.27,4.41-53.22-3.1-78.4-4.44-14.88-12.83-28.22-19.06-42.44-11.06-25.25-15.66-54-33-75.43-13.15-16.32-32.22-26.56-50.75-36.36C389.92,40,370.49,29.78,350,22.2,302.68,4.76,250.39,3.45,201.68,15.55c-46,11.4-98.8,36.22-128.89,74.19C55.11,112.06,33.48,133.35,23.06,160.39Z" transform="translate(-5.3 -7.59)"/><path class="cls-2" d="M512,204.51c-4.43-14.88-12.82-28.22-19-42.44-11.06-25.25-15.66-54-33-75.43-10.58-13.13-25-22.33-39.88-30.53,10.42,6.51,20.11,14,27.79,23.48,17.3,21.46,21.9,50.17,33,75.43,6.23,14.22,14.62,27.56,19.06,42.43,7.52,25.18,3.05,52.13,3.11,78.41.07,28.35,6.3,65.19-11.94,92.39-19.2,28.64-34.75,45.16-60.76,67.79-22.28,19.39-33,37-67.22,49.1-45.79,16.17-86,31.62-134,24.19-34.81-5.39-70.46-12-100.86-27.93,32.79,21.19,73.41,28.86,113,35,48,7.43,88.23-8,134-24.18,34.26-12.09,44.93-29.71,67.21-49.1,26-22.63,41.56-39.16,60.76-67.79,18.24-27.21,12-64.05,11.94-92.4C515.09,256.64,519.56,229.69,512,204.51Z" transform="translate(-5.3 -7.59)"/><path class="cls-2" d="M32.38,258.54A269.36,269.36,0,0,1,117.12,86.75c11-10.19,22.95-19.49,36.14-26.65s27.12-12,41.22-16.66c29-9.54,59-18.12,89.47-16.86,53.18,2.2,100.13,33.57,143.91,63.84C416.05,80,399.08,78.61,384.42,72.89s-26.95-15.69-41-22.43C301.14,30.19,251.23,41.91,206,54c-16.06,4.28-32.29,8.63-46.89,16.56-18.3,10-33.18,25-47.77,39.92-18.73,19.09-37.93,38.88-47.85,63.72C57,190.43,54.77,208.06,49,224.57,45,236,39.33,246.9,36.58,258.7c-5.11,21.89.31,44.71,5.72,66.54,6.82,27.53,14.28,56.28,33.34,77.28-15.79-19.73-28.74-37.83-36.17-62.47C31.55,313.76,29.79,285.79,32.38,258.54Z" transform="translate(-5.3 -7.59)"/><path class="cls-3" d="M32.91,174.33c-7,30.24-14.08,60.57-17.51,91.43-3.41,30.69-2.94,63,10.51,90.8a28.52,28.52,0,0,0,5.87,8.74,4.27,4.27,0,0,0,3.41,1.45c2.66-.46,2.59-4.3,1.8-6.88-9.82-32.17-22.1-65.46-16.06-98.55,2.34-12.8,7.35-24.94,10.71-37.5C39.07,196,38.72,165.25,54.25,141c6.7-10.44,16-19,23.74-28.64,8-9.91,14.43-21.1,23.61-29.9,18.7-17.91,46-23.56,67.07-38.58,2.92-2.08,6-5,5.54-8.57-6.86-2-14,1.42-20.29,4.92C101.6,69.52,47.08,113.43,32.91,174.33Z" transform="translate(-5.3 -7.59)"/><path class="cls-3" d="M279.74,20.14c2.43.33,6-.25,5.74-2.69-.19-1.91-2.68-2.47-4.6-2.53-21.27-.67-42.88-1.31-63.47,4-7.23,1.88-23.23,2.31-27.67,8.92-8.66,12.88,10.62,5.24,15.34,3.12A137.81,137.81,0,0,1,279.74,20.14Z" transform="translate(-5.3 -7.59)"/><path class="cls-3" d="M305.49,490c28.87-7.37,58.29-15,83.47-30.92,13.59-8.61,25.62-19.46,37.27-30.56,22.64-21.57,44.2-44.35,63.31-69.11,1.21-1.56,2.45-3.25,2.59-5.22s-1.36-4.17-3.32-4a5,5,0,0,0-2.94,1.87c-5.68,6-9.85,13.31-15.13,19.7-16.21,19.62-41.86,29.8-57.41,49.94-5.53,7.17-9.63,15.43-15.71,22.14-11.94,13.18-29.88,18.79-46.93,23.86L319.41,477c-9.7,2.88-19.43,5.77-29.42,7.35-6.22,1-12.52,1.45-18.68,2.78-4.4,1-26.44,11.07-13.47,14.86,5.18,1.52,17.32-4.24,22.61-5.59Z" transform="translate(-5.3 -7.59)"/><path class="cls-3" d="M485.37,235.45a211.9,211.9,0,0,1,2.69,80c-1.06,6.72-2.44,13.63-.87,20.24.34,1.42,1,3,2.36,3.46s3.15-.64,3.78-2.1a9.88,9.88,0,0,0,.41-4.69,150.21,150.21,0,0,1,1.12-30.71c1-7.28,2.58-14.52,2.86-21.88.63-16.85-5.51-33.56-3.79-50.34.37-3.64.11-11.6-5.82-10.14C481.89,220.85,484.43,231.33,485.37,235.45Z" transform="translate(-5.3 -7.59)"/><path class="cls-4" d="M120.82,102.71c-5.64,10.55-9.31,22.13-15.72,32.24-9.66,15.22-24.84,26.08-36,40.25C50.75,198.53,44.62,228.91,39,258.07c-2.45,12.8-4.91,25.86-3.39,38.81,1.68,14.35,8.12,27.65,12.13,41.53,3.8,13.16,5.51,27.17,12.3,39.07s17.83,20.42,26.31,31,14.55,23.6,24.47,33.12,23.25,15,36.23,20Q167,469.21,187.28,476c13.86,4.68,27.9,9.11,42.4,11,37.43,4.91,74.76-7.2,110.57-19.14C352,464,363.87,460,374,453c18.2-12.57,28.81-33.28,44.18-49.18,19.25-19.9,47.32-34.22,54.61-60.93,4.44-16.26-.15-33.58,1.18-50.39,1.39-17.74,9.36-34.59,9.85-52.38.41-14.64-4.25-28.88-8.86-42.78C467.4,174.45,459.56,151.1,444.9,132c-11.91-15.54-27.75-27.53-43.7-38.88q-17.71-12.6-35.95-24.47c-11.76-7.66-23.88-15.17-37.38-19-12.47-3.52-25.6-3.74-38.55-3.86C234.47,45.26,150.94,46.33,120.82,102.71Z" transform="translate(-5.3 -7.59)"/><path class="cls-5" d="M145.32,88c-8.79,14.8-9.91,33.82-21.29,46.73-13,14.79-36.64,18-47.23,34.67-3.7,5.81-5.36,12.66-7,19.37-6.38,26.88-12.79,54-14.08,81.56s2.85,56.06,16.41,80.14c7.66,13.59,18.08,25.4,26.91,38.25a192.79,192.79,0,0,1,21,39.93c2.23,5.8,4.29,11.89,8.52,16.45,7.1,7.64,18.64,9.18,29,8.42s20.81-3.34,31.16-2c9,1.14,17.35,5.16,26.09,7.62,22.4,6.3,46.24,2.16,69.13-2,17.16-3.13,34.49-6.32,50.44-13.36,18.59-8.2,34.86-21.46,54.21-27.64,9-2.89,18.64-4.2,27.18-8.36,11.77-5.73,20.33-16.28,28.51-26.51,6.23-7.8,12.67-16,14.44-25.86,1.44-7.93-.34-16-1-24.06-1.83-22.71,5.37-45,10-67.35s6.22-47-5.5-66.52c-2.61-4.36-5.84-8.37-8-13-5.62-12.07-3.15-26.71-8.77-38.79-7.66-16.46-27.32-22.9-41-34.81C390.15,98.39,381.73,79.19,365,70.1c-7.2-3.91-15.37-5.59-23.4-7.22-12.84-2.6-25.71-5.2-38.75-6.42-18.37-1.71-36.88-.65-55.3.41-20.1,1.16-44.47-1.12-63.82,4.55C174.47,64.14,145.32,75.51,145.32,88Z" transform="translate(-5.3 -7.59)"/><path class="cls-6" d="M178.16,449.62c-10.35-1.32-20.75,1.25-31.16,2a57.35,57.35,0,0,1-9.89-.07c6.28,2.64,13.68,3.16,20.59,2.65,10.41-.76,20.81-3.33,31.16-2l.34.05A61.77,61.77,0,0,0,178.16,449.62Z" transform="translate(-5.3 -7.59)"/><path class="cls-6" d="M462.35,198.14c-2.62-4.36-5.85-8.37-8-13-5.62-12.07-3.15-26.72-8.77-38.79-7.66-16.46-27.32-22.91-41-34.81C390.17,99.08,381.75,79.87,365,70.78c-6.5-3.52-13.78-5.23-21-6.73a53.24,53.24,0,0,1,10.34,4.16c16.73,9.08,25.15,28.29,39.53,40.77,13.71,11.91,33.37,18.35,41,34.81,5.62,12.08,3.15,26.72,8.77,38.79,2.15,4.61,5.38,8.62,8,13,11.72,19.54,10.09,44.2,5.5,66.52s-11.79,44.63-10,67.35c.64,8,2.41,16.13,1,24.06-1.78,9.82-8.21,18.06-14.45,25.86-8.17,10.23-16.74,20.78-28.5,26.51-8.54,4.16-18.14,5.46-27.19,8.36-19.35,6.18-35.61,19.44-54.2,27.64-15.95,7-33.28,10.23-50.44,13.36-20.07,3.66-40.87,7.3-60.79,3.89l2.36.71c22.4,6.3,46.25,2.15,69.14-2,17.15-3.14,34.49-6.32,50.44-13.36,18.58-8.21,34.85-21.46,54.2-27.65,9-2.89,18.64-4.19,27.18-8.35,11.77-5.73,20.34-16.28,28.51-26.51,6.23-7.8,12.67-16,14.44-25.86,1.44-7.93-.33-16-1-24.07-1.83-22.71,5.38-45,10-67.34S474.06,217.68,462.35,198.14Z" transform="translate(-5.3 -7.59)"/><path class="cls-7" d="M199.85,97.38c-4.66,8.81-4.62,20.13.79,28.48A31.64,31.64,0,0,0,211,135.55a41.13,41.13,0,0,0,30,4.84c7.74-1.76,15.19-6.08,19.26-12.9,2.72-4.58,3.78-10,4.26-15.27.62-6.78.09-14.35-4.67-19.23-3.06-3.14-7.4-4.63-11.56-6L236.48,83c-7.55-2.52-13.81-3.57-21.14-.09A33.86,33.86,0,0,0,199.85,97.38Z" transform="translate(-5.3 -7.59)"/><path class="cls-8" d="M198.55,94.42c-4.66,8.81-4.63,20.13.79,28.48a31.74,31.74,0,0,0,10.36,9.7,41.18,41.18,0,0,0,30,4.83c7.75-1.75,15.2-6.08,19.26-12.9,2.73-4.58,3.78-10,4.26-15.27.62-6.78.1-14.35-4.66-19.23-3.07-3.14-7.4-4.63-11.57-6l-11.83-3.94C227.63,77.55,221.37,76.5,214,80A33.79,33.79,0,0,0,198.55,94.42Z" transform="translate(-5.3 -7.59)"/><path class="cls-9" d="M201.19,100.75c-2.39,8.22-.76,17.79,5.17,24s14.7,8.14,23,9.68a25.28,25.28,0,0,0,8.3.58c6.49-1,11.17-6.57,14.88-12,3.18-4.64,6.17-9.59,7.23-15.11s-.16-11.78-4.34-15.55c-2.8-2.52-6.56-3.66-10.18-4.72l-14.87-4.36c-6.79-2-12.38-3.82-18.08,1A34.69,34.69,0,0,0,201.19,100.75Z" transform="translate(-5.3 -7.59)"/><path class="cls-10" d="M209,103.43a2.24,2.24,0,0,0,.05,1,2.32,2.32,0,0,0,2.53,1.16,6,6,0,0,0,4.58-3c1.33-2.34-.39-4.14-2.87-3.9C211.08,99,209.32,101.26,209,103.43Z" transform="translate(-5.3 -7.59)"/><path class="cls-10" d="M221.79,93a3,3,0,0,0,3.69-.55,3.13,3.13,0,0,0,.66-1.47c.46-2.63-2.67-5.79-5.3-4.17C218.62,88.19,219.78,91.92,221.79,93Z" transform="translate(-5.3 -7.59)"/><path class="cls-10" d="M226.13,117.76a5.19,5.19,0,0,0-.09,4.16,2.17,2.17,0,0,0,4.28-.11,3.87,3.87,0,0,0-.38-3.69,2.51,2.51,0,0,0-3.42-.56Z" transform="translate(-5.3 -7.59)"/><path class="cls-10" d="M210.77,121.43a2.76,2.76,0,0,0,3.19,1.19,5.65,5.65,0,0,0,2.86-2.23,5.35,5.35,0,0,0,1.06-2.1C218.82,113.65,207.51,114.76,210.77,121.43Z" transform="translate(-5.3 -7.59)"/><path class="cls-10" d="M230.16,105.94a11.37,11.37,0,0,0,2.75,2.26,2.37,2.37,0,0,0,1.41.53,1.61,1.61,0,0,0,1.08-.67,3,3,0,0,0,.34-2.74,4.67,4.67,0,0,0-1.79-2.21c-.69-.48-3.32-1.64-4.17-1.17C228.42,102.7,229.49,105.1,230.16,105.94Z" transform="translate(-5.3 -7.59)"/><path class="cls-10" d="M242.74,113.31c-.11.9.13,2.09,1,2.23a1.82,1.82,0,0,0,1.15-.35,10.18,10.18,0,0,0,4.18-4.93c.85-2.13-.43-4.71-2.84-3.33C244.33,108,243,111.23,242.74,113.31Z" transform="translate(-5.3 -7.59)"/><path class="cls-10" d="M244.12,92.31a1.4,1.4,0,0,0-2.16-.25,2,2,0,0,0-.24,2.36A3.79,3.79,0,0,0,243.65,96a7,7,0,0,0,3.26.55,2.09,2.09,0,0,0,1.79-.91,1.63,1.63,0,0,0-.54-1.89,4.85,4.85,0,0,0-1.95-.83l-2.29-.59Z" transform="translate(-5.3 -7.59)"/><path class="cls-10" d="M236.87,128.54c-.56.4-1.16,1-1.1,1.64a1.48,1.48,0,0,0,.67,1,4,4,0,0,0,3.46.22,12.6,12.6,0,0,0,3.87-1.91,3.94,3.94,0,0,0,1.46-1.68C247.09,123,237.82,127.85,236.87,128.54Z" transform="translate(-5.3 -7.59)"/><path class="cls-11" d="M208.7,92.78A37.78,37.78,0,0,0,205,98.35a19.39,19.39,0,0,0,2.68,21.06,7,7,0,0,0,2.57,2,3.09,3.09,0,0,0,3.11-.37c1.15-1,1.1-2.76.85-4.26a33.88,33.88,0,0,0-1.45-5.6c-.69-2-1.58-3.9-1.57-6,0-3.11,2.15-5.9,4.79-7.54a25.19,25.19,0,0,1,8.8-2.88,13.09,13.09,0,0,0,4.85-1.55c6.75-4.43-3.69-9.55-7.78-9.88C216.2,82.9,211.7,88.81,208.7,92.78Z" transform="translate(-5.3 -7.59)"/><path class="cls-7" d="M100.11,215.94c-4.65,8.81-4.62,20.13.8,28.48a31.51,31.51,0,0,0,10.36,9.69,41.13,41.13,0,0,0,30,4.84c7.75-1.76,15.19-6.08,19.26-12.9,2.72-4.58,3.78-10,4.26-15.27.62-6.78.1-14.35-4.66-19.23-3.07-3.14-7.4-4.63-11.57-6l-11.83-3.94c-7.55-2.52-13.82-3.57-21.15-.09A33.86,33.86,0,0,0,100.11,215.94Z" transform="translate(-5.3 -7.59)"/><path class="cls-8" d="M98.81,213c-4.66,8.81-4.63,20.13.79,28.48A31.7,31.7,0,0,0,110,251.15,41.13,41.13,0,0,0,140,256c7.75-1.76,15.2-6.08,19.26-12.9,2.73-4.58,3.78-10,4.27-15.27.61-6.78.09-14.35-4.67-19.23-3.07-3.14-7.4-4.63-11.56-6l-11.84-3.94c-7.55-2.52-13.81-3.57-21.14-.09A33.82,33.82,0,0,0,98.81,213Z" transform="translate(-5.3 -7.59)"/><path class="cls-9" d="M101.45,219.31c-2.39,8.22-.75,17.79,5.17,24s14.7,8.14,23,9.68a25.28,25.28,0,0,0,8.3.58c6.49-1,11.18-6.57,14.88-12,3.18-4.64,6.17-9.59,7.23-15.11s-.16-11.78-4.33-15.55c-2.81-2.52-6.57-3.66-10.19-4.72l-14.87-4.36c-6.79-2-12.38-3.82-18.07,1A34.64,34.64,0,0,0,101.45,219.31Z" transform="translate(-5.3 -7.59)"/><path class="cls-10" d="M109.3,222a2.24,2.24,0,0,0,0,1,2.33,2.33,0,0,0,2.53,1.16,6,6,0,0,0,4.58-3c1.33-2.34-.39-4.14-2.87-3.91C111.34,217.53,109.59,219.82,109.3,222Z" transform="translate(-5.3 -7.59)"/><path class="cls-10" d="M122.05,211.57a3,3,0,0,0,3.69-.55,3.13,3.13,0,0,0,.66-1.47c.46-2.63-2.67-5.79-5.3-4.17C118.88,206.74,120.05,210.48,122.05,211.57Z" transform="translate(-5.3 -7.59)"/><path class="cls-10" d="M126.39,236.32a5.19,5.19,0,0,0-.09,4.16,2.55,2.55,0,0,0,2.14,1.76,2.58,2.58,0,0,0,2.14-1.87,3.89,3.89,0,0,0-.37-3.69,2.52,2.52,0,0,0-3.43-.56Z" transform="translate(-5.3 -7.59)"/><path class="cls-10" d="M111,240a2.74,2.74,0,0,0,3.18,1.19,5.65,5.65,0,0,0,2.86-2.23,5.22,5.22,0,0,0,1.06-2.1C119.08,232.21,107.77,233.32,111,240Z" transform="translate(-5.3 -7.59)"/><path class="cls-10" d="M130.42,224.5a11.48,11.48,0,0,0,2.75,2.25,2.32,2.32,0,0,0,1.41.54,1.59,1.59,0,0,0,1.08-.67,3,3,0,0,0,.34-2.74,4.67,4.67,0,0,0-1.79-2.21c-.69-.48-3.31-1.64-4.16-1.17C128.68,221.26,129.75,223.66,130.42,224.5Z" transform="translate(-5.3 -7.59)"/><path class="cls-10" d="M143,231.87c-.12.9.12,2.09,1,2.23a1.8,1.8,0,0,0,1.15-.35,10.18,10.18,0,0,0,4.18-4.93c.85-2.13-.43-4.71-2.84-3.33C144.59,226.59,143.26,229.79,143,231.87Z" transform="translate(-5.3 -7.59)"/><path class="cls-10" d="M144.39,210.87a1.41,1.41,0,0,0-2.17-.25A2,2,0,0,0,142,213a3.77,3.77,0,0,0,1.92,1.59,7,7,0,0,0,3.26.55,2.12,2.12,0,0,0,1.8-.91,1.65,1.65,0,0,0-.55-1.89,4.87,4.87,0,0,0-1.94-.83l-2.3-.59Z" transform="translate(-5.3 -7.59)"/><path class="cls-10" d="M137.13,247.1c-.56.4-1.15,1-1.1,1.64a1.48,1.48,0,0,0,.67,1,4,4,0,0,0,3.46.22A12.6,12.6,0,0,0,144,248.1a4,4,0,0,0,1.47-1.68C147.35,241.53,138.09,246.41,137.13,247.1Z" transform="translate(-5.3 -7.59)"/><path class="cls-11" d="M109,211.34a37.36,37.36,0,0,0-3.71,5.56A19.37,19.37,0,0,0,107.93,238a6.92,6.92,0,0,0,2.57,2,3.08,3.08,0,0,0,3.1-.37c1.15-1,1.1-2.76.85-4.26a32.68,32.68,0,0,0-1.45-5.6c-.69-1.95-1.58-3.9-1.56-6,0-3.1,2.14-5.9,4.78-7.53a25,25,0,0,1,8.81-2.88,13.09,13.09,0,0,0,4.85-1.55c6.74-4.43-3.7-9.55-7.78-9.88C116.46,201.46,112,207.37,109,211.34Z" transform="translate(-5.3 -7.59)"/><path class="cls-7" d="M262.8,239.28c-4.65,8.8-4.62,20.12.8,28.48A31.61,31.61,0,0,0,274,277.45a41.23,41.23,0,0,0,30,4.84c7.75-1.76,15.19-6.08,19.26-12.91,2.72-4.58,3.78-10,4.26-15.26.62-6.79.1-14.36-4.66-19.23-3.07-3.14-7.4-4.63-11.57-6l-11.83-4c-7.55-2.52-13.82-3.56-21.15-.09A33.89,33.89,0,0,0,262.8,239.28Z" transform="translate(-5.3 -7.59)"/><path class="cls-8" d="M261.5,236.32c-4.66,8.8-4.63,20.12.79,28.48a31.81,31.81,0,0,0,10.36,9.69,41.23,41.23,0,0,0,30,4.84c7.75-1.76,15.2-6.08,19.26-12.91,2.73-4.58,3.78-10,4.27-15.26.61-6.79.09-14.36-4.67-19.23-3.06-3.14-7.4-4.63-11.56-6L298.13,222c-7.55-2.52-13.81-3.56-21.14-.09A33.84,33.84,0,0,0,261.5,236.32Z" transform="translate(-5.3 -7.59)"/><path class="cls-9" d="M264.14,242.64c-2.39,8.22-.75,17.8,5.17,24s14.71,8.14,23,9.68a25.57,25.57,0,0,0,8.3.58c6.49-1,11.18-6.57,14.88-12,3.18-4.65,6.17-9.59,7.23-15.12s-.15-11.78-4.33-15.54c-2.81-2.53-6.57-3.66-10.19-4.73l-14.87-4.35c-6.79-2-12.38-3.82-18.07,1A34.76,34.76,0,0,0,264.14,242.64Z" transform="translate(-5.3 -7.59)"/><path class="cls-10" d="M272,245.32a2.28,2.28,0,0,0,.05,1c.33.95,1.54,1.25,2.53,1.16a6,6,0,0,0,4.58-3c1.33-2.34-.39-4.15-2.87-3.91C274,240.87,272.28,243.16,272,245.32Z" transform="translate(-5.3 -7.59)"/><path class="cls-10" d="M284.74,234.91a3.07,3.07,0,0,0,3.69-.55,3.21,3.21,0,0,0,.66-1.48c.46-2.63-2.67-5.79-5.3-4.17C281.57,230.08,282.74,233.82,284.74,234.91Z" transform="translate(-5.3 -7.59)"/><path class="cls-10" d="M289.08,259.66a5.19,5.19,0,0,0-.09,4.16,2.55,2.55,0,0,0,2.14,1.76,2.58,2.58,0,0,0,2.14-1.88,3.88,3.88,0,0,0-.37-3.68,2.52,2.52,0,0,0-3.43-.56Z" transform="translate(-5.3 -7.59)"/><path class="cls-10" d="M273.73,263.33a2.75,2.75,0,0,0,3.18,1.19,5.76,5.76,0,0,0,2.86-2.23,5.2,5.2,0,0,0,1.06-2.11C281.77,255.55,270.46,256.65,273.73,263.33Z" transform="translate(-5.3 -7.59)"/><path class="cls-10" d="M293.11,247.84a11.48,11.48,0,0,0,2.75,2.25,2.31,2.31,0,0,0,1.41.53,1.59,1.59,0,0,0,1.08-.66,3,3,0,0,0,.34-2.75,4.64,4.64,0,0,0-1.79-2.2c-.69-.48-3.31-1.65-4.16-1.18C291.37,244.59,292.44,247,293.11,247.84Z" transform="translate(-5.3 -7.59)"/><path class="cls-10" d="M305.7,255.21c-.11.9.13,2.09,1,2.22a1.79,1.79,0,0,0,1.15-.34,10.22,10.22,0,0,0,4.18-4.93c.85-2.14-.42-4.71-2.84-3.34C307.28,249.93,306,253.13,305.7,255.21Z" transform="translate(-5.3 -7.59)"/><path class="cls-10" d="M307.08,234.2a1.42,1.42,0,0,0-2.17-.25,2,2,0,0,0-.23,2.37,3.87,3.87,0,0,0,1.92,1.59,6.89,6.89,0,0,0,3.26.54,2.11,2.11,0,0,0,1.8-.9,1.67,1.67,0,0,0-.55-1.9,4.66,4.66,0,0,0-1.94-.82l-2.3-.6Z" transform="translate(-5.3 -7.59)"/><path class="cls-10" d="M299.82,270.43c-.56.41-1.15,1-1.1,1.65a1.48,1.48,0,0,0,.67,1,4,4,0,0,0,3.47.22,12.22,12.22,0,0,0,3.86-1.91,3.91,3.91,0,0,0,1.47-1.68C310,264.87,300.78,269.74,299.82,270.43Z" transform="translate(-5.3 -7.59)"/><path class="cls-11" d="M271.65,234.68a37.36,37.36,0,0,0-3.71,5.56,19.35,19.35,0,0,0,2.68,21.06,7,7,0,0,0,2.57,2,3.12,3.12,0,0,0,3.1-.37c1.15-1,1.1-2.77.85-4.27a32.57,32.57,0,0,0-1.45-5.59c-.69-2-1.58-3.91-1.56-6,0-3.11,2.14-5.9,4.78-7.54a25.15,25.15,0,0,1,8.81-2.87,13.1,13.1,0,0,0,4.85-1.56c6.74-4.42-3.7-9.55-7.78-9.87C279.15,224.79,274.66,230.71,271.65,234.68Z" transform="translate(-5.3 -7.59)"/><path class="cls-7" d="M149.8,378.41c-4.66,8.8-4.63,20.12.79,28.48A31.61,31.61,0,0,0,161,416.58a41.23,41.23,0,0,0,30,4.84c7.75-1.76,15.2-6.08,19.26-12.91,2.73-4.58,3.78-10,4.26-15.26.62-6.79.1-14.36-4.66-19.23-3.07-3.14-7.4-4.63-11.57-6l-11.83-3.95c-7.55-2.52-13.81-3.56-21.15-.09A33.81,33.81,0,0,0,149.8,378.41Z" transform="translate(-5.3 -7.59)"/><path class="cls-8" d="M148.49,375.45c-4.66,8.8-4.63,20.12.79,28.48a31.81,31.81,0,0,0,10.36,9.69,41.26,41.26,0,0,0,30,4.84c7.74-1.76,15.19-6.08,19.25-12.91,2.73-4.57,3.78-10,4.27-15.26.62-6.78.09-14.35-4.67-19.23-3.06-3.14-7.4-4.63-11.56-6l-11.84-4c-7.55-2.51-13.81-3.56-21.14-.09A33.89,33.89,0,0,0,148.49,375.45Z" transform="translate(-5.3 -7.59)"/><path class="cls-9" d="M151.13,381.77c-2.39,8.23-.75,17.8,5.17,24s14.71,8.14,23,9.68a25.57,25.57,0,0,0,8.3.58c6.49-1,11.18-6.57,14.88-12,3.18-4.64,6.17-9.59,7.23-15.11s-.15-11.79-4.33-15.55c-2.81-2.53-6.57-3.66-10.19-4.72l-14.87-4.36c-6.79-2-12.38-3.82-18.07,1A34.76,34.76,0,0,0,151.13,381.77Z" transform="translate(-5.3 -7.59)"/><path class="cls-10" d="M159,384.45a2.28,2.28,0,0,0,.05,1c.33.95,1.54,1.25,2.54,1.16a6,6,0,0,0,4.58-3c1.33-2.34-.4-4.15-2.87-3.91C161,380,159.27,382.29,159,384.45Z" transform="translate(-5.3 -7.59)"/><path class="cls-10" d="M171.73,374a3.05,3.05,0,0,0,3.69-.55,3.21,3.21,0,0,0,.66-1.48c.46-2.63-2.67-5.79-5.29-4.17C168.57,369.21,169.73,373,171.73,374Z" transform="translate(-5.3 -7.59)"/><path class="cls-10" d="M176.07,398.79A5.19,5.19,0,0,0,176,403a2.55,2.55,0,0,0,2.15,1.76,2.58,2.58,0,0,0,2.13-1.87,3.89,3.89,0,0,0-.37-3.69,2.52,2.52,0,0,0-3.43-.56Z" transform="translate(-5.3 -7.59)"/><path class="cls-10" d="M160.72,402.46a2.75,2.75,0,0,0,3.18,1.19,5.78,5.78,0,0,0,2.87-2.23,5.31,5.31,0,0,0,1-2.11C168.76,394.68,157.45,395.78,160.72,402.46Z" transform="translate(-5.3 -7.59)"/><path class="cls-10" d="M180.1,387a11.48,11.48,0,0,0,2.75,2.25,2.31,2.31,0,0,0,1.42.53,1.56,1.56,0,0,0,1.07-.66,3,3,0,0,0,.34-2.75,4.69,4.69,0,0,0-1.79-2.2c-.69-.48-3.31-1.65-4.16-1.18C178.36,383.72,179.43,386.13,180.1,387Z" transform="translate(-5.3 -7.59)"/><path class="cls-10" d="M192.69,394.34c-.11.9.13,2.09,1,2.22a1.79,1.79,0,0,0,1.15-.34,10.2,10.2,0,0,0,4.19-4.93c.84-2.14-.43-4.71-2.85-3.34C194.27,389.06,192.94,392.26,192.69,394.34Z" transform="translate(-5.3 -7.59)"/><path class="cls-10" d="M194.07,373.34a1.41,1.41,0,0,0-2.17-.26,2,2,0,0,0-.23,2.37,3.82,3.82,0,0,0,1.92,1.59,6.91,6.91,0,0,0,3.26.54,2.11,2.11,0,0,0,1.8-.9,1.67,1.67,0,0,0-.55-1.9,4.93,4.93,0,0,0-1.94-.82l-2.3-.6Z" transform="translate(-5.3 -7.59)"/><path class="cls-10" d="M186.81,409.57c-.56.4-1.15.95-1.1,1.64a1.51,1.51,0,0,0,.67,1,4,4,0,0,0,3.47.22,12.22,12.22,0,0,0,3.86-1.91,3.91,3.91,0,0,0,1.47-1.68C197,404,187.77,408.87,186.81,409.57Z" transform="translate(-5.3 -7.59)"/><path class="cls-11" d="M158.64,373.81a38.16,38.16,0,0,0-3.71,5.56,19.35,19.35,0,0,0,2.68,21.06,7,7,0,0,0,2.57,2,3.12,3.12,0,0,0,3.1-.37c1.16-1,1.1-2.77.85-4.27a32.81,32.81,0,0,0-1.45-5.59c-.69-2-1.58-3.91-1.56-6,0-3.11,2.14-5.9,4.78-7.54a25.15,25.15,0,0,1,8.81-2.87,12.92,12.92,0,0,0,4.85-1.56c6.74-4.42-3.7-9.54-7.78-9.87C166.14,363.92,161.65,369.84,158.64,373.81Z" transform="translate(-5.3 -7.59)"/><path class="cls-7" d="M324.73,360.48c-4.66,8.81-4.63,20.13.79,28.48a31.7,31.7,0,0,0,10.36,9.69,41.16,41.16,0,0,0,30,4.84c7.74-1.76,15.19-6.08,19.25-12.9,2.73-4.58,3.78-10,4.27-15.27.62-6.78.09-14.35-4.67-19.23-3.06-3.14-7.4-4.63-11.56-6l-11.84-3.94c-7.55-2.52-13.81-3.57-21.14-.09A33.82,33.82,0,0,0,324.73,360.48Z" transform="translate(-5.3 -7.59)"/><path class="cls-8" d="M323.43,357.52c-4.66,8.81-4.63,20.13.79,28.48a31.64,31.64,0,0,0,10.36,9.7,41.18,41.18,0,0,0,30,4.83c7.75-1.76,15.2-6.08,19.26-12.9,2.73-4.58,3.78-10,4.26-15.27.62-6.78.1-14.35-4.66-19.23-3.07-3.14-7.4-4.63-11.57-6l-11.83-3.94c-7.55-2.52-13.81-3.57-21.15-.09A33.79,33.79,0,0,0,323.43,357.52Z" transform="translate(-5.3 -7.59)"/><path class="cls-9" d="M326.07,363.85c-2.39,8.22-.76,17.79,5.17,24s14.7,8.14,23,9.68a25.36,25.36,0,0,0,8.31.58c6.49-1,11.17-6.57,14.88-12,3.18-4.64,6.17-9.59,7.23-15.11s-.16-11.78-4.34-15.55c-2.8-2.52-6.56-3.66-10.19-4.72l-14.86-4.36c-6.79-2-12.38-3.82-18.08,1A34.69,34.69,0,0,0,326.07,363.85Z" transform="translate(-5.3 -7.59)"/><path class="cls-10" d="M333.91,366.53a2.24,2.24,0,0,0,.06,1,2.32,2.32,0,0,0,2.53,1.16,6,6,0,0,0,4.58-3c1.33-2.34-.39-4.14-2.87-3.9C336,362.07,334.2,364.36,333.91,366.53Z" transform="translate(-5.3 -7.59)"/><path class="cls-10" d="M346.66,356.11a3,3,0,0,0,3.69-.55,3,3,0,0,0,.66-1.47c.47-2.63-2.66-5.79-5.29-4.17C343.5,351.29,344.66,355,346.66,356.11Z" transform="translate(-5.3 -7.59)"/><path class="cls-10" d="M351,380.86a5.15,5.15,0,0,0-.09,4.16,2.53,2.53,0,0,0,2.14,1.76,2.6,2.6,0,0,0,2.14-1.87,3.9,3.9,0,0,0-.38-3.69,2.51,2.51,0,0,0-3.42-.56Z" transform="translate(-5.3 -7.59)"/><path class="cls-10" d="M335.65,384.53a2.75,2.75,0,0,0,3.19,1.19,5.69,5.69,0,0,0,2.86-2.23,5.35,5.35,0,0,0,1.06-2.1C343.69,376.75,332.38,377.86,335.65,384.53Z" transform="translate(-5.3 -7.59)"/><path class="cls-10" d="M355,369a11.24,11.24,0,0,0,2.74,2.25,2.35,2.35,0,0,0,1.42.54,1.57,1.57,0,0,0,1.07-.67,2.94,2.94,0,0,0,.35-2.74,4.67,4.67,0,0,0-1.79-2.21c-.69-.48-3.32-1.64-4.17-1.17C353.3,365.8,354.37,368.2,355,369Z" transform="translate(-5.3 -7.59)"/><path class="cls-10" d="M367.62,376.41c-.11.9.13,2.09,1,2.23a1.82,1.82,0,0,0,1.15-.35,10.18,10.18,0,0,0,4.18-4.93c.85-2.13-.43-4.71-2.84-3.33C369.2,371.13,367.88,374.33,367.62,376.41Z" transform="translate(-5.3 -7.59)"/><path class="cls-10" d="M369,355.41a1.41,1.41,0,0,0-2.17-.25,2,2,0,0,0-.23,2.36,3.79,3.79,0,0,0,1.93,1.59,7,7,0,0,0,3.26.55,2.09,2.09,0,0,0,1.79-.91,1.62,1.62,0,0,0-.55-1.89,4.75,4.75,0,0,0-1.94-.83l-2.29-.59Z" transform="translate(-5.3 -7.59)"/><path class="cls-10" d="M361.75,391.64c-.56.4-1.16,1-1.1,1.64a1.5,1.5,0,0,0,.66,1.05,4,4,0,0,0,3.47.22,12.71,12.71,0,0,0,3.87-1.91,3.94,3.94,0,0,0,1.46-1.68C372,386.07,362.7,391,361.75,391.64Z" transform="translate(-5.3 -7.59)"/><path class="cls-11" d="M333.58,355.88a37.78,37.78,0,0,0-3.72,5.57,19.39,19.39,0,0,0,2.68,21.06,7,7,0,0,0,2.57,2,3.09,3.09,0,0,0,3.11-.37c1.15-1,1.1-2.76.85-4.26a33.88,33.88,0,0,0-1.45-5.6c-.69-1.95-1.58-3.9-1.57-6,0-3.11,2.15-5.91,4.79-7.54a25.19,25.19,0,0,1,8.8-2.88,13.09,13.09,0,0,0,4.85-1.55c6.75-4.43-3.7-9.55-7.78-9.88C341.07,346,336.58,351.91,333.58,355.88Z" transform="translate(-5.3 -7.59)"/><path class="cls-7" d="M385.78,192.9c-4.66,8.8-4.62,20.12.79,28.48a31.74,31.74,0,0,0,10.37,9.69,41.22,41.22,0,0,0,30,4.84c7.75-1.76,15.19-6.08,19.26-12.91,2.72-4.58,3.78-10,4.26-15.26.62-6.79.09-14.36-4.66-19.23-3.07-3.14-7.4-4.63-11.57-6l-11.83-4c-7.56-2.52-13.82-3.56-21.15-.09A33.89,33.89,0,0,0,385.78,192.9Z" transform="translate(-5.3 -7.59)"/><path class="cls-8" d="M384.48,189.94c-4.66,8.8-4.63,20.12.79,28.48a31.71,31.71,0,0,0,10.36,9.69,41.23,41.23,0,0,0,30,4.84c7.75-1.76,15.2-6.08,19.26-12.91,2.73-4.58,3.78-10,4.26-15.26.62-6.79.1-14.36-4.66-19.23-3.07-3.14-7.4-4.63-11.57-6l-11.83-3.95c-7.55-2.52-13.81-3.56-21.14-.09A33.79,33.79,0,0,0,384.48,189.94Z" transform="translate(-5.3 -7.59)"/><path class="cls-9" d="M387.12,196.26c-2.39,8.22-.75,17.8,5.17,24s14.7,8.14,23,9.68a25.55,25.55,0,0,0,8.3.58c6.49-1,11.18-6.57,14.88-12,3.18-4.65,6.17-9.59,7.23-15.12s-.16-11.78-4.34-15.54c-2.8-2.53-6.56-3.66-10.18-4.73l-14.87-4.35c-6.79-2-12.38-3.82-18.07,1A34.69,34.69,0,0,0,387.12,196.26Z" transform="translate(-5.3 -7.59)"/><path class="cls-10" d="M395,198.94a2.28,2.28,0,0,0,0,1c.33,1,1.53,1.25,2.53,1.16a6,6,0,0,0,4.58-3c1.33-2.34-.39-4.15-2.87-3.91C397,194.49,395.26,196.78,395,198.94Z" transform="translate(-5.3 -7.59)"/><path class="cls-10" d="M407.72,188.53a3.07,3.07,0,0,0,3.69-.55,3.21,3.21,0,0,0,.66-1.48c.46-2.63-2.67-5.79-5.3-4.17C404.55,183.7,405.72,187.44,407.72,188.53Z" transform="translate(-5.3 -7.59)"/><path class="cls-10" d="M412.06,213.28a5.19,5.19,0,0,0-.09,4.16,2.55,2.55,0,0,0,2.14,1.76,2.58,2.58,0,0,0,2.14-1.88,3.88,3.88,0,0,0-.37-3.68,2.52,2.52,0,0,0-3.43-.56Z" transform="translate(-5.3 -7.59)"/><path class="cls-10" d="M396.71,217a2.75,2.75,0,0,0,3.18,1.19,5.76,5.76,0,0,0,2.86-2.23,5.2,5.2,0,0,0,1.06-2.11C404.75,209.17,393.44,210.27,396.71,217Z" transform="translate(-5.3 -7.59)"/><path class="cls-10" d="M416.09,201.46a11.11,11.11,0,0,0,2.75,2.25,2.31,2.31,0,0,0,1.41.53,1.64,1.64,0,0,0,1.08-.66,3,3,0,0,0,.34-2.75,4.64,4.64,0,0,0-1.79-2.2c-.69-.48-3.31-1.65-4.16-1.18C414.35,198.21,415.42,200.62,416.09,201.46Z" transform="translate(-5.3 -7.59)"/><path class="cls-10" d="M428.68,208.83c-.12.9.12,2.09,1,2.22a1.79,1.79,0,0,0,1.15-.34,10.18,10.18,0,0,0,4.18-4.93c.85-2.14-.43-4.71-2.84-3.34C430.26,203.55,428.93,206.75,428.68,208.83Z" transform="translate(-5.3 -7.59)"/><path class="cls-10" d="M430.05,187.83a1.4,1.4,0,0,0-2.16-.26,2,2,0,0,0-.24,2.37,3.93,3.93,0,0,0,1.93,1.59,6.87,6.87,0,0,0,3.26.54,2.08,2.08,0,0,0,1.79-.9,1.65,1.65,0,0,0-.54-1.9,4.7,4.7,0,0,0-1.95-.82l-2.29-.6Z" transform="translate(-5.3 -7.59)"/><path class="cls-10" d="M422.8,224.05c-.56.41-1.15,1-1.1,1.65a1.48,1.48,0,0,0,.67,1,4,4,0,0,0,3.46.22,12.17,12.17,0,0,0,3.87-1.91,3.82,3.82,0,0,0,1.46-1.68C433,218.49,423.75,223.36,422.8,224.05Z" transform="translate(-5.3 -7.59)"/><path class="cls-11" d="M394.63,188.3a37.36,37.36,0,0,0-3.71,5.56,19.37,19.37,0,0,0,2.67,21.06,7.07,7.07,0,0,0,2.58,2,3.12,3.12,0,0,0,3.1-.37c1.15-1,1.1-2.77.85-4.27a32.57,32.57,0,0,0-1.45-5.59c-.69-2-1.58-3.91-1.56-6,0-3.11,2.14-5.9,4.78-7.54a25.15,25.15,0,0,1,8.81-2.87,12.87,12.87,0,0,0,4.84-1.56c6.75-4.42-3.69-9.55-7.77-9.87C402.13,178.41,397.63,184.33,394.63,188.3Z" transform="translate(-5.3 -7.59)"/><path class="cls-7" d="M303.91,127.7c-4.66,8.8-4.62,20.12.79,28.48a31.74,31.74,0,0,0,10.37,9.69,41.17,41.17,0,0,0,30,4.83c7.75-1.75,15.19-6.07,19.26-12.9,2.72-4.58,3.78-10,4.26-15.26.62-6.79.09-14.36-4.66-19.23-3.07-3.14-7.41-4.64-11.57-6l-11.83-4c-7.56-2.52-13.82-3.56-21.15-.09A33.89,33.89,0,0,0,303.91,127.7Z" transform="translate(-5.3 -7.59)"/><path class="cls-8" d="M302.61,124.74c-4.66,8.8-4.63,20.12.79,28.48a31.71,31.71,0,0,0,10.36,9.69,41.18,41.18,0,0,0,30,4.83c7.75-1.75,15.2-6.07,19.26-12.9,2.73-4.58,3.78-10,4.26-15.26.62-6.79.1-14.36-4.66-19.23-3.07-3.14-7.4-4.64-11.57-6l-11.83-4c-7.55-2.52-13.81-3.56-21.14-.09A33.79,33.79,0,0,0,302.61,124.74Z" transform="translate(-5.3 -7.59)"/><path class="cls-9" d="M305.25,131.06c-2.39,8.22-.75,17.79,5.17,24s14.7,8.15,23,9.68a25.28,25.28,0,0,0,8.3.59c6.49-1,11.18-6.57,14.88-12,3.18-4.64,6.17-9.58,7.23-15.11s-.16-11.78-4.34-15.54c-2.8-2.53-6.56-3.66-10.18-4.73l-14.87-4.35c-6.79-2-12.38-3.82-18.07,1A34.69,34.69,0,0,0,305.25,131.06Z" transform="translate(-5.3 -7.59)"/><path class="cls-10" d="M313.1,133.74a2.28,2.28,0,0,0,0,1,2.35,2.35,0,0,0,2.53,1.16,6,6,0,0,0,4.58-3c1.33-2.33-.39-4.14-2.87-3.9C315.14,129.29,313.38,131.58,313.1,133.74Z" transform="translate(-5.3 -7.59)"/><path class="cls-10" d="M325.85,123.33a3.07,3.07,0,0,0,3.69-.55,3.21,3.21,0,0,0,.66-1.48c.46-2.63-2.67-5.79-5.3-4.17C322.68,118.5,323.84,122.24,325.85,123.33Z" transform="translate(-5.3 -7.59)"/><path class="cls-10" d="M330.19,148.08a5.19,5.19,0,0,0-.09,4.16,2.17,2.17,0,0,0,4.28-.12,3.87,3.87,0,0,0-.37-3.68,2.53,2.53,0,0,0-3.43-.57Z" transform="translate(-5.3 -7.59)"/><path class="cls-10" d="M314.84,151.74a2.72,2.72,0,0,0,3.18,1.19,5.68,5.68,0,0,0,2.86-2.22,5.26,5.26,0,0,0,1.06-2.11C322.88,144,311.57,145.07,314.84,151.74Z" transform="translate(-5.3 -7.59)"/><path class="cls-10" d="M334.22,136.26a11.57,11.57,0,0,0,2.75,2.25,2.31,2.31,0,0,0,1.41.53,1.64,1.64,0,0,0,1.08-.66,3,3,0,0,0,.34-2.75,4.64,4.64,0,0,0-1.79-2.2c-.69-.48-3.32-1.65-4.17-1.18C332.48,133,333.55,135.42,334.22,136.26Z" transform="translate(-5.3 -7.59)"/><path class="cls-10" d="M346.8,143.63c-.11.9.13,2.09,1,2.22a1.81,1.81,0,0,0,1.15-.34,10.25,10.25,0,0,0,4.18-4.94c.85-2.13-.43-4.7-2.84-3.33C348.39,138.35,347.06,141.55,346.8,143.63Z" transform="translate(-5.3 -7.59)"/><path class="cls-10" d="M348.18,122.62a1.4,1.4,0,0,0-2.16-.25,2,2,0,0,0-.24,2.36,3.9,3.9,0,0,0,1.93,1.6,7,7,0,0,0,3.26.54,2.07,2.07,0,0,0,1.79-.91,1.64,1.64,0,0,0-.54-1.89,4.7,4.7,0,0,0-2-.82l-2.29-.6Z" transform="translate(-5.3 -7.59)"/><path class="cls-10" d="M340.93,158.85c-.56.41-1.15,1-1.1,1.65a1.48,1.48,0,0,0,.67,1,4,4,0,0,0,3.46.22,12.17,12.17,0,0,0,3.87-1.91,3.82,3.82,0,0,0,1.46-1.68C351.15,153.28,341.88,158.16,340.93,158.85Z" transform="translate(-5.3 -7.59)"/><path class="cls-11" d="M312.76,123.09a38.31,38.31,0,0,0-3.72,5.57,19.39,19.39,0,0,0,2.68,21.06,7,7,0,0,0,2.58,2,3.12,3.12,0,0,0,3.1-.37c1.15-1,1.1-2.77.85-4.27a33.88,33.88,0,0,0-1.45-5.6c-.69-1.95-1.58-3.9-1.56-6,0-3.11,2.14-5.9,4.78-7.54a25.19,25.19,0,0,1,8.8-2.88,12.85,12.85,0,0,0,4.85-1.55c6.75-4.42-3.69-9.55-7.77-9.88C320.26,113.21,315.76,119.13,312.76,123.09Z" transform="translate(-5.3 -7.59)"/><path class="cls-12" d="M157.74,117c.4,4.64,1.85,9.3,3.29,13.89a4,4,0,0,0,.48,1.12,2.11,2.11,0,0,0,1.1.77,5.27,5.27,0,0,0,3.85-.4,1.35,1.35,0,0,0,.67-.46c.38-.57.11-1.58-.23-2.38-2-4.52-6-7.91-7-12.68-.18-.83.29-5-.76-4.71C158.39,112.35,157.67,116.25,157.74,117Z" transform="translate(-5.3 -7.59)"/><path class="cls-12" d="M186.42,103.74c1.78.3,3.32,2.4,4.5,4.4a61.31,61.31,0,0,1,2.94,5.56,7,7,0,0,1,.59,1.58,3.58,3.58,0,0,1-.59,2.8,6.1,6.1,0,0,1-1.91,1.54,1.65,1.65,0,0,1-1,.34,2.12,2.12,0,0,1-1.37-1.27,7.32,7.32,0,0,1-.58-2,45.19,45.19,0,0,1-.82-10.21,1.56,1.56,0,0,1,.27-1,.48.48,0,0,1,.75.3Z" transform="translate(-5.3 -7.59)"/><path class="cls-13" d="M197.92,148.7a4.12,4.12,0,0,0,.88,2.34,1.77,1.77,0,0,0,1.24.44,4.81,4.81,0,0,0,2.58-.67,1.36,1.36,0,0,0,.69-.79,3.29,3.29,0,0,0-.29-1.83,41.62,41.62,0,0,0-4-8c-.75-1.15-4-2.81-3.55-.34a41.33,41.33,0,0,0,1.45,4.17A36.05,36.05,0,0,1,197.92,148.7Z" transform="translate(-5.3 -7.59)"/><path class="cls-13" d="M179.89,150.58a3.8,3.8,0,0,1,.49.91,4.44,4.44,0,0,1,.18,1.14,14.6,14.6,0,0,0,1.55,5.32,3,3,0,0,1,.38,1,1.37,1.37,0,0,1-.18.75c-.73,1.29-2.54.93-3.72-.33a11.39,11.39,0,0,1-2.29-4.87,35.78,35.78,0,0,1-.9-4.52c-.13-1,.14-3.4.78-4C177.56,144.73,179.13,149.4,179.89,150.58Z" transform="translate(-5.3 -7.59)"/><path class="cls-13" d="M160.13,137.41c2.14-2.63,6-2.78,9.14-.33.35-1.73.71-3.45,1.06-5.18-1.43-2.66-3-5.5-5.26-6.83-1.09-.66-2.61-1.43-2.61-2.84,0-.42.62.44.79.13a12.43,12.43,0,0,1,4.69-4.49,30.22,30.22,0,0,1,18.13-4.24,2.73,2.73,0,0,1,2.23,1.06c.86,1.29-.36,1.87-1.49,2.06.79,2.53,1.57,5.06,2.36,7.59l3.26,1.22a6.63,6.63,0,0,1,8.37-5c3.64,1,7.08,4.83,8.84,9.28.39,1,1,2.28,1.78,2.15a1,1,0,0,0,.59-.48c1.38-2.06.49-5.77-1-8.53a19.17,19.17,0,0,0-7.72-8,10.22,10.22,0,0,0-8.91-.57,21.59,21.59,0,0,0-3.59,2.29c-.37.26-.82.51-1.26.21-.59-.4-.67-1.42-.63-2.2.1-2.25.11-4.84-1.2-6.81-1.58-2.41-4.21-2.6-6.36-2.39a39.94,39.94,0,0,0-18.93,6.5,8.11,8.11,0,0,0-2.55,2.44,5.6,5.6,0,0,0-.67,4.1c.68,3,3.57,4.88,4.88,7.74a4.09,4.09,0,0,1,.43,1.65,1.94,1.94,0,0,1-1.44,1.89,10.42,10.42,0,0,1-2.38.11,5.87,5.87,0,0,0-5.11,4.16,12.23,12.23,0,0,0,.49,8.5c.25.61,1.51,3.25,2.25,2.53.25-.25,0-1.4,0-1.82a12.15,12.15,0,0,1,.16-2A8.28,8.28,0,0,1,160.13,137.41Z" transform="translate(-5.3 -7.59)"/><path class="cls-12" d="M159.9,157.69a14.1,14.1,0,0,0,2.43,3.81,5.65,5.65,0,0,0,4.41,1.66c3.9-.29,6.43-4.16,8.63-7.8.84.58,1.16,1.91,1.39,3,.66,3.33,1.75,7.09,4.17,9,2,1.53,4.18,1.34,6.18,1,6.3-1,12.59-2.62,17.55-6.82a10.23,10.23,0,0,0,2.94-3.72,8.12,8.12,0,0,0,.29-5.6c-1.22-3.9-5-5.89-7-9.42,4.56-.21,9.23-.82,12.62-4a8.59,8.59,0,0,0,2.77-5,14,14,0,0,0-1.64-8.09,27.53,27.53,0,0,0-5-6.59,60,60,0,0,1,1,9.62,8,8,0,0,1-.29,2.73,4.4,4.4,0,0,1-1.58,1.93,17,17,0,0,1-8.24,3.44c-.88.11-1.87.25-2.23,1.21a3.25,3.25,0,0,0-.08,1.47c.25,2,1.37,3.94,2.32,5.8s1.83,4.05,1.49,5.9c-.42,2.29-2.43,3.05-4.14,3.79-3.64,1.57-6.84,4.17-10.63,5.31a8.77,8.77,0,0,1-6.61-.35,9.33,9.33,0,0,1-4.73-6.69c-.15-1.13,0-2.24-.22-3.38s-.8-2.42-1.69-2.74-1.6.45-2.09,1.25c-1.68,2.75-2.91,6.68-5.88,6.83-1.69.09-3.46-1.13-5.09-2.35a25.53,25.53,0,0,1-3.27-2.77c-.83-.86-1.58-2.5-2.45-3.12A69.07,69.07,0,0,0,159.9,157.69Z" transform="translate(-5.3 -7.59)"/><path class="cls-14" d="M200.77,112.81a8.68,8.68,0,0,0-9.21,2.75l-2.15-.54s2.42-4.48.26-8.83c-2-4.06-11.68-5.39-27.55,3.34-9.59,5.27.43,15.93.43,15.93l.24,3.44s-5.95-1.15-8.4,2.9-1.17,17.46,7.13,24.44,11.7-7.73,11.7-7.73l2.23,2.28s-.8,8.94,4.56,11.74,21.69-4.27,24.82-9.28-5.16-12.91-5.16-12.91l2.7-2s10.72.08,11.76-8.69S206.87,114.36,200.77,112.81Zm9,16.77c-.86,7.27-11.72,5.09-11.72,5.09l-2.58,4s6.89,6.56,4.29,10.71-16.15,10-20.59,7.69S177,145.8,177,145.8L172.21,144s-1.48,13.58-8.36,7.79-8.4-15.86-6.37-19.22,9.58-1,9.58-1l-.65-5.91s-10-8.18-2.06-12.55c13.16-7.24,21.84-6.4,22.86-2.78,1.06,3.79.39,5.71-.05,6.41h0l3.2,3.34s3.4-5.9,8.45-4.62S210.65,122.31,209.79,129.58Z" transform="translate(-5.3 -7.59)"/><path class="cls-12" d="M86,273c.4,4.64,1.85,9.31,3.29,13.89a3.87,3.87,0,0,0,.48,1.12,2.13,2.13,0,0,0,1.1.78,5.32,5.32,0,0,0,3.85-.41,1.29,1.29,0,0,0,.67-.46c.38-.57.11-1.58-.23-2.38-2-4.52-6-7.9-7-12.67-.17-.84.3-5-.75-4.72C86.63,268.29,85.92,272.19,86,273Z" transform="translate(-5.3 -7.59)"/><path class="cls-12" d="M114.66,259.68c1.79.29,3.32,2.4,4.5,4.4,1.07,1.79,2,3.65,3,5.56a6.81,6.81,0,0,1,.58,1.58,3.56,3.56,0,0,1-.59,2.79,6.16,6.16,0,0,1-1.91,1.55,1.57,1.57,0,0,1-1,.33,2.13,2.13,0,0,1-1.38-1.27,7.83,7.83,0,0,1-.58-2,45.1,45.1,0,0,1-.82-10.21,1.56,1.56,0,0,1,.27-1,.48.48,0,0,1,.75.3Z" transform="translate(-5.3 -7.59)"/><path class="cls-13" d="M126.17,304.63A4.1,4.1,0,0,0,127,307a1.84,1.84,0,0,0,1.24.44,4.79,4.79,0,0,0,2.58-.67,1.41,1.41,0,0,0,.69-.8,3.09,3.09,0,0,0-.29-1.82,41.59,41.59,0,0,0-4-8c-.76-1.16-4-2.81-3.56-.34a41.43,41.43,0,0,0,1.46,4.17A39.59,39.59,0,0,1,126.17,304.63Z" transform="translate(-5.3 -7.59)"/><path class="cls-13" d="M108.14,306.51a3.26,3.26,0,0,1,.67,2.06,14.51,14.51,0,0,0,1.54,5.32,2.77,2.77,0,0,1,.38,1,1.31,1.31,0,0,1-.18.75c-.72,1.29-2.54.93-3.71-.33a11.44,11.44,0,0,1-2.3-4.88,39.7,39.7,0,0,1-.9-4.52c-.13-1,.14-3.4.78-4C105.8,300.67,107.37,305.34,108.14,306.51Z" transform="translate(-5.3 -7.59)"/><path class="cls-13" d="M88.37,293.35c2.15-2.64,6-2.78,9.14-.34.36-1.72.71-3.45,1.07-5.17-1.43-2.66-3-5.5-5.26-6.84-1.1-.65-2.62-1.43-2.61-2.84,0-.41.61.44.78.13a12.43,12.43,0,0,1,4.69-4.49,30.22,30.22,0,0,1,18.13-4.23,2.7,2.7,0,0,1,2.23,1.06c.86,1.29-.35,1.86-1.49,2.06.79,2.53,1.58,5.05,2.36,7.58l3.26,1.23a6.65,6.65,0,0,1,8.37-5c3.64,1,7.09,4.83,8.84,9.29.4,1,1,2.27,1.78,2.14a1,1,0,0,0,.6-.48c1.38-2.06.49-5.77-1-8.53a19.15,19.15,0,0,0-7.71-8,10.24,10.24,0,0,0-8.92-.56,21.35,21.35,0,0,0-3.59,2.29c-.36.25-.81.51-1.25.21-.6-.41-.67-1.43-.64-2.2.11-2.26.11-4.85-1.19-6.82-1.59-2.4-4.22-2.59-6.36-2.39A40.09,40.09,0,0,0,90.67,268a8.33,8.33,0,0,0-2.55,2.44,5.61,5.61,0,0,0-.66,4.1c.67,3.05,3.56,4.89,4.88,7.74a4,4,0,0,1,.42,1.65,1.92,1.92,0,0,1-1.43,1.9,11.73,11.73,0,0,1-2.38.11,5.85,5.85,0,0,0-5.12,4.16,12.29,12.29,0,0,0,.49,8.5c.26.61,1.51,3.24,2.25,2.52.25-.24,0-1.4,0-1.81a12.19,12.19,0,0,1,.16-2A8.34,8.34,0,0,1,88.37,293.35Z" transform="translate(-5.3 -7.59)"/><path class="cls-12" d="M88.15,313.62a14,14,0,0,0,2.43,3.81A5.61,5.61,0,0,0,95,319.1c3.9-.3,6.42-4.17,8.62-7.81.84.59,1.16,1.92,1.39,3,.67,3.33,1.76,7.09,4.17,9,2,1.54,4.19,1.34,6.19,1,6.3-1,12.58-2.61,17.54-6.82a10.19,10.19,0,0,0,2.95-3.71,8.21,8.21,0,0,0,.28-5.61c-1.21-3.9-5-5.88-6.95-9.41,4.55-.21,9.23-.82,12.62-4a8.6,8.6,0,0,0,2.76-5,13.92,13.92,0,0,0-1.64-8.09,27.5,27.5,0,0,0-4.95-6.58,60.91,60.91,0,0,1,1,9.61,7.61,7.61,0,0,1-.29,2.74,4.36,4.36,0,0,1-1.58,1.92,16.89,16.89,0,0,1-8.24,3.44c-.87.11-1.87.25-2.22,1.21a3.29,3.29,0,0,0-.09,1.48,18.4,18.4,0,0,0,2.33,5.8c1,1.86,1.83,4,1.49,5.9-.42,2.29-2.43,3.05-4.15,3.79-3.63,1.57-6.84,4.17-10.63,5.31A8.7,8.7,0,0,1,109,316a9.26,9.26,0,0,1-4.73-6.68c-.16-1.14,0-2.25-.23-3.38s-.8-2.43-1.69-2.75-1.6.46-2.09,1.25c-1.68,2.75-2.9,6.68-5.88,6.84-1.68.09-3.45-1.14-5.09-2.35A25.5,25.5,0,0,1,86,306.14c-.83-.86-1.58-2.49-2.44-3.12A67.7,67.7,0,0,0,88.15,313.62Z" transform="translate(-5.3 -7.59)"/><path class="cls-14" d="M129,268.75a8.71,8.71,0,0,0-9.22,2.75l-2.14-.55s2.42-4.47.26-8.83c-2-4.06-11.69-5.38-27.56,3.34-9.59,5.28.43,15.94.43,15.94l.25,3.43s-6-1.15-8.41,2.9-1.17,17.47,7.13,24.44,11.7-7.73,11.7-7.73l2.24,2.29s-.81,8.93,4.55,11.73,21.69-4.26,24.83-9.27-5.17-12.91-5.17-12.91l2.7-2s10.73.07,11.77-8.69S135.11,270.29,129,268.75Zm9,16.76c-.87,7.27-11.73,5.1-11.73,5.1l-2.57,4s6.88,6.55,4.28,10.7-16.14,10-20.59,7.69-2.15-11.24-2.15-11.24L100.45,300s-1.47,13.58-8.35,7.8-8.41-15.86-6.37-19.22,9.58-1.05,9.58-1.05l-.66-5.91s-10-8.19-2.05-12.56c13.16-7.24,21.83-6.39,22.85-2.77,1.07,3.79.4,5.7,0,6.41h0l3.2,3.34s3.4-5.89,8.46-4.61S138.9,278.24,138,285.51Z" transform="translate(-5.3 -7.59)"/><path class="cls-12" d="M250.56,250.79c-3,3.57-5.26,7.9-7.48,12.16a4,4,0,0,0-.45,1.13,2.24,2.24,0,0,0,.23,1.33,5.32,5.32,0,0,0,3,2.43,1.3,1.3,0,0,0,.8.15c.67-.14,1.19-1,1.51-1.85,1.81-4.58,1.34-9.83,4-13.93.46-.71,3.7-3.3,2.79-3.87C254.32,247.94,251.06,250.2,250.56,250.79Z" transform="translate(-5.3 -7.59)"/><path class="cls-12" d="M280.25,261.63c1.05,1.47.65,4,.08,6.29a62.19,62.19,0,0,1-1.84,6,6.85,6.85,0,0,1-.7,1.53A3.59,3.59,0,0,1,275.4,277a6.2,6.2,0,0,1-2.44-.26,1.55,1.55,0,0,1-1-.48,2.14,2.14,0,0,1-.08-1.87,7.81,7.81,0,0,1,1-1.85,44.68,44.68,0,0,1,6.63-7.81,1.62,1.62,0,0,1,.88-.51.48.48,0,0,1,.32.75Z" transform="translate(-5.3 -7.59)"/><path class="cls-13" d="M256.66,301.59a4.13,4.13,0,0,0-1,2.28,1.82,1.82,0,0,0,.57,1.18,4.72,4.72,0,0,0,2.3,1.35,1.38,1.38,0,0,0,1.05-.07,3.11,3.11,0,0,0,1.08-1.5,41.51,41.51,0,0,0,2.77-8.49c.28-1.35-.82-4.78-2.28-2.74a39.36,39.36,0,0,0-1.91,4A38.44,38.44,0,0,1,256.66,301.59Z" transform="translate(-5.3 -7.59)"/><path class="cls-13" d="M242.56,290.19a4.18,4.18,0,0,1-.29,1,4.61,4.61,0,0,1-.68.94,14.39,14.39,0,0,0-2.66,4.86,2.93,2.93,0,0,1-.45,1,1.38,1.38,0,0,1-.66.41c-1.42.4-2.45-1.13-2.39-2.86a11.31,11.31,0,0,1,1.81-5.07,37.68,37.68,0,0,1,2.56-3.84c.59-.78,2.5-2.31,3.37-2.27C245,284.4,242.85,288.82,242.56,290.19Z" transform="translate(-5.3 -7.59)"/><path class="cls-13" d="M237.86,266.91c3.38-.35,6.23,2.29,6.71,6.22l4.41-2.92c.86-2.89,1.74-6,1.1-8.55-.31-1.23-.84-2.85.15-3.85.3-.29.13.75.47.65a12.39,12.39,0,0,1,6.49.13,30.24,30.24,0,0,1,15.83,9.8,2.72,2.72,0,0,1,.83,2.32c-.3,1.52-1.57,1.07-2.51.41l-3.68,7,1.44,3.17a6.65,6.65,0,0,1,9.43,2.4c1.84,3.3,1.6,8.42-.3,12.82-.42,1-.88,2.32-.25,2.77a1,1,0,0,0,.76.08c2.43-.48,4.42-3.74,5.32-6.73a19.16,19.16,0,0,0,.2-11.13,10.26,10.26,0,0,0-5.92-6.69,22.19,22.19,0,0,0-4.16-.92c-.44-.07-.94-.21-1-.73-.13-.71.54-1.49,1.11-2,1.67-1.52,3.5-3.35,4-5.67.57-2.82-1.15-4.81-2.81-6.18a40,40,0,0,0-18-8.76,8.22,8.22,0,0,0-3.53-.08,5.61,5.61,0,0,0-3.37,2.44c-1.67,2.63-.92,6-2,8.93a4,4,0,0,1-.86,1.46,1.93,1.93,0,0,1-2.35.33,11.09,11.09,0,0,1-1.77-1.6,5.86,5.86,0,0,0-6.55-.67,12.27,12.27,0,0,0-5.66,6.37c-.25.61-1.22,3.36-.19,3.38.35,0,1-1,1.29-1.28a11.84,11.84,0,0,1,1.54-1.32A8.31,8.31,0,0,1,237.86,266.91Z" transform="translate(-5.3 -7.59)"/><path class="cls-12" d="M223.39,281.11a13.91,13.91,0,0,0-1,4.42,5.63,5.63,0,0,0,2,4.29c3,2.55,7.49,1.59,11.61.56.19,1-.53,2.18-1.17,3.14-1.88,2.83-3.76,6.27-3.38,9.31.3,2.47,2,3.9,3.66,5.09,5.16,3.74,10.76,7,17.24,7.55a10.06,10.06,0,0,0,4.71-.55,8.22,8.22,0,0,0,4.16-3.76c1.89-3.62.63-7.69,1.72-11.58,3.37,3.07,7.11,5.93,11.73,6.1a8.68,8.68,0,0,0,5.49-1.59,13.92,13.92,0,0,0,4.55-6.89,27.21,27.21,0,0,0,1.14-8.16,60.62,60.62,0,0,1-6.1,7.5,7.76,7.76,0,0,1-2.13,1.73,4.37,4.37,0,0,1-2.48.25,17,17,0,0,1-8.26-3.39c-.7-.53-1.51-1.14-2.43-.71a3.31,3.31,0,0,0-1.11,1c-1.25,1.62-1.8,3.75-2.44,5.75s-1.56,4.15-3.12,5.23c-1.91,1.32-3.87.44-5.61-.25-3.68-1.45-7.78-1.87-11.27-3.74a8.74,8.74,0,0,1-4.43-4.92,9.32,9.32,0,0,1,1.37-8.07c.69-.91,1.55-1.62,2.23-2.55s1.14-2.28.74-3.14-1.45-.81-2.36-.59c-3.14.76-6.78,2.68-9,.69-1.26-1.13-1.65-3.24-1.95-5.25a26,26,0,0,1-.36-4.28c0-1.19.65-2.88.47-3.93A68.49,68.49,0,0,0,223.39,281.11Z" transform="translate(-5.3 -7.59)"/><path class="cls-14" d="M284,278.19a8.71,8.71,0,0,0-8.47-4.56l-1.13-1.9s4.87-1.46,6.42-6.07c1.44-4.3-4.48-12.07-21.88-17.09-10.51-3-10.94,11.59-10.94,11.59l-2.25,2.61s-3.4-5-8-3.89-13.16,11.55-12.21,22.35S239.3,284,239.3,284l0,3.19s-6.88,5.76-5.06,11.52,18.37,12.3,24.13,11,5.45-12.79,5.45-12.79l3.33.49s7.54,7.62,14.47,2.14S287.24,283.59,284,278.19Zm-5.45,18.24c-5.74,4.54-11.9-4.67-11.9-4.67l-4.62,1s.25,9.5-4.53,10.61-18.5-4.31-20-9.09,6.42-9.48,6.42-9.48l-2.18-4.67s-10.63,8.59-11.42-.37,5.25-17.17,9.06-18.11,7.53,6,7.53,6l3.71-4.65s-1.31-12.86,7.4-10.34c14.44,4.16,20,10.88,18.15,14.17-1.92,3.44-3.75,4.32-4.55,4.51h0l-.09,4.62s6.57-1.77,9.24,2.7S284.31,291.89,278.56,296.43Z" transform="translate(-5.3 -7.59)"/><path class="cls-12" d="M321.05,68.14c-3,3.56-5.26,7.89-7.47,12.15a4.26,4.26,0,0,0-.46,1.14,2.24,2.24,0,0,0,.23,1.33,5.36,5.36,0,0,0,3,2.43,1.46,1.46,0,0,0,.8.15c.67-.14,1.2-1,1.52-1.86,1.81-4.57,1.33-9.82,4-13.92.47-.71,3.71-3.3,2.8-3.87C324.81,65.28,321.55,67.54,321.05,68.14Z" transform="translate(-5.3 -7.59)"/><path class="cls-12" d="M350.74,79c1.06,1.47.66,4,.09,6.29-.51,2-1.13,4-1.84,6a7.57,7.57,0,0,1-.7,1.53,3.58,3.58,0,0,1-2.4,1.56,6,6,0,0,1-2.44-.25,1.66,1.66,0,0,1-1-.48,2.18,2.18,0,0,1-.08-1.87,7.81,7.81,0,0,1,1-1.85,44.36,44.36,0,0,1,6.64-7.81,1.53,1.53,0,0,1,.88-.51.48.48,0,0,1,.32.75Z" transform="translate(-5.3 -7.59)"/><path class="cls-13" d="M327.15,118.94a4.11,4.11,0,0,0-1,2.28,1.73,1.73,0,0,0,.57,1.18,4.7,4.7,0,0,0,2.3,1.35,1.43,1.43,0,0,0,1.05-.07,3.18,3.18,0,0,0,1.08-1.5,41.47,41.47,0,0,0,2.76-8.49c.28-1.35-.82-4.78-2.28-2.75a41.82,41.82,0,0,0-1.91,4A38.44,38.44,0,0,1,327.15,118.94Z" transform="translate(-5.3 -7.59)"/><path class="cls-13" d="M313.06,107.54a3.78,3.78,0,0,1-.3,1,4.51,4.51,0,0,1-.68.94,14.3,14.3,0,0,0-2.66,4.86,2.83,2.83,0,0,1-.45,1,1.31,1.31,0,0,1-.65.41c-1.43.4-2.46-1.14-2.4-2.86a11.53,11.53,0,0,1,1.82-5.08,38.59,38.59,0,0,1,2.55-3.83c.59-.78,2.5-2.31,3.37-2.28C315.53,101.75,313.35,106.17,313.06,107.54Z" transform="translate(-5.3 -7.59)"/><path class="cls-13" d="M308.35,84.26c3.38-.35,6.24,2.29,6.71,6.22l4.41-2.92c.87-2.89,1.75-6,1.1-8.55-.31-1.23-.84-2.86.16-3.85.29-.29.12.74.46.65a12.38,12.38,0,0,1,6.49.12,30.26,30.26,0,0,1,15.83,9.8,2.69,2.69,0,0,1,.83,2.33c-.3,1.52-1.56,1.07-2.5.41l-3.69,7c.49,1,1,2.11,1.45,3.16a6.64,6.64,0,0,1,9.42,2.41c1.84,3.3,1.61,8.42-.29,12.81-.43,1-.89,2.33-.26,2.78a1,1,0,0,0,.76.08c2.44-.49,4.42-3.74,5.33-6.74a19.21,19.21,0,0,0,.19-11.12,10.21,10.21,0,0,0-5.92-6.69,22,22,0,0,0-4.16-.92c-.44-.07-.93-.21-1-.73-.14-.71.53-1.49,1.1-2,1.67-1.52,3.5-3.35,4-5.67.57-2.82-1.16-4.81-2.82-6.18a40,40,0,0,0-18-8.77,8.21,8.21,0,0,0-3.53-.07A5.65,5.65,0,0,0,321,70.28c-1.68,2.64-.93,6-2,8.93a3.93,3.93,0,0,1-.87,1.47,1.93,1.93,0,0,1-2.35.33,10.61,10.61,0,0,1-1.76-1.6,5.86,5.86,0,0,0-6.56-.67,12.27,12.27,0,0,0-5.66,6.37c-.25.61-1.22,3.36-.18,3.37.34,0,1-1,1.28-1.27a12.63,12.63,0,0,1,1.54-1.33A8.39,8.39,0,0,1,308.35,84.26Z" transform="translate(-5.3 -7.59)"/><path class="cls-12" d="M293.88,98.46a13.91,13.91,0,0,0-1,4.42,5.63,5.63,0,0,0,1.95,4.29c3,2.54,7.49,1.59,11.62.56.18,1-.53,2.18-1.17,3.14-1.88,2.83-3.76,6.26-3.39,9.31.31,2.47,2,3.9,3.66,5.09,5.17,3.74,10.76,7,17.24,7.55a10.29,10.29,0,0,0,4.71-.55,8.18,8.18,0,0,0,4.16-3.76c1.89-3.63.63-7.69,1.72-11.59,3.38,3.07,7.12,5.94,11.74,6.11a8.69,8.69,0,0,0,5.49-1.59,14,14,0,0,0,4.55-6.89,27.86,27.86,0,0,0,1.14-8.16,60.62,60.62,0,0,1-6.1,7.5,7.8,7.8,0,0,1-2.14,1.73,4.36,4.36,0,0,1-2.48.24,16.94,16.94,0,0,1-8.26-3.38c-.7-.53-1.5-1.14-2.43-.71a3.26,3.26,0,0,0-1.1,1c-1.26,1.63-1.81,3.76-2.45,5.75s-1.56,4.16-3.11,5.23c-1.91,1.33-3.88.45-5.61-.24-3.68-1.45-7.79-1.87-11.28-3.74a8.69,8.69,0,0,1-4.42-4.92,9.29,9.29,0,0,1,1.36-8.07c.7-.91,1.56-1.62,2.23-2.55s1.15-2.29.74-3.14-1.45-.81-2.36-.59c-3.13.76-6.77,2.68-9,.69-1.26-1.13-1.64-3.24-1.94-5.26a24.85,24.85,0,0,1-.36-4.27c0-1.2.64-2.89.47-3.94A67.68,67.68,0,0,0,293.88,98.46Z" transform="translate(-5.3 -7.59)"/><path class="cls-14" d="M354.51,95.53A8.69,8.69,0,0,0,346,91l-1.13-1.9s4.87-1.46,6.41-6.07c1.44-4.3-4.47-12.07-21.87-17.09-10.52-3-10.95,11.59-10.95,11.59l-2.25,2.6s-3.4-5-8-3.88-13.16,11.55-12.2,22.34,13.74,2.79,13.74,2.79l0,3.2s-6.88,5.76-5.06,11.52,18.38,12.3,24.13,11,5.46-12.79,5.46-12.79l3.32.5s7.54,7.62,14.47,2.14S357.73,100.93,354.51,95.53Zm-5.45,18.25c-5.74,4.54-11.9-4.67-11.9-4.67l-4.63,1s.25,9.5-4.52,10.61-18.5-4.31-20-9.09,6.41-9.48,6.41-9.48l-2.17-4.67s-10.63,8.58-11.42-.37,5.24-17.17,9.06-18.11,7.52,6,7.52,6l3.71-4.65S319.8,67.5,328.52,70c14.43,4.16,20,10.88,18.14,14.17-1.92,3.44-3.74,4.32-4.55,4.51h0L342,93.32s6.57-1.78,9.25,2.7S354.8,109.23,349.06,113.78Z" transform="translate(-5.3 -7.59)"/><path class="cls-12" d="M417.74,231.9c-3,3.56-5.26,7.89-7.48,12.15a4.11,4.11,0,0,0-.45,1.14,2.14,2.14,0,0,0,.23,1.32,5.34,5.34,0,0,0,3,2.44,1.33,1.33,0,0,0,.79.14c.68-.13,1.2-1,1.52-1.85,1.81-4.57,1.34-9.83,4-13.92.46-.72,3.7-3.3,2.79-3.87C421.5,229,418.24,231.3,417.74,231.9Z" transform="translate(-5.3 -7.59)"/><path class="cls-12" d="M447.43,242.74c1.05,1.46.65,4,.08,6.29-.51,2-1.13,4-1.84,6a7.14,7.14,0,0,1-.7,1.54,3.54,3.54,0,0,1-2.4,1.56,6.24,6.24,0,0,1-2.44-.25,1.57,1.57,0,0,1-.95-.49,2.12,2.12,0,0,1-.08-1.86,7.68,7.68,0,0,1,1-1.86,45,45,0,0,1,6.63-7.81,1.54,1.54,0,0,1,.88-.5.47.47,0,0,1,.32.74Z" transform="translate(-5.3 -7.59)"/><path class="cls-13" d="M423.84,282.7a4.1,4.1,0,0,0-1,2.27,1.84,1.84,0,0,0,.57,1.19,4.79,4.79,0,0,0,2.3,1.35,1.38,1.38,0,0,0,1.05-.08,3.11,3.11,0,0,0,1.08-1.5,41,41,0,0,0,2.76-8.48c.29-1.35-.82-4.79-2.27-2.75a41.87,41.87,0,0,0-1.92,4A37.77,37.77,0,0,1,423.84,282.7Z" transform="translate(-5.3 -7.59)"/><path class="cls-13" d="M409.74,271.3a4.47,4.47,0,0,1-.29,1,5.29,5.29,0,0,1-.68.93,14.59,14.59,0,0,0-2.67,4.86,2.78,2.78,0,0,1-.44,1,1.29,1.29,0,0,1-.66.4c-1.42.4-2.45-1.13-2.39-2.85a11.34,11.34,0,0,1,1.81-5.08,37.54,37.54,0,0,1,2.56-3.83c.59-.78,2.49-2.32,3.37-2.28C412.21,265.51,410,269.92,409.74,271.3Z" transform="translate(-5.3 -7.59)"/><path class="cls-13" d="M405,248c3.38-.35,6.23,2.29,6.71,6.22l4.41-2.92c.86-2.89,1.74-6,1.1-8.55-.31-1.24-.84-2.86.15-3.85.3-.3.13.74.47.64a12.39,12.39,0,0,1,6.49.13,30.24,30.24,0,0,1,15.83,9.8,2.74,2.74,0,0,1,.83,2.33c-.3,1.52-1.57,1.07-2.51.4-1.23,2.35-2.45,4.7-3.68,7l1.44,3.17a6.66,6.66,0,0,1,9.43,2.4c1.84,3.31,1.6,8.42-.3,12.82-.42,1-.89,2.33-.25,2.77a.94.94,0,0,0,.76.08c2.43-.48,4.42-3.74,5.32-6.73a19,19,0,0,0,.19-11.12,10.24,10.24,0,0,0-5.91-6.7,21.41,21.41,0,0,0-4.16-.91c-.44-.08-.94-.21-1-.74-.13-.71.53-1.48,1.11-2,1.67-1.53,3.5-3.36,4-5.67.57-2.83-1.15-4.82-2.81-6.19a40.08,40.08,0,0,0-18-8.76,8.26,8.26,0,0,0-3.54-.07,5.6,5.6,0,0,0-3.36,2.43c-1.67,2.64-.92,6-2,8.93a4.08,4.08,0,0,1-.86,1.47,1.92,1.92,0,0,1-2.35.32,10.63,10.63,0,0,1-1.77-1.6,5.84,5.84,0,0,0-6.55-.66,12.25,12.25,0,0,0-5.66,6.36c-.25.61-1.22,3.37-.19,3.38.35,0,1-1,1.29-1.28a12.66,12.66,0,0,1,1.54-1.32A8.29,8.29,0,0,1,405,248Z" transform="translate(-5.3 -7.59)"/><path class="cls-12" d="M390.57,262.22a13.91,13.91,0,0,0-1,4.42,5.57,5.57,0,0,0,1.94,4.28c3,2.55,7.5,1.6,11.62.57.18,1-.53,2.18-1.17,3.14-1.88,2.83-3.76,6.26-3.38,9.31.3,2.47,2,3.89,3.66,5.08,5.16,3.75,10.76,7,17.24,7.56a10.32,10.32,0,0,0,4.71-.55,8.28,8.28,0,0,0,4.16-3.77c1.89-3.62.63-7.68,1.72-11.58,3.37,3.07,7.11,5.94,11.73,6.1a8.56,8.56,0,0,0,5.49-1.59,13.88,13.88,0,0,0,4.55-6.89,27.47,27.47,0,0,0,1.14-8.15,60.51,60.51,0,0,1-6.1,7.49,7.58,7.58,0,0,1-2.13,1.73,4.37,4.37,0,0,1-2.48.25,17,17,0,0,1-8.26-3.38c-.7-.54-1.51-1.15-2.43-.71a3.29,3.29,0,0,0-1.11,1,18.41,18.41,0,0,0-2.44,5.75c-.64,2-1.56,4.16-3.12,5.23-1.91,1.33-3.87.45-5.61-.24-3.68-1.46-7.79-1.88-11.27-3.75a8.75,8.75,0,0,1-4.43-4.91,9.31,9.31,0,0,1,1.37-8.07c.69-.92,1.55-1.62,2.23-2.56s1.14-2.28.74-3.13-1.46-.81-2.36-.59c-3.14.76-6.78,2.68-9,.69-1.25-1.13-1.64-3.25-1.94-5.26a25.92,25.92,0,0,1-.36-4.28c0-1.19.65-2.88.47-3.93A68.22,68.22,0,0,0,390.57,262.22Z" transform="translate(-5.3 -7.59)"/><path class="cls-14" d="M451.19,259.29a8.69,8.69,0,0,0-8.47-4.55l-1.13-1.91s4.87-1.46,6.42-6.07c1.44-4.29-4.48-12.06-21.88-17.08-10.51-3-10.94,11.58-10.94,11.58l-2.25,2.61s-3.4-5-8-3.88-13.16,11.54-12.21,22.34,13.75,2.79,13.75,2.79l0,3.2s-6.88,5.76-5.06,11.52,18.37,12.3,24.13,11S431,278,431,278l3.33.49s7.54,7.62,14.46,2.15S454.42,264.69,451.19,259.29Zm-5.45,18.24c-5.74,4.54-11.9-4.66-11.9-4.66l-4.62,1s.24,9.5-4.53,10.61-18.5-4.32-20-9.1,6.41-9.47,6.41-9.47l-2.17-4.67s-10.63,8.58-11.42-.37,5.25-17.17,9.06-18.11,7.53,6,7.53,6l3.71-4.65s-1.31-12.86,7.4-10.35c14.43,4.17,20,10.89,18.15,14.18s-3.75,4.31-4.56,4.5h0l-.09,4.63s6.57-1.78,9.24,2.7S451.49,273,445.74,277.53Z" transform="translate(-5.3 -7.59)"/><path class="cls-12" d="M228.36,425.76c4.17,2.06,8.92,3.24,13.58,4.38a3.89,3.89,0,0,0,1.21.17,2.14,2.14,0,0,0,1.24-.54,5.41,5.41,0,0,0,1.65-3.51,1.37,1.37,0,0,0,0-.8c-.29-.63-1.3-.92-2.16-1-4.88-.67-9.86,1-14.47-.57-.81-.28-4.09-2.82-4.42-1.8C224.7,422.79,227.66,425.41,228.36,425.76Z" transform="translate(-5.3 -7.59)"/><path class="cls-12" d="M231.85,394.35c1.18-1.38,3.77-1.6,6.09-1.58,2.09,0,4.19.14,6.28.36a7.17,7.17,0,0,1,1.66.32,3.59,3.59,0,0,1,2.09,2,6.17,6.17,0,0,1,.33,2.43,1.64,1.64,0,0,1-.24,1,2.13,2.13,0,0,1-1.8.52,7.53,7.53,0,0,1-2-.56,44.58,44.58,0,0,1-9.16-4.59c-.31-.21-.63-.45-.7-.74A.47.47,0,0,1,235,393Z" transform="translate(-5.3 -7.59)"/><path class="cls-13" d="M276.27,407.79a4,4,0,0,0,2.45.46,1.72,1.72,0,0,0,1-.83,4.73,4.73,0,0,0,.76-2.56,1.34,1.34,0,0,0-.32-1,3.19,3.19,0,0,0-1.71-.69,41.13,41.13,0,0,0-8.9-.67c-1.38,0-4.45,1.93-2.13,2.86a44,44,0,0,0,4.32.92A36.72,36.72,0,0,1,276.27,407.79Z" transform="translate(-5.3 -7.59)"/><path class="cls-13" d="M268.53,424.18a4,4,0,0,1,1,.06,4.73,4.73,0,0,1,1.07.44,14.55,14.55,0,0,0,5.35,1.43,2.67,2.67,0,0,1,1.06.2,1.3,1.3,0,0,1,.55.54c.73,1.29-.52,2.65-2.2,3a11.49,11.49,0,0,1-5.37-.57,36,36,0,0,1-4.33-1.57c-.9-.39-2.84-1.88-3-2.73C262.32,423.16,267.13,424.23,268.53,424.18Z" transform="translate(-5.3 -7.59)"/><path class="cls-13" d="M247,434.28c-1.14-3.21.75-6.6,4.45-8l-3.88-3.59c-3-.15-6.26-.27-8.56,1-1.13.6-2.58,1.49-3.78.76-.36-.22.69-.29.52-.6a12.45,12.45,0,0,1-1.42-6.34,30.21,30.21,0,0,1,5.77-17.7,2.72,2.72,0,0,1,2.06-1.36c1.55-.07,1.41,1.27,1,2.34l7.71,1.91,2.74-2.16a6.64,6.64,0,0,1,.09-9.72c2.78-2.57,7.81-3.56,12.53-2.75,1.05.17,2.47.31,2.75-.41a.94.94,0,0,0-.1-.76c-1-2.25-4.68-3.41-7.81-3.58a19.21,19.21,0,0,0-10.84,2.45,10.25,10.25,0,0,0-5.11,7.34,22.41,22.41,0,0,0,.1,4.25c0,.45,0,1-.47,1.19-.65.3-1.57-.17-2.21-.6-1.87-1.26-4.09-2.6-6.45-2.51-2.88.12-4.4,2.26-5.33,4.2a39.93,39.93,0,0,0-4.25,19.57,8.2,8.2,0,0,0,.77,3.45,5.59,5.59,0,0,0,3.16,2.69c3,1,6-.52,9.15-.17a4.08,4.08,0,0,1,1.63.49,1.94,1.94,0,0,1,.88,2.21,11.2,11.2,0,0,1-1.14,2.09,5.85,5.85,0,0,0,.91,6.53,12.26,12.26,0,0,0,7.52,4c.65.09,3.56.38,3.33-.62-.08-.34-1.2-.74-1.55-.95a12.57,12.57,0,0,1-1.65-1.18A8.43,8.43,0,0,1,247,434.28Z" transform="translate(-5.3 -7.59)"/><path class="cls-12" d="M264.26,445a14.18,14.18,0,0,0,4.52-.11,5.61,5.61,0,0,0,3.71-2.91c1.77-3.49-.23-7.65-2.21-11.42.94-.41,2.24,0,3.33.39,3.19,1.16,7,2.17,9.84,1.08,2.33-.88,3.31-2.88,4.08-4.76,2.41-5.9,4.28-12.12,3.25-18.54a10.35,10.35,0,0,0-1.65-4.44,8.23,8.23,0,0,0-4.65-3.15c-4-1-7.61,1.21-11.66,1.07,2.19-4,4.08-8.32,3.15-12.84a8.58,8.58,0,0,0-2.85-5,13.84,13.84,0,0,0-7.77-2.78,27.46,27.46,0,0,0-8.2.82,59.87,59.87,0,0,1,8.73,4.15,7.8,7.8,0,0,1,2.19,1.66,4.33,4.33,0,0,1,.83,2.35,16.89,16.89,0,0,1-1.33,8.83c-.35.81-.75,1.73-.11,2.53a3.23,3.23,0,0,0,1.22.84c1.87.84,4.07.86,6.16,1s4.41.53,5.82,1.79c1.74,1.54,1.35,3.65,1.1,5.51-.54,3.91,0,8-1,11.84a8.71,8.71,0,0,1-3.72,5.46,9.3,9.3,0,0,1-8.17.59c-1-.46-1.94-1.13-3-1.56s-2.49-.57-3.22,0-.44,1.61,0,2.44c1.48,2.86,4.21,5.94,2.8,8.57-.8,1.49-2.76,2.36-4.65,3.13a25.59,25.59,0,0,1-4.07,1.37c-1.16.26-3,.05-3.93.47A68.69,68.69,0,0,0,264.26,445Z" transform="translate(-5.3 -7.59)"/><path class="cls-14" d="M247,386.76a8.71,8.71,0,0,0-2.42,9.31L243,397.62s-2.57-4.38-7.41-4.79c-4.52-.38-10.66,7.21-11.42,25.3-.45,10.94,13.86,7.89,13.86,7.89l3.06,1.56s-4.06,4.5-1.87,8.69,14.33,10.05,24.6,6.57-.55-14-.55-14l3.11-.73s7.23,5.32,12.39,2.18,7.59-20.76,4.93-26S270,402,270,402l-.31-3.35s5.62-9.13-1.34-14.56S251.52,382.35,247,386.76Zm19,1c5.78,4.5-1.71,12.67-1.71,12.67l2.06,4.26s9.17-2.5,11.38,1.88.2,19-4.08,21.59-10.73-4-10.73-4l-4,3.22s10.85,8.29,2.34,11.18-17.92-1-19.74-4.5,4.07-8.74,4.07-8.74l-5.4-2.5s-12.18,4.32-11.81-4.75c.63-15,5.84-22,9.47-21,3.79,1.05,5.08,2.61,5.46,3.35h0l4.51-1s-3.28-6,.43-9.62S260.28,383.23,266.05,387.73Z" transform="translate(-5.3 -7.59)"/><path class="cls-15" d="M145,322.36c14-1.35,28.18.5,41.87,3.74,7.3,1.73,14.54,3.86,22,4.65,12.62,1.33,25.7-1.21,37.89,2.32,2.54.73,5.17,1.86,6.55,4.11,1.78,2.89.93,6.61,0,9.88-1.64,6-1.42,11.35-3.07,17.32-.39,1.4-4.07,5-8.87,4.71-2.33-.12-12.54,1.54-25.51-11.28-9.87-9.77-31.59-17.26-45-21-6.66-1.85-13.16-4.29-19.93-5.66-18.48-3.75-49.64,16.46-51,10.84C99.52,337.14,128.81,323.91,145,322.36Z" transform="translate(-5.3 -7.59)"/><path class="cls-16" d="M124.92,331.18c16.54-6.92,35.66-5.8,52.61.06,3.72,1.29,7.43,2.81,11.36,3a2.86,2.86,0,0,0,2.33-.65,2.1,2.1,0,0,0-.45-2.84,6,6,0,0,0-3-1.12c-8.17-1.54-16.33-3.08-24.54-4.36-7.86-1.24-15.91-2.24-23.74-.83a59.11,59.11,0,0,0-12.25,3.86c-1.09.45-4.33,1.19-4.74,2.46C122,332.54,123.84,331.63,124.92,331.18Z" transform="translate(-5.3 -7.59)"/><path class="cls-16" d="M197.73,336.07a14,14,0,0,0,2.58.29c4.22.36,7.93,2.89,12,4a5.78,5.78,0,0,0,2.88.21c2.1-.52,3.21-2.8,3.81-4.88a2.44,2.44,0,0,0,.12-1.13,2,2,0,0,0-1.87-1.28,15,15,0,0,0-4,.6c-4.27.81-8.55-.64-12.79-1-.86-.07-3.58-.71-4.28,0C194.86,334.09,196.49,335.73,197.73,336.07Z" transform="translate(-5.3 -7.59)"/><path class="cls-17" d="M257.58,350.38a3,3,0,0,0,2,1.85,3.81,3.81,0,0,0,2-.32,30.36,30.36,0,0,0,5.59-2.71c1.46-.9,2.95-2.08,3.31-3.75-.07.83.78,1.47.9,2.3a2.62,2.62,0,0,1-1.09,2.09,20.16,20.16,0,0,1-9.65,5,3.42,3.42,0,0,0-.94.29,3.38,3.38,0,0,0-.8.8,14.59,14.59,0,0,1-6.76,4.7,1.21,1.21,0,0,1-1.93-.74,17.17,17.17,0,0,1,.45-12.36c.71-1.62,2-4,4-2.7S256.74,348.5,257.58,350.38Z" transform="translate(-5.3 -7.59)"/><path class="cls-15" d="M188.75,226c6.55-12.46,15.85-23.3,26.07-33,5.45-5.16,11.2-10,15.94-15.85,8-9.83,13.07-22.16,22.7-30.43,2-1.72,4.4-3.3,7-3.23,3.39.11,6,2.85,8.27,5.4,4.09,4.64,8.71,7.41,12.8,12.06,1,1.09,1.92,6.12-.91,10-1.38,1.89-5.58,11.33-23.41,15.16-13.59,2.91-31.75,17-42.19,26.14-5.19,4.56-10.79,8.66-15.65,13.57-13.26,13.41-13.43,50.55-18.87,48.58C176.18,272.14,181.17,240.39,188.75,226Z" transform="translate(-5.3 -7.59)"/><path class="cls-16" d="M185.11,247.63c3.28-17.64,14.69-33,28.89-44,3.11-2.4,6.42-4.68,8.73-7.86a2.82,2.82,0,0,0,.74-2.3,2.11,2.11,0,0,0-2.63-1.18,6.08,6.08,0,0,0-2.56,1.86c-5.76,6-11.52,12-17.09,18.14-5.34,5.9-10.59,12.09-13.7,19.41A58.87,58.87,0,0,0,184,244.08c-.22,1.16-1.37,4.27-.54,5.31C184.63,250.86,184.9,248.77,185.11,247.63Z" transform="translate(-5.3 -7.59)"/><path class="cls-16" d="M229.1,189.4a13.88,13.88,0,0,0,1.66-2c2.61-3.34,6.76-5.05,9.92-7.87a5.71,5.71,0,0,0,1.75-2.3c.72-2-.58-4.22-2-5.85a2.38,2.38,0,0,0-.88-.73,2,2,0,0,0-2.09.87,14.49,14.49,0,0,0-1.69,3.68c-1.67,4-5.23,6.8-7.85,10.16-.53.68-2.55,2.61-2.38,3.56C225.88,190.71,228.13,190.25,229.1,189.4Z" transform="translate(-5.3 -7.59)"/><path class="cls-17" d="M273.87,147.17a3,3,0,0,0,2.63-.64,3.81,3.81,0,0,0,.85-1.88,30.49,30.49,0,0,0,.8-6.16c0-1.72-.13-3.61-1.33-4.83.65.52,1.66.16,2.42.52a2.58,2.58,0,0,1,1.15,2A20.06,20.06,0,0,1,279.28,147a3.16,3.16,0,0,0-.27.94,3.07,3.07,0,0,0,.24,1.11,14.59,14.59,0,0,1,.22,8.23c-.14.53-.38,1.13-.91,1.27a1.55,1.55,0,0,1-.77-.06,17.14,17.14,0,0,1-10.09-7.15c-1-1.47-2.3-3.88-.06-4.83S271.83,146.84,273.87,147.17Z" transform="translate(-5.3 -7.59)"/><path class="cls-15" d="M357,215.85c8.58,11.16,14.55,24.13,19.09,37.46,2.41,7.1,4.46,14.36,7.76,21.09,5.58,11.4,14.69,21.13,18.18,33.33.73,2.54,1.17,5.37,0,7.74-1.51,3-5.11,4.29-8.35,5.27-5.93,1.77-10.38,4.82-16.31,6.6-1.4.42-6.36-.81-8.71-5-1.13-2-8-9.8-4-27.6,3-13.56-2.18-35.94-6.16-49.25-2-6.62-3.37-13.42-5.81-19.88C346,208,312.35,192.31,316.4,188.19,320.28,185.18,347.05,203,357,215.85Z" transform="translate(-5.3 -7.59)"/><path class="cls-16" d="M338.83,203.52c14.65,10.33,23.87,27.12,27.91,44.59.89,3.83,1.58,7.79,3.5,11.22A2.87,2.87,0,0,0,372,261a2.12,2.12,0,0,0,2.17-1.9,6.16,6.16,0,0,0-.63-3.1c-3-7.73-6.08-15.46-9.35-23.1-3.14-7.31-6.57-14.66-11.92-20.55a59.3,59.3,0,0,0-9.78-8.32c-1-.69-3.32-3-4.61-2.71C336.09,201.73,337.88,202.84,338.83,203.52Z" transform="translate(-5.3 -7.59)"/><path class="cls-16" d="M373.4,267.79a14.33,14.33,0,0,0,1.12,2.34c1.94,3.76,1.78,8.24,3,12.29a5.77,5.77,0,0,0,1.36,2.56c1.56,1.5,4.08,1.23,6.15.63a2.36,2.36,0,0,0,1-.5,2,2,0,0,0,.09-2.26,14.86,14.86,0,0,0-2.65-3.08c-2.95-3.19-4-7.58-5.95-11.36-.4-.77-1.31-3.41-2.25-3.65C373.55,264.31,373,266.55,373.4,267.79Z" transform="translate(-5.3 -7.59)"/><path class="cls-17" d="M393.1,326.08a3,3,0,0,0-.52,2.67,3.83,3.83,0,0,0,1.36,1.55,30.17,30.17,0,0,0,5.26,3.3c1.55.75,3.33,1.39,4.95.8-.75.38-.84,1.45-1.48,2a2.67,2.67,0,0,1-2.35.19,20.06,20.06,0,0,1-9.36-5.52,3.27,3.27,0,0,0-.75-.64,3.39,3.39,0,0,0-1.1-.25,14.71,14.71,0,0,1-7.58-3.22c-.42-.35-.86-.83-.76-1.37a1.51,1.51,0,0,1,.36-.67,17.11,17.11,0,0,1,10.71-6.18c1.75-.27,4.49-.48,4.42,2C396.2,323,394.25,324.37,393.1,326.08Z" transform="translate(-5.3 -7.59)"/><path class="cls-18" d="M170.18,215.23c1.7,7.72.45,15.77-1.45,23.45-1.27,5.15-2.88,10.34-6,14.65-2.33,3.22-5.43,5.85-7.59,9.19-.63,1-1.19,2.21-.7,3.27a3,3,0,0,0,2,1.43c3.16.87,6.58-.68,8.84-3s3.6-5.45,4.89-8.46q5-11.73,10-23.47a29.1,29.1,0,0,0,2.28-6.88c1.13-7.29-3.25-15.34.29-21.81,2.22-4.08,6.87-6,10.94-8.28a68.53,68.53,0,0,0,12.51-9c3.17-2.84,6.23-6,7.78-10s1.28-8.89-1.65-12c-3.36,5-7.53,9.55-12.91,12.17s-12.11,3-17.18-.2c-3.74-2.35-6.24-6.33-10-8.58s-10.1-1.47-10.88,2.87c-.63,3.51,1,6.33-1.09,9.7-1.52,2.5-4.28,4-6.77,5.42-2.12,1.18-9.91,3.36-9.82,6.52.13,4.43,12.58,5.35,15.55,7.06C165,202.57,168.79,208.85,170.18,215.23Z" transform="translate(-5.3 -7.59)"/><path class="cls-18" d="M366.64,115.32c1,2.74,3.39,4.66,5.34,6.82a25.48,25.48,0,0,1,6.48,17.71c-.16,4.84-1.72,9.52-3.41,14.06s-3.66,9.21-6.63,13.13c-7.95,10.5-21.79,14.37-34.74,16.76-2.1.38-4.76,1.37-4.7,3.51,0,2.36,3.21,3,5.57,3.19a38.65,38.65,0,0,1,28.32,15.77c1.84,2.55,3.41,5.38,5.91,7.28s6.35,2.53,8.66.4c1.77-1.63,2.09-4.36,1.56-6.71s-1.74-4.48-2.65-6.7c-3.36-8.25-1.56-19.16,6-23.8,8-4.92,19.69-1.64,26.78-7.87a11.5,11.5,0,0,0,3.95-9.29,9.77,9.77,0,0,0-5.68-8.17c-4.7-2-10.76.16-14.8-2.95-3.28-2.53-3.57-7.26-4-11.38a66.45,66.45,0,0,0-3.19-14.89,26.3,26.3,0,0,0-5.41-10C376.24,108.22,363.15,105.77,366.64,115.32Z" transform="translate(-5.3 -7.59)"/><path class="cls-18" d="M288.89,173.44c.31,2.07,1,4.32,0,6.15a7.34,7.34,0,0,1-3.43,2.68,150.46,150.46,0,0,1-16.83,7.08c-3.46,1.21-7,2.33-10,4.47s-5.35,5.53-5.19,9.2a4.49,4.49,0,0,0,1.94,3.8,4.2,4.2,0,0,0,2.07.47c3.43,0,6.25-2.56,9.4-3.91s8-.54,8.35,2.87c.12,1.18-.38,2.36-.21,3.54.46,3.3,5,3.75,8.31,3.53,19.31-1.27,40.19,5.76,50.91,21.86,1.26,1.9,2.91,4.19,5.17,3.88,1.55-.21,2.65-1.62,3.23-3.07,1.76-4.41,0-9.61-3.16-13.17s-7.47-5.82-11.69-8l-24.57-12.75c-2.11-1.09-4.3-2.26-5.64-4.22-3.12-4.58-.1-10.86,3.65-14.94,1.55-1.68,3.29-3.36,3.82-5.58.74-3.1-1.1-6.17-2.86-8.83a18.25,18.25,0,0,0-4.33-5.07c-1.83-1.29-4.36-1.84-6.32-.77C289.08,163.93,288.53,171,288.89,173.44Z" transform="translate(-5.3 -7.59)"/><path class="cls-18" d="M222.26,226.72c-2.7,2-4.58,4.92-6.26,7.83a100.63,100.63,0,0,0-10.39,25.75c-1.9,7.56-3.27,16-9.14,21.1a16.41,16.41,0,0,1-12.92,3.83c-3.84-.54-7.37-2.44-11.19-3.12s-8.48.4-10,3.95.7,8.44-1.77,11.54c-1.45,1.82-4.11,2.35-5.51,4.21-2.27,3,.36,7.65,3.92,8.94s7.47.42,11.22,0a48.62,48.62,0,0,1,18.56,1.38c1.75.48,4,.89,5-.58,1.43-2-1.21-4.42-3.48-5.4s-5-3.06-3.92-5.26a4,4,0,0,1,1.31-1.34c7.75-5.43,20.1-2,24,6.63a13.18,13.18,0,0,0,2,3.77c2.13,2.32,5.81,1.95,8.9,1.4,1.47-.26,3.21-.75,3.62-2.19a3.66,3.66,0,0,0-.8-2.9c-3.81-5.75-10.94-9.19-13.27-15.7-1.64-4.58-.48-9.72,1.52-14.17s4.78-8.5,6.59-13c1.91-4.78,2.74-10.09,5.74-14.28s9.42-6.65,13.31-3.27c1.08.93,1.84,2.22,3,3,2.18,1.45,5.25.79,7.27-.86s3.22-4.09,4.28-6.48c1.49-3.36,2.84-6.79,4-10.26,1-3,1.66-6.95-.9-8.82-2.28-1.66-5.57-.37-7.65,1.54s-3.69,4.42-6.2,5.7c-4.21,2.15-7-.5-10-2.8C229.6,224.18,226.52,223.54,222.26,226.72Z" transform="translate(-5.3 -7.59)"/><path class="cls-18" d="M328.71,286c-4.12,1.15-8.49.8-12.75,1.05s-8.82,1.3-11.66,4.5c-4.5,5.08-2.89,13.26-6.32,19.12-2.62,4.46-7.66,6.78-12.26,9.15-2.66,1.37-5.66,3.53-5.37,6.52.31,3.3,4.37,4.74,7.69,4.82a28.62,28.62,0,0,0,18.65-6.42c5.74-4.71,10.78-12.16,18.19-11.67,4.87.31,8.66,4.09,12.74,6.77s10.22,4.05,13.32.29c2.38-2.88,1.58-7.21,0-10.59s-3.84-6.6-4.1-10.32c-.36-5.2,3.25-9.75,4.79-14.73s1.05-10.82-1.71-15.16c-1.81-2.85-5.65-6-8.33-2.73-1.73,2.14-.76,7.21-1.77,9.82C338,281.06,333.47,284.64,328.71,286Z" transform="translate(-5.3 -7.59)"/><path class="cls-18" d="M301.74,409c.66,9.2-6.48,16.85-12.7,23.66a6.69,6.69,0,0,0-1.64,2.45c-.89,2.88,2.56,5.58,5.55,5.21s5.36-2.62,7.49-4.76c6.77-6.81,13.91-13.87,23.08-16.71,9.44-2.93,19.66-.94,29.51-1.86,2.29-.22,5.27-1.57,4.69-3.79-.33-1.28-1.75-1.93-3-2.27-5.42-1.45-11.15-.6-16.76-.67s-11.77-1.4-15.15-5.88c-5.13-6.79-3.42-22.46-16.26-20.06C294.66,386.56,301.21,401.66,301.74,409Z" transform="translate(-5.3 -7.59)"/><path class="cls-18" d="M393.53,352.16c3.84,3.88,4.81,9.78,4.63,15.24s-1.31,10.9-.88,16.35c.19,2.49,1,5.31,3.25,6.36,2,.91,4.33.1,6.25-.94a27.9,27.9,0,0,0,14-19.73c.82-5,.27-10.25,2.13-14.94,1.42-3.61,4.14-6.54,6.22-9.82a40.86,40.86,0,0,0,5.5-15.9c.7-4.69.76-9.79-1.77-13.8s-8.42-6.15-12.2-3.28c-3.19,2.42-3.55,7.06-3.07,11s1.51,8.13.12,11.88c-1.45,3.91-5.32,6.52-9.36,7.56a33.75,33.75,0,0,1-10.52.59c-2-.13-5.95-1.6-7.75-1.09C383.4,343.54,391.05,349.68,393.53,352.16Z" transform="translate(-5.3 -7.59)"/><path class="cls-18" d="M112.65,348.82c-4,2.41-7,7.07-5.89,11.57s5.3,7,8.35,10.33c5,5.45,6.92,13.07,8,20.42s1.54,14.92,4.45,21.75,9,12.94,16.4,13.31c2.38.11,5-.51,6.39-2.46,2.44-3.45-.47-8-3.11-11.34-6.68-8.38-12.41-18.07-13.33-28.74s4.06-22.41,13.86-26.75c4.9-2.17,10.53-2.37,15.3-4.83a5.47,5.47,0,0,0,2.45-2.1c1.5-2.8-1.92-6-5.1-6.07s-6.06,1.74-9.16,2.46c-10.32,2.41-4.87-11.41-12.6-7.29-3.68,2-6,4.4-10.25,5.43C123.06,345.83,117.5,345.88,112.65,348.82Z" transform="translate(-5.3 -7.59)"/><path class="cls-18" d="M183.8,428.77a210.86,210.86,0,0,0-35.4,10.37c-1.21.48-2.55,1.11-2.93,2.35-.73,2.44,2.73,3.91,5.27,3.73,7.29-.5,13.82-4.66,21-6.19,6.28-1.34,12.79-.61,19.16.12,12.61,1.45,25.53,3,36.85,8.73,2.49,1.26,5.71,2.65,7.8.8s1-5.51-1.05-7.5c-5.41-5.35-15.43-5.67-18.45-12.65-1.22-2.83-.89-6-.53-9.11.61-5.17,1.5-10.41,1.77-15.6-4.07,4.66-4.39,11.57-8.95,15.9C202,425.74,192,427.13,183.8,428.77Z" transform="translate(-5.3 -7.59)"/><path class="cls-19" d="M82.18,176.82c-2.24,6.11-1.57,12.83-1.33,19.33a96.48,96.48,0,0,1-2.42,27C75.66,234.26,70.36,244.62,67,255.6s-4.72,23.33.35,33.64c.31.63.74,1.32,1.43,1.42a2.13,2.13,0,0,0,1.72-.88c3.33-3.59,4.44-8.72,4.64-13.61s-.39-9.8.14-14.67c1.3-12,9.11-22.19,13-33.62,3-8.71,3.58-18,5.39-27s5.12-18.25,12.09-24.26c4.91-4.24,11.34-6.61,15.63-11.47a6.81,6.81,0,0,0,1.87-3.47,5.29,5.29,0,0,0-3-5.12c-6.81-3.5-14.57,2.78-20.41,5.69C92.38,165.9,85.31,168.32,82.18,176.82Z" transform="translate(-5.3 -7.59)"/><path class="cls-19" d="M146.48,106.33A39,39,0,0,1,142,116.74c-1,1.69-2.28,3.53-2,5.5.39,2.6,3.5,4.13,6.07,3.56s4.56-2.62,5.94-4.86c3.59-5.8,4.09-13,6.86-19.19A45.15,45.15,0,0,1,165,92.22c3.55-4.46,7.67-8.78,13-10.75,2.52-.92,5.2-1.28,7.79-2,6.92-1.84,13-6,19.75-8.38,22.12-7.7,47.43,5.11,69.62-2.39,1.38-.47,2.91-1.21,3.23-2.63.56-2.55-3-3.78-5.63-3.84-21.37-.5-42.72,1.29-64.09,2.08-9.06.33-18.21.49-27,2.67a59.52,59.52,0,0,0-23.8,12.75C149.46,87,149.17,96.41,146.48,106.33Z" transform="translate(-5.3 -7.59)"/><path class="cls-20" d="M261.09,82.29l6.48,5.85a2,2,0,1,0,2.79-2.79l-6.48-5.85a2,2,0,0,0-2.79,2.79Z" transform="translate(-5.3 -7.59)"/><path class="cls-20" d="M286.14,72.84c-.28,1.62-.55,3.24-.83,4.86a2.16,2.16,0,0,0,.2,1.52,2,2,0,0,0,1.18.91,2,2,0,0,0,1.52-.2,1.89,1.89,0,0,0,.91-1.18c.27-1.62.55-3.24.82-4.86a2.11,2.11,0,0,0-.2-1.52,2,2,0,0,0-2.7-.71,1.91,1.91,0,0,0-.9,1.18Z" transform="translate(-5.3 -7.59)"/><path class="cls-20" d="M284,94.23q-1.83,5.37-3.68,10.74a2,2,0,0,0,1.38,2.43,2,2,0,0,0,2.43-1.38l3.68-10.74a2,2,0,0,0-1.38-2.43A2,2,0,0,0,284,94.23Z" transform="translate(-5.3 -7.59)"/><path class="cls-20" d="M274.56,114.15c-.7,2.5-1.4,5-2.09,7.51a2,2,0,1,0,3.8,1q1.05-3.75,2.09-7.52a2,2,0,1,0-3.8-1Z" transform="translate(-5.3 -7.59)"/><path class="cls-20" d="M291.19,125.94c-.41,1.77-.82,3.55-1.22,5.32a2.11,2.11,0,0,0,.19,1.52,2,2,0,0,0,1.18.91,2,2,0,0,0,2.43-1.38c.41-1.77.81-3.55,1.22-5.32a2.06,2.06,0,0,0-.2-1.52,2,2,0,0,0-1.18-.91,2,2,0,0,0-2.42,1.38Z" transform="translate(-5.3 -7.59)"/><path class="cls-20" d="M236.77,150.92a8.94,8.94,0,0,0,5.81-1.33,2.07,2.07,0,0,0,.91-1.18,2,2,0,0,0-2.9-2.23,6.94,6.94,0,0,1-1.08.57l.47-.2a7.3,7.3,0,0,1-1.79.49l.52-.07a7.41,7.41,0,0,1-1.94,0,2,2,0,0,0-2,2,2,2,0,0,0,.58,1.4l.4.31a2,2,0,0,0,1,.27Z" transform="translate(-5.3 -7.59)"/><path class="cls-20" d="M223.59,165.57c.18,1.43.37,2.85.56,4.28a2.21,2.21,0,0,0,.58,1.4,2,2,0,0,0,1.39.57,2,2,0,0,0,1.4-.57,2,2,0,0,0,.58-1.4l-.57-4.28a2.21,2.21,0,0,0-.58-1.4,2,2,0,0,0-1.39-.58,2,2,0,0,0-1.39.58,1.87,1.87,0,0,0-.58,1.4Z" transform="translate(-5.3 -7.59)"/><path class="cls-20" d="M178.26,132.26l1.61,2.68a2.1,2.1,0,0,0,1.18.91,1.52,1.52,0,0,0,.79,0,1.46,1.46,0,0,0,.73-.23,2,2,0,0,0,.71-2.7l-1.61-2.68a2.07,2.07,0,0,0-1.18-.91,1.48,1.48,0,0,0-.78,0,1.5,1.5,0,0,0-.74.23,2,2,0,0,0-.9,1.18,2.06,2.06,0,0,0,.19,1.52Z" transform="translate(-5.3 -7.59)"/><path class="cls-20" d="M181.81,143.59c.19,1.43.37,2.86.55,4.29a2.16,2.16,0,0,0,.58,1.39,2,2,0,0,0,1.4.58,2,2,0,0,0,1.39-.58,1.9,1.9,0,0,0,.58-1.39c-.18-1.43-.37-2.86-.55-4.29a1.54,1.54,0,0,0-.17-.76,1.47,1.47,0,0,0-.41-.63,2,2,0,0,0-1.39-.58,2,2,0,0,0-1.4.58,1.89,1.89,0,0,0-.58,1.39Z" transform="translate(-5.3 -7.59)"/><path class="cls-20" d="M137.78,147.89l-.54,4.82a2,2,0,0,0,.58,1.4,2,2,0,0,0,1.39.57,2,2,0,0,0,1.4-.57c.1-.14.2-.27.31-.4a2,2,0,0,0,.27-1l.53-4.82a1.94,1.94,0,0,0-.57-1.4,2.05,2.05,0,0,0-1.4-.58,2,2,0,0,0-1.39.58l-.31.4a2,2,0,0,0-.27,1Z" transform="translate(-5.3 -7.59)"/><path class="cls-20" d="M142.71,164a6.92,6.92,0,0,0,.58,1.47,7.64,7.64,0,0,0,.88,1.28,5.23,5.23,0,0,0,.78.78,7.75,7.75,0,0,0,1.31.89,2.17,2.17,0,0,0,1.52.2,2,2,0,0,0,1.38-2.43,2,2,0,0,0-.91-1.18,5.5,5.5,0,0,1-.83-.52l.4.31a5.12,5.12,0,0,1-.93-.93l.31.4a5.49,5.49,0,0,1-.67-1.14l.2.47a5,5,0,0,1-.22-.65,2,2,0,0,0-2.43-1.38,2.06,2.06,0,0,0-1.18.91,2.11,2.11,0,0,0-.19,1.52Z" transform="translate(-5.3 -7.59)"/><path class="cls-20" d="M123.07,184.43l4.83-2.67a2,2,0,1,0-2-3.41L121.08,181a2,2,0,0,0-.71,2.7,2,2,0,0,0,2.7.7Z" transform="translate(-5.3 -7.59)"/><path class="cls-20" d="M132.24,168l3.75-.58a1.95,1.95,0,0,0,1.37-2.42,2,2,0,0,0-.9-1.18l-.47-.2a1.88,1.88,0,0,0-1.05,0l-3.75.57a2,2,0,0,0-1.18.91,2.06,2.06,0,0,0-.2,1.52,2,2,0,0,0,.91,1.18l.47.2a2.08,2.08,0,0,0,1.05,0Z" transform="translate(-5.3 -7.59)"/><path class="cls-20" d="M98.1,197.73c0,.28-.06.56-.1.84l.07-.53a25.71,25.71,0,0,1-1.41,5.62,2,2,0,0,0,.2,1.52,2,2,0,0,0,1.18.91,2,2,0,0,0,1.52-.2,2.24,2.24,0,0,0,.91-1.18,28.27,28.27,0,0,0,1.58-7,2,2,0,0,0-.58-1.4,2,2,0,0,0-2.79,0,2.32,2.32,0,0,0-.58,1.4Z" transform="translate(-5.3 -7.59)"/><path class="cls-20" d="M66.52,306a30.76,30.76,0,0,0,.62,8.56,2,2,0,0,0,2.43,1.38A2,2,0,0,0,71,313.5a16.58,16.58,0,0,1-.36-2c0,.52,0,0,0-.09s0-.31,0-.46c0-.34-.06-.67-.08-1a29.07,29.07,0,0,1,0-4,2,2,0,0,0-2-2,2,2,0,0,0-2,2Z" transform="translate(-5.3 -7.59)"/><path class="cls-20" d="M77.6,312.29l2,3.81a2,2,0,0,0,3.61-.47,2.18,2.18,0,0,0-.2-1.52c-.68-1.27-1.36-2.54-2-3.81a2,2,0,0,0-3.61.47,2.12,2.12,0,0,0,.2,1.52Z" transform="translate(-5.3 -7.59)"/><path class="cls-20" d="M79.08,339.16c.7.9,1.4,1.81,2.09,2.72a1.59,1.59,0,0,0,.51.55,1.45,1.45,0,0,0,.67.35,1.42,1.42,0,0,0,.79,0,1.46,1.46,0,0,0,.73-.23,2,2,0,0,0,.91-1.18c0-.18,0-.35.07-.53a1.91,1.91,0,0,0-.27-1c-.69-.91-1.39-1.82-2.09-2.72a1.45,1.45,0,0,0-.51-.56,1.8,1.8,0,0,0-1.45-.39,1.51,1.51,0,0,0-.74.24,2,2,0,0,0-.9,1.18c0,.17,0,.35-.07.52a2,2,0,0,0,.26,1Z" transform="translate(-5.3 -7.59)"/><path class="cls-20" d="M99.56,351.91c2.54,0,2.55-3.94,0-3.94s-2.54,3.94,0,3.94Z" transform="translate(-5.3 -7.59)"/><path class="cls-20" d="M101.91,370.84q1.4,5.07,2.78,10.15a2,2,0,1,0,3.81-1.05l-2.79-10.15a2,2,0,1,0-3.8,1Z" transform="translate(-5.3 -7.59)"/><path class="cls-20" d="M173.57,354.38a9,9,0,0,0,9-.65,2.12,2.12,0,0,0,.9-1.18,2,2,0,0,0-2.89-2.23,8.09,8.09,0,0,1-.73.46l-.29.15-.19.09c.3-.13.36-.16.17-.08a8.31,8.31,0,0,1-1.56.4l.52-.07a7.34,7.34,0,0,1-1.93,0l.53.08a7.63,7.63,0,0,1-1-.2l-.41-.13c-.07,0-.38-.16-.06,0s0,0-.06,0a2.12,2.12,0,0,0-1.52-.2,2,2,0,0,0-.48,3.61Z" transform="translate(-5.3 -7.59)"/><path class="cls-20" d="M158.81,338.93a4.44,4.44,0,0,0,1.21.9,5.22,5.22,0,0,0,1.43.52,5.47,5.47,0,0,0,1.51.1,6.61,6.61,0,0,0,1-.17,5.54,5.54,0,0,0,1-.38,1.93,1.93,0,0,0,.9-1.17,2,2,0,0,0-.19-1.52,2,2,0,0,0-1.18-.91l-.53-.07a1.91,1.91,0,0,0-1,.27l-.1,0,.47-.2a3.33,3.33,0,0,1-.82.23l.53-.07a4,4,0,0,1-.91,0l.53.07a3.38,3.38,0,0,1-.88-.24l.48.2a3.36,3.36,0,0,1-.69-.4l.4.3a2.14,2.14,0,0,1-.32-.28,2,2,0,0,0-1.4-.58,2,2,0,0,0-1.39,3.37Z" transform="translate(-5.3 -7.59)"/><path class="cls-20" d="M145.32,308.1a67.55,67.55,0,0,1,4.13-11.86,2,2,0,0,0-.71-2.7,2,2,0,0,0-2.7.71,71.83,71.83,0,0,0-4.52,12.8,2,2,0,1,0,3.8,1.05Z" transform="translate(-5.3 -7.59)"/><path class="cls-20" d="M153.59,286.22l2.75-2.05a1.59,1.59,0,0,0,.55-.51,2,2,0,0,0,.16-2.19,2,2,0,0,0-1.18-.91l-.53-.07a1.94,1.94,0,0,0-1,.27l-2.75,2.06a1.42,1.42,0,0,0-.55.51,1.8,1.8,0,0,0-.39,1.45,1.5,1.5,0,0,0,.23.74,2,2,0,0,0,1.18.9l.53.07a1.91,1.91,0,0,0,1-.27Z" transform="translate(-5.3 -7.59)"/><path class="cls-20" d="M203.58,321.71a11,11,0,0,0,8-.94,2,2,0,0,0,.71-2.7,2,2,0,0,0-2.7-.71c-.22.12-.46.23-.69.34l.47-.2a9.94,9.94,0,0,1-2.33.64l.53-.07a9.33,9.33,0,0,1-2.42,0l.53.07a9.38,9.38,0,0,1-1.08-.22,2,2,0,1,0-1,3.8Z" transform="translate(-5.3 -7.59)"/><path class="cls-20" d="M198.62,308.59a10.53,10.53,0,0,0,4.42,4.54,2.06,2.06,0,0,0,1.52.19,2,2,0,0,0,.47-3.6,8.93,8.93,0,0,1-1.21-.78l.39.31a9.33,9.33,0,0,1-1.57-1.57l.31.4a8.7,8.7,0,0,1-.92-1.48,2.07,2.07,0,0,0-1.18-.91,2,2,0,0,0-2.43,1.38,2.23,2.23,0,0,0,.2,1.52Z" transform="translate(-5.3 -7.59)"/><path class="cls-20" d="M229.86,322.74l4.8,2.19a2.11,2.11,0,0,0,1.52.2,2,2,0,0,0,1.38-2.43,1.93,1.93,0,0,0-.91-1.18l-4.8-2.18a2.12,2.12,0,0,0-1.52-.2,2,2,0,0,0-1.38,2.42,1.93,1.93,0,0,0,.91,1.18Z" transform="translate(-5.3 -7.59)"/><path class="cls-20" d="M260.25,325.82a2.83,2.83,0,0,1,0-.29c0,.18,0,.35-.07.53a2.58,2.58,0,0,1,.17-.62l-.2.47a3.16,3.16,0,0,1,.33-.56l-.31.4a2.45,2.45,0,0,1,.46-.45l-.4.31a1.92,1.92,0,0,1,.5-.29l-.48.2,0,0a1.43,1.43,0,0,0,.68-.35,1.47,1.47,0,0,0,.5-.55,1.41,1.41,0,0,0,.24-.74,1.48,1.48,0,0,0,0-.78,2,2,0,0,0-.9-1.18l-.48-.2a2,2,0,0,0-1,0,5.15,5.15,0,0,0-.79.36,5.37,5.37,0,0,0-.66.49,4.15,4.15,0,0,0-.8.93,4.5,4.5,0,0,0-.52,1.11,2,2,0,0,0-.09.35,8.78,8.78,0,0,0-.1.88,2.21,2.21,0,0,0,.58,1.4,1.48,1.48,0,0,0,.64.4,1.42,1.42,0,0,0,.76.17,2,2,0,0,0,1.39-.57,2.08,2.08,0,0,0,.58-1.4Z" transform="translate(-5.3 -7.59)"/><path class="cls-20" d="M265.28,338.73l5.36,3.76a2,2,0,0,0,1.52.2,2.06,2.06,0,0,0,1.18-.91,2,2,0,0,0,.19-1.52,2.2,2.2,0,0,0-.9-1.18l-5.36-3.76a2,2,0,0,0-2.9,2.23,2.27,2.27,0,0,0,.91,1.18Z" transform="translate(-5.3 -7.59)"/><path class="cls-20" d="M288.39,351v4.82a2,2,0,0,0,2,2,2,2,0,0,0,2-2V351a2,2,0,0,0-.58-1.39,2,2,0,0,0-1.39-.58,2,2,0,0,0-2,2Z" transform="translate(-5.3 -7.59)"/><path class="cls-20" d="M207.85,366.27l5.41,2a2,2,0,0,0,2.23-2.89,2.27,2.27,0,0,0-1.18-.91l-5.41-2a2,2,0,0,0-1.52.2,2,2,0,0,0-.71,2.7,2.26,2.26,0,0,0,1.18.9Z" transform="translate(-5.3 -7.59)"/><path class="cls-20" d="M222.53,376.21c-.73,3-1.45,6.07-2.17,9.1a2,2,0,0,0,3.81,1.05l2.16-9.1a2,2,0,1,0-3.8-1.05Z" transform="translate(-5.3 -7.59)"/><path class="cls-20" d="M220.36,401.18l1.61,1.6a1.41,1.41,0,0,0,.64.41,1.4,1.4,0,0,0,.76.17,2.16,2.16,0,0,0,1.39-.58c.1-.13.21-.26.31-.4a1.91,1.91,0,0,0,.27-1l-.07-.53a1.93,1.93,0,0,0-.51-.87l-1.61-1.6a2.16,2.16,0,0,0-1.39-.58,2.21,2.21,0,0,0-1.4.58l-.3.4a1.89,1.89,0,0,0-.27,1c0,.18,0,.35.07.53a2,2,0,0,0,.5.87Z" transform="translate(-5.3 -7.59)"/><path class="cls-20" d="M246.2,377.06c.79-.68,1.59-1.34,2.4-2l.59-.47.18-.13c-.14.1.15-.12.17-.14.43-.32.85-.65,1.29-1q2.5-1.85,5.15-3.51a2,2,0,1,0-2-3.4,88.52,88.52,0,0,0-10.58,7.81,2,2,0,0,0,0,2.79,2,2,0,0,0,2.79,0Z" transform="translate(-5.3 -7.59)"/><path class="cls-20" d="M280.2,378a14.27,14.27,0,0,0,5.35,2.23,2.11,2.11,0,0,0,1.52-.2,2,2,0,0,0,.91-1.18,2,2,0,0,0-1.38-2.43,12.17,12.17,0,0,1-2.58-.77l.47.2a12.52,12.52,0,0,1-2.3-1.26,2,2,0,0,0-2.9,2.23,2.27,2.27,0,0,0,.91,1.18Z" transform="translate(-5.3 -7.59)"/><path class="cls-20" d="M311.57,369a34.51,34.51,0,0,0,5.79-7.84,2,2,0,1,0-3.41-2,32.11,32.11,0,0,1-2.43,3.86l-.31.42,0,0-.17.21-.7.86c-.51.59-1,1.17-1.59,1.73a2,2,0,1,0,2.79,2.79Z" transform="translate(-5.3 -7.59)"/><path class="cls-20" d="M308.93,345.41a52.4,52.4,0,0,1,3.18-4.75l.2-.26c.18-.24-.19.24,0,0l.47-.58c.29-.37.59-.73.89-1.09.63-.73,1.27-1.45,1.94-2.15a2,2,0,1,0-2.79-2.79,53.79,53.79,0,0,0-7.28,9.63,2,2,0,1,0,3.4,2Z" transform="translate(-5.3 -7.59)"/><path class="cls-20" d="M289.89,307.51l3.78-7.49a2,2,0,1,0-3.41-2l-3.78,7.49a2,2,0,1,0,3.41,2Z" transform="translate(-5.3 -7.59)"/><path class="cls-20" d="M235.16,216.32h5.89a2,2,0,1,0,0-3.95h-5.89a2,2,0,1,0,0,3.95Z" transform="translate(-5.3 -7.59)"/><path class="cls-20" d="M265.19,221a7.67,7.67,0,0,0,1.35.17,7.37,7.37,0,0,0,1.32-.12,6.31,6.31,0,0,0,2.07-.73,2,2,0,0,0-.47-3.61,2.12,2.12,0,0,0-1.52.2l-.45.22.47-.2a5.34,5.34,0,0,1-1.17.32l.52-.07a4.91,4.91,0,0,1-1.27,0l.52.07-.32,0a2.06,2.06,0,0,0-1.52.2,2,2,0,0,0-.91,1.17,2,2,0,0,0,1.38,2.43Z" transform="translate(-5.3 -7.59)"/><path class="cls-20" d="M310.19,186.84c2.54,0,2.54-3.94,0-3.94s-2.54,3.94,0,3.94Z" transform="translate(-5.3 -7.59)"/><path class="cls-20" d="M325.75,185.13a11.79,11.79,0,0,0,5.89-.43,2.15,2.15,0,0,0,1.18-.91,2,2,0,0,0,.2-1.52,2,2,0,0,0-.91-1.18,1.93,1.93,0,0,0-1.52-.2,9.36,9.36,0,0,1-2,.48l.53-.07a10.28,10.28,0,0,1-2.54,0l.53.07-.35-.06a2.17,2.17,0,0,0-1.52.2,2,2,0,0,0-.71,2.7,1.93,1.93,0,0,0,1.18.91Z" transform="translate(-5.3 -7.59)"/><path class="cls-20" d="M412.73,150.59c.67,1.62,1.35,3.24,2,4.87a2.27,2.27,0,0,0,.91,1.18,2,2,0,0,0,1.52.19,2,2,0,0,0,1.18-.9,1.9,1.9,0,0,0,.2-1.52c-.68-1.63-1.35-3.25-2-4.87a2.15,2.15,0,0,0-.91-1.18,2,2,0,0,0-2.7.71,1.89,1.89,0,0,0-.19,1.52Z" transform="translate(-5.3 -7.59)"/><path class="cls-20" d="M395.15,132.85l1.14,3.2a2.09,2.09,0,0,0,.9,1.18,2,2,0,0,0,1.52.2,2,2,0,0,0,1.18-.91,1.93,1.93,0,0,0,.2-1.52c-.38-1.06-.75-2.13-1.13-3.19a2.1,2.1,0,0,0-.91-1.18,2,2,0,0,0-2.7.7,2,2,0,0,0-.2,1.52Z" transform="translate(-5.3 -7.59)"/><path class="cls-20" d="M416.84,135.39c2.54,0,2.54-3.95,0-3.95s-2.54,3.95,0,3.95Z" transform="translate(-5.3 -7.59)"/><path class="cls-20" d="M417.45,136.19l1.61,1.07a1.41,1.41,0,0,0,.74.24,1.39,1.39,0,0,0,.78,0,1.49,1.49,0,0,0,.67-.35,1.42,1.42,0,0,0,.51-.55l.2-.47a2.08,2.08,0,0,0,0-1.05l-.2-.47a1.86,1.86,0,0,0-.71-.71l-1.6-1.07a1.44,1.44,0,0,0-.74-.24,1.39,1.39,0,0,0-.78,0,1.53,1.53,0,0,0-.68.35,1.47,1.47,0,0,0-.5.55c-.07.16-.14.32-.2.48a1.84,1.84,0,0,0,0,1c.06.16.13.32.2.48a2,2,0,0,0,.7.7Z" transform="translate(-5.3 -7.59)"/><path class="cls-20" d="M378.36,232c.31,2.86.61,5.73.92,8.59a2.1,2.1,0,0,0,.58,1.39,2,2,0,0,0,3.36-1.39c-.3-2.86-.61-5.73-.91-8.59a2.2,2.2,0,0,0-.58-1.4,2,2,0,0,0-3.37,1.4Z" transform="translate(-5.3 -7.59)"/><path class="cls-20" d="M389.27,238.5c-.52,1.25-1,2.51-1.57,3.77a2,2,0,0,0,.2,1.52,2,2,0,0,0,1.18.9,2,2,0,0,0,1.52-.2l.4-.31a2,2,0,0,0,.51-.87l1.56-3.77a2,2,0,0,0-.2-1.52,2.05,2.05,0,0,0-1.18-.9,2,2,0,0,0-1.52.2l-.4.31a1.9,1.9,0,0,0-.5.87Z" transform="translate(-5.3 -7.59)"/><path class="cls-20" d="M411.41,306.08a13.28,13.28,0,0,0-1.29,3.92,14.47,14.47,0,0,0,0,4.55,2,2,0,0,0,.9,1.18,2.07,2.07,0,0,0,1.52.2,2,2,0,0,0,1.18-.91,2.28,2.28,0,0,0,.2-1.52c0-.12,0-.24,0-.36,0,.17,0,.35.07.52a11.66,11.66,0,0,1,0-3c0,.17-.05.34-.07.52a11.89,11.89,0,0,1,.39-1.77q.12-.4.27-.81l.09-.22c-.12.28-.14.33-.05.14s.13-.3.2-.44a2,2,0,1,0-3.4-2Z" transform="translate(-5.3 -7.59)"/><path class="cls-20" d="M431.31,301h3.75a2,2,0,0,0,2-2,2,2,0,0,0-.58-1.39,2,2,0,0,0-1.4-.58h-3.75a2,2,0,0,0-2,2,2,2,0,0,0,.58,1.4,2.06,2.06,0,0,0,1.39.58Z" transform="translate(-5.3 -7.59)"/><path class="cls-20" d="M443.9,330.12q-1.31,5.11-2.59,10.21a2,2,0,1,0,3.8,1.05l2.59-10.21a2,2,0,0,0-3.8-1.05Z" transform="translate(-5.3 -7.59)"/><path class="cls-20" d="M434.1,357.54a34.85,34.85,0,0,0-9,12.77,2,2,0,0,0,1.38,2.43,2,2,0,0,0,2.42-1.38,1.47,1.47,0,0,1,.08-.17c.05-.12.1-.24.16-.36s.25-.55.38-.81c.26-.54.53-1.07.83-1.59a31.53,31.53,0,0,1,1.91-3c.15-.22.31-.43.47-.65.38-.51-.11.14.12-.15l.24-.31c.38-.47.77-.92,1.17-1.37a33.58,33.58,0,0,1,2.61-2.59,2,2,0,0,0,0-2.79,2,2,0,0,0-2.79,0Z" transform="translate(-5.3 -7.59)"/><path class="cls-20" d="M356.3,335.12a19.07,19.07,0,0,0,7,2.62,2.11,2.11,0,0,0,1.52-.2,2,2,0,0,0,.91-1.18,2,2,0,0,0-.2-1.52,1.88,1.88,0,0,0-1.18-.9,17.52,17.52,0,0,1-4.07-1.16l.47.2a17.66,17.66,0,0,1-2.44-1.27,2,2,0,1,0-2,3.41Z" transform="translate(-5.3 -7.59)"/><path class="cls-20" d="M389.72,391.2c-1,2.3-1.91,4.6-2.87,6.89a2,2,0,0,0,1.38,2.43,2,2,0,0,0,1.52-.2,2.29,2.29,0,0,0,.91-1.18c.95-2.29,1.91-4.59,2.86-6.89a2,2,0,0,0-1.38-2.42,2,2,0,0,0-1.52.19,2.35,2.35,0,0,0-.9,1.18Z" transform="translate(-5.3 -7.59)"/><path class="cls-20" d="M359.67,416.58,356,420.89a2.12,2.12,0,0,0-.57,1.4,2,2,0,0,0,2,2,1.91,1.91,0,0,0,1.39-.58l3.72-4.31A2.1,2.1,0,0,0,363,418a2,2,0,0,0-.58-1.39,2,2,0,0,0-2.79,0Z" transform="translate(-5.3 -7.59)"/><path class="cls-20" d="M317.72,431.64a10.35,10.35,0,0,0,9.47-1.32,2.13,2.13,0,0,0,.9-1.18,2,2,0,0,0-.2-1.52,2,2,0,0,0-2.69-.7,9.23,9.23,0,0,1-.84.54l-.44.23-.23.11c-.19.08-.15.07.13-.05-.06,0-.39.14-.47.17l-.48.14-.48.12a2.64,2.64,0,0,0-.49.08l.15,0-.25,0c-.16,0-.33,0-.5,0-.33,0-.66,0-1,0l.15,0-.25,0-.48-.1c-.33-.08-.64-.18-1-.29a2,2,0,0,0-2.42,1.37,2,2,0,0,0,1.37,2.43Z" transform="translate(-5.3 -7.59)"/><path class="cls-20" d="M266.78,454.25a21.32,21.32,0,0,0,10.12-2.37,2,2,0,0,0,.7-2.69,2,2,0,0,0-2.7-.71c-.33.17-.68.33-1,.49-.2.09-.19.09,0,0l-.31.12-.45.18a21.07,21.07,0,0,1-2.19.64c-.37.08-.75.16-1.12.22l-.49.08c.52-.05-.19,0-.28,0a19.31,19.31,0,0,1-2.28.08,2,2,0,0,0,0,3.95Z" transform="translate(-5.3 -7.59)"/></svg>